<?xml version="1.0" encoding="utf-8"?>
<!-- Generator: Adobe Illustrator 23.0.1, SVG Export Plug-In . SVG Version: 6.00 Build 0)  -->
<svg version="1.1" id="Capa_1" xmlns="http://www.w3.org/2000/svg" xmlns:xlink="http://www.w3.org/1999/xlink" x="0px" y="0px"
	 viewBox="0 0 425.2 425.2" style="enable-background:new 0 0 425.2 425.2;" xml:space="preserve">
<style type="text/css">
	.st0{fill:#5C7880;}
</style>
<g>
	<path class="st0" d="M212.6,421.6c-115.2,0-209-93.8-209-209s93.8-209,209-209s209,93.8,209,209S327.8,421.6,212.6,421.6z
		 M212.6,15.6c-108.6,0-197,88.4-197,197s88.4,197,197,197s197-88.4,197-197S321.2,15.6,212.6,15.6z"/>
	<path class="st0" d="M352,215.6c0-1-0.2-1.9-0.6-2.7c-0.3-0.8-0.8-1.5-1.5-2.1l-59.5-53.1c-2.5-2.2-6.3-2-8.5,0.5s-2,6.3,0.5,8.5
		l48.1,42.9H84c-3.3,0-6,2.7-6,6s2.7,6,6,6h246.8l-48.4,43.2c-2.5,2.2-2.7,6-0.5,8.5c1.2,1.3,2.8,2,4.5,2c1.4,0,2.8-0.5,4-1.5
		l59.5-53.1c1-0.9,1.6-2.1,1.9-3.3C351.9,216.8,352,216.2,352,215.6z"/>
</g>
</svg>
