<?xml version="1.0" encoding="utf-8"?>
<!-- Generator: Adobe Illustrator 16.0.0, SVG Export Plug-In . SVG Version: 6.00 Build 0)  -->
<!DOCTYPE svg PUBLIC "-//W3C//DTD SVG 1.1//EN" "http://www.w3.org/Graphics/SVG/1.1/DTD/svg11.dtd">
<svg version="1.1" id="Capa_1" xmlns="http://www.w3.org/2000/svg" xmlns:xlink="http://www.w3.org/1999/xlink" x="0px" y="0px"
	 width="145.604px" height="145.604px" viewBox="0 0 145.604 145.604" enable-background="new 0 0 145.604 145.604"
	 xml:space="preserve">
<g>
	<path fill="#D3554A" d="M0,72.803C0,32.675,32.675,0,72.803,0s72.802,32.675,72.802,72.802c0,40.129-32.674,72.803-72.802,72.803
		C32.674,145.605,0,112.931,0,72.803z M4.181,72.802c0,37.828,30.793,68.623,68.622,68.623c37.828,0,68.622-30.795,68.622-68.623
		c0-37.829-30.794-68.622-68.622-68.622C34.974,4.18,4.181,34.973,4.181,72.802z"/>
	<path fill="#D3554A" d="M24.315,74.477c0.104,0.418,0.312,0.836,0.662,1.148l20.728,18.498c0.418,0.347,0.906,0.521,1.395,0.521
		c0.59,0,1.148-0.244,1.566-0.695c0.766-0.869,0.695-2.193-0.176-2.963L31.631,75.938H117.6c1.151,0,2.09-0.941,2.09-2.09
		c0-1.15-0.941-2.09-2.09-2.09H31.734l16.754-14.943c0.871-0.767,0.943-2.09,0.176-2.961s-2.092-0.941-2.961-0.174L24.975,72.178
		c-0.244,0.209-0.417,0.452-0.521,0.73c-0.142,0.276-0.209,0.589-0.209,0.938C24.245,74.056,24.28,74.265,24.315,74.477z"/>
</g>
</svg>
