<?xml version="1.0" encoding="utf-8"?>
<!-- Generator: Adobe Illustrator 22.1.0, SVG Export Plug-In . SVG Version: 6.00 Build 0)  -->
<svg version="1.1" id="圖層_1" xmlns="http://www.w3.org/2000/svg" xmlns:xlink="http://www.w3.org/1999/xlink" x="0px" y="0px"
	 viewBox="0 0 425.2 425.2" style="enable-background:new 0 0 425.2 425.2;" xml:space="preserve">
<style type="text/css">
	.st0{fill:#F6D169;}
	.st1{fill:#5C7880;}
</style>
<g>
	<circle class="st0" cx="228.6" cy="228.6" r="185.5"/>
	<path class="st1" d="M196.6,387.7c-105.3,0-191-85.7-191-191c0-105.3,85.7-191,191-191c105.3,0,191,85.7,191,191
		C387.7,302,302,387.7,196.6,387.7z M196.6,16.6c-99.3,0-180,80.8-180,180c0,99.3,80.8,180,180,180c99.3,0,180-80.8,180-180
		C376.7,97.4,295.9,16.6,196.6,16.6z"/>
	<path class="st1" d="M12.2,386.6c-1.4,0-2.8-0.5-3.9-1.6c-2.1-2.1-2.1-5.6,0-7.8L377.2,8.3c2.1-2.1,5.6-2.1,7.8,0
		c2.1,2.1,2.1,5.6,0,7.8L16.1,385C15,386,13.6,386.6,12.2,386.6z"/>
</g>
</svg>
