<?xml version="1.0" encoding="utf-8"?>
<!-- Generator: Adobe Illustrator 23.0.1, SVG Export Plug-In . SVG Version: 6.00 Build 0)  -->
<svg version="1.1" id="Layer_1" xmlns="http://www.w3.org/2000/svg" xmlns:xlink="http://www.w3.org/1999/xlink" x="0px" y="0px"
	 viewBox="0 0 425.2 425.2" style="enable-background:new 0 0 425.2 425.2;" xml:space="preserve">
<style type="text/css">
	.st0{fill:#5C7880;}
</style>
<g>
	<path class="st0" d="M34.8,187.2c1.3,0.5,2.6,0.8,3.9,0.8c1.5,0,3-0.3,4.3-1l68.6-31.2c2.5-1.2,4.4-3.3,5.3-6
		c0.9-2.6,0.8-5.5-0.4-8c-2.4-5.1-8.4-7.3-13.5-5l-44.5,20.3c11.4-31.8,31.9-58.9,59.3-78.5c28.5-20.4,62.5-31.2,98.2-31.2
		c76.3,0,143,51,162.2,123.9c0.7,2.7,2.4,4.9,4.8,6.3c2.4,1.4,5.2,1.8,7.9,1.1c2.7-0.7,4.9-2.4,6.3-4.8c1.4-2.4,1.8-5.2,1.1-7.9
		C376.7,83.9,301.7,26.5,216,26.5c-40.1,0-78.2,12.1-110.3,35.1c-30.9,22-53.9,52.5-66.8,88.2l-18.5-46.4C18.5,98,12.6,95,7.2,96.8
		c-2.6,0.9-4.8,2.7-6,5.2c-1.3,2.5-1.5,5.3-0.7,7.9c0.1,0.5,0.3,0.9,0.5,1.3l28,70.2C30.1,184,32.2,186.2,34.8,187.2z"/>
	<path class="st0" d="M424.6,314.7l-0.1-0.2l0,0v-0.1l-28.1-70.6c-1.1-2.7-3.2-4.8-5.8-5.8c-2.6-1-5.6-1-8.2,0.2l-68.5,31.2
		c-2.6,1.1-4.6,3.1-5.6,5.7c-1.1,2.6-1.1,5.4,0,8s3.1,4.6,5.7,5.6c2.6,1.1,5.4,1.1,8,0l45.1-20.6c-11.5,31.8-32,58.9-59.5,78.5
		c-28.6,20.4-62.5,31.2-98.1,31.2c-76.3,0-143-51-162.2-123.9c-0.7-2.7-2.4-4.9-4.8-6.3c-2.4-1.4-5.2-1.8-7.9-1.1s-4.9,2.4-6.3,4.8
		c-1.4,2.4-1.8,5.2-1.1,7.9c21.5,82.1,96.5,139.5,182.3,139.5c40.1,0,78.2-12.1,110.3-35.1c30.8-22,53.9-52.5,66.9-88.2l18.5,46.4
		c1,2.6,2.9,4.7,5.4,5.9c2.5,1.2,5.4,1.3,8,0.4C423.7,326.1,426.5,320.1,424.6,314.7z"/>
</g>
</svg>
