<?xml version="1.0" encoding="utf-8"?>
<!-- Generator: Adobe Illustrator 23.0.1, SVG Export Plug-In . SVG Version: 6.00 Build 0)  -->
<svg version="1.1" id="Capa_1" xmlns="http://www.w3.org/2000/svg" xmlns:xlink="http://www.w3.org/1999/xlink" x="0px" y="0px"
	 viewBox="0 0 425.2 425.2" style="enable-background:new 0 0 425.2 425.2;" xml:space="preserve">
<style type="text/css">
	.st0{fill:#D3554A;}
</style>
<path class="st0" d="M212.6,422.1c-115.5,0-209.5-94-209.5-209.5C3.1,97.1,97.1,3.1,212.6,3.1s209.5,94,209.5,209.5
	S328.1,422.1,212.6,422.1z M212.6,16.1c-108.4,0-196.5,88.1-196.5,196.5s88.1,196.5,196.5,196.5S409.1,321,409.1,212.6
	S321,16.1,212.6,16.1z M317.7,105h-13c-36.2,0-65.7,29.5-65.7,65.7v27.7h-22.3c-2.3,0-4.2,1.9-4.2,4.2v33.2c0,2.3,1.9,4.2,4.2,4.2
	H239v101.7c0,2.3,1.9,4.2,4.2,4.2h33.2c2.3,0,4.2-1.9,4.2-4.2V239.9h33c2.3,0,4.2-1.9,4.2-4.2v-33.2c0-2.3-1.9-4.2-4.2-4.2h-33
	v-27.7c0-13.3,10.8-24.2,24.2-24.2h13c2.3,0,4.2-1.9,4.2-4.2V109C321.9,106.9,320,105,317.7,105z"/>
</svg>
