<?xml version="1.0" encoding="utf-8"?>
<!-- Generator: Adobe Illustrator 23.0.1, SVG Export Plug-In . SVG Version: 6.00 Build 0)  -->
<svg version="1.1" id="Capa_1" xmlns="http://www.w3.org/2000/svg" xmlns:xlink="http://www.w3.org/1999/xlink" x="0px" y="0px"
	 viewBox="0 0 425.2 425.2" style="enable-background:new 0 0 425.2 425.2;" xml:space="preserve">
<style type="text/css">
	.st0{fill:#5C7880;}
</style>
<g>
	<path class="st0" d="M211.9,235.8c62.3,0,113-50.7,113-113c0-30.1-11.8-58.5-33.1-79.7c-21.3-21.2-49.7-32.9-79.9-32.9
		c-62.3,0-113,50.5-113,112.6C98.9,185.1,149.6,235.8,211.9,235.8z M125.7,122.8c0-47.5,38.7-86.2,86.2-86.2s86.2,38.7,86.2,86.2
		S259.4,209,211.9,209S125.7,170.4,125.7,122.8z"/>
	<path class="st0" d="M283,259.4H142.2C63.8,259.4,0,323.2,0,401.6c0,7.5,5.9,13.4,13.4,13.4h398.4c7.5,0,13.4-5.9,13.4-13.4
		C425.2,323.2,361.4,259.4,283,259.4z M397.6,388.2h-370l0.3-2c7.6-57.1,56.8-100.1,114.3-100.1H283c28.1,0,55.2,10.2,76.4,28.8
		c20.8,18.4,34.3,43.6,38,71.1L397.6,388.2z"/>
</g>
</svg>
