<?xml version="1.0" encoding="utf-8"?>
<!-- Generator: Adobe Illustrator 16.0.0, SVG Export Plug-In . SVG Version: 6.00 Build 0)  -->
<!DOCTYPE svg PUBLIC "-//W3C//DTD SVG 1.1//EN" "http://www.w3.org/Graphics/SVG/1.1/DTD/svg11.dtd">
<svg version="1.1" id="Capa_1" xmlns="http://www.w3.org/2000/svg" xmlns:xlink="http://www.w3.org/1999/xlink" x="0px" y="0px"
	 width="670px" height="637.853px" viewBox="32.681 16.073 670 637.853" enable-background="new 32.681 16.073 670 637.853"
	 xml:space="preserve">
<g>
	<path fill="#E67348" d="M366.577,371.557c98.168,0,178.057-79.889,178.057-178.057c0-47.429-18.594-92.18-52.155-125.585
		c-33.562-33.406-78.312-51.842-125.9-51.842c-98.168,0-178.057,79.574-178.057,177.427
		C188.52,291.667,268.409,371.557,366.577,371.557z M230.75,193.5c0-74.847,60.979-135.828,135.828-135.828
		c74.848,0,135.826,60.98,135.826,135.828s-60.979,135.828-135.826,135.828C291.73,329.327,230.75,268.504,230.75,193.5z"/>
	<path fill="#E67348" d="M478.612,408.744H256.749c-123.537,0-224.068,100.531-224.068,224.068c0,11.816,9.297,21.113,21.115,21.113
		h627.771c11.817,0,21.114-9.297,21.114-21.113C702.681,509.275,602.148,408.744,478.612,408.744z M659.189,611.698H76.17
		l0.473-3.151c11.977-89.975,89.501-157.729,180.105-157.729H478.61c44.276,0,86.979,16.07,120.387,45.381
		c32.772,28.993,54.047,68.701,59.877,112.034L659.189,611.698z"/>
</g>
</svg>
