<?xml version="1.0" encoding="utf-8"?>
<!-- Generator: Adobe Illustrator 23.0.1, SVG Export Plug-In . SVG Version: 6.00 Build 0)  -->
<svg version="1.1" id="圖層_1" xmlns="http://www.w3.org/2000/svg" xmlns:xlink="http://www.w3.org/1999/xlink" x="0px" y="0px"
	 viewBox="0 0 214.9 66.6" style="enable-background:new 0 0 214.9 66.6;" xml:space="preserve">
<style type="text/css">
	.st0{fill:#5B7880;}
</style>
<path class="st0" d="M53.1,7.2c-2.3-4.1-7.2-6.1-12.2-4.9c-11.1,2.6-11,13.1-11,13.2v8.3c-7,0-15.3-1.4-24.2-4.6
	c-0.5-0.2-1.1,0.1-1.3,0.6s0.1,1.1,0.6,1.3c7.7,2.8,16.7,4.5,24.9,4.6v35.5c0,0.6,0.4,1,1,1c0.6,0,1-0.4,1-1V25.7c8-0.2,15-2,19-6.2
	C54.5,15.8,55.3,11.2,53.1,7.2z M49.4,18.2c-3.1,3.2-9.3,5.4-17.5,5.6v-8.3c0-0.4-0.1-9,9.5-11.2C42.1,4.1,42.9,4,43.7,4
	c3.2,0,6.2,1.6,7.7,4.2C53.1,11.3,52.4,15,49.4,18.2z M45.5,25.6c1.6-0.6,2.9-1.3,4-2.1v35.1c-1.3,0.7-2.7,1.2-4,1.6V25.6z M40,27.2
	c1.5-0.3,2.8-0.7,4-1.1v34.5c-1.4,0.3-2.8,0.5-4,0.6V27.2z M54.8,18.2v36.3c-1.1,1.3-2.4,2.4-3.7,3.2V22.4
	C53.9,20.2,54.8,18.2,54.8,18.2z M34.3,28.1c1.5-0.1,2.9-0.3,4.3-0.5v33.8c-2.5,0-4.3-0.3-4.3-0.3V28.1z M74.5,28.4H65v25.5h4.7
	V43.3h5.2c1.8,0.1,3.6-0.5,5.3-1.5c1.7-1.1,2.6-3,2.7-5.7c0-2.4-0.8-4.3-2.3-5.6C79.2,29.1,77.1,28.4,74.5,28.4z M76.7,40.4
	c-1,0.9-2.4,1.3-4.2,1.4h-2.8V30h2.6c1.7,0,3.1,0.5,4.2,1.4c1.1,0.9,1.7,2.6,1.7,4.9C78.2,38.2,77.7,39.6,76.7,40.4z M98.5,39.8
	c-0.5-1.6-0.9-2.9-1.3-3.9c-0.4-1-0.7-1.6-1.1-1.9c-0.2-0.2-0.5-0.4-1-0.6c-0.5-0.2-1.1-0.3-1.8-0.4c-0.6,0-1.1,0.1-1.5,0.4
	c-0.4,0.2-0.7,0.5-0.9,0.7c-0.3,0.2-0.6,0.9-1,1.9c-0.4,1.1-0.8,2.5-1.3,4.2c-0.5,1.8-1.1,3.8-1.7,6.1c-0.6,2.3-1.3,4.9-2.1,7.6h2
	l1.8-6.2h7.6l1.8,6.2h4.6c-1-3.1-1.8-5.8-2.5-8.2C99.6,43.4,99,41.4,98.5,39.8z M89.1,46l2.6-9.3c0.1-0.2,0.2-0.4,0.3-0.5
	c0.1-0.1,0.2-0.2,0.4-0.2c0.2,0,0.3,0,0.4,0.1s0.2,0.2,0.3,0.3l2.7,9.5H89.1z M119.1,45.7c0.3,0.6,0.4,1.3,0.4,2.3
	c0.1,1.5-0.5,2.9-1.7,4.1c-1.2,1.2-3.3,1.9-6.4,2c-1.1,0-2.1-0.1-3-0.2c-0.9-0.1-1.6-0.2-2.1-0.2v-1.5c0.5,0.1,1.2,0.2,2.1,0.3
	c0.9,0.1,1.5,0.2,2,0.2c1.6,0,2.7-0.3,3.5-0.8c0.8-0.5,1.2-1.3,1.2-2.4c0-0.6-0.1-1.1-0.3-1.4c-0.2-0.4-0.4-0.7-0.5-0.8
	c-1.2-0.8-2.8-1.8-4.9-2.9c-2.1-1.1-3.3-2.8-3.6-5c0-1.7,0.6-3.1,1.8-4.3c1.2-1.1,3.2-1.7,5.8-1.8c0.8,0,1.6,0,2.4,0.1
	c0.8,0.1,1.5,0.2,1.9,0.2v1.6c-0.2,0-0.8-0.1-1.6-0.2c-0.9-0.1-1.6-0.1-2.2-0.2c-1.6,0-2.6,0.3-3.2,0.9c-0.6,0.6-0.8,1.1-0.8,1.7
	c0,0.4,0.1,0.8,0.3,1.2c0.2,0.4,0.4,0.7,0.6,0.9c0.7,0.5,1.8,1.3,3.6,2.3c1.7,1,3,1.8,3.9,2.6C118.5,44.7,118.8,45.2,119.1,45.7z
	 M122.7,33.6h13.2v1.7h-4.4v18.6H127V35.3h-4.4V33.6z M151.8,39.8c-0.5-1.6-0.9-2.9-1.3-3.9c-0.4-1-0.7-1.6-1.1-1.9
	c-0.2-0.2-0.5-0.4-1-0.6c-0.5-0.2-1.1-0.3-1.8-0.4c-0.6,0-1.1,0.1-1.5,0.4c-0.4,0.2-0.7,0.5-0.9,0.7c-0.3,0.2-0.6,0.9-1,1.9
	c-0.4,1.1-0.8,2.5-1.3,4.2c-0.5,1.8-1.1,3.8-1.7,6.1c-0.6,2.3-1.3,4.9-2.1,7.6h2l1.8-6.2h7.6l1.8,6.2h4.6c-1-3.1-1.8-5.8-2.5-8.2
	C152.9,43.4,152.3,41.4,151.8,39.8z M142.4,46l2.6-9.3c0.1-0.2,0.2-0.4,0.3-0.5s0.2-0.2,0.4-0.2c0.2,0,0.3,0,0.4,0.1
	c0.1,0.1,0.2,0.2,0.3,0.3l2.7,9.5H142.4z M173.3,33.6h1.9v19.5c0,0.4-0.1,0.8-0.4,1c-0.2,0.3-0.6,0.4-1.1,0.4c-0.2,0-0.5,0-0.7-0.1
	c-0.2-0.1-0.5-0.2-0.7-0.5l-9.6-16.6c0-0.1-0.1-0.2-0.2-0.2c-0.1,0-0.2-0.1-0.3-0.1c-0.1,0-0.2,0-0.2,0.1s-0.1,0.1-0.1,0.2v16.6h-2
	V36.7c0-1.1,0.2-2,0.7-2.7c0.5-0.7,1.2-1,2.3-1.1c0.7,0,1.3,0.2,1.8,0.5c0.5,0.3,0.8,0.6,1,0.8c0.4,0.4,0.8,1,1.4,1.9
	c0.5,0.9,1.1,1.8,1.7,3c0.6,1.1,1.2,2.3,1.9,3.4c0.7,1.2,1.3,2.3,1.9,3.4c0.1,0.1,0.3,0.2,0.4,0.1s0.2-0.1,0.2-0.3V33.6z M185.9,26
	c0.5,0.5,0.7,1.1,0.7,1.8c0,0.7-0.3,1.3-0.7,1.8c-0.5,0.5-1.1,0.8-1.9,0.8c-0.8,0-1.4-0.3-1.9-0.8c-0.5-0.5-0.7-1.1-0.7-1.8
	c0-0.7,0.2-1.3,0.7-1.8c0.5-0.5,1.1-0.8,2-0.8C184.8,25.2,185.4,25.4,185.9,26z M181.7,33.6h4.5v20.3h-4.5V33.6z M204,39.8
	c-0.5-1.6-0.9-2.9-1.3-3.9c-0.4-1-0.7-1.6-1.1-1.9c-0.2-0.2-0.5-0.4-1-0.6c-0.5-0.2-1.1-0.3-1.8-0.4c-0.6,0-1.1,0.1-1.5,0.4
	c-0.4,0.2-0.7,0.5-0.9,0.7c-0.3,0.2-0.6,0.9-1,1.9c-0.4,1.1-0.8,2.5-1.3,4.2c-0.5,1.8-1.1,3.8-1.7,6.1c-0.6,2.3-1.3,4.9-2.1,7.6h2
	l1.8-6.2h7.6l1.8,6.2h4.6c-1-3.1-1.8-5.8-2.5-8.2C205,43.4,204.4,41.4,204,39.8z M194.6,46l2.6-9.3c0.1-0.2,0.2-0.4,0.3-0.5
	c0.1-0.1,0.2-0.2,0.4-0.2c0.2,0,0.3,0,0.4,0.1c0.1,0.1,0.2,0.2,0.3,0.3l2.7,9.5H194.6z"/>
</svg>
