<?xml version="1.0" encoding="utf-8"?>
<!-- Generator: Adobe Illustrator 23.0.1, SVG Export Plug-In . SVG Version: 6.00 Build 0)  -->
<svg version="1.1" id="Capa_1" xmlns="http://www.w3.org/2000/svg" xmlns:xlink="http://www.w3.org/1999/xlink" x="0px" y="0px"
	 viewBox="0 0 425.2 425.2" style="enable-background:new 0 0 425.2 425.2;" xml:space="preserve">
<style type="text/css">
	.st0{fill:#5C7880;}
</style>
<g>
	<path class="st0" d="M206,288.4c-10.9,0-19.7,9-19.7,20s8.9,20,19.7,20c10.9,0,20-9.2,20-20S216.9,288.4,206,288.4z"/>
	<path class="st0" d="M222.8,233.5c2.4-6.5,7-12.2,15.1-18.4c21.1-16.4,31.8-33.8,31.8-51.6c0-27-24.6-45.8-59.9-45.8
		c-37.6,0-55.2,21.9-55.2,36.7c0,5.7,4,14.2,15.1,14.2c5.3,0,7.4-3,10.4-7.5c4.5-6.7,10.2-15,28.8-15c17.8,0,28.9,8.6,28.9,22.4
		c0,14.2-11.8,23.2-21.3,30.5c-2.1,1.6-4,3.1-5.7,4.5c-8.7,7.5-18.7,19.2-18.7,42.6c0,14.5,3.6,17.1,13.6,17.1
		c14.8,0,14.8-7.1,14.8-9.5C220.5,246.5,220.5,239.8,222.8,233.5z"/>
	<path class="st0" d="M363,62.2C322.8,22.1,269.4,0,212.6,0S102.4,22.1,62.2,62.2C22.1,102.4,0,155.8,0,212.6v198.3
		c0,7.9,6.4,14.3,14.3,14.3h198.3c56.8,0,110.2-22.1,150.4-62.2c40.1-40.1,62.2-93.5,62.2-150.4C425.2,155.8,403.1,102.4,363,62.2z
		 M342.8,342.8c-34.7,34.7-81,53.9-130.2,53.9h-184v-184c0-49.2,19.1-95.4,53.9-130.2c34.7-34.7,81-53.9,130.2-53.9
		s95.4,19.1,130.2,53.9c34.7,34.7,53.9,81,53.9,130.2C396.6,261.8,377.5,308,342.8,342.8z"/>
</g>
</svg>
