<?xml version="1.0" encoding="utf-8"?>
<!-- Generator: Adobe Illustrator 22.1.0, SVG Export Plug-In . SVG Version: 6.00 Build 0)  -->
<svg version="1.1" id="Capa_1" xmlns="http://www.w3.org/2000/svg" xmlns:xlink="http://www.w3.org/1999/xlink" x="0px" y="0px"
	 viewBox="0 0 425.2 425.2" style="enable-background:new 0 0 425.2 425.2;" xml:space="preserve">
<style type="text/css">
	.st0{fill:#F6D169;}
	.st1{fill:#5C7880;}
</style>
<g>
	<path class="st0" d="M241.5,272.2c-87.3,0-160.8,58.9-183,139.1h366.1C402.3,331.1,328.7,272.2,241.5,272.2z"/>
	<path class="st1" d="M423.6,403c-12.6-45.3-40.1-86.1-77.5-115c-24.8-19.2-52.8-32.5-82.7-39.6c43-19.5,72.9-62.8,72.9-113
		c0-68.4-55.6-124.1-124.1-124.1S88.3,67,88.3,135.4c0,50.2,29.9,93.5,72.9,113c-29.8,7.1-57.8,20.4-82.7,39.6
		C41.1,316.9,13.6,357.7,1,403c-1.3,4.5,1.4,9.2,5.9,10.5c4.5,1.2,9.2-1.4,10.5-5.9c11.6-41.8,37-79.4,71.5-106.1
		c35.6-27.5,78.3-42,123.4-42s87.8,14.5,123.4,42c34.5,26.6,59.9,64.3,71.5,106.1c1,3.8,4.5,6.2,8.2,6.2c0.8,0,1.5-0.1,2.3-0.3
		C422.2,412.2,424.8,407.6,423.6,403z M105.3,135.4c0-59,48-107.1,107.1-107.1s107.1,48,107.1,107.1c0,59-48,107.1-107.1,107.1
		S105.3,194.5,105.3,135.4z"/>
</g>
</svg>
