<?xml version="1.0" encoding="utf-8"?>
<!-- Generator: Adobe Illustrator 22.1.0, SVG Export Plug-In . SVG Version: 6.00 Build 0)  -->
<svg version="1.1" id="Capa_1" xmlns="http://www.w3.org/2000/svg" xmlns:xlink="http://www.w3.org/1999/xlink" x="0px" y="0px"
	 viewBox="0 0 425.2 425.2" style="enable-background:new 0 0 425.2 425.2;" xml:space="preserve">
<style type="text/css">
	.st0{opacity:0.8;fill:#E67347;}
	.st1{fill:#5C7880;}
</style>
<path class="st0" d="M67.3,116.2c152,115.5-46,125.8,17.7,184.6c0,0-69-21.9-65.6-78.7C23,162.2,88.8,182.7,67.3,116.2z"/>
<g>
	<g>
		<path class="st1" d="M72.3,299.2c-0.4,0-0.7-0.1-1.1-0.2c-0.7-0.2-18.3-5.9-35.7-18.9c-23.4-17.5-34.9-39.8-33.5-64.7
			c1.7-29.4,17.5-40.9,31.4-51.1c16-11.7,28.6-21,17.5-55.4c-0.5-1.5,0.1-3,1.3-3.9c1.2-0.9,2.9-0.9,4.1,0.1
			c40,30.4,60,56.5,61.2,79.9c1.2,23.5-16.5,40-32.1,54.6c-11.8,11-23,21.5-23,32.5c0,6.6,4,13.5,12.2,21.1c1.2,1.1,1.5,2.9,0.7,4.3
			C74.7,298.6,73.5,299.2,72.3,299.2z M60.4,117.2c6.8,31.2-8.3,42.2-22.8,52.9c-13.3,9.7-27,19.8-28.5,45.9
			c-1.3,22.6,8.9,42.3,30.5,58.5c7.2,5.4,14.5,9.5,20.5,12.4c-3.1-4.9-4.6-9.8-4.6-14.8c0-14.1,12.2-25.5,25.2-37.6
			c15.2-14.2,30.9-28.9,29.9-49.1C109.6,165.8,93.2,143.4,60.4,117.2z"/>
		<path class="st1" d="M114.2,320.7H5.5c-1.9,0-3.5-1.6-3.5-3.5s1.6-3.5,3.5-3.5h108.7c1.9,0,3.5,1.6,3.5,3.5
			S116.1,320.7,114.2,320.7z"/>
	</g>
	<g>
		<path class="st1" d="M221.1,299.2c-0.4,0-0.7-0.1-1.1-0.2c-0.7-0.2-18.3-5.9-35.7-18.9c-23.4-17.5-34.9-39.8-33.5-64.7
			c1.7-29.4,17.5-40.9,31.4-51.1c16-11.7,28.6-21,17.5-55.4c-0.5-1.5,0.1-3,1.3-3.9c1.2-0.9,2.9-0.9,4.1,0.1
			c40,30.4,60,56.5,61.2,79.9c1.2,23.5-16.5,40-32.1,54.6c-11.8,11-23,21.5-23,32.5c0,6.6,4,13.5,12.2,21.1c1.2,1.1,1.5,2.9,0.7,4.3
			C223.5,298.6,222.3,299.2,221.1,299.2z M209.2,117.2c6.8,31.2-8.3,42.2-22.8,52.9c-13.3,9.7-27,19.8-28.5,45.9
			c-2.3,39.1,31.5,61.4,51,70.9c-3.1-4.9-4.6-9.8-4.6-14.7c0-14.1,12.2-25.5,25.2-37.6c15.2-14.2,30.9-28.9,29.9-49.1
			C258.4,165.8,242,143.4,209.2,117.2z"/>
		<path class="st1" d="M263,320.7H154.3c-1.9,0-3.5-1.6-3.5-3.5s1.6-3.5,3.5-3.5H263c1.9,0,3.5,1.6,3.5,3.5S264.9,320.7,263,320.7z"
			/>
	</g>
	<g>
		<path class="st1" d="M369.9,299.2c-0.4,0-0.7-0.1-1.1-0.2c-0.7-0.2-18.3-5.9-35.7-18.9c-23.4-17.5-34.9-39.8-33.5-64.7
			c1.7-29.4,17.5-40.9,31.4-51.1c16-11.7,28.6-21,17.5-55.4c-0.5-1.5,0.1-3,1.3-3.9c1.2-0.9,2.9-0.9,4.1,0.1
			c40,30.4,60,56.5,61.2,79.9c1.2,23.5-16.5,40-32.1,54.6c-11.8,11-23,21.5-23,32.5c0,6.6,4,13.5,12.2,21.1c1.2,1.1,1.5,2.9,0.7,4.3
			C372.3,298.6,371.1,299.2,369.9,299.2z M358,117.2c6.8,31.2-8.3,42.2-22.8,52.9c-13.3,9.7-27,19.8-28.5,45.9
			c-1.3,22.6,8.9,42.3,30.5,58.5c7.2,5.4,14.5,9.5,20.5,12.4c-3.1-4.9-4.6-9.8-4.6-14.8c0-14.1,12.2-25.5,25.2-37.6
			c15.2-14.2,30.9-28.9,29.9-49.1C407.2,165.8,390.8,143.4,358,117.2z"/>
		<path class="st1" d="M411.8,320.7H303.1c-1.9,0-3.5-1.6-3.5-3.5s1.6-3.5,3.5-3.5h108.7c1.9,0,3.5,1.6,3.5,3.5
			S413.7,320.7,411.8,320.7z"/>
	</g>
</g>
</svg>
