<?xml version="1.0" encoding="utf-8"?>
<!-- Generator: Adobe Illustrator 23.0.1, SVG Export Plug-In . SVG Version: 6.00 Build 0)  -->
<svg version="1.1" id="圖層_1" xmlns="http://www.w3.org/2000/svg" xmlns:xlink="http://www.w3.org/1999/xlink" x="0px" y="0px"
	 viewBox="0 0 425.2 425.2" style="enable-background:new 0 0 425.2 425.2;" xml:space="preserve">
<style type="text/css">
	.st0{fill:#5C7880;}
</style>
<path class="st0" d="M425.2,87.1c-0.4-6.8-4.2-10.7-10.4-10.7H298.6V61.6c0-19.7-16-35.6-35.6-35.6H162.3c-19.7,0-35.6,16-35.6,35.6
	v14.7H10.5C4.7,76.3,0,81,0,86.8v276.8c0,19.7,16,35.6,35.6,35.6h353.9c19.7,0,35.6-16,35.6-35.6V87.1H425.2z M147.6,61.6
	c0-8.1,6.6-14.7,14.7-14.7h100.6c8.1,0,14.7,6.6,14.7,14.7v14.7h-130V61.6z M400.2,97.3l-40,120c-2,6-7.6,10-13.9,10h-72.9v-14.7
	c0-5.8-4.7-10.5-10.5-10.5H162.3c-5.8,0-10.5,4.7-10.5,10.5v14.7H78.9c-6.3,0-11.9-4-13.9-10l-40-120H400.2z M252.4,223.1v29.4
	h-79.7v-29.4H252.4z M404.2,363.6c0,8.1-6.6,14.7-14.7,14.7H35.6c-8.1,0-14.7-6.6-14.7-14.7V151.4l24.2,72.5
	c4.9,14.6,18.4,24.4,33.8,24.4h72.9V263c0,5.8,4.7,10.5,10.5,10.5h100.6c5.8,0,10.5-4.7,10.5-10.5v-14.7h72.9
	c15.4,0,29-9.8,33.8-24.4l24.2-72.5L404.2,363.6L404.2,363.6z"/>
</svg>
