<?xml version="1.0" encoding="utf-8"?>
<!-- Generator: Adobe Illustrator 22.1.0, SVG Export Plug-In . SVG Version: 6.00 Build 0)  -->
<svg version="1.1" id="Capa_1" xmlns="http://www.w3.org/2000/svg" xmlns:xlink="http://www.w3.org/1999/xlink" x="0px" y="0px"
	 viewBox="0 0 425.2 425.2" style="enable-background:new 0 0 425.2 425.2;" xml:space="preserve">
<style type="text/css">
	.st0{fill:#C8DBD8;}
	.st1{fill:#5C7880;}
</style>
<g>
	<polygon class="st0" points="31.6,315.2 423.4,315.2 423.4,135.2 31.6,135.2 	"/>
	<path class="st1" d="M3.6,295.9c1.2,1.1,2.7,1.8,4.4,1.8H73c0,0,0.1,0,0.1,0c0,0,0.1,0,0.1,0h62.5c0,0,0.1,0,0.1,0s0.1,0,0.1,0
		h62.6c0,0,0.1,0,0.1,0s0.1,0,0.1,0h62.6c0,0,0.1,0,0.1,0s0.1,0,0.1,0h62.5c0,0,0.1,0,0.1,0s0.1,0,0.1,0h65.1c3.4,0,6.2-2.8,6.2-6.2
		l0-175.4c0-1.6-0.6-3.2-1.8-4.4c-1.2-1.1-2.7-1.8-4.4-1.8H8c-3.4,0-6.2,2.8-6.2,6.2l0,175.4C1.8,293.2,2.4,294.8,3.6,295.9z
		 M14.1,122.3h369.3l0,163.1h-52.9v-36.8c0-3.4-2.8-6.2-6.2-6.2s-6.2,2.7-6.2,6.2v36.8h-50.5v-64.3c0-3.4-2.8-6.2-6.2-6.2
		c-3.4,0-6.2,2.8-6.2,6.2v64.3h-50.5v-36.8c0-3.4-2.8-6.2-6.2-6.2s-6.2,2.7-6.2,6.2v36.8h-50.5v-64.3c0-3.4-2.8-6.2-6.2-6.2
		c-3.4,0-6.2,2.8-6.2,6.2v64.3H79.3v-36.8c0-3.4-2.8-6.2-6.2-6.2c-3.4,0-6.2,2.7-6.2,6.2v36.8H14.1L14.1,122.3z"/>
</g>
</svg>
