<?xml version="1.0" encoding="utf-8"?>
<!-- Generator: Adobe Illustrator 23.0.1, SVG Export Plug-In . SVG Version: 6.00 Build 0)  -->
<svg version="1.1" id="圖層_1" xmlns="http://www.w3.org/2000/svg" xmlns:xlink="http://www.w3.org/1999/xlink" x="0px" y="0px"
	 viewBox="0 0 512 512" style="enable-background:new 0 0 512 512;" xml:space="preserve">
<style type="text/css">
	.st0{fill:#5C7880;}
</style>
<path class="st0" d="M499.5,480.6c0-5.1-2-9.8-5.6-13.3l0,0L375.2,348.5l0.9-1.1c30-36.5,46.5-82.7,46.5-129.9c0-113-92-205-205-205
	s-205,92-205,205s92,205,205,205c47.3,0,93.4-16.5,129.8-46.4l1.1-0.9l118.8,118.7c7.4,7.4,19.4,7.4,26.8,0
	C497.5,490.4,499.5,485.7,499.5,480.6z M217.5,384.4c-92.1,0-167-74.9-167-166.9c0-92.1,74.9-167,167-167s167,74.9,167,167
	C384.5,309.5,309.6,384.4,217.5,384.4z"/>
</svg>
