<?xml version="1.0" encoding="utf-8"?>
<!-- Generator: Adobe Illustrator 22.1.0, SVG Export Plug-In . SVG Version: 6.00 Build 0)  -->
<svg version="1.1" id="Capa_1" xmlns="http://www.w3.org/2000/svg" xmlns:xlink="http://www.w3.org/1999/xlink" x="0px" y="0px"
	 viewBox="0 0 425.2 425.2" style="enable-background:new 0 0 425.2 425.2;" xml:space="preserve">
<style type="text/css">
	.st0{fill:#F6D169;}
	.st1{opacity:0.8;fill:#E67348;}
	.st2{fill:#5C7880;}
</style>
<g>
	<path class="st0" d="M355.4,347.2l53.7-68.6c7.8-9.9,6.2-23.8-3.7-31.6c-8.7-6.9-23.4-8.5-33.5,1.9l-43.8,45.1l-4.8-14.7
		c-3.2-9.8-12.5-16.4-23.2-16.4h-58.7c-7.1,0-10.7-2.7-16.6-7.2c-0.8-0.6-1.7-1.3-2.7-2l-0.4-0.3c-26-21.7-65.1-21.6-90.9,0.2
		l-26.4,22.3l-5.7-2.9c-3.6-1.8-7.5-2.8-11.4-2.8c-3.7,0-7.4,0.8-10.8,2.5l-24.7,11.9c-0.9,0.4-1.3,1.5-0.8,2.4L118,415.6
		c0.5,0.9,1.6,1.2,2.5,0.8l24.7-11.9c8.5-4.1,13.7-12.5,13.4-21.6l-0.3-9.2h141.9C321.8,373.6,342.4,363.8,355.4,347.2z"/>
	<path class="st1" d="M186.9,166.4c0,1,0.8,1.9,1.9,1.9h113.1c1,0,1.9-0.8,1.9-1.9v-11.2c0-21.3-11.5-41-30.1-51.5v0l-10.5-5.9
		l8.3-8.7c6.4-6.7,9.8-15.4,9.8-24.5c0-20-16-36.3-35.6-36.3c-19.7,0-36.3,16.6-36.3,36.3c0,9.1,3.6,17.8,10.2,24.5l8.6,8.7l-10.7,6
		c-18.8,10.6-30.5,30.3-30.5,51.4V166.4z"/>
	<g>
		<path class="st2" d="M349.9,331.2l57.4-76.6c10.6-14.2,8.4-34-5.1-45.1c-11.8-9.7-31.8-12.1-45.6,2.7l-38.4,41.3l-1.4-4.6
			c-4.3-13.9-17-23.3-31.6-23.3h-62.7c-5.1,0-7.3-1.8-13.4-6.5c-0.9-0.7-1.9-1.5-3-2.3l-0.1-0.1c-30.5-26.6-76.3-26.4-106.7,0.3
			l-24.5,21.6l-1.7-0.9c-4.9-2.6-10.2-3.9-15.6-3.9c-5,0-10.1,1.2-14.8,3.5l-26.5,13.2c-4.5,2.3-6.4,7.8-4.1,12.3l71.8,143.5
			c2.3,4.5,7.8,6.4,12.3,4.1l26.5-13.2c11.6-5.8,18.7-17.9,18.3-30.8l-0.1-2.9h144.3C310.5,363.5,334.7,351.4,349.9,331.2z
			 M114.5,380.8L114.5,380.8l-18.2,9.1L32.7,262.8l18.3-9.1c7.3-3.6,16.2-0.7,19.8,6.6L121.1,361
			C124.7,368.3,121.8,377.2,114.5,380.8z M133.7,345.2l-46.6-93.1l24.3-21.3c23.6-20.7,59.1-20.7,82.7,0
			c12.5,11,20.1,13.2,28.3,13.2h62.7c8.1,0,14.8,6.6,14.8,14.8c0,8.1-6.6,14.8-14.8,14.8H224c-5.1,0-9.2,4.1-9.2,9.2
			c0,5.1,4.1,9.2,9.2,9.2h69.1c9.2,0,18-3.8,24.2-10.5l52.7-56.5c6.1-6.6,15.3-5.6,20.6-1c5.7,5,6.6,13.7,2,19.9l-57.4,76.6
			c-11.8,15.7-30.5,25-50.1,25H133.7z"/>
		<path class="st2" d="M155.5,163c0,5.1,4.1,9.2,9.2,9.2h120.4c5.1,0,9.2-4.1,9.2-9.2v-12c0-25.3-13.7-48.7-35.7-61.1l-3.1-1.8
			l2.5-2.6c8-8.4,12.5-19.5,12.5-31.1c0-25.3-20.2-45.9-45.1-45.9c-24.9,0-45.9,21-45.9,45.9c0,11.6,4.6,22.7,12.9,31.1l2.6,2.6
			l-3.2,1.8c-22.3,12.5-36.2,35.9-36.2,61V163z M225.3,27c14.5,0,26.7,12.6,26.7,27.5c0,14.7-12,26.7-26.7,26.7
			c-14.9,0-27.5-12.2-27.5-26.7C197.8,39.9,210.7,27,225.3,27z M173.9,151c0-27.9,23.6-51.4,51.4-51.4c27.9,0,50.6,23.1,50.6,51.4
			v2.8H173.9V151z"/>
	</g>
</g>
</svg>
