<?xml version="1.0" encoding="utf-8"?>
<!-- Generator: Adobe Illustrator 23.0.1, SVG Export Plug-In . SVG Version: 6.00 Build 0)  -->
<svg version="1.1" id="Capa_1" xmlns="http://www.w3.org/2000/svg" xmlns:xlink="http://www.w3.org/1999/xlink" x="0px" y="0px"
	 viewBox="0 0 426.2 426.2" style="enable-background:new 0 0 426.2 426.2;" xml:space="preserve">
<style type="text/css">
	.st0{fill:#5C7880;}
</style>
<g>
	<path class="st0" d="M128.2,280.4h234.1c26.5,0,48.2-21.7,48.2-48.2v-98.5c0-0.1,0-0.3,0-0.3c0-0.3,0-0.4,0-0.7
		c0-0.2,0-0.3-0.1-0.5c0-0.2-0.1-0.4-0.1-0.6c0-0.2-0.1-0.3-0.1-0.5c-0.1-0.2-0.1-0.3-0.2-0.6c-0.1-0.2-0.1-0.3-0.2-0.5
		s-0.1-0.3-0.2-0.5s-0.2-0.3-0.3-0.6c-0.1-0.2-0.2-0.3-0.3-0.4c-0.1-0.2-0.2-0.3-0.3-0.5c-0.1-0.2-0.2-0.3-0.3-0.4
		c-0.1-0.2-0.3-0.3-0.3-0.5c-0.1-0.2-0.2-0.3-0.3-0.4c-0.1-0.2-0.3-0.3-0.3-0.4s-0.3-0.3-0.3-0.4s-0.3-0.3-0.3-0.3
		c-0.2-0.2-0.3-0.3-0.4-0.4c-0.2-0.1-0.3-0.3-0.4-0.3c-0.2-0.1-0.3-0.3-0.5-0.3c-0.2-0.1-0.3-0.2-0.4-0.3c-0.2-0.1-0.3-0.2-0.5-0.3
		c-0.2-0.1-0.3-0.2-0.5-0.3c-0.2-0.1-0.3-0.2-0.5-0.3c-0.2-0.1-0.3-0.2-0.5-0.3c-0.2-0.1-0.3-0.1-0.5-0.2s-0.4-0.2-0.6-0.2
		s-0.3-0.1-0.4-0.1c-0.3-0.1-0.4-0.1-0.7-0.1c-0.1,0-0.2-0.1-0.3-0.1l-297-41.3V39.7c0-0.4,0-0.9-0.1-1.2c0-0.1,0-0.2-0.1-0.3
		c0-0.3-0.1-0.5-0.1-0.8c-0.1-0.3-0.1-0.4-0.2-0.7c0-0.2-0.1-0.3-0.1-0.4c-0.1-0.3-0.2-0.5-0.3-0.8c0-0.1-0.1-0.3-0.1-0.3
		c-0.1-0.3-0.2-0.4-0.3-0.7c-0.1-0.1-0.1-0.3-0.2-0.3c-0.1-0.2-0.2-0.3-0.3-0.5c-0.1-0.2-0.2-0.3-0.3-0.4c-0.1-0.2-0.2-0.3-0.3-0.4
		c-0.1-0.2-0.3-0.3-0.3-0.5c-0.1-0.1-0.2-0.2-0.3-0.3c-0.2-0.2-0.3-0.3-0.5-0.5c-0.1-0.1-0.2-0.2-0.3-0.3c-0.2-0.2-0.3-0.3-0.6-0.5
		c-0.1-0.1-0.3-0.2-0.3-0.3c-0.2-0.2-0.3-0.3-0.5-0.4c-0.3-0.2-0.5-0.3-0.7-0.4c-0.1-0.1-0.2-0.1-0.3-0.2c-0.3-0.2-0.8-0.3-1.1-0.5
		L32.1,1.6c-6-2.5-12.9,0.3-15.5,6.3s0.3,12.9,6.3,15.5L80,47.5v53.4v8.5v65v58.1v73.3c0,24.4,18.3,44.7,42,47.8
		c-4.3,7.2-6.8,15.5-6.8,24.4c0,26.3,21.4,47.6,47.6,47.6s47.6-21.4,47.6-47.6c0-8.7-2.4-17-6.5-24h106c-4.2,7.1-6.5,15.3-6.5,24
		c0,26.3,21.4,47.6,47.6,47.6s47.6-21.4,47.6-47.6s-21.4-47.6-47.6-47.6H128.2c-13.6,0-24.6-11.1-24.6-24.6v-32
		C110.8,278,119.2,280.4,128.2,280.4z M186.9,377.8c0,13.3-10.8,24-24,24s-24-10.8-24-24s10.8-24,24-24S186.9,364.6,186.9,377.8z
		 M375,377.8c0,13.3-10.8,24-24,24s-24-10.8-24-24s10.8-24,24-24S375,364.6,375,377.8z M362.3,256.8H128.2
		c-13.6,0-24.6-11.1-24.6-24.6v-58.1v-65v-4.4l283.3,39V232C386.9,245.8,375.8,256.8,362.3,256.8z"/>
</g>
</svg>
