<?xml version="1.0" encoding="utf-8"?>
<!-- Generator: Adobe Illustrator 23.0.1, SVG Export Plug-In . SVG Version: 6.00 Build 0)  -->
<svg version="1.1" id="圖層_1" xmlns="http://www.w3.org/2000/svg" xmlns:xlink="http://www.w3.org/1999/xlink" x="0px" y="0px"
	 viewBox="0 0 425.2 425.2" style="enable-background:new 0 0 425.2 425.2;" xml:space="preserve">
<style type="text/css">
	.st0{fill:#5C7880;}
</style>
<g>
	<path class="st0" d="M119.4,90.6"/>
	<g>
		<path class="st0" d="M212.4,206.6L57.3,51.6c-2-2-2-5.1,0-7.1s5.1-2,7.1,0l148.1,148L360.9,44c2-2,5.1-2,7.1,0c2,2,2,5.1,0,7.1
			L212.4,206.6z"/>
		<path class="st0" d="M212.4,382.6l-155.1-155c-2-2-2-5.1,0-7.1c2-2,5.1-2,7.1,0l148.1,148L360.9,220c2-2,5.1-2,7.1,0
			c2,2,2,5.1,0,7.1L212.4,382.6z"/>
	</g>
</g>
</svg>
