<?xml version="1.0" encoding="utf-8"?>
<!-- Generator: Adobe Illustrator 23.0.1, SVG Export Plug-In . SVG Version: 6.00 Build 0)  -->
<svg version="1.1" id="圖層_1" xmlns="http://www.w3.org/2000/svg" xmlns:xlink="http://www.w3.org/1999/xlink" x="0px" y="0px"
	 viewBox="0 0 425.2 425.2" style="enable-background:new 0 0 425.2 425.2;" xml:space="preserve">
<style type="text/css">
	.st0{fill:#5C7880;}
</style>
<path class="st0" d="M422.3,212.6c0,115.8-93.9,209.7-209.7,209.7S2.9,328.4,2.9,212.6S96.8,2.9,212.6,2.9S422.3,96.8,422.3,212.6z
	 M188.3,323.6L343.9,168c5.3-5.3,5.3-13.9,0-19.1l-19.1-19.1c-5.3-5.3-13.9-5.3-19.1,0L178.8,256.7l-59.2-59.2
	c-5.3-5.3-13.9-5.3-19.1,0l-19.1,19.1c-5.3,5.3-5.3,13.9,0,19.1l87.9,87.9C174.5,328.9,183.1,328.9,188.3,323.6L188.3,323.6z"/>
</svg>
