<?xml version="1.0" encoding="utf-8"?>
<!-- Generator: Adobe Illustrator 22.1.0, SVG Export Plug-In . SVG Version: 6.00 Build 0)  -->
<svg version="1.1" id="Layer_1" xmlns="http://www.w3.org/2000/svg" xmlns:xlink="http://www.w3.org/1999/xlink" x="0px" y="0px"
	 viewBox="0 0 425.2 425.2" style="enable-background:new 0 0 425.2 425.2;" xml:space="preserve">
<style type="text/css">
	.st0{fill:#F6D169;}
	.st1{fill:#5C7880;}
</style>
<g>
	<path class="st0" d="M325.6,63.3c-5.2,0-10.6,0.7-16.1,1.7c-18.8-21.9-46.6-35.8-77.6-35.8c-31.1,0-58.8,13.9-77.6,35.8
		c-5.6-1-11-1.7-16.1-1.7c-51.7,0-93.8,42.1-93.8,93.8c0,35.5,20,67.7,51.3,83.6l-0.2,145.1c0,9.3,3.6,18,10.2,24.6
		c6.6,6.6,15.3,10.2,24.6,10.2h202.4c19.1,0,35.6-22.3,35.6-41.5V240.5c31.3-16,51.2-48.2,51.2-83.4
		C419.5,105.3,377.4,63.3,325.6,63.3z"/>
	<g>
		<g>
			<g>
				<path class="st1" d="M115.5,196.8c0-5.1-4.1-9.2-9.2-9.2s-9.1,4.1-9.1,9.2c0,24,26.5,57.1,29.5,60.8c1.8,2.2,4.5,3.3,7.1,3.3
					c2.1,0,4.1-0.7,5.8-2.1c3.9-3.2,4.5-9,1.3-12.9C131.2,234,115.5,210.1,115.5,196.8z"/>
				<path class="st1" d="M307.9,187.7c-5.1,0-9.2,4.1-9.2,9.2c0,13.2-15.5,37.2-25.4,49.1c-3.2,3.9-2.7,9.7,1.3,12.9
					c1.7,1.4,3.8,2.1,5.8,2.1c2.7,0,5.2-1.1,7-3.3c3-3.7,29.5-36.7,29.5-60.8C317,191.8,312.9,187.7,307.9,187.7z"/>
				<path class="st1" d="M207.1,187.7c-5.1,0-9.2,4.1-9.2,9.2v54.9c0,5.1,4.1,9.2,9.2,9.2s9.2-4.1,9.2-9.2v-54.9
					C216.3,191.8,212.2,187.7,207.1,187.7z"/>
				<path class="st1" d="M307.9,41.2c-5.6,0-11.3,0.8-17.3,1.9c-20.2-23.6-50.1-38.5-83.4-38.5S144,19.5,123.8,43
					c-6-1.1-11.8-1.9-17.3-1.9C50.9,41.2,5.6,86.4,5.6,141.9c0,38,21.5,72.6,55.1,89.8l-0.2,138.4c0,10,3.9,19.4,10.9,26.4
					c7,7,16.5,11,26.4,11h218.2c20.6,0,37.3-16.7,37.3-37.3V231.5c33.6-17.2,54.9-51.7,54.9-89.6C408.6,86.4,363.4,41.2,307.9,41.2z
					 M335.3,370.1c0,10.5-8.6,19.1-19.1,19.1H98c-5.1,0-9.9-2-13.5-5.6c-3.6-3.6-5.6-8.4-5.6-13.5l0.1-35.9h256.4L335.3,370.1
					L335.3,370.1z M341,217.3c-0.5,0.2-0.9,0.4-1.4,0.7c-1.1,0.7-2.1,1.6-2.8,2.7c-0.7,1.1-1.2,2.3-1.4,3.7c-0.1,0.5-0.1,1-0.1,1.5
					v90H79.1l0.1-89.8c0-0.5,0-1-0.1-1.5c-0.2-1.4-0.7-2.7-1.5-3.8c-0.7-1-1.6-2-2.7-2.7c-0.4-0.3-0.9-0.5-1.5-0.8
					c-30-13.1-49.5-42.8-49.5-75.5c0-45.4,37-82.4,82.4-82.4c1.8,0,3.7,0.2,5.5,0.3c-9.2,16.1-14.6,34.7-14.6,54.6
					c0,5.1,4.1,9.2,9.2,9.2s9.2-4.1,9.2-9.2c0-50.5,41.1-91.6,91.6-91.6s91.5,41.1,91.5,91.6c0,5.1,4.1,9.2,9.2,9.2
					c5.1,0,9.1-4.1,9.1-9.2c0-19.9-5.4-38.5-14.7-54.6c1.8-0.2,3.7-0.3,5.5-0.3c45.4,0,82.4,37,82.4,82.4
					C390.3,174.5,371,204.1,341,217.3z"/>
			</g>
		</g>
	</g>
</g>
</svg>
