<?xml version="1.0" encoding="utf-8"?>
<!-- Generator: Adobe Illustrator 23.0.1, SVG Export Plug-In . SVG Version: 6.00 Build 0)  -->
<svg version="1.1" id="Layer_1" xmlns="http://www.w3.org/2000/svg" xmlns:xlink="http://www.w3.org/1999/xlink" x="0px" y="0px"
	 viewBox="0 0 426.2 426.2" style="enable-background:new 0 0 426.2 426.2;" xml:space="preserve">
<style type="text/css">
	.st0{fill:#5C7880;}
</style>
<g>
	<g>
		<g>
			<path class="st0" d="M116.2,203.4c0-5.4-4.3-9.7-9.7-9.7c-5.4,0-9.7,4.3-9.7,9.7c0,25.4,28.1,60.4,31.3,64.3
				c1.9,2.3,4.7,3.5,7.5,3.5c2.2,0,4.3-0.7,6.1-2.2c4.1-3.4,4.7-9.5,1.3-13.6C132.7,242.7,116.2,217.4,116.2,203.4z"/>
			<path class="st0" d="M319.6,193.7c-5.4,0-9.7,4.3-9.7,9.7c0,14-16.5,39.3-26.9,52c-3.4,4.1-2.8,10.2,1.4,13.6
				c1.8,1.5,4,2.2,6.1,2.2c2.8,0,5.6-1.2,7.5-3.5c3.2-3.9,31.3-38.8,31.3-64.3C329.3,198.1,325,193.7,319.6,193.7z"/>
			<path class="st0" d="M213.1,193.7c-5.4,0-9.7,4.3-9.7,9.7v58.1c0,5.4,4.3,9.7,9.7,9.7s9.7-4.3,9.7-9.7v-58.1
				C222.8,198.1,218.5,193.7,213.1,193.7z"/>
			<path class="st0" d="M319.6,38.7c-5.9,0-12,0.8-18.4,2C279.9,15.8,248.4,0,213.1,0s-66.8,15.8-88.2,40.7c-6.4-1.2-12.5-2-18.4-2
				C47.8,38.7,0,86.5,0,145.3c0,40.3,22.7,76.9,58.3,95l-0.2,146.4c0,10.6,4.1,20.5,11.6,28s17.4,11.6,28,11.6h230.9
				c21.8,0,39.5-17.7,39.5-39.5V240.1c35.5-18.1,58.1-54.7,58.1-94.8C426.2,86.5,378.4,38.7,319.6,38.7z M348.7,386.7
				c0,11.1-9,20.1-20.1,20.1H97.7c-5.4,0-10.4-2.1-14.3-5.9c-3.8-3.8-5.9-8.9-5.9-14.3l0.1-37.9h271.1V386.7z M354.7,225
				c-0.5,0.2-1,0.5-1.4,0.7c-1.2,0.8-2.2,1.8-3,2.9c-0.8,1.1-1.3,2.5-1.5,3.9c-0.1,0.5-0.1,1.1-0.1,1.6v95.1H77.6l0.1-95
				c0-0.5,0-1.1-0.1-1.6c-0.2-1.5-0.7-2.8-1.5-4c-0.7-1.1-1.7-2.1-2.9-2.8c-0.5-0.3-1-0.6-1.5-0.8c-31.8-13.9-52.3-45.2-52.3-79.8
				c0-48.1,39.1-87.2,87.2-87.2c1.9,0,3.9,0.2,5.8,0.4c-9.8,17-15.5,36.7-15.5,57.7c0,5.4,4.3,9.7,9.7,9.7c5.4,0,9.7-4.3,9.7-9.7
				c0-53.4,43.5-96.9,96.9-96.9s96.8,43.6,96.8,97c0,5.4,4.3,9.7,9.7,9.7c5.4,0,9.7-4.3,9.7-9.7c0-21-5.7-40.7-15.5-57.7
				c1.9-0.2,3.9-0.4,5.8-0.4c48.1,0,87.2,39.1,87.2,87.2C406.8,179.8,386.4,211.1,354.7,225z"/>
		</g>
	</g>
</g>
</svg>
