<?xml version="1.0" encoding="utf-8"?>
<!-- Generator: Adobe Illustrator 23.0.1, SVG Export Plug-In . SVG Version: 6.00 Build 0)  -->
<svg version="1.1" id="圖層_1" xmlns="http://www.w3.org/2000/svg" xmlns:xlink="http://www.w3.org/1999/xlink" x="0px" y="0px"
	 viewBox="0 0 425.2 425.2" style="enable-background:new 0 0 425.2 425.2;" xml:space="preserve">
<style type="text/css">
	.st0{fill:#5C7880;}
</style>
<path class="st0" d="M420.5,126.9c0-3.6-1.4-7-4-9.5l-22.7-22.7c-5.3-5.3-13.8-5.3-19.1,0L212.7,256L50.5,94.6
	c-5.3-5.2-13.8-5.2-19.1,0L8.8,117.3c-2.6,2.5-4,5.9-4,9.5c0,3.6,1.4,7,4,9.5l194.3,194.3l0,0c5.3,5.3,13.8,5.3,19.1,0l194.3-194.3
	C419.1,133.9,420.5,130.5,420.5,126.9z"/>
</svg>
