<?xml version="1.0" encoding="utf-8"?>
<!-- Generator: Adobe Illustrator 23.0.1, SVG Export Plug-In . SVG Version: 6.00 Build 0)  -->
<svg version="1.1" id="圖層_1" xmlns="http://www.w3.org/2000/svg" xmlns:xlink="http://www.w3.org/1999/xlink" x="0px" y="0px"
	 viewBox="0 0 425.2 425.2" style="enable-background:new 0 0 425.2 425.2;" xml:space="preserve">
<style type="text/css">
	.st0{fill:#5C7880;}
</style>
<path class="st0" d="M237.2,212.6L362.9,86.9c6.8-6.8,6.8-17.8,0-24.6s-17.8-6.8-24.6,0L212.6,188L86.9,62.3
	c-6.8-6.8-17.8-6.8-24.6,0s-6.8,17.8,0,24.6L188,212.6L62.3,338.3c-6.8,6.8-6.8,17.8,0,24.6c3.4,3.4,7.9,5.1,12.3,5.1
	c4.5,0,8.9-1.7,12.3-5.1l125.7-125.7l125.7,125.7c3.4,3.4,7.9,5.1,12.3,5.1c4.5,0,8.9-1.7,12.3-5.1c6.8-6.8,6.8-17.8,0-24.6
	L237.2,212.6z"/>
</svg>
