<?xml version="1.0" encoding="utf-8"?>
<!-- Generator: Adobe Illustrator 23.0.1, SVG Export Plug-In . SVG Version: 6.00 Build 0)  -->
<svg version="1.1" id="圖層_1" xmlns="http://www.w3.org/2000/svg" xmlns:xlink="http://www.w3.org/1999/xlink" x="0px" y="0px"
	 viewBox="0 0 425.2 425.2" style="enable-background:new 0 0 425.2 425.2;" xml:space="preserve">
<style type="text/css">
	.st0{fill:#5C7880;}
</style>
<g>
	<path class="st0" d="M249.5,149.2c-3.5,0-6.3,2.8-6.3,6.3v181.3c0,3.5,2.8,6.3,6.3,6.3h20.1c3.5,0,6.3-2.8,6.3-6.3V155.5
		c0-3.5-2.8-6.3-6.3-6.3H249.5z"/>
	<path class="st0" d="M155.5,149.2c-3.5,0-6.3,2.8-6.3,6.3v181.3c0,3.5,2.8,6.3,6.3,6.3h20.1c3.5,0,6.3-2.8,6.3-6.3V155.5
		c0-3.5-2.8-6.3-6.3-6.3H155.5z"/>
	<path class="st0" d="M380.4,68.7h-64.6l-29.6-49.4c-6.6-10.9-18.6-17.7-31.3-17.7h-84.6c-12.7,0-24.7,6.8-31.3,17.7l-29.6,49.4
		H44.8c-9,0-16.4,7.3-16.4,16.4v10.1c0,3.5,2.8,6.3,6.3,6.3h20.6v285.7c0,20.1,16.4,36.5,36.5,36.5h241.7
		c20.1,0,36.5-16.4,36.5-36.5V101.4h20.6c3.5,0,6.3-2.8,6.3-6.3V85C396.8,76,389.5,68.7,380.4,68.7z M165.6,38.5
		c1.6-2.6,4.5-4.3,7.6-4.3h78.9c3.1,0,6,1.6,7.6,4.3l18.1,30.1H147.5L165.6,38.5z M337.2,382.1c0,4.9-4,8.8-8.8,8.8H96.8
		c-4.9,0-8.8-4-8.8-8.8V101.4h249.2V382.1z"/>
</g>
</svg>
