<?xml version="1.0" encoding="utf-8"?>
<!-- Generator: Adobe Illustrator 23.0.1, SVG Export Plug-In . SVG Version: 6.00 Build 0)  -->
<svg version="1.1" id="Capa_1" xmlns="http://www.w3.org/2000/svg" xmlns:xlink="http://www.w3.org/1999/xlink" x="0px" y="0px"
	 viewBox="0 0 426.2 426.2" style="enable-background:new 0 0 426.2 426.2;" xml:space="preserve">
<style type="text/css">
	.st0{fill:#5C7880;}
</style>
<path class="st0" d="M348.5,280.3c-10.4,0-20.3,4.1-27.8,11.5c-7.5,7.5-11.6,17.2-11.6,27.6s4.1,20.1,11.6,27.6
	c7.6,7.4,17.4,11.5,27.8,11.5c21.4,0,38.7-17.5,38.7-39.1C387.3,297.9,369.9,280.3,348.5,280.3z M348.5,341.1
	c-12,0-22.1-9.9-22.1-21.7c0-11.8,10.1-21.7,22.1-21.7c11.8,0,21.4,9.7,21.4,21.7S360.3,341.1,348.5,341.1z M358.6,150.1
	c-1.6-1.5-3.6-2.3-5.8-2.3h-44.6c-4.8,0-8.7,3.9-8.7,8.7v71.2c0,4.8,3.9,8.7,8.7,8.7h70.7c4.8,0,8.7-3.9,8.7-8.7V180
	c0-2.4-1-4.8-2.9-6.4L358.6,150.1z M370.2,219.1h-53.3v-53.9h32.5l20.8,18.8V219.1z M136.5,280.3c-10.4,0-20.3,4.1-27.8,11.5
	C101.2,299.2,97,309,97,319.4s4.1,20.1,11.6,27.6c7.6,7.4,17.4,11.5,27.8,11.5c21.4,0,38.7-17.5,38.7-39.1
	C175.2,297.9,157.8,280.3,136.5,280.3z M136.5,341.1c-12,0-22.1-9.9-22.1-21.7c0-11.8,10.1-21.7,22.1-21.7
	c11.8,0,21.4,9.7,21.4,21.7C157.8,331.4,148.3,341.1,136.5,341.1z M78.5,291H61.1v-23.1c0-4.8-3.9-8.7-8.7-8.7s-8.7,3.9-8.7,8.7
	v31.8c0,4.8,3.9,8.7,8.7,8.7h26.1c4.8,0,8.7-3.9,8.7-8.7C87.2,294.9,83.3,291,78.5,291z M122.6,243.7c0-4.8-3.9-8.7-8.7-8.7H8.5
	c-4.8,0-8.7,3.9-8.7,8.7s3.9,8.7,8.7,8.7h105.3C118.7,252.4,122.6,248.5,122.6,243.7z M26.2,212.3l105.3,0.6c4.8,0,8.7-3.8,8.8-8.6
	c0.1-4.9-3.8-8.8-8.6-8.8l-105.3-0.6c-0.1,0-0.1,0-0.1,0c-4.8,0-8.7,3.8-8.7,8.6C17.5,208.4,21.4,212.3,26.2,212.3z M43.9,172.9
	h105.3c4.8,0,8.7-3.9,8.7-8.7s-3.9-8.7-8.7-8.7H43.9c-4.8,0-8.7,3.9-8.7,8.7S39.1,172.9,43.9,172.9z M423.1,161.2L423.1,161.2
	L361,109.7c-1.6-1.3-3.5-2-5.6-2h-73.1V76.4c0-4.8-3.9-8.7-8.7-8.7H52.4c-4.8,0-8.7,3.9-8.7,8.7V140c0,4.8,3.9,8.7,8.7,8.7
	s8.7-3.9,8.7-8.7V85.1H265V291h-71.2c-4.8,0-8.7,3.9-8.7,8.7c0,4.8,3.9,8.7,8.7,8.7h106c4.8,0,8.7-3.9,8.7-8.7
	c0-4.8-3.9-8.7-8.7-8.7h-17.5V125h70l56.6,46.9l-0.6,118.9h-9c-4.8,0-8.7,3.9-8.7,8.7s3.9,8.7,8.7,8.7H417c4.8,0,8.7-3.8,8.7-8.6
	l0.7-131.7C426.3,165.3,425.1,162.8,423.1,161.2z"/>
</svg>
