<?xml version="1.0" encoding="utf-8"?>
<!-- Generator: Adobe Illustrator 23.0.1, SVG Export Plug-In . SVG Version: 6.00 Build 0)  -->
<svg version="1.1" id="Capa_1" xmlns="http://www.w3.org/2000/svg" xmlns:xlink="http://www.w3.org/1999/xlink" x="0px" y="0px"
	 viewBox="0 0 425.2 425.2" style="enable-background:new 0 0 425.2 425.2;" xml:space="preserve">
<style type="text/css">
	.st0{fill:#D3554A;}
</style>
<path class="st0" d="M212.6,422.1c-115.5,0-209.5-94-209.5-209.5C3.1,97.1,97.1,3.1,212.6,3.1s209.5,94,209.5,209.5
	S328.1,422.1,212.6,422.1z M212.6,16.1c-108.4,0-196.5,88.1-196.5,196.5s88.1,196.5,196.5,196.5S409.1,321,409.1,212.6
	S321,16.1,212.6,16.1z M299.3,105.9H125.9c-11,0-20,9-20,20v173.4c0,11,9,20,20,20h173.4c11,0,20-9,20-20V125.9
	C319.3,114.8,310.4,105.9,299.3,105.9z M251.8,138.5c0-7.3,6-13.3,13.3-13.3h16.7c7.3,0,13.3,6,13.3,13.3v20.2
	c0,7.3-6,13.3-13.3,13.3h-16.7c-7.3,0-13.3-6-13.3-13.3V138.5z M212.6,165.5c25.9,0,47.1,21.1,47.1,47.1s-21.1,47.1-47.1,47.1
	s-47.1-21.1-47.1-47.1S186.6,165.5,212.6,165.5z M299.3,306H125.9c-3.7,0-6.7-3-6.7-6.7V196.4h6.7H148h6.5
	c-1.5,5.2-2.3,10.6-2.3,16.2c0,33.3,27.1,60.4,60.4,60.4s60.4-27.1,60.4-60.4c0-5.6-0.9-11-2.3-16.2h6.5h22.1h6.7v102.9
	C306,303,303,306,299.3,306z"/>
</svg>
