<?xml version="1.0" encoding="utf-8"?>
<!-- Generator: Adobe Illustrator 23.0.1, SVG Export Plug-In . SVG Version: 6.00 Build 0)  -->
<svg version="1.1" id="Capa_1" xmlns="http://www.w3.org/2000/svg" xmlns:xlink="http://www.w3.org/1999/xlink" x="0px" y="0px"
	 viewBox="0 0 459 425.2" style="enable-background:new 0 0 459 425.2;" xml:space="preserve">
<style type="text/css">
	.st0{fill:#5C7880;}
</style>
<path class="st0" d="M421.8,48.3c-24.1-24.1-56.2-37.4-90.3-37.4s-66.2,13.3-90.4,37.5l-11.4,11.4L218,48.2
	c-24.2-24.2-56.3-37.6-90.5-37.6c-34.1,0-66.1,13.3-90.2,37.4C13.2,72.2-0.1,104.3,0,138.4c0,34,13.3,66.1,37.6,90.3l181.6,181.6
	c2.7,2.7,6.5,4.3,10.2,4.3c3.8,0,7.5-1.5,10.2-4.2l182-181.3c24.2-24.2,37.5-56.3,37.5-90.4C459.1,104.5,445.9,72.4,421.8,48.3z
	 M430,138.7c0.1,26.3-10.2,51.1-28.9,69.8L229.4,379.6L58,208.2c-18.7-18.7-29-43.5-29-69.9c0-26.5,10.3-51.2,28.9-69.8
	s43.4-28.9,69.7-28.9c26.4,0,51.3,10.3,70,29l21.9,21.9c5.7,5.7,14.9,5.7,20.5,0l21.7-21.7c18.7-18.7,43.5-29,69.9-29
	c26.3,0,51,10.3,69.8,28.9C419.8,87.4,430,112.2,430,138.7z"/>
</svg>
