<?xml version="1.0" encoding="utf-8"?>
<!-- Generator: Adobe Illustrator 16.0.0, SVG Export Plug-In . SVG Version: 6.00 Build 0)  -->
<!DOCTYPE svg PUBLIC "-//W3C//DTD SVG 1.1//EN" "http://www.w3.org/Graphics/SVG/1.1/DTD/svg11.dtd">
<svg version="1.1" id="Capa_1" xmlns="http://www.w3.org/2000/svg" xmlns:xlink="http://www.w3.org/1999/xlink" x="0px" y="0px"
	 width="1169.5px" height="1059.5px" viewBox="0 -291.5 1169.5 1059.5" enable-background="new 0 -291.5 1169.5 1059.5"
	 xml:space="preserve">
<path fill="#E67348" d="M1064.144-161.038c-59.854-59.852-139.574-92.885-224.264-92.885c-84.683,0-164.405,33.032-224.507,93.133
	l-28.307,28.312l-29.062-28.809c-60.104-60.103-139.823-93.382-224.76-93.382c-84.687,0-164.161,33.032-224.015,92.882
	C49.376-101.683,16.345-21.961,16.595,62.727c0,84.439,33.031,164.16,93.38,224.259l451.007,451.01
	c6.71,6.709,16.144,10.672,25.334,10.672c9.435,0,18.623-3.724,25.332-10.43l451.996-450.264
	c60.102-60.101,93.132-139.823,93.132-224.512C1156.776-21.462,1123.99-101.184,1064.144-161.038z M1084.503,63.475
	c0.247,65.316-25.327,126.908-71.774,173.348L586.314,661.752L160.637,236.08c-46.441-46.444-72.021-108.035-72.021-173.6
	c0-65.812,25.58-127.156,71.772-173.35c46.194-46.194,107.787-71.774,173.103-71.774c65.566,0,127.404,25.58,173.848,72.021
	l54.389,54.39c14.156,14.156,37.006,14.156,50.912,0l53.889-53.891c46.448-46.445,108.036-72.023,173.606-72.023
	c65.312,0,126.658,25.579,173.351,71.774C1059.172-63.931,1084.503-2.339,1084.503,63.475z"/>
</svg>
