<?xml version="1.0" encoding="utf-8"?>
<!-- Generator: Adobe Illustrator 23.0.1, SVG Export Plug-In . SVG Version: 6.00 Build 0)  -->
<svg version="1.1" id="Capa_1" xmlns="http://www.w3.org/2000/svg" xmlns:xlink="http://www.w3.org/1999/xlink" x="0px" y="0px"
	 viewBox="0 0 425.2 425.2" style="enable-background:new 0 0 425.2 425.2;" xml:space="preserve">
<style type="text/css">
	.st0{fill:#D3554A;}
</style>
<path class="st0" d="M318.1,119.1h-211c-13.4,0-24.3,10.9-24.3,24.3v138.3c0,13.4,10.9,24.3,24.3,24.3h211
	c13.4,0,24.3-10.9,24.3-24.3V143.4C342.5,130,331.5,119.1,318.1,119.1z M326.2,281.8c0,4.5-3.6,8.1-8.1,8.1h-211
	c-4.5,0-8.1-3.6-8.1-8.1V146.9l96.1,83.7c9.4,8.2,25.7,8.2,35.1,0l96.1-83.7v134.9H326.2z M219.5,218.4c-3.7,3.2-10.1,3.2-13.8,0
	l-95.4-83.1h204.5L219.5,218.4z M212.6,422.1c-115.5,0-209.5-94-209.5-209.5C3.1,97.1,97.1,3.1,212.6,3.1s209.5,94,209.5,209.5
	S328.1,422.1,212.6,422.1z M212.6,16.1c-108.4,0-196.5,88.1-196.5,196.5s88.1,196.5,196.5,196.5S409.1,321,409.1,212.6
	S321,16.1,212.6,16.1z"/>
</svg>
