<?xml version="1.0" encoding="utf-8"?>
<!-- Generator: Adobe Illustrator 16.0.0, SVG Export Plug-In . SVG Version: 6.00 Build 0)  -->
<!DOCTYPE svg PUBLIC "-//W3C//DTD SVG 1.1//EN" "http://www.w3.org/Graphics/SVG/1.1/DTD/svg11.dtd">
<svg version="1.1" id="Capa_1" xmlns="http://www.w3.org/2000/svg" xmlns:xlink="http://www.w3.org/1999/xlink" x="0px" y="0px"
	 width="670px" height="637.854px" viewBox="11 16.073 670 637.854" enable-background="new 11 16.073 670 637.854"
	 xml:space="preserve">
<g>
	<path fill="#5C7880" d="M344.896,371.557c98.168,0,178.058-79.889,178.058-178.057c0-47.429-18.594-92.18-52.156-125.585
		c-33.562-33.406-78.312-51.842-125.901-51.842c-98.168,0-178.057,79.574-178.057,177.427
		C166.84,291.667,246.729,371.557,344.896,371.557z M209.069,193.5c0-74.847,60.979-135.828,135.827-135.828
		s135.827,60.98,135.827,135.828s-60.979,135.828-135.827,135.828C270.05,329.327,209.069,268.504,209.069,193.5z"/>
	<path fill="#5C7880" d="M456.932,408.744H235.068C111.531,408.744,11,509.275,11,632.812c0,11.817,9.297,21.114,21.115,21.114
		h627.77c11.818,0,21.115-9.297,21.115-21.114C681,509.275,580.469,408.744,456.932,408.744z M637.51,611.698H54.49l0.473-3.151
		c11.977-89.975,89.501-157.729,180.105-157.729h221.862c44.277,0,86.98,16.071,120.387,45.381
		c32.773,28.993,54.047,68.701,59.877,112.034L637.51,611.698z"/>
</g>
</svg>
