<?xml version="1.0" encoding="utf-8"?>
<!-- Generator: Adobe Illustrator 16.0.0, SVG Export Plug-In . SVG Version: 6.00 Build 0)  -->
<!DOCTYPE svg PUBLIC "-//W3C//DTD SVG 1.1//EN" "http://www.w3.org/Graphics/SVG/1.1/DTD/svg11.dtd">
<svg version="1.1" id="圖層_1" xmlns="http://www.w3.org/2000/svg" xmlns:xlink="http://www.w3.org/1999/xlink" x="0px" y="0px"
	 width="214.947px" height="66.551px" viewBox="0 0 214.947 66.551" enable-background="new 0 0 214.947 66.551"
	 xml:space="preserve">
<path fill="#5B7880" d="M30.861,62.28c-0.553,0-1-0.448-1-1V25.746C21.683,25.643,12.7,23.881,5,21.11
	c-0.52-0.187-0.789-0.76-0.602-1.28c0.187-0.52,0.756-0.79,1.279-0.602c8.896,3.202,17.178,4.567,24.183,4.598v-8.321
	c-0.002-0.083-0.118-10.644,11.026-13.2c4.985-1.142,9.891,0.842,12.211,4.938c2.218,3.915,1.37,8.512-2.266,12.298
	c-4.005,4.169-11.008,6.024-18.972,6.197V61.28C31.861,61.832,31.414,62.28,30.861,62.28z M43.674,3.986
	c-0.767,0-1.552,0.087-2.34,0.268c-9.528,2.186-9.48,10.862-9.474,11.23v8.314c8.229-0.273,14.468-2.457,17.528-5.643
	c2.99-3.113,3.727-6.824,1.969-9.926C49.836,5.544,46.913,3.986,43.674,3.986z"/>
<g>
	<path fill="#5B7880" d="M49.547,23.508c-1.105,0.714-2.425,1.419-3.997,2.062v34.711c1.328-0.39,2.678-0.92,3.997-1.627V23.508z"/>
	<path fill="#5B7880" d="M40.034,61.25c1.23-0.085,2.586-0.258,3.997-0.574V26.135c-1.204,0.416-2.527,0.794-3.997,1.111V61.25z"/>
	<path fill="#5B7880" d="M51.067,22.422v35.325c1.307-0.865,2.558-1.929,3.69-3.242V18.171
		C54.757,18.171,53.897,20.19,51.067,22.422z"/>
	<path fill="#5B7880" d="M38.514,27.542c-1.316,0.232-2.73,0.42-4.257,0.548v32.967c0,0,1.714,0.302,4.257,0.259V27.542z"/>
</g>
<g>
	<path fill="#5B7880" d="M82.921,36.124c-0.115,2.745-1.027,4.646-2.732,5.704c-1.705,1.058-3.476,1.562-5.309,1.51h-5.195v10.581
		h-4.693V28.41h9.504c2.641,0.026,4.699,0.721,6.174,2.087C82.144,31.863,82.895,33.739,82.921,36.124z M78.189,36.336
		c-0.039-2.36-0.606-4.004-1.703-4.935c-1.096-0.93-2.484-1.401-4.164-1.414h-2.637v11.812h2.79
		c1.782-0.077,3.177-0.542,4.185-1.395C77.666,39.552,78.175,38.195,78.189,36.336z"/>
	<path fill="#5B7880" d="M96.165,33.946c0.327,0.312,0.681,0.954,1.062,1.927s0.817,2.274,1.309,3.901
		c0.49,1.627,1.07,3.613,1.74,5.957c0.669,2.344,1.487,5.073,2.452,8.188h-4.602l-1.822-6.237h-7.592l-1.822,6.237h-1.961
		c0.73-2.788,1.416-5.337,2.055-7.65c0.639-2.312,1.203-4.356,1.693-6.132c0.491-1.775,0.931-3.188,1.32-4.239
		c0.389-1.051,0.725-1.686,1.004-1.904c0.219-0.234,0.526-0.463,0.924-0.689c0.396-0.226,0.883-0.346,1.459-0.362
		c0.686,0.016,1.273,0.136,1.764,0.362C95.638,33.53,95.978,33.744,96.165,33.946z M95.837,45.953l-2.687-9.484
		c-0.046-0.125-0.132-0.226-0.257-0.304s-0.266-0.117-0.42-0.117c-0.141,0-0.27,0.055-0.386,0.164
		c-0.117,0.109-0.222,0.265-0.315,0.467l-2.64,9.274H95.837z"/>
	<path fill="#5B7880" d="M109.853,37.474c0,0.436,0.086,0.829,0.257,1.18c0.171,0.35,0.374,0.65,0.607,0.899
		c0.653,0.545,1.837,1.297,3.551,2.254c1.713,0.958,3.021,1.826,3.925,2.604c0.326,0.312,0.626,0.755,0.898,1.332
		s0.416,1.332,0.432,2.266c0.062,1.495-0.498,2.854-1.682,4.076s-3.332,1.88-6.447,1.974c-1.074-0.016-2.062-0.066-2.966-0.152
		s-1.604-0.167-2.103-0.245V52.12c0.529,0.109,1.227,0.214,2.091,0.315c0.864,0.102,1.538,0.16,2.021,0.175
		c1.572,0,2.748-0.257,3.527-0.771c0.778-0.514,1.168-1.315,1.168-2.406c-0.016-0.576-0.113-1.059-0.292-1.448
		s-0.354-0.669-0.526-0.841c-1.152-0.841-2.799-1.81-4.939-2.908c-2.143-1.098-3.338-2.76-3.586-4.987
		c-0.016-1.697,0.596-3.115,1.834-4.251s3.164-1.729,5.781-1.775c0.778,0,1.592,0.043,2.441,0.128
		c0.848,0.086,1.482,0.16,1.903,0.222v1.612c-0.233-0.015-0.782-0.07-1.647-0.163c-0.863-0.094-1.607-0.148-2.23-0.164
		c-1.572,0.046-2.644,0.347-3.212,0.899C110.09,36.31,109.822,36.882,109.853,37.474z"/>
	<path fill="#5B7880" d="M131.531,35.324v18.594h-4.485V35.324h-4.368v-1.705h13.221v1.705H131.531z"/>
	<path fill="#5B7880" d="M149.423,33.946c0.328,0.312,0.682,0.954,1.062,1.927c0.383,0.973,0.818,2.274,1.309,3.901
		c0.49,1.627,1.07,3.613,1.74,5.957c0.67,2.344,1.487,5.073,2.453,8.188h-4.602l-1.822-6.237h-7.592l-1.822,6.237h-1.962
		c0.731-2.788,1.417-5.337,2.056-7.65c0.639-2.312,1.203-4.356,1.693-6.132c0.49-1.775,0.93-3.188,1.32-4.239
		c0.389-1.051,0.724-1.686,1.004-1.904c0.218-0.234,0.525-0.463,0.923-0.689c0.397-0.226,0.884-0.346,1.46-0.362
		c0.686,0.016,1.273,0.136,1.764,0.362C148.898,33.53,149.237,33.744,149.423,33.946z M149.097,45.953l-2.688-9.484
		c-0.046-0.125-0.132-0.226-0.256-0.304c-0.125-0.078-0.266-0.117-0.421-0.117c-0.14,0-0.269,0.055-0.386,0.164
		c-0.117,0.109-0.222,0.265-0.314,0.467l-2.641,9.274H149.097z"/>
	<path fill="#5B7880" d="M173.273,33.619h1.939v19.458c0,0.436-0.117,0.782-0.351,1.04c-0.233,0.257-0.607,0.4-1.121,0.432
		c-0.233,0-0.468-0.039-0.7-0.117c-0.234-0.078-0.477-0.249-0.725-0.514l-9.624-16.632c-0.047-0.109-0.102-0.183-0.163-0.222
		c-0.062-0.039-0.156-0.059-0.281-0.059c-0.094,0-0.163,0.031-0.21,0.093c-0.047,0.062-0.069,0.14-0.069,0.234v16.585h-1.963V36.679
		c0-1.09,0.241-1.981,0.725-2.675c0.482-0.692,1.245-1.047,2.289-1.062c0.701,0.031,1.288,0.203,1.764,0.514
		c0.475,0.312,0.797,0.569,0.969,0.771c0.39,0.39,0.845,1.013,1.367,1.869c0.521,0.857,1.086,1.846,1.693,2.967
		s1.238,2.27,1.893,3.445c0.653,1.176,1.299,2.309,1.938,3.399c0.125,0.14,0.258,0.187,0.398,0.14c0.14-0.047,0.217-0.14,0.232-0.28
		V33.619z"/>
	<path fill="#5B7880" d="M186.565,27.779c-0.017,0.67-0.253,1.258-0.713,1.764c-0.46,0.506-1.078,0.775-1.856,0.806
		c-0.779-0.031-1.41-0.296-1.893-0.794c-0.482-0.498-0.732-1.09-0.748-1.775c0-0.669,0.23-1.269,0.689-1.799
		c0.459-0.529,1.109-0.809,1.951-0.841c0.809,0.032,1.439,0.308,1.892,0.83C186.339,26.491,186.565,27.094,186.565,27.779z
		 M186.191,33.619v20.299h-4.508V33.619H186.191z"/>
	<path fill="#5B7880" d="M201.585,33.946c0.326,0.312,0.681,0.954,1.062,1.927c0.381,0.973,0.817,2.274,1.309,3.901
		c0.49,1.627,1.07,3.613,1.74,5.957c0.668,2.344,1.486,5.073,2.452,8.188h-4.603l-1.821-6.237h-7.592l-1.822,6.237h-1.962
		c0.731-2.788,1.417-5.337,2.056-7.65c0.638-2.312,1.202-4.356,1.693-6.132c0.491-1.775,0.931-3.188,1.319-4.239
		c0.39-1.051,0.725-1.686,1.005-1.904c0.218-0.234,0.526-0.463,0.923-0.689c0.396-0.226,0.884-0.346,1.46-0.362
		c0.685,0.016,1.272,0.136,1.764,0.362C201.059,33.53,201.398,33.744,201.585,33.946z M201.257,45.953l-2.686-9.484
		c-0.047-0.125-0.133-0.226-0.258-0.304c-0.124-0.078-0.265-0.117-0.42-0.117c-0.141,0-0.269,0.055-0.385,0.164
		c-0.117,0.109-0.223,0.265-0.316,0.467l-2.639,9.274H201.257z"/>
</g>
</svg>
