<?xml version="1.0" encoding="utf-8"?>
<!-- Generator: Adobe Illustrator 22.1.0, SVG Export Plug-In . SVG Version: 6.00 Build 0)  -->
<svg version="1.1" id="圖層_1" xmlns="http://www.w3.org/2000/svg" xmlns:xlink="http://www.w3.org/1999/xlink" x="0px" y="0px"
	 viewBox="0 0 425.2 425.2" style="enable-background:new 0 0 425.2 425.2;" xml:space="preserve">
<style type="text/css">
	.st0{fill:#C8DBD7;}
	.st1{fill:none;}
	.st2{fill:#5C7880;}
</style>
<path class="st0" d="M122,147.1c1.9-0.8,4.1-0.8,6.2,0l71,28.3c3.5,1.4,5.8,4.9,5.8,8.9v106.1c0.1,24.9-13.3,47.8-34.4,59L129,371.5
	c-2.5,1.3-5.5,1.3-8,0l-35-18.6v12.9v26c0,0,0,0.1,0,0.2c-0.1,18.4,14,33.3,31.3,33.4h260.5c15.3-0.2,27.7-13.5,27.5-29.8V55
	c0.1-18.4-14-33.3-31.3-33.4h-35.3v49.8c0,0,0,0.1,0,0.2c-0.2,18.5-14.4,33.2-31.7,33H184.2c-17.3,0.1-31.5-14.8-31.6-33.2V21.6
	h-35.5C99.8,21.8,85.8,36.8,86,55.3v97.4v8.7L122,147.1z"/>
<g>
	<path class="st1" d="M103.6,131.2l77.9,29.2c3.8,1.4,6.3,5.1,6.3,9.1v4.9h19.4c5.8,0,10.6,4.7,10.6,10.6s-4.7,10.6-10.6,10.6h-19.4
		v46.5h125.8c5.8,0,10.6,4.7,10.6,10.6c0,5.9-4.7,10.6-10.6,10.6H187.7v16.1c0.1,10.7-2.5,21.2-7.1,30.4h132.9
		c5.8,0,10.6,4.7,10.6,10.6c0,5.8-4.7,10.6-10.6,10.6H164.3c-4.2,3.6-9,6.9-14.1,9.4l-45.6,22.8c-2.7,1.4-5.9,1.4-8.7,0l-35.1-17.6
		V370c0,0.1,0,0.2,0,0.2c-0.1,17.3,14,31.5,31.3,31.5h260.4c15.4-0.2,27.7-12.8,27.5-28.1v-321c0.1-17.3-14-31.5-31.3-31.5h-35.3v47
		c0,0.1,0,0.2,0,0.2c-0.2,17.3-14.4,31.3-31.7,31.1H158.8c-17.3,0.1-31.5-14-31.6-31.3v-47H91.7c-17.3,0.2-31.3,14.4-31.1,31.7v91.8
		l36.1-13.5C99,130.4,101.4,130.4,103.6,131.2z"/>
	<path class="st1" d="M148.4,68c0,0.1,0,0.2,0,0.3c0.2,5.7,4.9,10.1,10.6,9.9h122.6c0.1,0,0.2,0,0.3,0c5.7,0.1,10.3-4.5,10.3-10.2
		V21.2H148.4V68z"/>
	<path class="st2" d="M348.8,0h-0.2H92C63,0.1,39.4,23.7,39.5,52.7v99.9l21.2-8V52.9c-0.2-17.4,13.8-31.6,31.1-31.7h35.5v47
		c0.1,17.3,14.2,31.4,31.6,31.3h122.8c17.3,0.2,31.6-13.7,31.7-31.1c0-0.1,0-0.2,0-0.2v-47h35.3c17.3,0.1,31.4,14.1,31.3,31.5v321
		c0.2,15.4-12.2,27.9-27.5,28.1H92c-17.3-0.1-31.4-14.1-31.3-31.5c0-0.1,0-0.2,0-0.2v-24.5l-10.4-5.3c-3.8-1.9-7.4-4.1-10.7-6.7V370
		c-0.2,29,23.3,52.7,52.3,52.9h260.3c27.1-0.1,48.9-22,48.9-49.1V52.9C401.2,23.8,377.8,0.2,348.8,0z M292.1,68
		c-0.1,5.7-4.7,10.2-10.3,10.2c-0.1,0-0.2,0-0.3,0H159c-5.7,0.2-10.4-4.2-10.6-9.9c0-0.1,0-0.2,0-0.3V21h143.8L292.1,68L292.1,68z"
		/>
	<path class="st2" d="M207.1,195.6c5.8,0,10.6-4.7,10.6-10.6s-4.7-10.6-10.6-10.6h-19.4v21.2L207.1,195.6L207.1,195.6z"/>
	<path class="st2" d="M313.5,263.2c5.8,0,10.6-4.7,10.6-10.6c0-5.8-4.7-10.6-10.6-10.6H187.7v21.2H313.5z"/>
	<path class="st2" d="M164.3,330.9h149.3c5.8,0,10.6-4.7,10.6-10.6c0-5.8-4.7-10.6-10.6-10.6H180.7C176.6,317.8,171,325,164.3,330.9
		z"/>
	<g>
		<path class="st2" d="M173.8,166.1l-71-26.7c-2-0.8-4.2-0.8-6.2,0l-71,26.7c-3.5,1.3-5.8,4.6-5.8,8.3v100.2
			c-0.1,23.5,13.2,45.1,34.4,55.5L95.7,351c2.5,1.3,5.4,1.3,8,0l41.6-20.8c21.1-10.5,34.4-32.1,34.4-55.6v-100
			C179.5,170.8,177.2,167.5,173.8,166.1z M161.7,274.6c0.1,16.8-9.5,32.2-24.5,39.7l-37.6,18.8L62,314.3
			c-15.1-7.4-24.5-22.8-24.5-39.7v-94l62.1-23.3l62.1,23.3V274.6z"/>
	</g>
	<g>
		<path class="st2" d="M138.4,202.2L82,258.7l-18.8-18.8l-12.5,12.5l25.1,25.1c3.5,3.5,9.1,3.5,12.5,0l62.7-62.7L138.4,202.2z"/>
	</g>
</g>
</svg>
