<?xml version="1.0" encoding="utf-8"?>
<!-- Generator: Adobe Illustrator 23.0.1, SVG Export Plug-In . SVG Version: 6.00 Build 0)  -->
<svg version="1.1" id="圖層_1" xmlns="http://www.w3.org/2000/svg" xmlns:xlink="http://www.w3.org/1999/xlink" x="0px" y="0px"
	 viewBox="0 0 425.2 425.2" style="enable-background:new 0 0 425.2 425.2;" xml:space="preserve">
<style type="text/css">
	.st0{fill:#5C7880;}
</style>
<g>
	<path class="st0" d="M36.1,187.1c-2.7,2-4.3,5.3-4.3,8.7v215.8c0,6,4.9,10.9,10.9,10.9h340c6,0,10.9-4.9,10.9-10.9V195.8
		c0-3.4-1.6-6.6-4.3-8.7l-170-128.2c-1.9-1.5-4.2-2.2-6.6-2.2s-4.6,0.7-6.6,2.2L36.1,187.1z M371.7,201.2v199.5H53.5V201.2
		l159.1-120L371.7,201.2z"/>
	<path class="st0" d="M393.4,140.2c-0.4-2.9-1.9-5.4-4.2-7.2L219.2,4.9c-3.9-2.9-9.2-2.9-13.1,0L36.1,133
		c-4.8,3.6-5.8,10.5-2.1,15.2c3.6,4.8,10.5,5.8,15.2,2.1l0,0L212.6,27.2L376,150.4c1.9,1.4,4.2,2.2,6.5,2.2c3.5,0,6.6-1.6,8.7-4.3
		C393,146,393.8,143.1,393.4,140.2z"/>
	<path class="st0" d="M212.6,151.6c-25.9,0-47,21.1-47,47v35.7l-1.5,0.2c-12.2,1.8-21.4,12.5-21.4,24.8v87.9
		c0,13.9,11.3,25.1,25.1,25.1h89.7c13.9,0,25.1-11.3,25.1-25.1v-87.9c0-13.9-11.3-25.1-25.1-25.1h-70.1v-35.6
		c0-13.9,11.3-25.2,25.2-25.2s25.2,11.3,25.2,25.2v14.1c0,6,4.9,10.9,10.9,10.9s10.9-4.9,10.9-10.9v-14.1
		C259.6,172.7,238.5,151.6,212.6,151.6z M257.4,256L257.4,256c0.9,0,1.7,0.3,2.4,1c0.6,0.6,1,1.5,1,2.4v87.9c0,1.9-1.5,3.4-3.4,3.4
		h-89.7c-1.9,0-3.4-1.5-3.4-3.4v-87.9c0-1.9,1.5-3.4,3.4-3.4H257.4z"/>
</g>
</svg>
