<?xml version="1.0" encoding="utf-8"?>
<!-- Generator: Adobe Illustrator 22.1.0, SVG Export Plug-In . SVG Version: 6.00 Build 0)  -->
<svg version="1.1" id="Capa_1" xmlns="http://www.w3.org/2000/svg" xmlns:xlink="http://www.w3.org/1999/xlink" x="0px" y="0px"
	 viewBox="0 0 425.2 425.2" style="enable-background:new 0 0 425.2 425.2;" xml:space="preserve">
<style type="text/css">
	.st0{opacity:0.8;fill:#C8DBD8;enable-background:new    ;}
	.st1{fill:#5C7880;}
</style>
<circle class="st0" cx="235.5" cy="235.5" r="184.1"/>
<g>
	<path class="st1" d="M202.7,5.6c-3.6,0-6.6,2.9-6.6,6.6v87.3c0,3.6,2.9,6.6,6.6,6.6c3.6,0,6.6-2.9,6.6-6.6V18.9
		c98.4,3.5,177.3,84.6,177.3,183.8c0,101.4-82.5,183.9-183.9,183.9S18.8,304,18.8,202.6c0-49,19-95.1,53.6-129.8
		c2.6-2.6,2.6-6.7,0-9.3c-2.6-2.5-6.7-2.5-9.3,0C26,100.8,5.6,150.2,5.6,202.6c0,108.6,88.4,197,197,197s197-88.4,197-197
		S311.3,5.6,202.7,5.6z"/>
	<path class="st1" d="M193.2,225.8c4,5.5,10.3,9,17.1,9.6c0.6,0.1,1.2,0.1,1.8,0.1c6.2,0,12.1-2.4,16.5-6.9
		c4.8-4.8,7.3-11.5,6.8-18.4s-4-13.1-9.6-17.1l-85-61.5c-2.6-1.9-6.2-1.6-8.5,0.7s-2.6,5.9-0.7,8.5L193.2,225.8z M218.1,203.8
		c2.4,1.8,4,4.5,4.2,7.5s-0.9,5.9-3,8.1c-2.1,2.1-5.1,3.2-8.1,3s-5.7-1.8-7.5-4.2l-37.5-51.9L218.1,203.8z"/>
</g>
</svg>
