<?xml version="1.0" encoding="utf-8"?>
<!-- Generator: Adobe Illustrator 16.0.0, SVG Export Plug-In . SVG Version: 6.00 Build 0)  -->
<!DOCTYPE svg PUBLIC "-//W3C//DTD SVG 1.1//EN" "http://www.w3.org/Graphics/SVG/1.1/DTD/svg11.dtd">
<svg version="1.1" id="Capa_1" xmlns="http://www.w3.org/2000/svg" xmlns:xlink="http://www.w3.org/1999/xlink" x="0px" y="0px"
	 width="666.713px" height="634.683px" viewBox="506.607 17.648 666.713 634.683"
	 enable-background="new 506.607 17.648 666.713 634.683" xml:space="preserve">
<path fill="#E67348" d="M1172.479,257.947c-2.206-6.775-7.879-11.503-14.812-12.448l-208.153-30.412L856.23,26.63
	c-3.31-6.618-10.716-8.981-16.388-8.981c-5.673,0-13.236,2.363-16.546,8.981l-93.125,188.457l-207.839,30.412
	c-6.934,0.945-12.605,5.83-14.812,12.448c-2.206,6.776-0.315,13.867,4.569,18.909l150.324,146.7l-0.314,1.576l-34.824,205.79
	c-1.261,6.934,1.576,13.866,7.249,17.963c5.515,4.098,13.078,4.57,19.381,1.261l185.937-97.853l186.251,97.853
	c6.146,3.151,13.709,2.679,19.224-1.418c5.673-4.097,8.509-11.03,7.406-18.121l-35.611-207.051l150.64-146.7
	C1172.794,271.971,1174.527,264.723,1172.479,257.947z"/>
</svg>
