<?xml version="1.0" encoding="utf-8"?>
<!-- Generator: Adobe Illustrator 23.0.1, SVG Export Plug-In . SVG Version: 6.00 Build 0)  -->
<svg version="1.1" id="Capa_1" xmlns="http://www.w3.org/2000/svg" xmlns:xlink="http://www.w3.org/1999/xlink" x="0px" y="0px"
	 viewBox="0 0 425.2 425.2" style="enable-background:new 0 0 425.2 425.2;" xml:space="preserve">
<style type="text/css">
	.st0{fill:#5C7880;}
</style>
<g>
	<path class="st0" d="M212.5,12.2c3.4,0,7.6,1.4,9.5,5.1l59.2,119.6l0.2,0.5l0.5,0.1L414,156.8c4,0.5,7.3,3.3,8.6,7.2
		c1.2,4,0.2,8.2-2.7,11l-95.6,93.1l-0.4,0.4l0.1,0.5l22.6,131.4c0.6,4.1-1,8.2-4.3,10.5c-1.7,1.3-3.9,2-6.2,2c-1.7,0-3.4-0.4-5-1.2
		L213,349.6l-0.5-0.2l-0.5,0.2L94,411.7c-1.6,0.8-3.4,1.3-5.1,1.3c-2.3,0-4.4-0.7-6.1-2c-3.3-2.4-4.9-6.4-4.2-10.4L100.7,270l0.2-1
		l0.1-0.5l-0.4-0.4L5.2,175c-2.9-3-3.9-7.1-2.7-11c1.3-3.9,4.6-6.7,8.6-7.2L143,137.5l0.5-0.1l0.2-0.5l59.1-119.6
		C204.8,13.5,209.3,12.2,212.5,12.2 M212.5,11.2c-3.6,0-8.4,1.5-10.5,5.7l-59.1,119.6L11,155.8c-4.4,0.6-8,3.7-9.4,7.9
		c-1.4,4.3-0.2,8.8,2.9,12l95.4,93.1l-0.2,1L77.6,400.4c-0.8,4.4,1,8.8,4.6,11.4c2,1.5,4.3,2.2,6.7,2.2c1.9,0,3.8-0.5,5.6-1.4
		l118-62.1l118.2,62.1c1.7,0.9,3.6,1.3,5.4,1.3c2.4,0,4.8-0.7,6.8-2.2c3.6-2.6,5.4-7,4.7-11.5L325,268.8l95.6-93.1
		c3.2-3.1,4.3-7.7,3-12c-1.4-4.3-5-7.3-9.4-7.9l-132.1-19.3L222.9,16.9C220.8,12.7,216.1,11.2,212.5,11.2L212.5,11.2z"/>
</g>
</svg>
