<?xml version="1.0" encoding="utf-8"?>
<!-- Generator: Adobe Illustrator 23.0.1, SVG Export Plug-In . SVG Version: 6.00 Build 0)  -->
<svg version="1.1" id="Capa_1" xmlns="http://www.w3.org/2000/svg" xmlns:xlink="http://www.w3.org/1999/xlink" x="0px" y="0px"
	 viewBox="0 0 425.2 425.2" style="enable-background:new 0 0 425.2 425.2;" xml:space="preserve">
<style type="text/css">
	.st0{fill:#5C7880;}
</style>
<path class="st0" d="M423.6,163.7c-1.4-4.3-5-7.3-9.4-7.9l-132.1-19.3L222.9,16.9c-2.1-4.2-6.8-5.7-10.4-5.7s-8.4,1.5-10.5,5.7
	l-59.1,119.6L11,155.8c-4.4,0.6-8,3.7-9.4,7.9c-1.4,4.3-0.2,8.8,2.9,12l95.4,93.1l-0.2,1L77.6,400.4c-0.8,4.4,1,8.8,4.6,11.4
	c3.5,2.6,8.3,2.9,12.3,0.8l118-62.1l118.2,62.1c3.9,2,8.7,1.7,12.2-0.9c3.6-2.6,5.4-7,4.7-11.5L325,268.8l95.6-93.1
	C423.8,172.6,424.9,168,423.6,163.7z M304.3,256.4c-2.7,2.7-4,6.6-3.4,10.3L320.6,381l-102.7-54c-1.7-0.9-3.5-1.3-5.4-1.3
	s-3.8,0.5-5.4,1.3l-102.6,54L124,266.7c0.7-3.8-0.6-7.6-3.3-10.3l-82.9-80.9l114.6-16.8c3.8-0.5,7.1-2.9,8.8-6.4l51.4-103.9
	L264,152.3c1.7,3.4,5,5.8,8.8,6.4l114.8,16.8L304.3,256.4z"/>
</svg>
