<?xml version="1.0" encoding="utf-8"?>
<!-- Generator: Adobe Illustrator 23.0.1, SVG Export Plug-In . SVG Version: 6.00 Build 0)  -->
<svg version="1.1" id="圖層_1" xmlns="http://www.w3.org/2000/svg" xmlns:xlink="http://www.w3.org/1999/xlink" x="0px" y="0px"
	 viewBox="0 0 425.2 425.2" style="enable-background:new 0 0 425.2 425.2;" xml:space="preserve">
<style type="text/css">
	.st0{fill:#5C7880;}
</style>
<path class="st0" d="M282.2,206.1L156,55.2c-1.5-1.7-3.5-2.8-5.8-3s-4.5,0.5-6.2,1.9s-2.8,3.5-3,5.8s0.5,4.5,1.9,6.2l122.5,146.5
	L143,359.1c-3,3.6-2.5,9,1.1,12c1.5,1.3,3.5,2,5.4,2c2.5,0,4.9-1.1,6.5-3l126.2-151c1.5-1.8,2.2-4.1,1.9-6.5
	C284.4,210.3,283.7,207.9,282.2,206.1z"/>
</svg>
