<?xml version="1.0" encoding="utf-8"?>
<!-- Generator: Adobe Illustrator 16.0.0, SVG Export Plug-In . SVG Version: 6.00 Build 0)  -->
<!DOCTYPE svg PUBLIC "-//W3C//DTD SVG 1.1//EN" "http://www.w3.org/Graphics/SVG/1.1/DTD/svg11.dtd">
<svg version="1.1" id="圖層_1" xmlns="http://www.w3.org/2000/svg" xmlns:xlink="http://www.w3.org/1999/xlink" x="0px" y="0px"
	 width="696px" height="670px" viewBox="0 0 696 670" enable-background="new 0 0 696 670" xml:space="preserve">
<path fill="#5C7880" d="M659,645.332c0-6.674-2.616-12.824-7.328-17.404l0,0l-155.33-155.461l1.18-1.438
	c39.258-47.767,60.85-108.224,60.85-169.987c0-147.871-120.391-268.262-268.262-268.262c-147.871,0-268.263,120.39-268.263,268.262
	c0,147.871,120.391,268.261,268.262,268.261c61.896,0,122.223-21.592,169.855-60.719l1.438-1.178l155.461,155.33
	c9.685,9.684,25.387,9.684,35.069,0C656.383,658.156,659,652.006,659,645.332z M289.977,519.445
	c-120.521,0-218.535-98.015-218.535-218.404c0-120.521,98.014-218.535,218.535-218.535s218.535,98.014,218.535,218.535
	C508.512,421.432,410.498,519.445,289.977,519.445z"/>
</svg>
