<?xml version="1.0" encoding="utf-8"?>
<!-- Generator: Adobe Illustrator 23.0.0, SVG Export Plug-In . SVG Version: 6.00 Build 0)  -->
<svg version="1.1" id="Capa_1" xmlns="http://www.w3.org/2000/svg" xmlns:xlink="http://www.w3.org/1999/xlink" x="0px" y="0px"
	 viewBox="0 0 425.2 425.2" style="enable-background:new 0 0 425.2 425.2;" xml:space="preserve">
<style type="text/css">
	.st0{fill:#E67348;}
</style>
<path class="st0" d="M379,366.3L354.8,94c-0.6-6.7-6.3-11.9-12.9-11.9h-48.4c-0.7-21.8-9.6-42.3-25.3-57.7
	C252.2,8.7,231.1,0,208.7,0s-43.6,8.7-59.5,24.4c-15.6,15.4-24.6,35.9-25.3,57.7H75.5c-6.8,0-12.4,5.1-12.9,11.9L38.3,366.4v0.1
	c0,0.1,0,0.2,0,0.3c0,0.2-0.1,0.5-0.1,0.7c0,31.8,29.1,57.6,64.8,57.6h211.3c35.7,0,64.8-25.8,64.8-57.6
	C379.1,367.2,379.1,366.8,379,366.3z M136.8,155.4c7.2,0,13-5.8,13-13v-34h117.6v34c0,7.2,5.8,13,13,13s13-5.8,13-13v-34h36.4
	L353,368.1c-0.4,17.1-17.7,31-38.7,31H103c-21,0-38.3-13.9-38.7-31l23-259.8h36.4v34C123.8,149.6,129.6,155.4,136.8,155.4z
	 M208.7,26.1c15.5,0,30.1,6,41.1,16.8c10.7,10.5,16.9,24.4,17.6,39.3H150c0.7-14.9,6.9-28.8,17.6-39.3
	C178.6,32,193.2,26.1,208.7,26.1z"/>
</svg>
