<?xml version="1.0" encoding="utf-8"?>
<!-- Generator: Adobe Illustrator 23.0.1, SVG Export Plug-In . SVG Version: 6.00 Build 0)  -->
<svg version="1.1" id="圖層_1" xmlns="http://www.w3.org/2000/svg" xmlns:xlink="http://www.w3.org/1999/xlink" x="0px" y="0px"
	 viewBox="0 0 425.2 425.2" style="enable-background:new 0 0 425.2 425.2;" xml:space="preserve">
<style type="text/css">
	.st0{fill:#F6D169;}
	.st1{fill:#5C7880;}
</style>
<g>
	<ellipse class="st0" cx="212.6" cy="180.9" rx="207" ry="64.9"/>
	<path class="st1" d="M212.6,227.6c-55.9,0-108.5-7.1-148.1-20C22.9,194.1,0,175.3,0,154.7s22.9-39.4,64.5-52.9
		c39.6-12.9,92.2-20,148.1-20s108.5,7.1,148.1,20c41.6,13.5,64.5,32.3,64.5,52.9s-22.9,39.4-64.5,52.9
		C321.1,220.5,268.5,227.6,212.6,227.6z M212.6,93c-54.7,0-106.1,6.9-144.7,19.4c-36.1,11.7-56.8,27.1-56.8,42.3
		c0,15.1,20.7,30.6,56.8,42.3c38.6,12.5,89.9,19.4,144.7,19.4s106.1-6.9,144.7-19.4c36.1-11.7,56.8-27.1,56.8-42.3
		c0-15.1-20.7-30.6-56.8-42.3C318.7,99.9,267.3,93,212.6,93z"/>
	<path class="st1" d="M394.2,298.9c-0.3-0.7-0.7-1.3-1.2-1.9l-36.7-36.6c-2.2-2.2-5.7-2.2-7.9,0s-2.2,5.7,0,7.9l27.1,27.1h-323
		l27.1-27.1c2.2-2.2,2.2-5.7,0-7.9c-2.2-2.2-5.7-2.2-7.9,0l-36,36c-1.4,1-2.4,2.7-2.4,4.6c0,0.8,0.2,1.5,0.5,2.2
		c0,0.1,0.1,0.1,0.1,0.2c0.1,0.2,0.2,0.3,0.2,0.5c0.2,0.4,0.5,0.9,0.9,1.2l36.7,36.7c1,1.1,2.5,1.6,3.9,1.6c1.4,0,2.8-0.6,4-1.6
		c2.2-2.2,2.2-5.7,0-7.9l-27.3-27.3h323.5l-27.3,27.3c-2.2,2.2-2.2,5.7,0,7.9c1,1.1,2.5,1.6,3.9,1.6c1.4,0,2.8-0.6,4-1.6l36.7-36.7
		C394.8,303.4,395.2,300.9,394.2,298.9z"/>
</g>
</svg>
