<?xml version="1.0" encoding="utf-8"?>
<!-- Generator: Adobe Illustrator 23.0.1, SVG Export Plug-In . SVG Version: 6.00 Build 0)  -->
<svg version="1.1" id="圖層_1" xmlns="http://www.w3.org/2000/svg" xmlns:xlink="http://www.w3.org/1999/xlink" x="0px" y="0px"
	 viewBox="0 0 253 124" style="enable-background:new 0 0 253 124;" xml:space="preserve">
<style type="text/css">
	.st0{fill:#F5D069;}
	.st1{opacity:0.8;fill:none;stroke:#3E5256;stroke-width:2;stroke-linecap:round;stroke-linejoin:round;stroke-miterlimit:10;}
</style>
<g>
	<path class="st0" d="M241.2,40.4c-0.3,1.2-2.8,2.1-5.7,2c0,0-51.3,3.1-108.5,1.2c-54.1-1.8-110.4-8.4-110.4-8.4
		c-2.9-0.1-5-1.1-4.8-2.3l0,0c0.2-1.2,2.8-2.1,5.7-2c0,0,65.7,6.4,110.3,8.1c45.1,1.6,108.6-0.9,108.6-0.9
		C239.3,38.2,241.4,39.2,241.2,40.4L241.2,40.4z"/>
	<path class="st1" d="M241.2,40.4c-0.3,1.2-2.8,2.1-5.7,2c0,0-51.3,3.1-108.5,1.2c-54.1-1.8-110.4-8.4-110.4-8.4
		c-2.9-0.1-5-1.1-4.8-2.3l0,0c0.2-1.2,2.8-2.1,5.7-2c0,0,65.7,6.4,110.3,8.1c45.1,1.6,108.6-0.9,108.6-0.9
		C239.3,38.2,241.4,39.2,241.2,40.4L241.2,40.4z"/>
	<path class="st0" d="M238.3,66c-0.5,1.1-3.2,1.6-6,1c0,0-50.9-5.7-106.6-17.1C73.1,39,19.4,23,19.4,23c-2.8-0.6-4.7-2-4.2-3.1l0,0
		c0.5-1.1,3.2-1.6,6-1c0,0,63,17.4,106.4,26.6c43.8,9.2,106.6,17.5,106.6,17.5C236.9,63.5,238.8,64.9,238.3,66L238.3,66z"/>
	<path class="st1" d="M238.3,66c-0.5,1.1-3.2,1.6-6,1c0,0-50.9-5.7-106.6-17.1C73.1,39,19.4,23,19.4,23c-2.8-0.6-4.7-2-4.2-3.1l0,0
		c0.5-1.1,3.2-1.6,6-1c0,0,63,17.4,106.4,26.6c43.8,9.2,106.6,17.5,106.6,17.5C236.9,63.5,238.8,64.9,238.3,66L238.3,66z"/>
	<path class="st0" d="M238.3,70c-0.5,1.1-3.2,1.6-6,1c0,0-50.9-5.7-106.6-17.1C73.1,43,19.4,27,19.4,27c-2.8-0.6-4.7-2-4.2-3.1l0,0
		c0.5-1.1,3.2-1.6,6-1c0,0,63,17.4,106.4,26.6c43.8,9.2,106.6,17.5,106.6,17.5C236.9,67.5,238.8,68.9,238.3,70L238.3,70z"/>
	<path class="st1" d="M238.3,70c-0.5,1.1-3.2,1.6-6,1c0,0-50.9-5.7-106.6-17.1C73.1,43,19.4,27,19.4,27c-2.8-0.6-4.7-2-4.2-3.1l0,0
		c0.5-1.1,3.2-1.6,6-1c0,0,63,17.4,106.4,26.6c43.8,9.2,106.6,17.5,106.6,17.5C236.9,67.5,238.8,68.9,238.3,70L238.3,70z"/>
	<path class="st0" d="M236.9,82.2c-0.6,1.1-3.3,1.4-6,0.7c0,0-50.5-8.4-105.5-22.9C73.4,46.2,20.6,27.3,20.6,27.3
		c-2.8-0.7-4.6-2.2-4-3.3l0,0c0.6-1.1,3.3-1.4,6-0.7c0,0,62,20.8,104.8,32.3c43.2,11.6,105.5,23.2,105.5,23.2
		C235.7,79.6,237.5,81,236.9,82.2L236.9,82.2z"/>
	<path class="st1" d="M236.9,82.2c-0.6,1.1-3.3,1.4-6,0.7c0,0-50.5-8.4-105.5-22.9C73.4,46.2,20.6,27.3,20.6,27.3
		c-2.8-0.7-4.6-2.2-4-3.3l0,0c0.6-1.1,3.3-1.4,6-0.7c0,0,62,20.8,104.8,32.3c43.2,11.6,105.5,23.2,105.5,23.2
		C235.7,79.6,237.5,81,236.9,82.2L236.9,82.2z"/>
	<path class="st0" d="M240.1,75.2c-0.4,1.2-3,1.8-5.9,1.4c0,0-51.3-2.5-107.9-10.5C72.7,58.5,17.5,45.8,17.5,45.8
		c-2.8-0.4-4.9-1.7-4.5-2.8l0,0c0.4-1.2,3-1.8,5.9-1.4c0,0,64.5,13.5,108.7,19.9c44.6,6.5,108,10.8,108,10.8
		C238.4,72.8,240.5,74.1,240.1,75.2L240.1,75.2z"/>
	<path class="st1" d="M240.1,75.2c-0.4,1.2-3,1.8-5.9,1.4c0,0-51.3-2.5-107.9-10.5C72.7,58.5,17.5,45.8,17.5,45.8
		c-2.8-0.4-4.9-1.7-4.5-2.8l0,0c0.4-1.2,3-1.8,5.9-1.4c0,0,64.5,13.5,108.7,19.9c44.6,6.5,108,10.8,108,10.8
		C238.4,72.8,240.5,74.1,240.1,75.2L240.1,75.2z"/>
	<path class="st0" d="M235,94.6c-0.6,1.1-3.3,1.2-6.1,0.3c0,0-50-11.3-104-29C73.9,49.2,22.3,27.2,22.3,27.2
		c-2.7-0.9-4.4-2.5-3.8-3.6l0,0c0.6-1.1,3.3-1.2,6.1-0.3c0,0,60.7,24.4,102.7,38.3c42.5,14.1,104,29.3,104,29.3
		C233.9,91.9,235.7,93.5,235,94.6L235,94.6z"/>
	<path class="st1" d="M235,94.6c-0.6,1.1-3.3,1.2-6.1,0.3c0,0-50-11.3-104-29C73.9,49.2,22.3,27.2,22.3,27.2
		c-2.7-0.9-4.4-2.5-3.8-3.6l0,0c0.6-1.1,3.3-1.2,6.1-0.3c0,0,60.7,24.4,102.7,38.3c42.5,14.1,104,29.3,104,29.3
		C233.9,91.9,235.7,93.5,235,94.6L235,94.6z"/>
	<path class="st0" d="M233.4,104.6c-0.6,1-3.3,1-6-0.1c0,0-49.3-14.6-102.5-35.8C74.6,48.6,23.8,23.2,23.8,23.2
		c-2.7-1.1-4.3-2.8-3.7-3.8l0,0c0.6-1,3.3-1,6,0.1c0,0,59.7,28.4,101.1,45.1c41.9,16.9,102.5,36.1,102.5,36.1
		C232.4,101.8,234,103.5,233.4,104.6L233.4,104.6z"/>
	<path class="st1" d="M233.4,104.6c-0.6,1-3.3,1-6-0.1c0,0-49.3-14.6-102.5-35.8C74.6,48.6,23.8,23.2,23.8,23.2
		c-2.7-1.1-4.3-2.8-3.7-3.8l0,0c0.6-1,3.3-1,6,0.1c0,0,59.7,28.4,101.1,45.1c41.9,16.9,102.5,36.1,102.5,36.1
		C232.4,101.8,234,103.5,233.4,104.6L233.4,104.6z"/>
</g>
</svg>
