<?xml version="1.0" encoding="utf-8"?>
<!-- Generator: Adobe Illustrator 23.0.1, SVG Export Plug-In . SVG Version: 6.00 Build 0)  -->
<svg version="1.1" id="圖層_1" xmlns="http://www.w3.org/2000/svg" xmlns:xlink="http://www.w3.org/1999/xlink" x="0px" y="0px"
	 viewBox="0 0 253 124" style="enable-background:new 0 0 253 124;" xml:space="preserve">
<style type="text/css">
	.st0{fill:#F5D069;}
	.st1{opacity:0.8;fill:none;stroke:#3E5256;stroke-width:2;stroke-linecap:round;stroke-linejoin:round;stroke-miterlimit:10;}
</style>
<g>
	<path class="st0" d="M153.6,70.2c0,0,11.9,2.2,13.7,11.1c1.8,8.9,1,10.6,1,10.6s-12.1-3.2-14.5-11.3
		C151.7,73.4,153.6,70.2,153.6,70.2z"/>
	<path class="st0" d="M94,45.4c0,0-0.9-3.8,4.6-9.5c6.3-6.4,20.9-2.7,20.9-2.7s-0.7,1.7-7.4,8.3C105.5,48.1,94,45.4,94,45.4z"/>
	<path class="st0" d="M105.7,69.6c1.6,8.9,0.7,10.6,0.7,10.6s-12.1-3.5-14.3-11.7c-2-7.2,0.1-10.3,0.1-10.3S104.1,60.7,105.7,69.6z"
		/>
	<path class="st0" d="M115.5,47.3c0,0-0.6-3.8,5.4-9.1c6.8-5.9,21-1,21-1s-0.8,1.6-8,7.7C126.6,51,115.5,47.3,115.5,47.3z"/>
	<path class="st0" d="M112.6,60.4c0,0,12,1.9,14,10.8c2,8.8,1.2,10.5,1.2,10.5s-12.2-2.9-14.8-11C110.7,63.6,112.6,60.4,112.6,60.4z
		"/>
	<path class="st0" d="M154.7,51.3c-7.7,5.4-18.4,0.8-18.4,0.8s-0.2-3.9,6.2-8.6c7.2-5.3,20.9,0.9,20.9,0.9S162.4,45.9,154.7,51.3z"
		/>
	<path class="st0" d="M131.7,63.3c0,0,12,1.2,14.6,9.9c2.5,8.7,1.8,10.5,1.8,10.5s-12.3-2.2-15.4-10.1
		C130,66.6,131.7,63.3,131.7,63.3z"/>
	<path class="st0" d="M178,58.7c-8.1,4.8-18.4-0.8-18.4-0.8s0.1-3.9,6.8-8c7.6-4.7,20.8,2.6,20.8,2.6S186.2,53.9,178,58.7z"/>
	<path class="st0" d="M182,77.2c-4.4-2-8.4-10.5-8.4-10.5s8.9-2.7,13.6-0.6c4.6,2.1,12.5,12.8,12.5,12.8S186.4,79.1,182,77.2z"/>
	<path class="st1" d="M178,60.9c-8.1,4.8-18.4-0.8-18.4-0.8s0.1-3.9,6.8-8c7.6-4.7,20.8,2.6,20.8,2.6S186.2,56.2,178,60.9z"/>
	<path class="st1" d="M155.5,68.4c0,0,11.9,2.2,13.7,11.1c1.8,8.9,1,10.6,1,10.6s-12.1-3.2-14.5-11.3
		C153.5,71.5,155.5,68.4,155.5,68.4z"/>
	<path class="st1" d="M181.2,79.5c-4.4-1.9-8.4-10.5-8.4-10.5s8.9-2.7,13.6-0.6c4.6,2.1,12.5,12.8,12.5,12.8S185.6,81.5,181.2,79.5z
		"/>
	<path class="st1" d="M95.7,47.1c0,0-0.9-3.8,4.6-9.5c6.3-6.4,20.9-2.7,20.9-2.7s-0.7,1.7-7.4,8.3C107.2,49.8,95.7,47.1,95.7,47.1z"
		/>
	<path class="st1" d="M107.9,68.1c1.6,8.9,0.7,10.6,0.7,10.6S96.5,75.2,94.3,67c-2-7.2,0.1-10.3,0.1-10.3S106.3,59.2,107.9,68.1z"/>
	<path class="st1" d="M117.3,49.6c0,0-0.6-3.8,5.4-9.1c6.8-5.9,21-1,21-1s-0.8,1.6-8,7.7C128.5,53.3,117.3,49.6,117.3,49.6z"/>
	<path class="st1" d="M114.2,58.8c0,0,12,1.9,14,10.8c2,8.8,1.2,10.5,1.2,10.5s-12.2-2.9-14.8-11C112.3,62,114.2,58.8,114.2,58.8z"
		/>
	<path class="st1" d="M156.5,53.4c-7.7,5.4-18.4,0.8-18.4,0.8s-0.2-3.9,6.2-8.6c7.2-5.3,20.9,0.9,20.9,0.9S164.2,48,156.5,53.4z"/>
	<path class="st1" d="M134.2,62.4c0,0,12,1.2,14.6,9.9c2.5,8.7,1.8,10.5,1.8,10.5s-12.3-2.2-15.4-10.1
		C132.5,65.8,134.2,62.4,134.2,62.4z"/>
	<path class="st1" d="M169.2,68.8C80,35,60.2,62.1,58,65"/>
</g>
</svg>
