<?xml version="1.0" encoding="utf-8"?>
<!-- Generator: Adobe Illustrator 23.0.1, SVG Export Plug-In . SVG Version: 6.00 Build 0)  -->
<svg version="1.1" id="圖層_1" xmlns="http://www.w3.org/2000/svg" xmlns:xlink="http://www.w3.org/1999/xlink" x="0px" y="0px"
	 viewBox="0 0 253 124" style="enable-background:new 0 0 253 124;" xml:space="preserve">
<style type="text/css">
	.st0{fill:#F5D069;}
	.st1{opacity:0.8;fill:none;stroke:#3E5256;stroke-width:2;stroke-linecap:round;stroke-linejoin:round;stroke-miterlimit:10;}
	.st2{fill:#F2BA3D;}
</style>
<g>
	<path class="st0" d="M181.8,45.4c-10.7,0-89.1,0-91,0c8.3,2.9,15.8,9.3,15.8,17.4c0,11-18.6,18.8-18.6,18.8c13.6,0,68.1,0,79.7,0
		c24.2,0,36.8-18.3,36.8-18.3S189.6,45.4,181.8,45.4z"/>
	<path class="st0" d="M96.7,63.6C98.2,61.7,86.4,48,77.3,48c-10.4,0-22.5,8-22.5,8c-0.3,0.2,5.8,7.1,6.1,7.5
		c4.1,4.7,12.8,10.8,19.2,10.2C86.1,73.2,93.3,67.7,96.7,63.6z"/>
	<path class="st1" d="M48.4,55.5c0,0,12-13.1,31.9-13.1c12.5,0,77.9,0,90.1,0c8.9,0,29.6,21.3,29.6,21.3s-16,14.8-29.6,14.8
		c-13.2,0-74.6,0-90.1,0C61,78.5,48.4,55.5,48.4,55.5z"/>
	<path class="st1" d="M81,78.5c9.7-0.1,21.1-11.6,21-15.1c0-2.9-10.8-20.6-28-20.4"/>
	<line class="st1" x1="91" y1="49" x2="182.8" y2="49"/>
	<line class="st1" x1="96.9" y1="54.7" x2="190.5" y2="54.7"/>
	<line class="st1" x1="100.8" y1="60.4" x2="196.3" y2="60.4"/>
	<line class="st1" x1="101" y1="66.1" x2="197.2" y2="66.1"/>
	<line class="st1" x1="189.3" y1="71.8" x2="95.8" y2="71.8"/>
	<path class="st2" d="M55,56.3c0,0,9.5-2.9,22.2-1.6c9,0.9,19.5,8.9,19.5,8.9s-8-15.5-19.4-15.7C65.9,47.8,56.6,55,55,56.3z"/>
	<path class="st1" d="M84.9,72.2c-5.2,2.3-11.2-0.1-11.3-0.1C64.5,68.6,55,56.3,55,56.3s11-8.4,18.9-8.4"/>
	<path class="st1" d="M78.1,48.1c2.8,0.7,6.8,2.2,11.6,6.3c3.8,3.2,7.2,8.9,7.2,8.9s-2.4,3.9-8.6,7.6"/>
</g>
</svg>
