<?xml version="1.0" encoding="utf-8"?>
<!-- Generator: Adobe Illustrator 23.0.1, SVG Export Plug-In . SVG Version: 6.00 Build 0)  -->
<svg version="1.1" id="圖層_1" xmlns="http://www.w3.org/2000/svg" xmlns:xlink="http://www.w3.org/1999/xlink" x="0px" y="0px"
	 viewBox="0 0 253 124" style="enable-background:new 0 0 253 124;" xml:space="preserve">
<style type="text/css">
	.st0{fill:#F5D069;}
	.st1{opacity:0.8;fill:none;stroke:#3E5256;stroke-width:2;stroke-linecap:round;stroke-linejoin:round;stroke-miterlimit:10;}
	.st2{fill:#F2BA3D;}
</style>
<g>
	<path class="st2" d="M115.9,44.4c0,0-1.8-1.7-2.5-1.5c-1.4,0.3-5.3,6.1-4.6,14.8c0.8,10,7.2,21.7,17.3,27.3
		c6.2,3.4,11.8,4.3,13.7,3.8c1.1-0.3,1.6-2.7,1.6-2.7L115.9,44.4z"/>
	<path class="st0" d="M139.3,37.8c-1.3,6.8,0.3,14.3,3.4,22.1c3.1,7.9,4,10,4,10s13-13,13.8-23.1c0.6-7.3-2.1-17-7.2-18.4
		C146.2,26.5,140.7,31,139.3,37.8z"/>
	<path class="st0" d="M108,40c0,0-22.2,26.8-13.8,41.1c8.4,14.3,26.9,15.4,30.9,15c4-0.4,6.8-0.1,7.8,0c1.1,0.1,2.5-0.3,3.1-2.1
		c0.6-1.8,0.6-1.8,0.6-1.8s-3,1.4-7.7-0.5c-4.4-1.7-10.4-6.5-14.5-10.7C108.9,75.1,96.4,58.6,108,40z"/>
	<path class="st0" d="M139.3,29.8c0,0-8.9,5.5-3.8,19c5.1,13.5,9.1,20.9,9.1,20.9s-1.1,15.9-3.4,16.3c-2.2,0.4-16.9-0.3-22.7-14.8
		c-5.4-13.7-8.3-25.2-0.2-30.6C126.5,35,139.3,29.8,139.3,29.8z"/>
	<path class="st1" d="M144.7,69.6c0,0-20-32.2-4-40.3c12.5-6.4,16.5,9.9,14.5,18.1C152.9,56.6,144.7,69.6,144.7,69.6z"/>
	<path class="st1" d="M142.2,28.9c0,0-19.1,5.1-26.1,14.1c-6.9,9,0.5,35,13,40c12.5,5,12.5,4,13,0s2.5-13.4,2.5-13.4"/>
	<path class="st1" d="M114.9,44l-6.2-4.8c0,0-8.8,12.8-2.9,28.8c4.9,13.5,23.3,25.1,27.3,25.1c7.2-0.1,7.2-6.6,7.2-6.6"/>
	<path class="st1" d="M108.7,39.2c0,0-24,28.8-13.5,43.3c10.5,14.5,30,13.5,30,13.5s5.2-1,7.8,0c2.7,1,3.8-3.9,3.8-3.9"/>
	<path class="st1" d="M127,90.6c0,0-10.6,2.3-22.2,0.4"/>
	<path class="st1" d="M118.4,84.5c0,0-7.6,2.4-19.3,2.5"/>
	<path class="st1" d="M111.4,77.4c0,0-10,5.1-16.2,5.1"/>
	<line class="st1" x1="106.4" y1="69.6" x2="92.9" y2="77.4"/>
	<path class="st1" d="M103.3,59.5c0,0-5.6,5-10.4,10.1"/>
	<path class="st1" d="M113.7,51c0.1-0.4,8.3-9,20.8-13.3"/>
	<path class="st1" d="M114.2,58.6c0.1-0.4,7.7-9.9,20.2-14.1"/>
	<path class="st1" d="M115.9,65.1c0.1-0.4,7.7-9.9,20.2-14.1"/>
	<path class="st1" d="M139.3,60.8c-0.1,0.4-6.3,4.5-16.3,16.9"/>
	<path class="st1" d="M138,55.9c-0.1,0.4-8.9,5.4-19.4,15.2"/>
	<path class="st1" d="M136.8,85.7c0,0,0-5.5,6-17.7"/>
	<path class="st1" d="M130,82.6c0,0,3.6-8.7,11.3-17.7"/>
</g>
</svg>
