<?xml version="1.0" encoding="utf-8"?>
<!-- Generator: Adobe Illustrator 23.0.1, SVG Export Plug-In . SVG Version: 6.00 Build 0)  -->
<svg version="1.1" id="圖層_1" xmlns="http://www.w3.org/2000/svg" xmlns:xlink="http://www.w3.org/1999/xlink" x="0px" y="0px"
	 viewBox="0 0 246.5 191.8" style="enable-background:new 0 0 246.5 191.8;" xml:space="preserve">
<style type="text/css">
	.st0{fill:#FFFFFF;}
	.st1{fill:#F5D069;}
	.st2{opacity:0.4;fill:#E67348;enable-background:new    ;}
	.st3{opacity:0.8;fill:#3E5256;enable-background:new    ;}
	.st4{opacity:0.8;}
	.st5{opacity:0.8;enable-background:new    ;}
	.st6{opacity:0.8;clip-path:url(#SVGID_2_);fill:#3E5256;enable-background:new    ;}
	.st7{opacity:0.8;clip-path:url(#SVGID_4_);fill:#3E5256;enable-background:new    ;}
	.st8{opacity:0.8;clip-path:url(#SVGID_6_);fill:#3E5256;enable-background:new    ;}
	.st9{opacity:0.8;clip-path:url(#SVGID_8_);fill:#3E5256;enable-background:new    ;}
	.st10{opacity:0.8;fill:#F5D069;enable-background:new    ;}
	.st11{fill:#BCD6D6;}
</style>
<path class="st0" d="M201.3,38C201.3,38,201.3,38,201.3,38c3.4-6.4,1.5-14.5-4.6-18.8c-6.4-4.4-15.1-3-19.8,3
	c0.3,0.1,0.6,0.2,0.9,0.4c-28.5-11.3-61.9-2.8-81.3,22.1l115.2,79.9C229,96.6,224.2,60.6,201.3,38z M182.5,24.6
	C182.5,24.7,182.6,24.7,182.5,24.6c3-2.6,7.5-3,10.9-0.6c3.2,2.2,4.4,6.2,3.4,9.8c0,0,0,0,0,0c-1.5-1.3-3.2-2.5-4.8-3.7
	C188.9,28,185.7,26.2,182.5,24.6z"/>
<path class="st1" d="M109.9,118.7c0,0,9.2,3.3,13.8,12.5c4.7,9.1,4,10.6,4,10.6s2.5-7.4,14.5-14c8-4.4,8.3-3.6,8.3-3.6
	s-7.4-8.1-20.6-9.9C116.8,112.4,109.9,118.7,109.9,118.7z"/>
<path class="st1" d="M122.5,153.9c0-21.5-17.5-39-39-39s-39,17.5-39,39H122.5z"/>
<path class="st1" d="M183.7,152.2c0-13.5-10.9-24.4-24.4-24.4s-24.4,10.9-24.4,24.4H183.7z"/>
<path class="st2" d="M197.9,172.4c-1.5,1.5-4.4,2.8-6.5,2.8h-130c-2.1,0-4.9-1.3-6.3-3l-6.5-7.7c-1.4-1.6-0.8-3,1.3-3h154.8
	c2.1,0,2.6,1.2,1.1,2.8L197.9,172.4z"/>
<path class="st3" d="M186.3,172.1H53.1c-2.4,0-5.6-1.5-7.2-3.3l-6.6-7.7c-1.3-1.5-1-2.6-0.8-3.2c0.2-0.5,1-1.5,2.9-1.5h158.5
	c2,0,2.6,0.9,2.9,1.4c0.2,0.5,0.4,1.6-1,3l-8.1,8.1C191.9,170.7,188.7,172.1,186.3,172.1z M41.4,158.4c-0.7,0-1.1,0.2-1.1,0.3
	c0,0.1,0,0.5,0.5,1l6.6,7.7c1.2,1.4,3.8,2.6,5.7,2.6h133.2c1.9,0,4.6-1.1,6-2.5l8.1-8.1c0.5-0.5,0.6-0.8,0.6-0.9c0,0-0.3-0.2-1-0.2
	L41.4,158.4L41.4,158.4z"/>
<path class="st3" d="M211.7,125.6c-0.2,0-0.4-0.1-0.6-0.2L95.9,45.5c-0.2-0.2-0.4-0.4-0.4-0.7c0-0.3,0-0.5,0.2-0.8
	c13.6-17.4,34.1-27.4,56.2-27.4c8.5,0,16.7,1.5,24.6,4.4c3-3.4,7.2-5.4,11.8-5.4c3.2,0,6.2,1,8.9,2.8c6.2,4.3,8.4,12.6,5.3,19.4
	c11,11.1,18.1,25.8,20,41.4c2,16-1.6,32.3-10,46c-0.1,0.2-0.4,0.4-0.6,0.5C211.9,125.6,211.8,125.6,211.7,125.6z M97.9,44.5
	l113.5,78.7c7.8-13.1,11-28.6,9.2-43.8c-1.9-15.4-9-29.9-20-40.7c-0.4-0.4-0.4-0.9-0.1-1.3c3-6,1.2-13.5-4.4-17.3
	c-2.3-1.6-5-2.4-7.7-2.4c-3.8,0-7.4,1.5-9.9,4.3c0.2,0.3,0.3,0.7,0.2,1c-0.2,0.5-0.8,0.8-1.3,0.6c-8.2-3.2-16.7-4.9-25.5-4.9
	C130.7,18.6,111.1,28,97.9,44.5z M196.7,34.8c-0.2,0-0.3,0-0.5-0.1c-0.1,0-0.1-0.1-0.2-0.1c-1.6-1.4-3.2-2.5-4.7-3.6
	c-2.9-2-6-3.8-9.2-5.4c-0.5-0.2-0.7-0.8-0.5-1.3c0.1-0.2,0.3-0.4,0.5-0.5c1.8-1.4,4-2.2,6.2-2.2c2,0,3.9,0.6,5.5,1.7
	c3.4,2.4,5,6.7,3.8,10.8c0,0.1-0.1,0.3-0.2,0.4C197.4,34.7,197,34.8,196.7,34.8z M184.5,24.5c2.8,1.4,5.5,3,8,4.8
	c1.2,0.8,2.4,1.7,3.6,2.7c0.3-2.8-0.9-5.5-3.3-7.1C190.4,23.2,187,23.1,184.5,24.5z"/>
<g class="st4">
	<path class="st3" d="M124.5,152.8c-0.6,0-1-0.4-1-1c0-21-17-38-38-38s-38,17-38,38c0,0.6-0.4,1-1,1c-0.6,0-1-0.4-1-1
		c0-22.1,17.9-40,40-40c22.1,0,40,17.9,40,40C125.5,152.3,125.1,152.8,124.5,152.8z"/>
	<path class="st3" d="M117.9,152.8c-0.6,0-1-0.4-1-1c0-17.3-14.1-31.3-31.3-31.3c-17.3,0-31.3,14.1-31.3,31.3c0,0.6-0.4,1-1,1
		c-0.6,0-1-0.4-1-1c0-18.4,15-33.3,33.3-33.3s33.3,15,33.3,33.3C118.9,152.3,118.4,152.8,117.9,152.8z"/>
	<path class="st3" d="M111.1,152.8c-0.6,0-1-0.4-1-1c0-13.5-11-24.5-24.5-24.5c-13.5,0-24.5,11-24.5,24.5c0,0.6-0.4,1-1,1
		c-0.6,0-1-0.4-1-1c0-14.6,11.9-26.5,26.5-26.5c14.6,0,26.5,11.9,26.5,26.5C112.1,152.3,111.6,152.8,111.1,152.8z"/>
	<path class="st3" d="M103.1,153c-0.6,0-1-0.4-1-1c0-9.1-7.4-16.6-16.6-16.6S69,142.8,69,152c0,0.6-0.4,1-1,1s-1-0.4-1-1
		c0-10.2,8.3-18.6,18.6-18.6s18.6,8.3,18.6,18.6C104.1,152.5,103.7,153,103.1,153z"/>
	<path class="st3" d="M95.6,153c-0.6,0-1-0.4-1-1c0-5-4.1-9.1-9.1-9.1s-9.1,4.1-9.1,9.1c0,0.6-0.4,1-1,1s-1-0.4-1-1
		c0-6.1,5-11.1,11.1-11.1c6.1,0,11.1,5,11.1,11.1C96.6,152.5,96.2,153,95.6,153z"/>
</g>
<g class="st4">
	<path class="st3" d="M184.4,152.8c-0.6,0-1-0.4-1-1c0-13.9-11.3-25.1-25.1-25.1s-25.1,11.3-25.1,25.1c0,0.6-0.4,1-1,1
		c-0.6,0-1-0.4-1-1c0-15,12.2-27.1,27.1-27.1s27.1,12.2,27.1,27.1C185.4,152.4,184.9,152.8,184.4,152.8z"/>
	<path class="st3" d="M178.2,152.8c-0.6,0-1-0.4-1-1c0-10.4-8.5-18.9-18.9-18.9s-18.9,8.5-18.9,18.9c0,0.6-0.4,1-1,1
		c-0.6,0-1-0.4-1-1c0-11.5,9.4-20.9,20.9-20.9c11.5,0,20.9,9.4,20.9,20.9C179.2,152.4,178.8,152.8,178.2,152.8z"/>
	<path class="st3" d="M172.2,153c-0.6,0-1-0.4-1-1c0-7.1-5.8-12.9-12.9-12.9s-12.9,5.8-12.9,12.9c0,0.6-0.4,1-1,1c-0.6,0-1-0.4-1-1
		c0-8.2,6.7-14.9,14.9-14.9c8.2,0,14.9,6.7,14.9,14.9C173.2,152.6,172.7,153,172.2,153z"/>
	<path class="st3" d="M164.6,153c-0.6,0-1-0.4-1-1c0-3-2.4-5.4-5.4-5.4c-3,0-5.4,2.4-5.4,5.4c0,0.6-0.4,1-1,1s-1-0.4-1-1
		c0-4.1,3.3-7.4,7.4-7.4c4.1,0,7.4,3.3,7.4,7.4C165.6,152.6,165.2,153,164.6,153z"/>
</g>
<g class="st5">
	<g>
		<g>
			<defs>
				<path id="SVGID_1_" d="M94.4,110.7c0,0,17.9,3.6,26.4,14.9c8.5,11.3,6.9,15.3,6.9,15.3s5.4-15.5,34-21.6
					c12.3-2.6-29.7-19-46-18.7C99.4,101,94.4,109,94.4,109"/>
			</defs>
			<clipPath id="SVGID_2_">
				<use xlink:href="#SVGID_1_"  style="overflow:visible;"/>
			</clipPath>
			<path class="st6" d="M164.4,150.7c-0.6,0-1-0.4-1-1c0-21-17-38-38-38c-21,0-38,17-38,38c0,0.6-0.4,1-1,1c-0.6,0-1-0.4-1-1
				c0-22.1,17.9-40,40-40c22.1,0,40,17.9,40,40C165.4,150.3,164.9,150.7,164.4,150.7z"/>
		</g>
	</g>
	<g>
		<g>
			<defs>
				<path id="SVGID_3_" d="M94.4,110.7c0,0,17.9,3.6,26.4,14.9c8.5,11.3,6.9,15.3,6.9,15.3s5.4-15.5,34-21.6
					c12.3-2.6-29.7-19-46-18.7C99.4,101,94.4,109,94.4,109"/>
			</defs>
			<clipPath id="SVGID_4_">
				<use xlink:href="#SVGID_3_"  style="overflow:visible;"/>
			</clipPath>
			<path class="st7" d="M157.7,150.7c-0.6,0-1-0.4-1-1c0-17.3-14.1-31.3-31.3-31.3S94,132.4,94,149.7c0,0.6-0.4,1-1,1
				c-0.6,0-1-0.4-1-1c0-18.4,15-33.3,33.3-33.3c18.4,0,33.3,15,33.3,33.3C158.7,150.3,158.3,150.7,157.7,150.7z"/>
		</g>
	</g>
	<g>
		<g>
			<defs>
				<path id="SVGID_5_" d="M94.4,110.7c0,0,17.9,3.6,26.4,14.9c8.5,11.3,6.9,15.3,6.9,15.3s5.4-15.5,34-21.6
					c12.3-2.6-29.7-19-46-18.7C99.4,101,94.4,109,94.4,109"/>
			</defs>
			<clipPath id="SVGID_6_">
				<use xlink:href="#SVGID_5_"  style="overflow:visible;"/>
			</clipPath>
			<path class="st8" d="M150.9,150.7c-0.6,0-1-0.4-1-1c0-13.5-11-24.5-24.5-24.5c-13.5,0-24.5,11-24.5,24.5c0,0.6-0.4,1-1,1
				c-0.6,0-1-0.4-1-1c0-14.6,11.9-26.5,26.5-26.5c14.6,0,26.5,11.9,26.5,26.5C151.9,150.3,151.5,150.7,150.9,150.7z"/>
		</g>
	</g>
	<g>
		<g>
			<defs>
				<path id="SVGID_7_" d="M94.4,110.7c0,0,17.9,3.6,26.4,14.9c8.5,11.3,6.9,15.3,6.9,15.3s5.4-15.5,34-21.6
					c12.3-2.6-29.7-19-46-18.7C99.4,101,94.4,109,94.4,109"/>
			</defs>
			<clipPath id="SVGID_8_">
				<use xlink:href="#SVGID_7_"  style="overflow:visible;"/>
			</clipPath>
			<path class="st9" d="M142.9,150.7c-0.6,0-1-0.4-1-1c0-9.1-7.4-16.6-16.6-16.6c-9.1,0-16.6,7.4-16.6,16.6c0,0.6-0.4,1-1,1
				s-1-0.4-1-1c0-10.2,8.3-18.6,18.6-18.6s18.6,8.3,18.6,18.6C143.9,150.3,143.5,150.7,142.9,150.7z"/>
		</g>
	</g>
</g>
<g>
	<path class="st1" d="M29.8,134.9c5.2-1.4,10,3.1,10,3.1s-0.6,2.1-4.9,3.4c-4.9,1.5-11-4.5-11-4.5S24.6,136.3,29.8,134.9z"/>
	<path class="st3" d="M33.6,141.4c-4.9,0-9.9-4.8-10.1-5c-0.2-0.2-0.3-0.5-0.3-0.8c0-0.3,0.2-0.6,0.4-0.7c0.2-0.2,1.4-0.9,6.3-2.2
		c0.7-0.2,1.5-0.3,2.3-0.3c4.7,0,8.5,3.5,8.6,3.7c0.3,0.3,0.4,0.6,0.3,1c-0.1,0.3-0.9,2.7-5.6,4.1C34.9,141.3,34.2,141.4,33.6,141.4
		z M26,136c1.6,1.3,4.7,3.4,7.5,3.4c0.5,0,0.9-0.1,1.3-0.2c2.4-0.7,3.5-1.6,3.9-2.2c-1.1-0.9-3.8-2.6-6.7-2.6
		c-0.6,0-1.2,0.1-1.8,0.2C28.2,135.2,26.9,135.7,26,136z"/>
</g>
<g>
	<path class="st1" d="M43.4,109c5,1.8,6.4,8.3,6.4,8.3s-1.7,1.4-6-0.1c-4.8-1.6-6.4-10-6.4-10S38.4,107.2,43.4,109z"/>
	<path class="st3" d="M48.3,118.1c-1.2,0-2.5-0.2-3.9-0.7c-5.3-1.8-7-10.4-7.1-10.8c-0.1-0.3,0-0.6,0.2-0.8s0.4-0.4,0.7-0.4
		c0,0,0,0,0,0c0.5,0,1.9,0.2,6.4,1.8c5.5,2,7,8.8,7,9.1c0.1,0.4-0.1,0.8-0.4,1C51.2,117.5,50.2,118.1,48.3,118.1z M39.7,107.7
		c0.7,2.3,2.3,6.7,5.4,7.8c1.2,0.4,2.3,0.6,3.2,0.6c0.6,0,1-0.1,1.3-0.2c-0.5-1.7-2.1-5.6-5.5-6.8C41.9,108.4,40.5,108,39.7,107.7z"
		/>
</g>
<g>
	<path class="st1" d="M69.6,96.6c2.9,4.5,0,10.5,0,10.5s-2.2,0-4.7-3.7c-2.8-4.2,1-11.9,1-11.9S66.7,92.1,69.6,96.6z"/>
	<path class="st3" d="M70.8,108c-0.3,0-2.8-0.1-5.5-4.2c-3.1-4.7,0.8-12.5,1-12.9c0.1-0.3,0.4-0.4,0.6-0.5c0.3-0.1,0.6,0,0.8,0.1
		c0.2,0.2,1.2,1,4,5.4c3.1,4.9,0.1,11.2,0,11.5C71.6,107.8,71.2,108,70.8,108z M67.4,93.3c-0.9,2.3-2.3,6.8-0.5,9.5
		c1.4,2,2.6,2.8,3.3,3.1c0.6-1.6,1.8-5.7-0.2-8.8C68.8,95.2,68,94,67.4,93.3z"/>
</g>
<g>
	<path class="st1" d="M99.4,97.5c0.9,5.3-4.1,9.7-4.1,9.7s-2.1-0.8-2.9-5.2c-1-5,5.5-10.6,5.5-10.6S98.4,92.2,99.4,97.5z"/>
	<path class="st3" d="M96.5,108.6c-0.1,0-0.2,0-0.4-0.1c-0.3-0.1-2.6-1.2-3.5-6C91.5,97,98.1,91.3,98.4,91c0.2-0.2,0.5-0.3,0.8-0.2
		c0.3,0,0.5,0.2,0.7,0.4c0.2,0.2,0.7,1.4,1.6,6.5c1,5.7-4.2,10.4-4.4,10.6C97,108.5,96.7,108.6,96.5,108.6z M98.6,93.6
		c-1.7,1.7-4.7,5.4-4.1,8.6c0.5,2.4,1.3,3.6,1.8,4.1c1.2-1.3,3.8-4.6,3.2-8.2C99.2,95.9,98.9,94.5,98.6,93.6z"/>
</g>
<g>
	<path class="st1" d="M182.1,118c-1.4,5.2-7.8,7-7.8,7s-1.5-1.6-0.4-6c1.2-4.9,9.5-7.2,9.5-7.2S183.5,112.8,182.1,118z"/>
	<path class="st3" d="M175.2,126.9c-0.3,0-0.5-0.1-0.7-0.3c-0.2-0.2-1.8-2.1-0.7-6.9c1.4-5.5,9.8-7.8,10.2-7.9
		c0.3-0.1,0.6,0,0.8,0.1c0.2,0.2,0.4,0.4,0.4,0.7c0,0.3,0.1,1.6-1.3,6.6c-1.5,5.6-8.2,7.6-8.5,7.7
		C175.4,126.9,175.3,126.9,175.2,126.9z M183.1,114.1c-2.3,0.9-6.5,2.9-7.3,6c-0.6,2.4-0.3,3.8-0.1,4.5c1.6-0.6,5.4-2.5,6.3-6.1
		C182.6,116.4,182.9,115,183.1,114.1z"/>
</g>
<g>
	<path class="st1" d="M197.1,135.2c-3.3,4.2-9.9,3.5-9.9,3.5s-0.8-2.1,1.9-5.7c3-4.1,11.5-3,11.5-3S200.4,131,197.1,135.2z"/>
	<path class="st3" d="M188.8,141c-0.8,0-1.2-0.1-1.2-0.1c-0.4,0-0.7-0.3-0.8-0.6c-0.1-0.3-0.9-2.7,2-6.6c2.2-3,6.6-3.6,9.9-3.6
		c1.5,0,2.5,0.1,2.5,0.1c0.3,0,0.5,0.2,0.7,0.4c0.2,0.2,0.2,0.5,0.1,0.8c-0.1,0.3-0.6,1.5-3.7,5.6C195.7,140.5,191.2,141,188.8,141z
		 M188.6,139c0.1,0,0.1,0,0.2,0c1.7,0,5.8-0.3,8-3.2c1.4-1.8,2.2-3,2.7-3.7c-0.2,0-0.5,0-0.8,0c-2.3,0-6.5,0.4-8.3,2.8
		C188.9,136.8,188.6,138.2,188.6,139z"/>
</g>
<path class="st10" d="M118,105.2c-1.4-5,0.2-10.7,1.9-16.7c1-3.5,2-7.1,2.4-10.7c1.1-9.2-3.2-15.3-3.2-15.4l1.6-1.2
	c0.2,0.3,4.7,6.9,3.6,16.8c-0.4,3.7-1.5,7.4-2.5,11c-1.6,5.8-3.1,11.2-1.9,15.6L118,105.2z"/>
<path class="st10" d="M131.5,105.2c-1.4-5,0.2-10.7,1.9-16.7c1-3.5,2-7.1,2.4-10.7c1.1-9.2-3.2-15.3-3.2-15.4l1.6-1.2
	c0.2,0.3,4.7,6.9,3.6,16.8c-0.4,3.7-1.5,7.4-2.5,11c-1.6,5.8-3.1,11.2-1.9,15.6L131.5,105.2z"/>
<g>
	<path class="st11" d="M197.7,71.9c4.4,0,8.7-0.3,13-0.9c1.8-0.2,3.6-0.6,5.3-1.1c1.4-0.4,5-1.8,5-3.4c0-2-3.3-2.9-4.7-3.1
		c-14.1-2.4-25.4-1.7-37.9,0.7c-3.3,0.6-13.2,3.2-13.2,3.2c6.4,2.5,15.7,3.5,22.4,4.2c0,0,7.5,0.4,7.5,0.4"/>
	<path class="st11" d="M161.4,67.5c-5.6,1.7-10.3,7.3-16,8.9c-6.5,1.8-13.8,1-20.5,0.4c-3.1-0.3-4.7-1-5.8-3.9
		c0.1,0,2.7-0.1,3.5-0.1c1.9-0.1,3.7-0.1,5.6-0.1c2.1,0,4.1,0.1,6.2,0.1c1.3,0,2.8,0.1,4-0.5c2-1,0.7-2.5-0.9-2.9
		c-3.6-0.9-7.6-0.4-11.3-0.6c-2.4-0.1-4.9-0.5-7.3-0.6c0-1,0-1.9,0-2.9c0.1,0,7.1-0.6,9-0.7c2.1-0.1,4.1-0.1,6.2-0.2
		c1.3,0,2.9,0,4.1-0.6c1.9-0.9,1.2-2.5-0.6-3c-3.5-0.8-7.6,0-11.1-0.1c-2.5,0-5-0.3-7.5-0.2c0.2-1.7,0.9-3.1,2.5-3.9
		c2-1,4.5-0.8,6.6-1c4.6-0.3,9.2-0.8,13.8-0.3c1.8,0.2,3.5,0.8,5.1,1.5c0.7,0.3,1.3,0.7,1.9,1.2L161.4,67.5z"/>
	<g>
		<path class="st3" d="M136.7,79.7c-3.5,0-7-0.3-10.2-0.6l-1-0.1c-3.3-0.3-5.3-1.1-6.7-4.6c-0.1-0.3-0.1-0.6,0.1-0.9
			c0.2-0.3,0.5-0.4,0.8-0.4c0.1,0,2.7-0.1,3.5-0.1c1.9-0.1,3.8-0.1,5.6-0.1c0.9,0,1.7,0,2.6,0.1c1.2,0,2.4,0.1,3.6,0.1h0.4
			c1.1,0,2.3,0,3.2-0.4c0.4-0.2,0.5-0.3,0.5-0.3c0-0.1-0.5-0.5-1.2-0.7c-2.2-0.6-4.7-0.5-7.1-0.5c-1.3,0-2.7,0-3.9,0
			c-1-0.1-2-0.2-3.1-0.2c-1.4-0.1-2.8-0.3-4.3-0.3c-0.5,0-1-0.5-1-1c0-0.6,0-1.3,0-1.9l0-1c0-0.6,0.4-1,1-1c0.1,0,0.6-0.1,1.5-0.1
			c2.3-0.2,6.1-0.5,7.4-0.5c1.2-0.1,2.5-0.1,3.7-0.1c0.8,0,1.7,0,2.5-0.1l0.5,0c1.2,0,2.4-0.1,3.3-0.5c0.4-0.2,0.6-0.4,0.6-0.5
			c0-0.1-0.3-0.5-0.9-0.6c-2.2-0.5-4.7-0.4-7.1-0.2c-1.3,0.1-2.5,0.2-3.8,0.2c-1.1,0-2.1-0.1-3.2-0.1c-1.4-0.1-2.8-0.1-4.2-0.1
			c-0.3,0-0.6-0.1-0.8-0.3c-0.2-0.2-0.3-0.5-0.3-0.8c0.3-2.2,1.3-3.8,3.1-4.6c1.8-0.9,3.9-0.9,5.7-1c0.4,0,0.9,0,1.3-0.1
			c0.9-0.1,1.8-0.1,2.7-0.2c3.7-0.3,7.5-0.5,11.3-0.1c1.8,0.2,3.7,0.8,5.5,1.6c0.6,0.3,1.3,0.7,2.1,1.3c0.4,0.3,0.6,0.9,0.2,1.4
			c-0.3,0.5-0.9,0.6-1.4,0.2c-0.7-0.5-1.3-0.8-1.8-1.1c-1.6-0.8-3.2-1.3-4.8-1.5c-3.6-0.4-7.3-0.2-10.9,0.1
			c-0.9,0.1-1.8,0.1-2.8,0.2c-0.4,0-0.9,0-1.3,0.1c-1.7,0.1-3.5,0.1-4.9,0.8c-0.9,0.4-1.4,1-1.7,1.9c1,0,2.1,0.1,3.1,0.1
			c1,0,2.1,0.1,3.1,0.1c1.1,0,2.4-0.1,3.6-0.2c2.6-0.2,5.3-0.4,7.7,0.2c1.4,0.3,2.4,1.3,2.5,2.4c0,0.5,0,1.7-1.7,2.5
			c-1.3,0.6-2.8,0.6-4.1,0.7l-0.5,0c-0.9,0-1.7,0-2.5,0.1c-1.2,0-2.4,0-3.6,0.1c-1.3,0.1-5.3,0.4-7.4,0.5c-0.2,0-0.4,0-0.6,0v0
			c0,0.3,0,0.6,0,0.9c1.2,0.1,2.3,0.2,3.4,0.3c1,0.1,2,0.2,3,0.2c1.2,0.1,2.5,0.1,3.8,0c2.5,0,5.2-0.1,7.6,0.6
			c1.2,0.3,2.5,1.2,2.7,2.5c0.1,0.5-0.1,1.6-1.6,2.3c-1.3,0.6-2.8,0.6-4.1,0.6h-0.4c-1.2,0-2.4,0-3.7-0.1c-0.8,0-1.7-0.1-2.5-0.1
			c-1.8,0-3.7,0-5.5,0.1c-0.4,0-1.2,0-2,0.1c0.9,1.4,2.1,1.8,4.3,2l1,0.1c6.5,0.6,13.1,1.2,19.1-0.5c2.7-0.8,4.8-2.6,6.9-4.5
			c2.2-1.9,4.4-3.9,7.3-4.8c4.7-1.5,9.9-2.6,16.6-3.5c13.7-1.9,25.3-3.1,39.8-0.7c1.3,0.2,5.7,1.2,5.7,4.1c0,2.6-4.6,4-6,4.4
			c-1.7,0.5-3.5,0.8-5.7,1.1c-4.7,0.6-9.2,0.9-13.7,0.9c0,0,0,0,0,0c-0.6,0-1-0.4-1-1s0.4-1,1-1l0,0c0,0,0,0,0,0
			c4.4,0,8.8-0.3,13.4-0.9c2-0.3,3.8-0.6,5.4-1c2.5-0.7,4.5-1.9,4.5-2.5c0-1-2.1-1.8-4-2.2c-14.2-2.4-25.7-1.1-39.2,0.7
			c-6.5,0.9-11.7,2-16.2,3.4c-2.5,0.8-4.5,2.5-6.6,4.4c-2.3,2-4.6,4.1-7.7,5C143.3,79.4,140,79.7,136.7,79.7z"/>
		<path class="st3" d="M194.1,73.6c-0.1,0-7.8-0.4-7.9-0.4l-0.3,0c-7-0.7-16.6-1.7-23.3-4.2c-3.2-1.2-5.9-2.8-9.2-5.2
			c-0.6-0.5-1.2-1-1.9-1.5l-0.3-0.2c-0.4-0.3-0.5-1-0.1-1.4c0.4-0.4,1-0.5,1.4-0.1l0.3,0.2c0.6,0.5,1.2,1,1.8,1.4
			c3.1,2.3,5.7,3.8,8.7,5c6.4,2.5,15.9,3.4,22.8,4.1l0.3,0c0.1,0,7.6,0.4,7.7,0.4c0.5,0,1,0.5,1,1C195.1,73.1,194.6,73.6,194.1,73.6
			z"/>
	</g>
</g>
<path class="st10" d="M124.8,105.2c-1.4-5,0.2-10.7,1.9-16.7c1-3.5,2-7.1,2.4-10.7c1.1-9.1-3.2-15.3-3.2-15.4l1.6-1.1
	c0.2,0.3,4.7,6.9,3.6,16.8c-0.4,3.7-1.5,7.4-2.5,11c-1.6,5.8-3.1,11.2-1.9,15.6L124.8,105.2z"/>
</svg>
