<?xml version="1.0" encoding="utf-8"?>
<!-- Generator: Adobe Illustrator 23.0.1, SVG Export Plug-In . SVG Version: 6.00 Build 0)  -->
<svg version="1.1" id="圖層_1" xmlns="http://www.w3.org/2000/svg" xmlns:xlink="http://www.w3.org/1999/xlink" x="0px" y="0px"
	 viewBox="0 0 171.3 370.7" style="enable-background:new 0 0 171.3 370.7;" xml:space="preserve">
<style type="text/css">
	.st0{opacity:0.8;fill:#BCD6D6;enable-background:new    ;}
	.st1{opacity:0.8;fill:#3E5256;enable-background:new    ;}
	.st2{clip-path:url(#SVGID_2_);}
	.st3{fill:#F5D069;}
	.st4{clip-path:url(#SVGID_4_);}
	.st5{clip-path:url(#SVGID_6_);}
	.st6{clip-path:url(#SVGID_8_);}
	.st7{clip-path:url(#SVGID_10_);}
	.st8{opacity:0.8;clip-path:url(#SVGID_12_);fill:#3E5256;enable-background:new    ;}
</style>
<g>
	<g>
		<path class="st0" d="M82.4,275.1c0,13.9,0.6,27.8,1.6,41.6c0.4,5.7,1,11.4,1.9,17c0.7,4.4,3,16,5.9,16c3.5,0,5-10.5,5.4-14.9
			c4.2-45,2.9-81.1-1.2-121.2c-1.1-10.7-5.5-42.3-5.5-42.3c-4.4,20.3-6,50.1-7.3,71.6c0,0-0.7,23.8-0.7,23.9"/>
		<path class="st0" d="M85.7,159.2c-5.7-18.2-24-33.7-29.2-52.4c-5.9-21.2-3.3-45.2-1.3-66.9c0.9-10.1,3.3-15.3,12.9-19
			c0,0.4-0.1,59.2,1.9,63.1c3.2,6.5,8.3,2.2,9.6-3c2.9-11.6,3.5-52.8,3.7-60.8c3.1,0,6.2,0,9.3,0c0,0.4,2.7,59.1,4.6,63.2
			c2.9,6.3,8.3,3.9,9.7-1.9c2.8-11.4,1.1-52.7,0.9-60.8c5.6,0.7,10,3,12.6,8.3c3.2,6.5,2.7,14.6,3.1,21.6c0.9,15,2.6,30.2,0.9,45.2
			c-0.7,5.9-2.5,11.5-5.1,16.8c-1.1,2.1-2.4,4.3-3.9,6.4L85.7,159.2z"/>
		<path class="st1" d="M89.9,350.7c-0.4,0-0.9-0.2-1.2-0.6c-4.5-4.5-11.5-56.4-11.5-79.1c0-0.6,0.4-1,1-1h0c0.6,0,1,0.4,1,1
			c0,26,7.3,72,10.6,77.3c2.2-4.5,7.3-32.6,8.7-68.9c1.3-34.2-0.4-83.8-15.5-126c-3-8.3-8.8-15-14.5-21.5
			c-6.4-7.3-13-14.8-15.7-24.7C47,87.1,49.1,64.2,51,43.9l0.3-3.2c0.9-9.9,3.2-15.7,13.4-19.7c0.3-0.1,0.6-0.1,0.9,0.1
			c0.3,0.2,0.4,0.5,0.4,0.8c0,0,0,0.3,0,0.7c0,35.1,0.7,59.1,1.7,61.2c0.6,1.3,1.7,2.8,3.2,2.7c1.7-0.2,3.7-2.6,4.4-5.5
			c2.6-10.4,3.3-45.7,3.5-57.3l0.1-2.6c0-0.5,0.5-1,1-1c1.9,0,3.9,0,5.8,0l3.4,0c0.5,0,1,0.4,1,1c0.1,2.7,2.7,58.4,4.4,62
			c1,2.1,2.3,3.2,3.7,3.1c1.7-0.2,3.3-2.1,4-4.8c2.3-9.6,1.4-41.4,1-55c-0.1-2.1-0.1-3.8-0.1-4.8c0-0.3,0.1-0.6,0.3-0.8
			c0.2-0.2,0.5-0.3,0.8-0.3c6.4,0.8,10.7,3.6,13.2,8.7c2.6,5.4,2.8,11.6,3,17.6c0,1.4,0.1,2.8,0.2,4.2c0.2,3,0.4,5.9,0.6,8.9
			c0.8,11.8,1.7,24,0.3,35.9c-0.7,5.7-2.4,11.4-5.1,16.9c-1,2-2.3,4.1-3.9,6.4c-0.3,0.5-0.9,0.6-1.4,0.2s-0.6-0.9-0.2-1.4
			c1.6-2.3,2.8-4.3,3.8-6.2c2.6-5.3,4.3-10.8,4.9-16.3c1.4-11.8,0.5-23.9-0.3-35.6c-0.2-3-0.4-6-0.6-8.9c-0.1-1.4-0.1-2.8-0.2-4.2
			c-0.2-5.8-0.4-11.8-2.8-16.8c-2.1-4.2-5.4-6.6-10.5-7.4c0,1,0.1,2.2,0.1,3.6c0.4,13.7,1.4,45.6-1,55.5c-0.8,3.5-3.1,6-5.7,6.3
			c-2.3,0.2-4.4-1.3-5.7-4.2C91,80.2,88.6,30,88.2,22.3l-2.5,0c-1.6,0-3.2,0-4.8,0l0,1.6C80.7,35.5,80,71,77.3,81.6
			c-0.8,3.2-3.2,6.6-6.1,7c-1.4,0.2-3.5-0.4-5.2-3.8c-1.6-3.3-1.9-39.4-1.9-61.3c-8.1,3.6-9.9,8.4-10.8,17.4L53,44.1
			c-1.9,20.1-4,42.8,1.6,62.6c2.6,9.4,9.1,16.8,15.3,23.9c5.8,6.6,11.8,13.5,14.9,22.1c28.5,79.5,11.4,189.9,6.3,197.1
			C90.7,350.4,90.3,350.7,89.9,350.7z"/>
		<path class="st1" d="M78.1,263.1C78.1,263.1,78.1,263.1,78.1,263.1c-0.6,0-1-0.5-1-1.1c0-0.1,0.2-6.3,0.5-12.6
			c0.5-12.6,0.5-12.6,0.5-12.6l0.1-1c1.7-22.6,4.1-53.5,10.4-74.7c3-10.1,6.8-18.8,12.8-29.2c1.1-1.9,2.3-3.8,3.6-5.9l0.6-1
			c0.3-0.5,0.9-0.6,1.4-0.3c0.5,0.3,0.6,0.9,0.3,1.4l-0.6,1c-1.3,2-2.5,3.9-3.6,5.8c-5.9,10.2-9.7,18.8-12.6,28.7
			c-6.2,21-8.6,51.8-10.3,74.3l-0.1,1c0,0.1-0.2,6.3-0.5,12.6c-0.5,12.6-0.5,12.6-0.5,12.6C79.1,262.7,78.6,263.1,78.1,263.1z"/>
	</g>
	<g>
		<g>
			<g>
				<defs>
					<path id="SVGID_1_" d="M50.1,54.9l0.8-10l-12.1,3.5l-7.7,9l10.3,19.5c0,0,23.8,9.4,36.3-2.7c12.5-12.1,6.6-25,6.6-24.9
						c0,0-11.6-10.1-16.7-8.6c-5.1,1.4-5.3,3.7-5.3,3.7l5.6,8.9L50.1,54.9z"/>
				</defs>
				<clipPath id="SVGID_2_">
					<use xlink:href="#SVGID_1_"  style="overflow:visible;"/>
				</clipPath>
				<g class="st2">
					<g>
						<g>
							<path class="st3" d="M59.1,45.2C46.3,46,36.2,53.3,36.7,61.6C37.2,69.8,48,76,60.8,75.2c12.9-0.7,22.9-8.1,22.4-16.3
								C82.8,50.6,72,44.5,59.1,45.2z M60.5,69.6c-9.1,0.5-16.7-3.3-17-8.4c-0.3-5.2,6.8-9.8,15.9-10.3c9.1-0.5,16.7,3.3,17,8.4
								C76.7,64.5,69.6,69.1,60.5,69.6z"/>
						</g>
						<path class="st1" d="M58.7,76.3c-12.7,0-22.6-6.3-23.1-14.7c-0.5-8.8,10-16.6,23.4-17.4c13.6-0.8,24.7,5.8,25.2,14.6
							c0.3,4.4-2.1,8.6-6.6,11.9c-4.4,3.2-10.3,5.2-16.8,5.5C60.2,76.3,59.4,76.3,58.7,76.3z M61.2,46.2c-0.7,0-1.4,0-2,0.1
							c-12.3,0.7-21.9,7.6-21.5,15.3c0.4,7.6,10.8,13.4,23.1,12.7c6-0.3,11.6-2.2,15.7-5.1c4-2.9,6-6.5,5.8-10.1
							C81.9,51.8,72.6,46.2,61.2,46.2z"/>
					</g>
					<path class="st1" d="M58.9,70.6c-9,0-16-4.1-16.3-9.4c-0.2-2.9,1.6-5.6,4.9-7.8c3.1-2,7.4-3.3,11.9-3.6
						c9.8-0.6,17.7,3.7,18,9.4c0.2,2.9-1.6,5.7-4.9,7.8c-3.1,2-7.4,3.3-11.9,3.6C60,70.6,59.4,70.6,58.9,70.6z M61.1,51.8
						c-0.5,0-1.1,0-1.6,0c-4.2,0.2-8.1,1.4-11,3.3c-2.7,1.7-4.1,3.9-4,6c0.3,4.5,7.4,8,15.9,7.5c4.2-0.2,8.1-1.4,11-3.3
						c2.7-1.7,4.1-3.9,4-6C75.2,55.1,68.9,51.8,61.1,51.8z"/>
				</g>
			</g>
		</g>
		<g>
			<g>
				<defs>
					<path id="SVGID_3_" d="M123.2,43.7l0.3,5.8l7.2,4.2l10.3-5.2l-2.6-16.8c0,0-18.5-11.9-34.3-5.4c-15.8,6.5-15,17.4-14.9,17.4
						s7.8,8.3,10.1,6.4c1.7-1.4,4.4-2.6,4.4-2.6l-0.8-5.3L123.2,43.7z"/>
				</defs>
				<clipPath id="SVGID_4_">
					<use xlink:href="#SVGID_3_"  style="overflow:visible;"/>
				</clipPath>
				<g class="st4">
					<g>
						<g>
							<path class="st3" d="M110.8,51.9c12.1,2.1,23.9-1.4,26.4-7.7c2.5-6.3-5.3-13.1-17.3-15.2c-12.1-2.1-23.9,1.4-26.4,7.7
								C91,43,98.7,49.8,110.8,51.9z M118.2,33.3c8.5,1.5,14.1,5.9,12.6,9.8c-1.6,4-9.7,6-18.3,4.5c-8.5-1.5-14.1-5.9-12.6-9.8
								C101.5,33.8,109.7,31.8,118.2,33.3z"/>
						</g>
						<path class="st1" d="M117.9,53.5c-2.4,0-4.8-0.2-7.2-0.6c-8.2-1.4-14.9-5.1-17.5-9.7c-1.3-2.3-1.5-4.7-0.6-6.9
							c2.1-5.3,10.3-8.9,20.3-8.9c2.4,0,4.8,0.2,7.2,0.6c8.2,1.4,14.9,5.1,17.5,9.7c1.3,2.3,1.5,4.7,0.6,6.9
							C136,49.9,127.9,53.5,117.9,53.5z M112.8,29.4c-9.1,0-16.6,3.2-18.4,7.7c-0.7,1.7-0.5,3.4,0.5,5.2c2.3,4.1,8.4,7.4,16.1,8.7
							c2.3,0.4,4.6,0.6,6.9,0.6c9.1,0,16.6-3.2,18.4-7.7c0.7-1.7,0.5-3.4-0.5-5.2c-2.3-4.1-8.4-7.4-16.1-8.7
							C117.4,29.6,115.1,29.4,112.8,29.4z"/>
					</g>
					<path class="st1" d="M118,49.1c-1.9,0-3.8-0.2-5.7-0.5c-6.2-1.1-11.2-3.7-12.9-6.9c-0.8-1.4-0.9-2.9-0.4-4.3
						c1.4-3.4,6.7-5.6,13.7-5.6c1.9,0,3.8,0.2,5.7,0.5c6.2,1.1,11.2,3.7,12.9,6.9c0.8,1.4,0.9,2.9,0.4,4.3
						C130.3,46.9,125,49.1,118,49.1z M112.7,33.8c-5.9,0-10.8,1.8-11.8,4.4c-0.3,0.8-0.2,1.7,0.3,2.6c1.5,2.6,6,4.9,11.5,5.9
						c1.8,0.3,3.6,0.5,5.4,0.5c5.9,0,10.8-1.8,11.8-4.4c0.3-0.8,0.2-1.7-0.3-2.6c-1.5-2.6-6-4.9-11.5-5.9
						C116.2,34,114.4,33.8,112.7,33.8z"/>
				</g>
			</g>
		</g>
		<g>
			<g>
				<defs>
					<path id="SVGID_5_" d="M78.4,41.4l0.4-10.9l-17.9,8.3l-5.4,10.5l16,15.7c0,0,26.9,2.7,36.4-12c9.4-14.6-0.3-25.3-0.3-25.2
						c0,0-18.2-2.2-18.2-2.2l0.9,11.3L78.4,41.4z"/>
				</defs>
				<clipPath id="SVGID_6_">
					<use xlink:href="#SVGID_5_"  style="overflow:visible;"/>
				</clipPath>
				<g class="st5">
					<g>
						<g>
							<path class="st3" d="M80.7,30.6c-12.9,4-21.1,13.6-18.3,21.2C65.3,59.5,78,62.4,91,58.4c12.9-4,21.1-13.6,18.3-21.2
								C106.4,29.5,93.7,26.5,80.7,30.6z M89,53.2c-9.1,2.9-17.9,1.3-19.7-3.5c-1.8-4.8,4.2-11,13.3-13.9s17.9-1.3,19.7,3.5
								C104.1,44.1,98.2,50.3,89,53.2z"/>
						</g>
						<path class="st1" d="M79.5,61.2c-9,0-15.9-3.5-18-9.1c-1-2.8-0.8-5.9,0.8-9c2.9-5.8,9.7-10.9,18.2-13.5
							c3.9-1.2,8-1.9,11.8-1.9c9,0,15.9,3.5,18,9.1c1,2.8,0.8,5.9-0.8,9c-2.9,5.8-9.7,10.9-18.2,13.5C87.4,60.6,83.3,61.2,79.5,61.2
							z M92.2,29.7c-3.6,0-7.5,0.6-11.2,1.8c-7.9,2.5-14.4,7.3-17,12.5c-1.3,2.6-1.5,5.2-0.7,7.5c1.8,4.8,7.9,7.7,16.1,7.7
							c3.6,0,7.5-0.6,11.2-1.8c7.9-2.5,14.4-7.3,17-12.5c1.3-2.6,1.5-5.2,0.7-7.5C106.6,32.7,100.4,29.7,92.2,29.7z"/>
					</g>
					<path class="st1" d="M80.2,55.6c-6.1,0-10.5-2.1-11.8-5.6c-0.6-1.7-0.5-3.6,0.5-5.5c2-4,7.1-7.7,13.5-9.7
						c3.1-1,6.2-1.5,9.1-1.5c6.1,0,10.5,2.1,11.8,5.6c0.6,1.7,0.5,3.6-0.5,5.5c-2,4-7.1,7.7-13.5,9.7C86.3,55.1,83.1,55.6,80.2,55.6
						z M91.5,35.4c-2.7,0-5.7,0.5-8.6,1.4c-5.8,1.8-10.5,5.1-12.3,8.6c-0.7,1.4-0.8,2.7-0.4,3.9c1,2.7,4.8,4.3,9.9,4.3
						c2.7,0,5.7-0.5,8.6-1.4c5.8-1.8,10.5-5.1,12.3-8.6c0.7-1.4,0.8-2.7,0.4-3.9C100.4,37,96.6,35.4,91.5,35.4z"/>
				</g>
			</g>
		</g>
		<g>
			<g>
				<defs>
					<path id="SVGID_7_" d="M51,44.1c0,0,0.1-1,0.4-4.5c0.3-2.9,1-5.3,1-5.3L44.1,33l-5.5,2.2l-9.2,6.1l5.9,20.3
						c0,0,19.9,12.3,35.4,7c20-6.9,11.5-20.9,11.4-20.8c0,0-7.7-6.6-7.7-6.6s-1.2,1.1-2.6,2.5c-1.5,1.6-2.4,4.5-2.4,4.5L51,44.1z"/>
				</defs>
				<clipPath id="SVGID_8_">
					<use xlink:href="#SVGID_7_"  style="overflow:visible;"/>
				</clipPath>
				<g class="st6">
					<g>
						<g>
							<path class="st3" d="M56.6,64.8c12.5,2.7,23.6-1.3,24.8-9c1.2-7.6-7.9-15.9-20.3-18.6c-12.5-2.7-23.6,1.3-24.8,9
								C35,53.8,44.1,62.1,56.6,64.8z M60.3,42.4c8.8,1.9,15.3,7.3,14.5,12c-0.8,4.8-8.5,7.1-17.3,5.2c-8.8-1.9-15.3-7.3-14.5-12
								C43.7,42.8,51.5,40.5,60.3,42.4z"/>
						</g>
						<path class="st1" d="M64.2,66.6c-2.5,0-5.2-0.3-7.8-0.8C43.4,63,34,54.1,35.3,46c1-6.3,8.4-10.6,18.2-10.6
							c2.5,0,5.2,0.3,7.8,0.8C74.3,39,83.8,47.9,82.4,56C81.4,62.3,74.1,66.6,64.2,66.6z M53.5,37.4c-8.9,0-15.4,3.6-16.3,8.9
							c-1.2,7.1,7.6,14.9,19.6,17.5c2.5,0.5,5,0.8,7.4,0.8c8.9,0,15.4-3.6,16.3-8.9c1.2-7.1-7.6-14.9-19.6-17.5
							C58.4,37.6,55.9,37.4,53.5,37.4z"/>
					</g>
					<path class="st1" d="M63.4,61.2c-2,0-4.1-0.2-6.1-0.7c-9.4-2-16.2-7.8-15.3-13.2c0.7-4.1,5.5-6.7,12.4-6.7c2,0,4.1,0.2,6.1,0.7
						c9.4,2,16.2,7.8,15.3,13.2C75.1,58.6,70.2,61.2,63.4,61.2z M54.3,42.7c-5.7,0-9.9,2-10.4,5c-0.7,4.2,5.6,9.1,13.7,10.9
						c1.9,0.4,3.9,0.6,5.7,0.6c5.7,0,9.9-2,10.4-5c0.7-4.2-5.6-9.1-13.7-10.9C58.1,42.9,56.2,42.7,54.3,42.7z"/>
				</g>
			</g>
		</g>
		<g>
			<g>
				<defs>
					<path id="SVGID_9_" d="M124.2,67.8l0.7,13.1l5.4,0.3l11.5-3.6l-0.1-22.9c0,0-17.4-21.6-34.8-17.9
						c-17.4,3.6-18.2,18.3-18.2,18.3c0,0,15.8,17.8,15.8,17.8l-0.4-14.5L124.2,67.8z"/>
				</defs>
				<clipPath id="SVGID_10_">
					<use xlink:href="#SVGID_9_"  style="overflow:visible;"/>
				</clipPath>
				<g class="st7">
					<g>
						<path class="st3" d="M110.1,73.2c12.2,6.5,25,5.7,28.6-1.9s-3.4-19-15.6-25.5c-12.2-6.5-25-5.7-28.6,1.9
							C90.9,55.2,97.9,66.7,110.1,73.2z M120.7,50.9c8.6,4.6,13.8,12.2,11.5,16.9c-2.2,4.7-11,4.8-19.7,0.2S98.8,55.9,101,51.2
							C103.3,46.4,112.1,46.3,120.7,50.9z"/>
					</g>
					<path class="st1" d="M126.2,78.6c-5.2,0-11-1.6-16.5-4.5C97,67.3,89.8,55.3,93.6,47.2c2.1-4.4,7-6.8,13.5-6.8
						c5.2,0,11,1.6,16.5,4.5c12.7,6.8,19.9,18.8,16.1,26.8C137.6,76.1,132.7,78.6,126.2,78.6z M107.1,42.4c-5.7,0-10,2.1-11.7,5.7
						c-3.4,7.1,3.5,17.9,15.2,24.2c5.2,2.8,10.7,4.3,15.6,4.3c5.7,0,10-2.1,11.7-5.7c3.4-7.1-3.5-17.9-15.2-24.2
						C117.5,43.9,112,42.4,107.1,42.4z"/>
				</g>
			</g>
			<g>
				<defs>
					<path id="SVGID_11_" d="M124.2,67.8l0.7,13.1l5.4,0.3l11.5-3.6l-0.1-22.9c0,0-17.4-21.6-34.8-17.9
						c-17.4,3.6-18.2,18.3-18.2,18.3c0,0,15.8,17.8,15.8,17.8l-0.4-14.5L124.2,67.8z"/>
				</defs>
				<clipPath id="SVGID_12_">
					<use xlink:href="#SVGID_11_"  style="overflow:visible;"/>
				</clipPath>
				<path class="st8" d="M124.6,72.4c-3.8,0-8.3-1.2-12.5-3.5c-9.2-4.9-14.5-12.9-12-18.2c1.3-2.7,4.3-4.2,8.5-4.2
					c3.8,0,8.3,1.2,12.5,3.5c9.2,4.9,14.5,12.9,12,18.2C131.9,71,128.8,72.4,124.6,72.4z M108.7,48.5c-3.4,0-5.8,1.1-6.7,3
					c-2,4.2,3.1,11.3,11.1,15.6c3.9,2.1,8,3.3,11.5,3.3c3.4,0,5.8-1.1,6.7-3.1c2-4.2-3.1-11.3-11.1-15.6
					C116.3,49.7,112.2,48.5,108.7,48.5z"/>
			</g>
		</g>
	</g>
</g>
</svg>
