<?xml version="1.0" encoding="utf-8"?>
<!-- Generator: Adobe Illustrator 23.0.1, SVG Export Plug-In . SVG Version: 6.00 Build 0)  -->
<svg version="1.1" id="圖層_1" xmlns="http://www.w3.org/2000/svg" xmlns:xlink="http://www.w3.org/1999/xlink" x="0px" y="0px"
	 viewBox="0 0 171.3 391.8" style="enable-background:new 0 0 171.3 391.8;" xml:space="preserve">
<style type="text/css">
	.st0{clip-path:url(#SVGID_2_);}
	.st1{opacity:0.8;fill:#BCD6D6;enable-background:new    ;}
	.st2{opacity:0.8;fill:#3E5256;enable-background:new    ;}
	.st3{fill:#F2BA3D;}
	.st4{fill:#F5D069;}
</style>
<g>
	<g>
		<g>
			<g>
				<defs>
					<polygon id="SVGID_1_" points="93,49.6 93,77.4 74,77.4 74,49.6 36.7,49.6 36.7,381.4 134.6,381.4 134.6,49.6 					"/>
				</defs>
				<clipPath id="SVGID_2_">
					<use xlink:href="#SVGID_1_"  style="overflow:visible;"/>
				</clipPath>
				<g class="st0">
					<path class="st1" d="M78.9,306.8c0,13.9,0.6,27.8,1.6,41.6c0.4,5.7,1,11.4,1.9,17c0.7,4.4,3,16,5.9,16c3.5,0,5-10.5,5.4-14.9
						c4.2-45,2.9-81.1-1.2-121.2C91.4,234.6,87,203,87,203c-4.4,20.3-6,50.1-7.3,71.6c0,0-0.7,23.8-0.7,23.9"/>
					<path class="st1" d="M82.8,193.2c-5.6-18.8-23.7-34.8-28.8-54.1c-5.9-21.9-3.3-46.7-1.3-69.1c0.9-10.5,3.3-15.8,12.8-19.7
						c0,0.5-0.1,61.1,1.8,65.1c3.2,6.8,8.2,2.2,9.5-3.1c2.9-12,3.5-54.5,3.6-62.8c3.1,0,6.2,0,9.2,0c0,0.4,2.6,61,4.5,65.2
						c2.9,6.5,8.2,4,9.6-1.9c2.7-11.8,1-54.4,0.9-62.8c5.6,0.7,9.9,3.1,12.5,8.5c3.1,6.7,2.7,15.1,3.1,22.3
						c0.9,15.5,2.6,31.2,0.9,46.7c-0.7,6-2.4,11.9-5,17.3c-1,2.2-2.4,4.4-3.8,6.6L82.8,193.2z"/>
					<path class="st2" d="M86.3,382.4c-0.4,0-0.9-0.2-1.2-0.6c-4.5-4.5-11.5-56.4-11.5-79.1c0-0.6,0.4-1,1-1l0,0c0.6,0,1,0.4,1,1
						c0,24.5,7,71.9,10.6,77.3c2.2-4.5,7.3-32.6,8.7-68.9c1.3-34.2-0.4-83.8-15.5-126c-3-8.3-8.8-15-14.5-21.5
						c-6.4-7.3-13-14.8-15.7-24.7c-5.6-20.1-3.5-43.1-1.6-63.3l0.3-3.2c0.9-9.9,3.2-15.7,13.4-19.7c0.3-0.1,0.6-0.1,0.9,0.1
						c0.3,0.2,0.4,0.5,0.4,0.8c0,0,0,0.3,0,0.7c0,35.1,0.7,59.1,1.7,61.2c0.6,1.3,1.7,2.8,3.2,2.7c1.7-0.2,3.7-2.6,4.4-5.5
						c2.6-10.4,3.3-45.7,3.5-57.3l0.1-2.6c0-0.5,0.5-1,1-1c1.9,0,3.9,0,5.8,0h3.4c0.5,0,1,0.4,1,1c0.1,2.7,2.7,58.4,4.4,62
						c1,2.1,2.3,3.2,3.7,3.1c1.7-0.2,3.3-2.1,4-4.8c2.3-9.6,1.4-41.4,1-55c-0.1-2.1-0.1-3.8-0.1-4.9c0-0.3,0.1-0.6,0.3-0.8
						s0.5-0.3,0.8-0.3c6.4,0.8,10.7,3.6,13.2,8.7c2.6,5.4,2.8,11.6,3,17.6c0,1.4,0.1,2.8,0.2,4.2c0.2,3,0.4,5.9,0.6,8.9
						c0.8,11.8,1.7,24,0.3,35.9c-0.7,5.7-2.4,11.4-5.1,16.9c-1,2-2.3,4.1-3.9,6.4c-0.3,0.5-0.9,0.6-1.4,0.2
						c-0.5-0.3-0.6-0.9-0.2-1.4c1.6-2.3,2.8-4.3,3.8-6.2c2.6-5.3,4.3-10.8,4.9-16.3c1.4-11.8,0.5-23.9-0.3-35.6
						c-0.2-3-0.4-6-0.6-8.9c-0.1-1.4-0.1-2.8-0.2-4.2c-0.2-5.8-0.4-11.8-2.8-16.8c-2.1-4.2-5.4-6.6-10.5-7.4c0,1,0.1,2.2,0.1,3.7
						c0.4,13.7,1.4,45.6-1,55.5c-0.8,3.5-3.1,6-5.7,6.3c-2.3,0.2-4.4-1.3-5.7-4.2c-1.8-3.9-4.2-54.2-4.6-61.9h-2.5
						c-1.6,0-3.2,0-4.8,0v1.6c-0.2,11.6-0.9,47.1-3.6,57.7c-0.8,3.2-3.2,6.6-6.1,7c-1.4,0.2-3.5-0.4-5.2-3.8
						c-1.6-3.3-1.9-39.4-1.9-61.3c-8.1,3.6-9.9,8.4-10.8,17.4l-0.3,3.2c-1.9,20.1-4,42.8,1.6,62.6c2.6,9.4,9.1,16.8,15.3,23.9
						c5.8,6.6,11.8,13.5,14.9,22.1C110,263.4,92.9,373.8,87.8,381C87.2,382.1,86.8,382.4,86.3,382.4z"/>
					<path class="st2" d="M74.6,294.8C74.5,294.8,74.5,294.8,74.6,294.8c-0.6,0-1-0.5-1-1c0-0.1,0.2-6.4,0.5-12.6
						c0.5-12.6,0.5-12.6,0.5-12.6l0.1-1c1.7-22.6,4.1-53.5,10.4-74.7c3-10.1,6.8-18.8,12.8-29.2c1.1-1.9,2.3-3.8,3.6-5.9l0.7-1
						c0.3-0.5,0.9-0.6,1.4-0.3s0.6,0.9,0.3,1.4l-0.7,1c-1.3,2-2.5,3.9-3.5,5.8c-5.9,10.2-9.7,18.8-12.6,28.7
						c-6.2,21-8.6,51.8-10.3,74.3l-0.1,1c0,0.1-0.2,6.3-0.5,12.6c-0.5,12.6-0.5,12.6-0.5,12.6C75.5,294.4,75.1,294.8,74.6,294.8z"/>
				</g>
			</g>
		</g>
	</g>
	<g>
		<path class="st3" d="M78.5,27.9c0,0-1.8-1.7-2.5-1.5c-1.4,0.3-5.3,6.1-4.6,14.8c0.8,10,7.2,21.7,17.3,27.3
			c6.2,3.4,11.8,4.3,13.7,3.8c1.1-0.3,1.6-2.7,1.6-2.7L78.5,27.9z"/>
		<path class="st4" d="M101.9,21.3c-1.3,6.8,0.3,14.3,3.4,22.1c3.1,7.9,4,10,4,10s13-13,13.8-23.1c0.6-7.3-2.1-17-7.2-18.4
			C108.8,10,103.3,14.5,101.9,21.3z"/>
		<path class="st4" d="M70.6,23.5c0,0-22.2,26.8-13.8,41.1s26.9,15.4,30.9,15s6.8-0.1,7.8,0c1.1,0.1,2.5-0.3,3.1-2.1
			c0.6-1.8,0.6-1.8,0.6-1.8s-3,1.4-7.7-0.5c-4.4-1.7-10.4-6.5-14.5-10.7C71.5,58.6,59,42.2,70.6,23.5z"/>
		<path class="st4" d="M101.9,13.3c0,0-8.9,5.5-3.8,19s9.1,20.9,9.1,20.9s-1.1,15.9-3.4,16.3s-16.9-0.3-22.7-14.8
			c-5.4-13.7-8.3-25.2-0.2-30.6C89.1,18.6,101.9,13.3,101.9,13.3z"/>
		<path class="st2" d="M107.3,54.2L107.3,54.2c-0.3,0-0.7-0.2-0.8-0.5c-0.5-0.9-13.3-21.5-9.7-34.2c1-3.4,3-6,6.1-7.6
			c5.1-2.6,9.7-1.8,12.7,2c3.5,4.5,4.4,12.2,3.2,17.2c-2.3,9.3-10.3,22-10.6,22.5C107.9,54,107.6,54.2,107.3,54.2z M108.6,12.4
			c-1.5,0-3.1,0.5-4.8,1.3c-2.6,1.3-4.3,3.4-5.1,6.3c-2.8,10,5.9,26.3,8.7,31.2c2.2-3.6,7.8-13.4,9.5-20.5
			c1.1-4.4,0.3-11.5-2.8-15.5C112.5,13.3,110.7,12.4,108.6,12.4z"/>
		<path class="st2" d="M102.5,70.9c-1.9,0-5-1-11.1-3.5c-7.6-3-12.7-12.6-14.8-20.6c-2.4-8.7-1.9-16.7,1.3-20.9
			c7.1-9.2,25.8-14.2,26.6-14.5c0.5-0.1,1.1,0.2,1.2,0.7s-0.2,1.1-0.7,1.2c-0.2,0.1-18.9,5.1-25.5,13.7c-2.9,3.7-3.3,11.1-1,19.2
			c2.6,9.4,7.9,17,13.6,19.3c5.1,2,10,3.8,11,3.2c0.4-0.2,0.5-1.2,0.6-2.3v-0.1c0.5-4,2.4-13.1,2.5-13.5c0.1-0.5,0.6-0.9,1.2-0.8
			c0.5,0.1,0.9,0.6,0.8,1.2c0,0.1-2,9.4-2.5,13.3v0.1c-0.2,1.6-0.4,3-1.6,3.8C103.7,70.8,103.2,70.9,102.5,70.9z"/>
		<path class="st2" d="M95.6,77.5c-4.5,0-23.1-11.8-28.2-25.7c-6-16.3,2.7-29.1,3-29.7c0.2-0.2,0.4-0.4,0.7-0.4c0.3,0,0.5,0,0.8,0.2
			l6.2,4.8c0.4,0.3,0.5,1,0.2,1.4s-1,0.5-1.4,0.2l-5.3-4.1c-1.8,3.1-7,14-2.3,26.9c4.9,13.2,23,24.4,26.3,24.4l0,0
			c6.1-0.1,6.2-5.4,6.2-5.6c0-0.6,0.4-1,1-1l0,0c0.5,0,1,0.4,1,1C103.8,72.5,102.1,77.5,95.6,77.5L95.6,77.5z"/>
		<path class="st2" d="M96.3,80.7c-0.3,0-0.7-0.1-1-0.2c-2-0.7-5.9-0.2-7.3,0h-0.1c-0.8,0-20.2,0.9-30.9-13.9
			c-4.6-6.3-3.7-15.8,2.7-28.1c4.7-9,10.7-16.3,10.8-16.4c0.4-0.4,1-0.5,1.4-0.1s0.5,1,0.1,1.4c-0.2,0.3-23.4,28.4-13.5,42.1
			C68.3,79,86.4,78.6,87.6,78.6c0.7-0.1,5.6-0.9,8.3,0.1c0.3,0.1,0.5,0.1,0.7,0c0.8-0.4,1.5-2.2,1.7-3.1c0.1-0.5,0.7-0.9,1.2-0.7
			c0.5,0.1,0.9,0.7,0.8,1.2c-0.1,0.3-0.8,3.4-2.7,4.4C97.2,80.6,96.8,80.7,96.3,80.7z"/>
		<path class="st2" d="M77.2,76.2c-3,0-6.4-0.2-9.9-0.8c-0.5-0.1-0.9-0.6-0.8-1.1s0.6-0.9,1.1-0.8c11.2,1.8,21.7-0.3,21.8-0.4
			c0.5-0.1,1.1,0.2,1.2,0.8c0.1,0.5-0.2,1.1-0.8,1.2C89.5,75.1,84.3,76.2,77.2,76.2z"/>
		<path class="st2" d="M61.7,71.4c-0.5,0-1-0.4-1-1s0.4-1,1-1c11.4,0,19-2.4,19-2.4c0.5-0.2,1.1,0.1,1.3,0.7s-0.1,1.1-0.7,1.3
			C81,69,73.4,71.4,61.7,71.4L61.7,71.4z"/>
		<path class="st2" d="M57.8,67c-0.6,0-1-0.4-1-1s0.4-1,1-1c5.9,0,15.7-5,15.8-5c0.5-0.3,1.1-0.1,1.3,0.4c0.3,0.5,0.1,1.1-0.4,1.3
			C74,62,64.2,67,57.8,67z"/>
		<path class="st2" d="M55.5,61.9c-0.3,0-0.7-0.2-0.9-0.5c-0.3-0.5-0.1-1.1,0.4-1.4l13.5-7.7c0.5-0.3,1.1-0.1,1.4,0.4
			s0.1,1.1-0.4,1.4L56,61.8C55.8,61.9,55.7,61.9,55.5,61.9z"/>
		<path class="st2" d="M55.5,54.2c-0.2,0-0.5-0.1-0.7-0.3c-0.4-0.4-0.4-1-0.1-1.4c4.7-5.1,10.4-10.1,10.4-10.2
			c0.4-0.4,1-0.3,1.4,0.1c0.4,0.4,0.3,1-0.1,1.4c-0.1,0-5.7,5-10.3,10.1C56,54.1,55.8,54.2,55.5,54.2z"/>
		<path class="st2" d="M76.3,35.5c-0.1,0-0.1,0-0.2,0c-0.5-0.1-0.9-0.6-0.8-1.2c0.2-1.2,9.3-9.9,21.5-14c0.5-0.2,1.1,0.1,1.3,0.6
			c0.2,0.5-0.1,1.1-0.6,1.3C85.8,26.2,78,34,77.3,34.9C77,35.3,76.7,35.5,76.3,35.5z"/>
		<path class="st2" d="M76.8,43.2c-0.1,0-0.1,0-0.2,0c-0.5-0.1-0.9-0.6-0.8-1.2c0.2-1.2,8.6-10.7,20.9-14.9c0.5-0.2,1.1,0.1,1.3,0.6
			c0.2,0.5-0.1,1.1-0.6,1.3c-11.5,3.9-18.9,12.4-19.6,13.5C77.6,42.9,77.2,43.2,76.8,43.2z"/>
		<path class="st2" d="M78.5,49.6c-0.1,0-0.1,0-0.2,0c-0.5-0.1-0.9-0.6-0.8-1.2c0.2-1.2,8.7-10.7,20.9-14.9c0.5-0.2,1.1,0.1,1.3,0.6
			c0.2,0.5-0.1,1.1-0.6,1.3c-11.5,3.9-18.9,12.4-19.6,13.5C79.3,49.4,78.9,49.6,78.5,49.6z"/>
		<path class="st2" d="M85.7,62.3c-0.2,0-0.4-0.1-0.6-0.2c-0.4-0.3-0.5-1-0.2-1.4c7.6-9.5,13.2-14.3,15.3-16.1
			c0.4-0.3,0.7-0.6,0.8-0.7c0.2-0.3,0.6-0.5,1-0.5c0.5,0.1,0.9,0.6,0.8,1.2c-0.1,0.5-0.3,0.7-1.4,1.6c-2.1,1.9-7.4,6.4-14.9,15.7
			C86.3,62.2,86,62.3,85.7,62.3z"/>
		<path class="st2" d="M81.2,55.7c-0.3,0-0.5-0.1-0.7-0.3c-0.4-0.4-0.4-1,0-1.4c7.7-7.2,14.4-11.7,17.6-13.9c0.7-0.5,1.4-1,1.7-1.2
			c0.2-0.3,0.6-0.5,1-0.4c0.5,0.1,0.9,0.6,0.8,1.2s-0.3,0.7-2.3,2.1C96.1,44,89.5,48.5,82,55.5C81.7,55.6,81.5,55.7,81.2,55.7z"/>
		<path class="st2" d="M99.4,70.2c-0.5,0-1-0.4-1-1c0-0.2,0-5.8,6.1-18.2c0.2-0.5,0.8-0.7,1.3-0.5s0.7,0.8,0.5,1.3
			c-5.8,11.8-5.9,17.2-5.9,17.3C100.4,69.8,99.9,70.2,99.4,70.2L99.4,70.2z"/>
		<path class="st2" d="M92.5,67.1c-0.1,0-0.3,0-0.4-0.1c-0.5-0.2-0.8-0.8-0.5-1.3c0.2-0.4,3.8-9,11.5-18c0.4-0.4,1-0.5,1.4-0.1
			s0.5,1,0.1,1.4c-7.5,8.8-11.1,17.4-11.2,17.5C93.3,66.9,92.9,67.1,92.5,67.1z"/>
	</g>
</g>
</svg>
