<?xml version="1.0" encoding="utf-8"?>
<!-- Generator: Adobe Illustrator 23.0.1, SVG Export Plug-In . SVG Version: 6.00 Build 0)  -->
<svg version="1.1" id="圖層_1" xmlns="http://www.w3.org/2000/svg" xmlns:xlink="http://www.w3.org/1999/xlink" x="0px" y="0px"
	 viewBox="0 0 123.9 391.8" style="enable-background:new 0 0 123.9 391.8;" xml:space="preserve">
<style type="text/css">
	.st0{opacity:0.8;fill:#BCD6D6;enable-background:new    ;}
	.st1{opacity:0.8;fill:#3E5256;enable-background:new    ;}
	.st2{fill:#F5D069;}
	.st3{fill:#F2BA3D;}
	.st4{clip-path:url(#SVGID_2_);}
	.st5{clip-path:url(#SVGID_4_);}
</style>
<g>
	<g>
		<path class="st0" d="M55.9,308.8c0,13.9,0.6,27.8,1.6,41.6c0.4,5.7,1,11.4,1.9,17c0.7,4.4,3,16,5.9,16c3.5,0,5-10.5,5.4-14.9
			c4.2-45,2.9-81.1-1.2-121.2c-1.1-10.7-5.5-42.3-5.5-42.3c-4.4,20.3-6,50.1-7.3,71.6c0,0-0.7,23.8-0.7,23.9"/>
		<path class="st0" d="M59.7,195.1c-5.6-18.8-23.6-34.8-28.7-54.1c-5.8-21.9-3.2-46.7-1.3-69.1c0.9-10.5,3.3-15.8,12.7-19.7
			c0,0.5-0.1,61.1,1.8,65.1c3.2,6.8,8.1,2.2,9.4-3.1c2.9-12,3.4-54.5,3.6-62.8c3.1,0,6.1,0,9.2,0c0,0.4,2.6,61,4.5,65.2
			c2.9,6.5,8.1,4,9.5-1.9c2.7-11.8,1-54.4,0.9-62.8c5.5,0.7,9.9,3.1,12.4,8.5c3.1,6.7,2.7,15.1,3.1,22.3c0.9,15.5,2.6,31.2,0.9,46.7
			c-0.7,6-2.4,11.9-5,17.3c-1,2.2-2.4,4.4-3.8,6.6L59.7,195.1z"/>
		<path class="st1" d="M63.3,384.4c-0.4,0-0.9-0.2-1.2-0.6c-4.5-4.5-11.5-56.4-11.5-79.1c0-0.6,0.4-1,1-1l0,0c0.6,0,1,0.4,1,1
			c0,24.5,7,71.9,10.6,77.3c2.2-4.5,7.3-32.6,8.7-68.9c1.3-34.2-0.4-83.8-15.5-126c-3-8.3-8.8-15-14.5-21.5
			c-6.4-7.3-13-14.8-15.7-24.7c-5.8-20-3.6-43-1.8-63.3l0.3-3.2c0.9-9.9,3.2-15.7,13.4-19.7c0.3-0.1,0.6-0.1,0.9,0.1
			c0.3,0.2,0.4,0.5,0.4,0.8c0,0,0,0.3,0,0.7c0,35.1,0.7,59.1,1.7,61.2c0.6,1.3,1.7,2.8,3.2,2.7c1.7-0.2,3.7-2.6,4.4-5.5
			c2.6-10.4,3.3-45.7,3.5-57.3l0.1-2.6c0-0.5,0.5-1,1-1c1.9,0,3.9,0,5.8,0h3.4c0.5,0,1,0.4,1,1c0.1,2.6,2.7,58.4,4.4,62
			c1,2.1,2.3,3.2,3.7,3.1c1.7-0.2,3.3-2.1,4-4.8c2.3-9.6,1.4-41.4,1-55c-0.1-2.1-0.1-3.7-0.1-4.8c0-0.3,0.1-0.6,0.3-0.8
			s0.5-0.3,0.8-0.3c6.4,0.8,10.7,3.6,13.2,8.7c2.6,5.4,2.8,11.6,3,17.6c0,1.4,0.1,2.8,0.2,4.2c0.2,3,0.4,5.9,0.6,8.9
			c0.8,11.8,1.7,24,0.3,35.9c-0.7,5.7-2.4,11.4-5.1,16.9c-1,2-2.3,4.1-3.9,6.4c-0.3,0.5-0.9,0.6-1.4,0.2s-0.6-0.9-0.2-1.4
			c1.6-2.3,2.8-4.3,3.8-6.2c2.6-5.3,4.3-10.8,4.9-16.3c1.4-11.8,0.5-23.9-0.3-35.6c-0.2-3-0.4-6-0.6-8.9c-0.1-1.4-0.1-2.8-0.2-4.2
			c-0.2-5.8-0.4-11.8-2.8-16.7c-2.1-4.2-5.4-6.6-10.5-7.4c0,1,0.1,2.2,0.1,3.6c0.4,13.7,1.4,45.7-1,55.5c-0.8,3.5-3.1,6-5.7,6.3
			c-2.3,0.2-4.4-1.3-5.7-4.2c-1.8-3.9-4.2-54.2-4.6-61.9h-2.5c-1.6,0-3.2,0-4.8,0v1.6c-0.2,11.6-0.9,47.1-3.6,57.7
			c-0.8,3.2-3.2,6.6-6.1,7c-1.4,0.2-3.5-0.4-5.2-3.8c-1.6-3.3-1.9-39.4-1.9-61.3c-8.1,3.6-9.9,8.4-10.8,17.4l-0.4,3.6
			c-1.9,20.1-4,42.8,1.6,62.6c2.6,9.4,9.1,16.8,15.3,23.9c5.8,6.6,11.8,13.5,14.9,22.1c28.5,79.5,11.4,189.9,6.3,197.1
			C64.2,384.1,63.7,384.4,63.3,384.4z"/>
		<path class="st1" d="M51.5,296.9L51.5,296.9c-0.6,0-1-0.5-1-1c0-0.1,0.1-3.3,0.3-7.4c0.7-17.8,0.7-17.8,0.7-17.8l0.1-1
			c1.7-22.6,4.1-53.5,10.4-74.7c3-10.1,6.8-18.8,12.8-29.2c1.1-1.9,2.3-3.8,3.6-5.8l0.7-1.1c0.3-0.5,0.9-0.6,1.4-0.3
			s0.6,0.9,0.3,1.4l-0.7,1.1c-1.3,2-2.5,3.9-3.5,5.8c-5.9,10.2-9.7,18.8-12.6,28.7c-6.2,21-8.6,51.8-10.3,74.2l-0.1,1
			c0,0.1-0.4,10.4-0.7,17.8c-0.2,4.1-0.3,7.4-0.3,7.4C52.5,296.4,52.1,296.9,51.5,296.9z"/>
	</g>
	<g>
		<path class="st2" d="M110.9,59c0.5-1.4-2.1-3.8-2.1-3.8l-2.5-2.7l3.6-0.7c0,0,3.4-0.5,3.9-1.9s-2.1-3.8-2.1-3.8l-1.8-1.9l1.3-2
			c0,0,2.1-2.8,1.4-4.1s-4.1-1.2-4.1-1.2H107l-0.2-1.1c0,0-0.5-3.4-1.9-3.9s-3.8,2.1-3.8,2.1l-2.7,2.5L97.7,33c0,0-0.5-3.4-1.9-3.9
			S92,31,92,31l-2.7,2.5L88.6,30c0,0-0.5-3.4-1.9-3.9s-3.8,2-3.8,2l-2.7,2.5L79.5,27c0,0-0.5-3.4-1.9-3.9s-3.8,2-3.8,2l-2.7,2.8
			l-0.7-3.6c0,0-0.5-3.4-1.9-3.9s-3.8,2-3.8,2L62,24.8l-0.7-3.6c0,0-0.5-3.4-1.9-3.9s-3.8,2.1-3.8,2.1l-2.7,2.5l-0.7-3.6
			c0,0-0.5-3.4-1.9-3.9s-3.8,2.1-3.8,2.1l-1.1,1.1L43,16c0,0-2.8-2.1-4.1-1.4c-1.3,0.7-1.2,4.1-1.2,4.1l-0.1,2.9l-1.5,0.3
			c0,0-3.4,0.5-3.9,1.9s2.1,3.8,2.1,3.8l2.5,2.7L33.2,31c0,0-3.4,0.5-3.9,1.9c-0.5,1.4,2,3.8,2,3.8l2.5,2.7l-3.6,0.7
			c0,0-3.4,0.5-3.9,1.9s2,3.8,2,3.8l2.5,2.7l-3.6,0.7c0,0-3.4,0.5-3.9,1.9s2,3.8,2,3.8l2.5,2.7l-3.6,0.7c0,0-3.4,0.5-3.9,1.9
			s2,3.8,2,3.8l2.5,2.7l-3.4,0.8c0,0-3.4,0.5-3.9,1.9s2.1,3.8,2.1,3.8l2.5,2.7l-3.6,0.7c0,0-3.4,0.5-3.9,1.9s2.1,3.8,2.1,3.8
			l1.1,1.1l-1.6,2.4c0,0-2.1,2.8-1.4,4.1c0.7,1.3,4.1,1.2,4.1,1.2l2.9,0.1l0.3,1.5c0,0,0.5,3.4,1.9,3.9s3.8-2.1,3.8-2.1l2.7-2.5
			l0.7,3.6c0,0,0.5,3.4,1.9,3.9s3.8-2.1,3.8-2.1l2.7-2.5l0.7,3.6c0,0,0.5,3.4,1.9,3.9s3.8-2,3.8-2l2.7-2.5l0.7,3.6
			c0,0,0.5,3.4,1.9,3.9s3.8-2.1,3.8-2.1l2.7-2.5l0.7,3.6c0,0,0.5,3.4,1.9,3.9s3.8-2.1,3.8-2.1l2.7-2.5l0.7,3.6c0,0,0.5,3.4,1.9,3.9
			s3.8-2.1,3.8-2.1l2.7-2.5l0.7,3.6c0,0,0.5,3.4,1.9,3.9s3.8-2.1,3.8-2.1l0.8-0.8l1.2,0.8c0,0,2.8,2.1,4.1,1.4
			c1.3-0.7,1.2-4.1,1.2-4.1l0.1-2.4l2.6-0.5c0,0,3.4-0.5,3.9-1.9s-2-3.8-2-3.8l-2.5-2.7l3.6-0.7c0,0,3.4-0.5,3.9-1.9
			s-2.1-3.8-2.1-3.8L94.7,89l3.6-0.7c0,0,3.4-0.5,3.9-1.9s-2.1-3.8-2.1-3.8l-2.5-2.7l3.6-0.7c0,0,3.4-0.5,3.9-1.9s-2.1-3.8-2.1-3.8
			l-2.5-2.7l3.6-0.7c0,0,3.4-0.5,3.9-1.9s-2.1-3.8-2.1-3.8l-2.5-2.7L107,61C107,60.9,110.4,60.4,110.9,59z"/>
		<path class="st1" d="M75.6,109.8c-0.2,0-0.5,0-0.7-0.1c-1.9-0.6-2.5-3.7-2.6-4.7l-0.4-1.8l-1.4,1.3c-0.3,0.4-2.3,2.4-4.1,2.4
			c-0.2,0-0.5,0-0.7-0.1c-1.9-0.6-2.5-3.7-2.6-4.7l-0.4-1.8l-1.4,1.3C61,102,59,104,57.2,104c-0.2,0-0.5,0-0.7-0.1
			c-1.9-0.6-2.5-3.7-2.6-4.7l-0.4-1.8l-1.1,1.3c-0.3,0.4-2.3,2.4-4.1,2.4c-0.2,0-0.5,0-0.7-0.1c-1.9-0.6-2.5-3.7-2.6-4.7l-0.4-1.8
			l-1.4,1.3c-0.3,0.4-2.3,2.4-4.1,2.4c-0.2,0-0.5,0-0.7-0.1c-1.9-0.6-2.5-3.7-2.6-4.7l-0.4-1.8l-1.2,1.3c-0.3,0.4-2.3,2.4-4.1,2.4
			c-0.2,0-0.5,0-0.7-0.1c-1.9-0.6-2.5-3.7-2.6-4.7l-0.4-1.8L25,90c-0.3,0.4-2.3,2.4-4.1,2.4c-0.2,0-0.5,0-0.7-0.1
			c-1.9-0.6-2.5-3.7-2.6-4.7l0-0.7l-2.2-0.1h-0.1c-1.5,0-4.1-0.2-4.9-1.8c-0.9-1.8,0.9-4.4,1.5-5.1l1.1-1.7l-0.5-0.6
			c-0.7-0.6-2.9-2.9-2.3-4.8c0.6-1.9,3.7-2.5,4.7-2.6l1.8-0.4l-1.3-1.3c-0.7-0.6-2.9-2.9-2.3-4.8c0.6-1.9,3.7-2.5,4.7-2.6l1.8-0.4
			l-1.3-1.4c-0.7-0.6-2.9-2.9-2.3-4.8c0.6-1.9,3.7-2.5,4.7-2.6l1.8-0.4L21.2,50c-0.7-0.6-2.9-2.9-2.3-4.8c0.6-1.9,3.7-2.5,4.7-2.6
			l1.8-0.4l-1.3-1.4c-0.7-0.6-2.9-2.9-2.3-4.8c0.6-1.9,3.7-2.5,4.7-2.6l1.8-0.4L27,31.6c-0.7-0.6-2.9-2.9-2.3-4.8
			c0.6-1.9,3.7-2.5,4.7-2.6l1.8-0.4l-1.3-1.4c-0.7-0.6-2.9-2.9-2.3-4.8s3.7-2.5,4.7-2.6l0.7-0.1l0.1-2.1c0-0.9,0-4.1,1.8-5
			c0.3-0.2,0.7-0.3,1.1-0.3c1.7,0,3.8,1.5,4,1.7l1.7,1.1l0.6-0.5c0.3-0.4,2.3-2.4,4.1-2.4c0.2,0,0.5,0,0.7,0.1
			c1.9,0.6,2.5,3.7,2.6,4.7l0.4,1.8l1.4-1.3c0.3-0.4,2.3-2.4,4.1-2.4c0.2,0,0.5,0,0.7,0.1c1.9,0.6,2.5,3.7,2.6,4.7l0.4,1.8l1.4-1.3
			c0.3-0.4,2.3-2.4,4.1-2.4c0.2,0,0.5,0,0.7,0.1c1.9,0.6,2.5,3.7,2.6,4.7l0.4,1.8l1.4-1.3c0.3-0.4,2.3-2.4,4.1-2.4
			c0.2,0,0.5,0,0.7,0.1c1.9,0.6,2.5,3.7,2.6,4.7l0.4,1.8l1.4-1.3c0.3-0.4,2.3-2.4,4.1-2.4c0.2,0,0.5,0,0.7,0.1
			c1.9,0.6,2.5,3.7,2.6,4.7l0.4,1.8l1.4-1.3c0.3-0.4,2.3-2.4,4.1-2.4c0.2,0,0.5,0,0.7,0.1c1.9,0.6,2.5,3.7,2.6,4.7l0.4,1.8l1.4-1.3
			c0.3-0.4,2.3-2.4,4.1-2.4c0.2,0,0.5,0,0.7,0.1c1.9,0.6,2.5,3.7,2.6,4.7l0.1,0.3h0.7h0.1c1.5,0,4.1,0.2,4.9,1.8
			c0.9,1.8-0.9,4.4-1.5,5.1l-0.8,1.3l1.3,1.4c0.7,0.6,2.9,2.9,2.3,4.8c-0.6,1.9-3.7,2.5-4.7,2.6l-1.8,0.4l1.3,1.4
			c0.7,0.6,2.9,2.9,2.3,4.8c-0.6,1.9-3.7,2.5-4.7,2.6l-1.8,0.4l1.3,1.4c0.7,0.6,2.9,2.9,2.3,4.8s-3.7,2.5-4.7,2.6l-1.8,0.4l1.3,1.4
			c0.7,0.6,2.9,2.9,2.3,4.8s-3.7,2.5-4.7,2.6L96.8,75l1.3,1.4c0.7,0.6,2.9,2.9,2.3,4.8s-3.7,2.5-4.7,2.6l-1.8,0.4l1.3,1.4
			c0.7,0.6,2.9,2.9,2.3,4.8s-3.7,2.5-4.7,2.6L91,93.4l1.3,1.4c0.7,0.6,2.9,2.9,2.3,4.8s-3.7,2.5-4.7,2.6l-1.8,0.4l-0.1,1.6
			c0,0.9,0,4.1-1.8,5c-0.3,0.2-0.7,0.2-1.1,0.2c-1.7,0-3.8-1.6-4-1.7l-0.5-0.4l-0.2,0.2C79.4,107.7,77.4,109.8,75.6,109.8z
			 M72.6,100.2c0.1,0,0.2,0,0.3,0c0.3,0.1,0.6,0.4,0.7,0.8l0.7,3.6c0.2,1.5,0.8,3,1.2,3.1h0.1c0.7,0,2-1,2.7-1.8l0.9-0.8
			c0.3-0.3,0.9-0.4,1.2-0.1l1.2,0.8c0.8,0.6,2.2,1.4,2.9,1.4c0.1,0,0.2,0,0.2,0c0.4-0.2,0.7-1.8,0.7-3.2l0.1-2.4
			c0-0.5,0.3-0.9,0.8-0.9l2.6-0.5c1.5-0.2,3-0.8,3.1-1.2c0.1-0.4-0.8-1.8-1.8-2.8l-2.6-2.7c-0.2-0.3-0.3-0.6-0.2-1
			c0.1-0.3,0.4-0.6,0.8-0.7l3.6-0.7c1.5-0.2,3-0.8,3.1-1.2c0.1-0.4-0.8-1.8-1.8-2.8l-2.6-2.7c-0.2-0.3-0.3-0.6-0.2-1
			c0.1-0.3,0.4-0.6,0.8-0.7l3.6-0.7c1.5-0.2,3-0.8,3.1-1.2C97.9,80.4,97,79,96,78l-2.6-2.8c-0.2-0.3-0.3-0.6-0.2-1
			c0.1-0.3,0.4-0.6,0.8-0.7l3.6-0.7c1.5-0.2,3-0.8,3.1-1.2c0.1-0.4-0.8-1.8-1.8-2.8l-2.6-2.7c-0.2-0.3-0.3-0.6-0.2-1
			s0.4-0.6,0.8-0.7l3.6-0.7c1.5-0.2,3-0.8,3.1-1.2s-0.8-1.8-1.8-2.8L99.2,57c-0.2-0.3-0.3-0.6-0.2-1c0.1-0.3,0.4-0.6,0.8-0.7
			l3.6-0.7c1.5-0.2,3-0.8,3.1-1.2s-0.8-1.8-1.8-2.8l-2.6-2.7c-0.2-0.3-0.3-0.6-0.2-1c0.1-0.3,0.4-0.6,0.8-0.7l3.6-0.7
			c1.5-0.2,3-0.8,3.1-1.2s-0.8-1.8-1.8-2.8l-1.9-2c-0.3-0.3-0.4-0.8-0.1-1.2l1.3-2c0.9-1.2,1.5-2.7,1.3-3.1
			c-0.1-0.3-1.3-0.7-3.1-0.7H105h-1.5c-0.5,0-0.9-0.3-0.9-0.8l-0.2-1.1c-0.2-1.5-0.8-3-1.2-3.1l0,0c-0.7,0-2.1,1.1-2.8,1.8l-2.7,2.6
			c-0.3,0.2-0.6,0.3-1,0.2c-0.3-0.1-0.6-0.4-0.7-0.8l-0.7-3.6c-0.2-1.5-0.8-3-1.2-3.1l0,0c-0.7,0-2.1,1.1-2.8,1.8l-2.8,2.5
			c-0.3,0.2-0.6,0.3-1,0.2c-0.3-0.1-0.6-0.4-0.7-0.8l-0.7-3.6c-0.2-1.5-0.8-3-1.2-3.1l0,0c-0.7,0-2,1-2.8,1.8l-2.7,2.6
			c-0.3,0.2-0.6,0.3-1,0.2c-0.3-0.1-0.6-0.4-0.7-0.8L75,21.8c-0.2-1.5-0.8-3-1.2-3.1c-0.7,0-2,1-2.8,1.8l-2.7,2.6
			c-0.3,0.2-0.6,0.3-1,0.2c-0.3-0.1-0.6-0.4-0.7-0.8l-0.7-3.6c-0.2-1.5-0.8-3-1.2-3.1c-0.7,0-2,1-2.8,1.8l-2.7,2.6
			c-0.3,0.2-0.6,0.3-1,0.2c-0.3-0.1-0.6-0.4-0.7-0.8L56.8,16c-0.2-1.5-0.8-3-1.2-3.1c-0.7,0-2,1-2.8,1.8l-2.7,2.6
			c-0.3,0.2-0.6,0.3-1,0.2c-0.3-0.1-0.6-0.4-0.7-0.8l-0.7-3.6c-0.2-1.5-0.8-3-1.2-3.1l0,0c-0.7,0-2.1,1.1-2.8,1.8l-1.2,1.1
			c-0.3,0.3-0.8,0.4-1.2,0.1l-2.4-1.6C38.1,10.8,36.8,10,36,10c-0.1,0-0.2,0-0.2,0c-0.4,0.2-0.7,1.8-0.7,3.2l-0.1,3
			c0,0.5-0.3,0.9-0.8,0.9l-1.5,0.3c-1.5,0.2-3,0.8-3.1,1.2c-0.1,0.4,0.8,1.8,1.8,2.8l2.6,2.7c0.2,0.3,0.3,0.6,0.2,1
			s-0.4,0.7-0.8,0.7l-3.6,0.7c-1.5,0.2-3,0.8-3.1,1.2c-0.1,0.4,0.8,1.8,1.8,2.8l2.6,2.7c0.2,0.3,0.3,0.6,0.2,1
			c-0.1,0.3-0.4,0.6-0.8,0.7l-3.6,0.7c-1.5,0.2-3,0.8-3.1,1.2s0.8,1.8,1.8,2.8l2.6,2.7c0.2,0.3,0.3,0.6,0.2,1
			c-0.1,0.3-0.4,0.6-0.8,0.7L24,44.8c-1.5,0.2-3,0.8-3.1,1.2s0.8,1.8,1.8,2.8l2.6,2.7c0.2,0.3,0.3,0.6,0.2,1
			c-0.1,0.3-0.4,0.6-0.8,0.7L21.1,54c-1.5,0.2-3,0.8-3.1,1.2s0.8,1.8,1.8,2.8l2.6,2.7c0.2,0.3,0.3,0.6,0.2,1
			c-0.1,0.3-0.4,0.6-0.8,0.7l-3.6,0.7c-1.5,0.2-3,0.8-3.1,1.2c-0.1,0.4,0.8,1.8,1.8,2.8l2.6,2.7c0.2,0.3,0.3,0.6,0.2,1
			c-0.1,0.3-0.4,0.6-0.8,0.7l-3.6,0.7c-1.5,0.2-3,0.8-3.1,1.2c-0.1,0.4,0.8,1.8,1.8,2.8l1.1,1.2c0.3,0.3,0.4,0.8,0.1,1.2l-1.6,2.4
			c-0.9,1.2-1.5,2.7-1.3,3.1c0.1,0.3,1.3,0.7,3.1,0.7h0.1l3,0.1c0.5,0,0.9,0.3,0.9,0.8l0.3,1.5c0.2,1.5,0.8,3,1.2,3.1l0,0
			c0.7,0,2.1-1.1,2.8-1.8l2.7-2.6c0.3-0.2,0.6-0.3,1-0.2s0.6,0.4,0.7,0.8l0.7,3.6c0.2,1.5,0.8,3,1.2,3.1l0,0c0.7,0,2-1,2.8-1.8
			l2.7-2.6c0.3-0.2,0.6-0.3,1-0.2c0.3,0.1,0.6,0.4,0.7,0.8l0.7,3.6c0.2,1.5,0.8,3,1.2,3.1l0,0c0.7,0,2-1,2.8-1.8l2.7-2.6
			c0.3-0.2,0.6-0.3,1-0.2c0.3,0.1,0.6,0.4,0.7,0.8l0.7,3.6c0.2,1.5,0.8,3,1.2,3.1l0,0c0.7,0,2.1-1.1,2.8-1.8l2.7-2.6
			c0.3-0.2,0.6-0.3,1-0.2s0.6,0.4,0.7,0.8l0.7,3.6c0.2,1.5,0.8,3,1.2,3.1l0,0c0.7,0,2-1,2.8-1.8l2.7-2.6c0.3-0.2,0.6-0.3,1-0.2
			s0.6,0.4,0.7,0.8l0.7,3.6c0.2,1.5,0.8,3,1.2,3.1l0,0c0.7,0,2.1-1.1,2.8-1.8l2.7-2.6C72.1,100.2,72.4,100.2,72.6,100.2z"/>
		<path class="st3" d="M86.9,76.5C82.3,90.8,75.3,93.8,60.7,90l-5.1-1.6C41.1,83.8,37.8,75.5,42,62.1l1.6-5.1
			c4.5-13.8,11.7-18.2,26.3-13.5l5.1,1.6c14.8,4.7,17.8,13,13.5,26.2L86.9,76.5z"/>
		<path class="st1" d="M66,84.5c-2.8,0-6.1-0.5-10.1-1.5l-5.2-1.6C43.3,79,38.6,75.8,36.3,71c-2.2-4.4-2.1-10,0.2-17.1l1.6-5.1
			c3.5-11.1,8.9-16,17.3-16c2.9,0,6.3,0.6,10.1,1.8l5.1,1.6C85.4,40.8,89.6,49,85,63.6l-1.6,5.1C79.8,79.8,74.7,84.5,66,84.5z
			 M55.5,34.8c-7.6,0-12.2,4.4-15.4,14.6l-1.6,5.1C36.4,61,36.3,66.1,38.2,70c2,4.1,6.3,7.1,13.2,9.3l5.1,1.6c3.7,1,6.9,1.5,9.5,1.5
			c7.7,0,12.2-4.2,15.4-14.3L83,63c4.3-13.4,0.5-20.7-12.9-25L65,36.4C61.4,35.2,58.3,34.8,55.5,34.8z"/>
	</g>
	<g>
		<g>
			<g>
				<defs>
					<rect id="SVGID_1_" x="50.2" y="45" width="21.3" height="23.3"/>
				</defs>
				<clipPath id="SVGID_2_">
					<use xlink:href="#SVGID_1_"  style="overflow:visible;"/>
				</clipPath>
				<g class="st4">
					<path class="st0" d="M55.9,308.8c0,13.9,0.6,27.8,1.6,41.6c0.4,5.7,1,11.4,1.9,17c0.7,4.4,3,16,5.9,16c3.5,0,5-10.5,5.4-14.9
						c4.2-45,2.9-81.1-1.2-121.2c-1.1-10.7-5.5-42.4-5.5-42.4c-4.4,20.3-6,50.1-7.3,71.6c0,0-0.7,23.8-0.7,23.9"/>
					<path class="st0" d="M61.3,195.1c-5.8-18.8-24.7-34.8-30.1-54.1c-6.1-21.9-3.4-46.7-1.4-69.1c1-10.5,3.4-15.8,13.3-19.7
						c0,0.5-0.1,61.1,1.9,65.1c3.3,6.8,8.5,2.2,9.9-3.1c3-12,3.6-54.5,3.8-62.8c3.2,0,6.4,0,9.6,0c0,0.4,2.8,61,4.7,65.2
						c3,6.5,8.5,4,10-1.9c2.8-11.8,1.1-54.4,0.9-62.8c5.8,0.7,10.3,3.1,13,8.5c3.3,6.7,2.8,15.1,3.2,22.3
						c0.9,15.5,2.7,31.2,0.9,46.7c-0.7,6-2.5,11.9-5.2,17.3c-1.1,2.2-2.5,4.4-4,6.6L61.3,195.1z"/>
					<path class="st1" d="M63.4,384.4c-0.4,0-0.9-0.2-1.2-0.6c-4.5-4.5-11.5-56.4-11.5-79.1c0-0.6,0.4-1,1-1l0,0c0.6,0,1,0.4,1,1
						c0,24.5,7,71.9,10.6,77.3c2.2-4.5,7.3-32.6,8.7-68.9c1.3-34.2-0.4-83.8-15.5-126c-3-8.3-8.8-15-14.5-21.5
						c-6.4-7.3-13-14.8-15.7-24.7c-5.8-20-3.7-43-1.8-63.3l0.3-3.1c0.9-9.9,3.2-15.7,13.4-19.7c0.3-0.1,0.6-0.1,0.9,0.1
						c0.3,0.2,0.4,0.5,0.4,0.8c0,0,0,0.3,0,0.7c0,35.1,0.7,59.1,1.7,61.2c0.6,1.3,1.7,2.8,3.2,2.7c1.7-0.2,3.7-2.6,4.4-5.5
						c2.6-10.4,3.3-45.7,3.5-57.3l0.1-2.6c0-0.5,0.5-1,1-1c1.9,0,3.9,0,5.8,0h3.4c0.5,0,1,0.4,1,1c0.1,2.6,2.7,58.4,4.4,62
						c1,2.1,2.3,3.2,3.7,3.1c1.7-0.2,3.3-2.1,4-4.8c2.3-9.6,1.4-41.4,1-55c-0.1-2.1-0.1-3.7-0.1-4.8c0-0.3,0.1-0.6,0.3-0.8
						s0.5-0.3,0.8-0.3c6.4,0.8,10.7,3.6,13.2,8.7c2.6,5.4,2.8,11.6,3,17.6c0,1.4,0.1,2.8,0.2,4.2c0.2,3,0.4,5.9,0.6,8.9
						c0.8,11.8,1.7,24,0.3,35.9c-0.7,5.7-2.4,11.4-5.1,16.9c-1,2-2.3,4.1-3.9,6.4c-0.3,0.5-0.9,0.6-1.4,0.2
						c-0.5-0.3-0.6-0.9-0.2-1.4c1.6-2.3,2.8-4.3,3.8-6.2c2.6-5.3,4.3-10.8,4.9-16.3c1.4-11.8,0.5-23.9-0.3-35.6
						c-0.2-3-0.4-6-0.6-8.9c-0.1-1.4-0.1-2.8-0.2-4.2c-0.2-5.8-0.4-11.8-2.8-16.8c-2.1-4.2-5.4-6.6-10.5-7.4c0,1,0.1,2.2,0.1,3.6
						c0.4,13.7,1.4,45.7-1,55.5c-0.8,3.5-3.1,6-5.7,6.3c-2.3,0.2-4.4-1.3-5.7-4.2c-1.8-3.9-4.2-54.2-4.6-61.9h-2.5
						c-1.6,0-3.2,0-4.8,0v1.6c-0.2,11.6-1,47.1-3.6,57.7c-0.8,3.2-3.2,6.6-6.1,7c-1.4,0.2-3.5-0.4-5.2-3.8
						c-1.6-3.3-1.9-39.4-1.9-61.3c-8.1,3.6-9.9,8.4-10.8,17.4l-0.3,3.2c-1.9,20.1-4,42.8,1.6,62.6c2.6,9.4,9.1,16.8,15.3,23.9
						c5.8,6.6,11.8,13.5,14.9,22.1c28.5,79.5,11.4,189.9,6.3,197.1C64.2,384.1,63.8,384.4,63.4,384.4z"/>
					<path class="st1" d="M51.6,296.9L51.6,296.9c-0.6,0-1-0.5-1-1c0-0.1,0.1-3.3,0.3-7.4c0.7-17.8,0.7-17.8,0.7-17.8l0.1-1
						c1.7-22.6,4.1-53.5,10.4-74.7c3-10.1,6.8-18.8,12.8-29.2c1.1-1.9,2.3-3.8,3.6-5.8l0.7-1.1c0.3-0.5,0.9-0.6,1.4-0.3
						s0.6,0.9,0.3,1.4l-0.7,1.1c-1.3,2-2.5,3.9-3.5,5.8c-5.9,10.2-9.7,18.8-12.6,28.7c-6.2,21-8.6,51.8-10.3,74.2l-0.1,1
						c0,0.1-0.4,10.4-0.7,17.8c-0.2,4.1-0.3,7.4-0.3,7.4C52.6,296.4,52.1,296.9,51.6,296.9z"/>
				</g>
			</g>
		</g>
	</g>
	<g>
		<g>
			<g>
				<defs>
					<rect id="SVGID_3_" x="27.3" y="50.4" width="17.8" height="11.3"/>
				</defs>
				<clipPath id="SVGID_4_">
					<use xlink:href="#SVGID_3_"  style="overflow:visible;"/>
				</clipPath>
				<g class="st5">
					<path class="st0" d="M55.9,308.8c0,13.9,0.6,27.8,1.6,41.6c0.4,5.7,1,11.4,1.9,17c0.7,4.4,3,16,5.9,16c3.5,0,5-10.5,5.4-14.9
						c4.2-45,2.9-81.1-1.2-121.2c-1.1-10.7-5.5-42.3-5.5-42.3c-4.4,20.3-6,50.1-7.3,71.6c0,0-0.7,23.8-0.7,23.9"/>
					<path class="st0" d="M61.2,195.1c-5.8-18.8-24.7-34.8-30.1-54.1C25,119.2,27.7,94.4,29.7,72c1-10.5,3.4-15.8,13.3-19.7
						c0,0.5-0.1,61.1,1.9,65.1c3.3,6.8,8.5,2.2,9.9-3.1c3-12,3.6-54.5,3.8-62.8c3.2,0,6.4,0,9.6,0c0,0.4,2.8,61,4.7,65.2
						c3,6.5,8.5,4,10-1.9C85.7,103,84,60.4,83.8,52c5.8,0.7,10.3,3.1,13,8.5c3.3,6.7,2.8,15.1,3.2,22.3c0.9,15.5,2.7,31.2,0.9,46.7
						c-0.7,6-2.5,11.9-5.2,17.3c-1.1,2.2-2.5,4.4-4,6.6L61.2,195.1z"/>
					<path class="st1" d="M63.3,384.4c-0.4,0-0.9-0.2-1.2-0.6c-4.5-4.5-11.5-56.4-11.5-79.1c0-0.6,0.4-1,1-1l0,0c0.6,0,1,0.4,1,1
						c0,24.5,7,71.9,10.6,77.3c2.2-4.5,7.3-32.6,8.7-68.9c1.3-34.2-0.4-83.8-15.5-126c-3-8.3-8.8-15-14.5-21.5
						c-6.4-7.3-13-14.8-15.7-24.7c-5.8-20-3.6-43-1.8-63.3l0.3-3.2c0.9-9.9,3.2-15.7,13.4-19.7c0.3-0.1,0.6-0.1,0.9,0.1
						c0.3,0.2,0.4,0.5,0.4,0.8c0,0,0,0.3,0,0.7c0,35.1,0.7,59.1,1.7,61.2c0.6,1.3,1.7,2.8,3.2,2.7c1.7-0.2,3.7-2.6,4.4-5.5
						c2.6-10.4,3.3-45.7,3.5-57.3l0.1-2.6c0-0.5,0.5-1,1-1c1.9,0,3.9,0,5.8,0h3.4c0.5,0,1,0.4,1,1c0.1,2.6,2.7,58.4,4.4,62
						c1,2.1,2.3,3.2,3.7,3.1c1.7-0.2,3.3-2.1,4-4.8c2.3-9.6,1.4-41.4,1-55c-0.1-2.1-0.1-3.7-0.1-4.8c0-0.3,0.1-0.6,0.3-0.8
						s0.5-0.3,0.8-0.3c6.4,0.8,10.7,3.6,13.2,8.7c2.6,5.4,2.8,11.6,3,17.6c0,1.4,0.1,2.8,0.2,4.2c0.2,3,0.4,5.9,0.6,8.9
						c0.8,11.8,1.7,24,0.3,35.9c-0.7,5.7-2.4,11.4-5.1,16.9c-1,2-2.3,4.1-3.9,6.4c-0.3,0.5-0.9,0.6-1.4,0.2s-0.6-0.9-0.2-1.4
						c1.6-2.3,2.8-4.3,3.8-6.2c2.6-5.3,4.3-10.8,4.9-16.3c1.4-11.8,0.5-23.9-0.3-35.6c-0.2-3-0.4-6-0.6-8.9
						c-0.1-1.4-0.1-2.8-0.2-4.2c-0.2-5.8-0.4-11.8-2.8-16.7c-2.1-4.2-5.4-6.6-10.5-7.4c0,1,0.1,2.2,0.1,3.6
						c0.4,13.7,1.4,45.7-1,55.5c-0.8,3.5-3.1,6-5.7,6.3c-2.3,0.2-4.4-1.3-5.7-4.2c-1.8-3.9-4.2-54.2-4.6-61.9h-2.5
						c-1.6,0-3.2,0-4.8,0v1.6c-0.2,11.6-0.9,47.1-3.6,57.7c-0.8,3.2-3.2,6.6-6.1,7c-1.4,0.2-3.5-0.4-5.2-3.8
						c-1.6-3.3-1.9-39.4-1.9-61.3c-8.1,3.6-9.9,8.4-10.8,17.4l-0.4,3.6c-1.9,20.1-4,42.8,1.6,62.6c2.6,9.4,9.1,16.8,15.3,23.9
						c5.8,6.6,11.8,13.5,14.9,22.1c28.5,79.5,11.4,189.9,6.3,197.1C64.2,384.1,63.7,384.4,63.3,384.4z"/>
					<path class="st1" d="M51.5,296.9L51.5,296.9c-0.6,0-1-0.5-1-1c0-0.1,0.1-3.3,0.3-7.4c0.7-17.8,0.7-17.8,0.7-17.8l0.1-1
						c1.7-22.6,4.1-53.5,10.4-74.7c3-10.1,6.8-18.8,12.8-29.2c1.1-1.9,2.3-3.8,3.6-5.8l0.7-1.1c0.3-0.5,0.9-0.6,1.4-0.3
						s0.6,0.9,0.3,1.4l-0.7,1.1c-1.3,2-2.5,3.9-3.5,5.8c-5.9,10.2-9.7,18.8-12.6,28.7c-6.2,21-8.6,51.8-10.3,74.2l-0.1,1
						c0,0.1-0.4,10.4-0.7,17.8c-0.2,4.1-0.3,7.4-0.3,7.4C52.5,296.4,52.1,296.9,51.5,296.9z"/>
				</g>
			</g>
		</g>
	</g>
</g>
</svg>
