<?xml version="1.0" encoding="utf-8"?>
<!-- Generator: Adobe Illustrator 23.0.1, SVG Export Plug-In . SVG Version: 6.00 Build 0)  -->
<svg version="1.1" id="圖層_1" xmlns="http://www.w3.org/2000/svg" xmlns:xlink="http://www.w3.org/1999/xlink" x="0px" y="0px"
	 viewBox="0 0 295.1 436.8" style="enable-background:new 0 0 295.1 436.8;" xml:space="preserve">
<style type="text/css">
	.st0{fill:#E67348;}
	.st1{enable-background:new    ;}
</style>
<g>
	<path class="st0" d="M286.1,425.2H9.1V11.7h277V425.2z M13.1,421.2h269V15.7h-269C13.1,15.7,13.1,421.2,13.1,421.2z"/>
	<g class="st1">
		<path class="st0" d="M122.9,54.2v5.7h-32v82.7H76.1V59.9H44v-5.7C44,54.2,122.9,54.2,122.9,54.2z"/>
	</g>
	<g class="st1">
		<path class="st0" d="M191.3,78.7c-1.3,0-2.6-0.2-3.8-0.5c-1.2-0.3-2.4-0.8-3.4-1.4c-1-0.6-2-1.3-2.9-2.1c-0.9-0.8-1.6-1.7-2.2-2.8
			c-0.6-1-1.1-2.1-1.4-3.2s-0.5-2.4-0.5-3.6c0-1.2,0.2-2.4,0.5-3.5s0.8-2.2,1.4-3.2c0.6-1,1.3-1.9,2.2-2.7c0.9-0.8,1.8-1.5,2.9-2.1
			s2.2-1,3.4-1.3c1.2-0.3,2.5-0.5,3.8-0.5c1.3,0,2.6,0.2,3.8,0.5c1.2,0.3,2.3,0.8,3.4,1.3c1,0.6,2,1.3,2.9,2.1
			c0.9,0.8,1.6,1.7,2.2,2.7c0.6,1,1.1,2,1.4,3.2c0.3,1.1,0.5,2.3,0.5,3.5c0,1.2-0.2,2.4-0.5,3.6c-0.3,1.2-0.8,2.2-1.4,3.3
			s-1.3,1.9-2.2,2.8s-1.8,1.5-2.9,2.1c-1,0.6-2.2,1-3.4,1.4C193.9,78.5,192.6,78.7,191.3,78.7z M191.3,77.4c1.5,0,2.8-0.3,3.9-0.9
			c1.1-0.6,2.1-1.5,2.9-2.6c0.8-1.1,1.4-2.4,1.8-3.9c0.4-1.5,0.6-3.2,0.6-4.9c0-1.8-0.2-3.4-0.6-4.8c-0.4-1.5-1-2.7-1.8-3.8
			c-0.8-1.1-1.7-1.9-2.9-2.5c-1.1-0.6-2.4-0.9-3.9-0.9c-1.5,0-2.8,0.3-4,0.9c-1.1,0.6-2.1,1.4-2.9,2.5c-0.8,1.1-1.3,2.3-1.7,3.8
			s-0.6,3.1-0.6,4.8c0,1.8,0.2,3.4,0.6,4.9s1,2.8,1.7,3.9c0.8,1.1,1.7,1.9,2.9,2.6C188.4,77.1,189.8,77.4,191.3,77.4z"/>
		<path class="st0" d="M210.3,52.4h4.3V69c0,1.1,0.2,2.1,0.6,3.1c0.4,1,0.9,1.8,1.6,2.5s1.5,1.3,2.5,1.7c1,0.4,2.1,0.6,3.3,0.6
			c1.2,0,2.3-0.2,3.3-0.6c1-0.4,1.8-1,2.5-1.7c0.7-0.7,1.2-1.6,1.6-2.5c0.4-1,0.6-2,0.6-3.1V52.4h1.9V69c0,1.3-0.2,2.6-0.6,3.7
			c-0.4,1.2-1.1,2.2-2,3.1c-0.9,0.9-2.1,1.6-3.5,2.1c-1.4,0.5-3.1,0.8-5.1,0.8c-1.8,0-3.3-0.3-4.7-0.8c-1.4-0.5-2.5-1.2-3.4-2.1
			s-1.6-1.9-2.1-3.1c-0.5-1.2-0.7-2.4-0.7-3.8L210.3,52.4L210.3,52.4z"/>
		<path class="st0" d="M238.5,52.4h8.9c1.6,0,2.9,0.2,4.1,0.5s2.1,0.8,2.9,1.4c0.8,0.6,1.4,1.3,1.8,2.1c0.4,0.8,0.6,1.7,0.6,2.7
			c0,0.8-0.2,1.5-0.5,2.2c-0.3,0.7-0.7,1.3-1.3,1.9c-0.6,0.6-1.2,1-2,1.5c-0.8,0.4-1.6,0.7-2.6,0.9l9.4,12.5h-5L245.9,66h-3v12.1
			h-4.3L238.5,52.4L238.5,52.4z M242.8,64.7h2.5c1,0,1.9-0.1,2.7-0.4c0.8-0.3,1.5-0.6,2.1-1.1c0.6-0.5,1.1-1,1.4-1.7
			c0.3-0.7,0.5-1.4,0.5-2.3c0-0.8-0.1-1.5-0.4-2.1c-0.3-0.6-0.6-1.2-1.1-1.7c-0.5-0.5-1.1-0.8-1.7-1.1c-0.7-0.3-1.4-0.4-2.2-0.4
			h-3.8V64.7z"/>
	</g>
	<g class="st1">
		<path class="st0" d="M114,183.1v5.7H67.4v31.6h31.2v5.7H67.4v39.7H114v5.7H52.6v-88.4H114z"/>
	</g>
	<g class="st1">
		<path class="st0" d="M206.6,181.1l41.6,90.5h-15.1l-13.5-29.5h-37.9l-14,29.5h-7.4l42.6-90.5L206.6,181.1L206.6,181.1z
			 M184.3,236.3h32.6l-16.1-35L184.3,236.3z"/>
	</g>
	<g class="st1">
		<path class="st0" d="M163.6,314.5h13.1l29.6,58.4h0.6l29.1-58.4h12.8v76.1h-12.8v-62.3h-0.4l-31.2,62.3h-2.6l-31.6-61.9h-0.9v61.9
			h-5.6L163.6,314.5L163.6,314.5z"/>
	</g>
</g>
</svg>
