<?xml version="1.0" encoding="utf-8"?>
<!-- Generator: Adobe Illustrator 23.0.1, SVG Export Plug-In . SVG Version: 6.00 Build 0)  -->
<svg version="1.1" id="圖層_1" xmlns="http://www.w3.org/2000/svg" xmlns:xlink="http://www.w3.org/1999/xlink" x="0px" y="0px"
	 viewBox="0 0 511 322" style="enable-background:new 0 0 511 322;" xml:space="preserve">
<style type="text/css">
	.st0{opacity:0.8;}
	.st1{fill:#5B7880;}
	.st2{fill:none;}
	.st3{fill-rule:evenodd;clip-rule:evenodd;fill:#5B7880;}
	.st4{opacity:0.8;fill:#E67348;enable-background:new    ;}
	.st5{opacity:0.8;fill:#5B7880;enable-background:new    ;}
	.st6{opacity:0.8;fill:#F5D069;enable-background:new    ;}
</style>
<g>
	<g>
		<g class="st0">
			<path class="st1" d="M337.3,266.6l125,41.1c0,0,4.2-3.5,7.2-12.7c3.3-9.9,2.3-16.1,2.3-16.1l-125-41.1L337.3,266.6z"/>
			<path class="st1" d="M462.3,309.8c-0.2,0-0.5,0-0.7-0.1l-125-41.1c-0.5-0.2-1-0.6-1.3-1.1s-0.3-1.1-0.1-1.6l9.5-28.8
				c0.4-1.1,1.6-1.8,2.7-1.4l125,41.1c0.8,0.3,1.3,0.9,1.5,1.7c0,0.3,1,6.8-2.4,17.1c-3.2,9.7-7.7,13.5-7.9,13.7
				C463.3,309.6,462.8,309.8,462.3,309.8z M340,265.2l121.7,40c1.3-1.4,3.8-4.8,5.7-10.9c2.2-6.7,2.4-11.6,2.3-13.8l-121.6-39.9
				L340,265.2z"/>
		</g>
		<g class="st0">
			<line class="st2" x1="292.9" y1="224.8" x2="343.8" y2="241.5"/>
			<path class="st1" d="M343.8,243.7c-0.2,0-0.5,0-0.7-0.1l-50.9-16.7c-1.1-0.4-1.8-1.6-1.4-2.7c0.4-1.1,1.6-1.8,2.7-1.4l50.9,16.7
				c1.1,0.4,1.8,1.6,1.4,2.7C345.6,243.1,344.7,243.7,343.8,243.7z"/>
		</g>
		<g class="st0">
			<line class="st2" x1="276" y1="241" x2="337.4" y2="261.1"/>
			<path class="st1" d="M337.4,263.3c-0.2,0-0.5,0-0.7-0.1L275.3,243c-1.1-0.4-1.8-1.6-1.4-2.7c0.4-1.1,1.6-1.8,2.7-1.4l61.4,20.2
				c1.1,0.4,1.8,1.6,1.4,2.7C339.1,262.7,338.3,263.3,337.4,263.3z"/>
		</g>
	</g>
	<g class="st0">
		<path class="st1" d="M326.4,96c-0.8,0-1.6-0.5-2-1.3l-3.8-8.9c-0.2-0.5-0.2-1.1,0-1.7c0.2-0.5,0.6-1,1.2-1.2l113.8-48.1
			c0.5-0.2,1.1-0.2,1.7,0c0.5,0.2,1,0.6,1.2,1.2l3.8,8.9c0.5,1.1,0,2.4-1.1,2.8L327.4,95.8C327,95.9,326.7,96,326.4,96z M325.5,86
			l2.1,4.9l109.8-46.4l-2.1-4.9L325.5,86z"/>
		<path class="st3" d="M260,131.1l-10.4-24.5c-4-9.5,0.5-20.6,10-24.6l51.7-21.9c3.1-1.3,6.8,0.2,8.1,3.3l20,47.3
			c1.4,3.4-0.2,7.3-3.5,8.7l-51.3,21.7C275.1,145.1,264,140.6,260,131.1L260,131.1z M260.2,105c0.6,1.3,2.1,1.9,3.4,1.4l53.6-22.6
			c1.3-0.6,1.9-2.1,1.4-3.4l0,0c-0.6-1.3-2.1-1.9-3.4-1.4l-53.6,22.6C260.3,102.2,259.6,103.7,260.2,105L260.2,105L260.2,105z
			 M268.2,124c0.6,1.3,2.1,1.9,3.4,1.4l53.6-22.6c1.3-0.6,1.9-2.1,1.4-3.4l0,0c-0.6-1.3-2.1-1.9-3.4-1.4l-53.6,22.6
			C268.3,121.2,267.7,122.7,268.2,124L268.2,124L268.2,124z M264.2,114.5c0.6,1.3,2.1,1.9,3.4,1.4l53.6-22.6
			c1.3-0.5,1.9-2.1,1.4-3.4l0,0c-0.5-1.3-2.1-1.9-3.4-1.4l-53.6,22.6C264.3,111.7,263.6,113.2,264.2,114.5L264.2,114.5L264.2,114.5z
			 M256.2,95.5c0.6,1.3,2.1,1.9,3.4,1.4l53.6-22.6c1.3-0.5,1.9-2.1,1.4-3.4l0,0c-0.6-1.3-2.1-1.9-3.4-1.4l-53.6,22.6
			C256.2,92.7,255.6,94.2,256.2,95.5L256.2,95.5L256.2,95.5z M272.2,133.5c0.6,1.3,2.1,1.9,3.4,1.4l53.6-22.6
			c1.3-0.6,1.9-2.1,1.4-3.4l0,0c-0.6-1.3-2.1-1.9-3.4-1.4l-53.6,22.6C272.3,130.7,271.7,132.2,272.2,133.5L272.2,133.5z"/>
		<path class="st3" d="M385.8,63.5L385.8,63.5c-2-4.8,0.2-10.3,5-12.3l90.6-38.3c4.8-2,10.3,0.2,12.3,5l0,0c2,4.8-0.2,10.3-5,12.3
			l-90.6,38.2C393.4,70.5,387.8,68.2,385.8,63.5L385.8,63.5z M477,24.9c0.8,2,3.2,2.9,5.2,2.1c2-0.8,2.9-3.2,2.1-5.2
			s-3.2-2.9-5.2-2.1C477.1,20.6,476.1,22.9,477,24.9z"/>
	</g>
	<path class="st4" d="M48.2,151.5c0,0,4.1-65.3,42-92.9c31.5-23,65.3-16.2,79.6-3.6c14.2,12.6,35.8,49.9,20.8,63.1
		c-14.9,13.2-14.4,32.3-2.6,37.2c11.8,4.9,41.5,14.1,45,25.2c3.5,11.1,4.4,13.5,14.3,15.2c10,1.7,18.3,24.6,18.3,24.6
		s-67.1-2.5-131-28C70.8,166.8,48.2,151.5,48.2,151.5z"/>
	<path class="st5" d="M216.9,256.1c-23.7,0-51.2-5.1-82.3-15.3c-36.8-12.1-85.3-35.4-107.2-77.9c-13.2-25.6-10.4-45.8-10.3-46.7
		c0.2-1.2,1.3-2,2.4-1.8c1.2,0.2,2,1.3,1.8,2.4c0,0.2-2.7,19.9,10,44.3c11.7,22.6,39.4,54.1,104.5,75.5
		c56,18.4,101.7,19.8,132.1,4.1c24.6-12.7,30.8-32.2,30.9-32.4c0.4-1.1,1.6-1.8,2.7-1.4c1.1,0.4,1.8,1.6,1.4,2.7
		c-0.3,0.9-6.8,21.4-33,34.9C255.2,252.2,237.5,256.1,216.9,256.1z"/>
	<path class="st5" d="M266.6,222.5c-30,0-73.2-8.5-118.5-23.4C77.9,176,9.7,138.6,17.1,115.8c2.8-8.5,15-12.8,36.4-12.8
		c30,0,73.2,8.5,118.5,23.4c37.8,12.4,72.1,27.7,96.8,43c18,11.2,38.5,27.2,34.2,40.3C300.2,218.2,288,222.5,266.6,222.5z
		 M53.6,107.3c-18.7,0-30.2,3.5-32.3,9.8c-5.1,15.6,45.2,50.6,128.2,77.8c44.2,14.5,88,23.2,117.1,23.2c18.7,0,30.2-3.5,32.3-9.8
		c2.6-7.9-9.5-21.1-32.4-35.3c-24.3-15.1-58.4-30.2-95.8-42.5C126.5,116,82.7,107.3,53.6,107.3z"/>
	<path class="st6" d="M148,187.3c-1.1,0-2-0.8-2.1-2c-0.8-8.6-8.7-12.6-16.4-16.4c-1-0.5-2-1-3-1.5c-15.3-8-22.2-22.7-19-40.3
		c4.7-25.5,33.5-28.9,54.4-31.4c2-0.2,4-0.5,5.8-0.7c12.3-1.6,35.2-4.6,40.7-18.7c2.8-7.3-0.7-15.8-5.4-21c-0.8-0.9-0.7-2.2,0.1-3
		c0.9-0.8,2.2-0.7,3,0.1c5.2,5.7,10,15.8,6.2,25.5c-6.4,16.5-31,19.7-44.1,21.5c-1.9,0.2-3.8,0.5-5.9,0.7
		c-19.6,2.3-46.5,5.5-50.7,27.9c-4,21.4,8.8,31.6,16.7,35.7c0.9,0.5,1.9,1,2.9,1.5c7.9,4,17.7,8.9,18.8,19.9
		c0.1,1.2-0.8,2.2-1.9,2.4C148.1,187.3,148,187.3,148,187.3z"/>
	<path class="st6" d="M119.4,175.2c-0.3,0-0.6-0.1-0.9-0.2c-17.8-8.3-28-26.3-26.6-46.9c1.9-28.2,40-37.7,60.4-42.9
		c12.2-3.1,34.6-8.7,38.4-23.4c2-7.6-2.5-15.6-7.8-20.2c-0.9-0.8-1-2.1-0.2-3s2.1-1,3-0.2c5.8,5.1,11.8,14.5,9.1,24.6
		c-4.5,17.2-28.5,23.2-41.4,26.4c-19.6,4.9-55.6,13.9-57.3,39c-1.3,18.8,8,35.2,24.1,42.7c1.1,0.5,1.5,1.8,1,2.9
		C121,174.8,120.2,175.2,119.4,175.2z"/>
	<path class="st6" d="M159.8,188.6c-0.4,0-0.8-0.1-1.2-0.4c-1-0.7-1.2-2-0.6-3c1.5-2.2,1.9-4.2,1.4-6.3
		c-1.7-6.3-12.5-11.4-17.7-13.9l-0.7-0.3c-16.4-7.8-21.8-21.6-15.3-38.9c8.3-21.8,34.1-20.1,52.9-18.9c1.8,0.1,3.5,0.2,5.2,0.3
		c11,0.6,31.4,1.6,38.4-9.8c3.6-5.9,1.9-13.8-1.4-19c-0.6-1-0.3-2.3,0.7-3c1-0.6,2.3-0.3,3,0.7c3.7,5.9,6.3,15.6,1.4,23.5
		c-8.3,13.6-30.4,12.4-42.3,11.8c-1.7-0.1-3.4-0.2-5.2-0.3c-17.5-1.1-41.4-2.6-48.6,16.2c-5.7,15-1.2,26.6,13.1,33.4l0.7,0.3
		c6.2,3,17.8,8.5,20,16.6c0.9,3.3,0.2,6.6-2,9.8C161.2,188.3,160.5,188.6,159.8,188.6z"/>
	<path class="st6" d="M83.8,121.3c-0.1,0-0.1,0-0.2,0c-1.2-0.1-2.1-1.2-2-2.3c0.1-1.2,0.2-2.3,0.3-3.3c0.7-9.1,1.3-16.3,9.5-24.9
		c5.8-6.1,13.9-9.8,21.9-13.3c2.6-1.2,5.1-2.3,7.5-3.5c11.2-5.6,16.8-11.6,19.3-20.8c2.3-8.2-0.6-13-4.6-19.7
		c-0.9-1.6-1.9-3.2-2.8-5c-0.6-1-0.2-2.4,0.9-2.9c1-0.6,2.4-0.2,2.9,0.9c0.9,1.7,1.9,3.3,2.8,4.8c4.2,7,7.8,13.1,5,23.1
		c-3.6,13-12.5,19-21.5,23.5c-2.4,1.2-5,2.4-7.7,3.6c-7.5,3.3-15.3,6.8-20.5,12.3c-7.1,7.6-7.6,13.4-8.3,22.3
		c-0.1,1.1-0.2,2.2-0.3,3.4C85.8,120.4,84.9,121.3,83.8,121.3z"/>
	<path class="st6" d="M222.3,203.3c-7.5,0-15.2-1-20-4.2c-1-0.7-1.2-2-0.6-3c0.7-1,2-1.2,3-0.6c6.9,4.8,24.2,3.9,36.9,1.7
		c6.2-1.1,10.2-3.7,15.1-6.9c0.9-0.6,1.8-1.2,2.7-1.8c1-0.6,2.3-0.4,3,0.7s0.4,2.3-0.7,3c-0.9,0.6-1.8,1.2-2.7,1.8
		c-5.2,3.4-9.6,6.4-16.8,7.6C239.8,202,231.2,203.3,222.3,203.3z"/>
	<path class="st6" d="M218.4,190.9c-3.4,0-6.5-0.4-9-1.2c-1.1-0.4-1.7-1.6-1.4-2.7c0.4-1.1,1.6-1.8,2.7-1.4
		c8.7,2.9,26.8-0.8,36.1-5.8c1-0.6,2.4-0.2,2.9,0.9c0.6,1.1,0.2,2.4-0.9,2.9C242,187.3,229,190.9,218.4,190.9z"/>
	<circle class="st4" cx="63.5" cy="57.3" r="6.2"/>
	<circle class="st6" cx="63.5" cy="133.7" r="6.2"/>
	<circle class="st4" cx="218.4" cy="133.7" r="4.3"/>
	<circle class="st6" cx="167.1" cy="150.3" r="4.3"/>
	<path class="st6" d="M119.9,57.3c0,2.4-1.9,4.4-4.3,4.4s-4.3-1.9-4.3-4.4c0-2.4,1.9-4.3,4.3-4.3C118,53,119.9,54.9,119.9,57.3z"/>
	<circle class="st4" cx="171.5" cy="40" r="4.3"/>
	<circle class="st4" cx="288.5" cy="154.7" r="4.3"/>
	<circle class="st4" cx="35.6" cy="119.1" r="4.3"/>
</g>
</svg>
