<?xml version="1.0" encoding="utf-8"?>
<!-- Generator: Adobe Illustrator 23.0.1, SVG Export Plug-In . SVG Version: 6.00 Build 0)  -->
<svg version="1.1" id="圖層_1" xmlns="http://www.w3.org/2000/svg" xmlns:xlink="http://www.w3.org/1999/xlink" x="0px" y="0px"
	 viewBox="0 0 171.3 370.7" style="enable-background:new 0 0 171.3 370.7;" xml:space="preserve">
<style type="text/css">
	.st0{opacity:0.8;fill:#BCD6D6;enable-background:new    ;}
	.st1{opacity:0.8;fill:#3E5256;enable-background:new    ;}
	.st2{fill:#F5D069;}
</style>
<g>
	<g>
		<path class="st0" d="M81.7,276.2c0,13.9,0.6,27.8,1.6,41.6c0.4,5.7,1,11.4,1.9,17c0.7,4.4,3,16,5.9,16c3.5,0,5-10.5,5.4-14.9
			c4.2-45,2.9-81.1-1.2-121.2c-1.1-10.7-5.5-42.3-5.5-42.3c-4.4,20.3-6,50.1-7.3,71.6c0,0-0.7,23.8-0.7,23.9"/>
		<path class="st0" d="M85.8,162.6c-5.6-18.8-23.8-34.8-29-54.1c-5.9-21.9-3.3-46.7-1.3-69.1c0.9-10.5,3.3-15.8,12.8-19.7
			c0,0.5-0.1,61.1,1.8,65.1c3.2,6.8,8.2,2.2,9.5-3.1c2.9-12,3.5-54.5,3.6-62.8c3.1,0,6.2,0,9.3,0c0,0.4,2.6,61,4.5,65.2
			c2.9,6.5,8.2,4,9.6-1.9c2.7-11.8,1-54.4,0.9-62.8c5.6,0.7,10,3.1,12.5,8.5c3.2,6.7,2.7,15.1,3.1,22.3c0.9,15.5,2.6,31.2,0.9,46.7
			c-0.7,6-2.4,11.9-5,17.3c-1,2.2-2.4,4.4-3.9,6.6L85.8,162.6z"/>
		<path class="st1" d="M89.1,351.8c-0.4,0-0.9-0.2-1.2-0.6c-4.5-4.5-11.5-56.4-11.5-79.1c0-0.6,0.4-1,1-1h0c0.6,0,1,0.4,1,1
			c0,24.5,7,71.9,10.6,77.3c2.2-4.5,7.3-32.6,8.7-68.9c1.3-34.2-0.4-83.8-15.5-126c-3-8.3-8.8-15-14.5-21.5
			c-6.4-7.3-13-14.8-15.7-24.7c-5.6-20.1-3.5-43.1-1.6-63.3l0.3-3.2c0.9-9.9,3.2-15.7,13.4-19.7c0.3-0.1,0.6-0.1,0.9,0.1
			c0.3,0.2,0.4,0.5,0.4,0.8c0,0,0,0.3,0,0.7C65.4,59,66.1,83,67.1,85c0.6,1.3,1.7,2.8,3.2,2.7c1.7-0.2,3.7-2.6,4.4-5.5
			C77.3,71.8,78,36.6,78.2,25l0.1-2.6c0-0.5,0.5-1,1-1c1.9,0,3.9,0,5.8,0l3.4,0c0.5,0,1,0.4,1,1c0.1,2.7,2.7,58.4,4.4,62
			c1,2.1,2.3,3.2,3.7,3.1c1.7-0.2,3.3-2.1,4-4.8c2.3-9.6,1.4-41.4,1-55c-0.1-2.1-0.1-3.8-0.1-4.8c0-0.3,0.1-0.6,0.3-0.8
			c0.2-0.2,0.5-0.3,0.8-0.3c6.4,0.8,10.7,3.6,13.2,8.7c2.6,5.4,2.8,11.6,3,17.6c0,1.4,0.1,2.8,0.2,4.2c0.2,3,0.4,5.9,0.6,8.9
			c0.8,11.8,1.7,24,0.3,35.9c-0.7,5.7-2.4,11.4-5.1,16.9c-1,2-2.3,4.1-3.9,6.4c-0.3,0.5-0.9,0.6-1.4,0.2c-0.5-0.3-0.6-0.9-0.2-1.4
			c1.6-2.3,2.8-4.3,3.8-6.2c2.6-5.3,4.3-10.8,4.9-16.3c1.4-11.8,0.5-23.9-0.3-35.6c-0.2-3-0.4-6-0.6-8.9c-0.1-1.4-0.1-2.8-0.2-4.2
			c-0.2-5.8-0.4-11.8-2.8-16.8c-2.1-4.2-5.4-6.6-10.5-7.4c0,1,0.1,2.2,0.1,3.6c0.4,13.7,1.4,45.6-1,55.5c-0.8,3.5-3.1,6-5.7,6.3
			c-2.3,0.2-4.4-1.3-5.7-4.2c-1.8-3.9-4.2-54.2-4.6-61.9l-2.5,0c-1.6,0-3.2,0-4.8,0l0,1.6c-0.2,11.6-1,47.1-3.6,57.7
			c-0.8,3.2-3.2,6.6-6.1,7c-1.4,0.2-3.5-0.4-5.2-3.8c-1.6-3.3-1.9-39.4-1.9-61.3c-8.1,3.6-9.9,8.4-10.8,17.4l-0.3,3.2
			c-1.9,20.1-4,42.8,1.6,62.6c2.6,9.4,9.1,16.8,15.3,23.9c5.8,6.6,11.8,13.5,14.9,22.1c28.5,79.5,11.4,189.9,6.3,197.1
			C90,351.5,89.6,351.8,89.1,351.8z"/>
		<path class="st1" d="M77.4,264.3C77.4,264.3,77.3,264.3,77.4,264.3c-0.6,0-1-0.5-1-1.1c0-0.1,0.2-6.3,0.5-12.6
			c0.5-12.6,0.5-12.6,0.5-12.6l0.1-1c1.7-22.6,4.1-53.5,10.4-74.7c3-10.1,6.8-18.8,12.8-29.2c1.1-1.9,2.3-3.8,3.6-5.9l0.6-1
			c0.3-0.5,0.9-0.6,1.4-0.3c0.5,0.3,0.6,0.9,0.3,1.4l-0.6,1c-1.3,2-2.5,3.9-3.6,5.8c-5.9,10.2-9.7,18.8-12.6,28.7
			c-6.2,21-8.6,51.8-10.3,74.3l-0.1,1c0,0.1-0.2,6.3-0.5,12.6c-0.5,12.6-0.5,12.6-0.5,12.6C78.4,263.9,77.9,264.3,77.4,264.3z"/>
	</g>
	<g>
		<polygon class="st2" points="67.8,29.2 77.9,31.7 77.9,34.6 68,33.5 		"/>
		<polygon class="st2" points="92.4,31.9 102.5,33.6 102.5,35.5 92.6,34.7 		"/>
		<path class="st1" d="M77.5,32.4C77.5,32.4,77.5,32.4,77.5,32.4c-10.1-0.8-10.1-1.1-10.1-2.1c0-0.6,0.4-1,1-1
			c0.2,0,0.4,0.1,0.6,0.2c0.9,0.2,5,0.7,8.6,1c0.6,0,1,0.5,0.9,1.1C78.5,32,78,32.4,77.5,32.4z"/>
		<path class="st1" d="M102,34.2C101.9,34.2,101.9,34.2,102,34.2c-12.9-0.8-12.9-1-13-2.1c0-0.6,0.4-1,1-1c0.2,0,0.4,0,0.6,0.1
			c1,0.2,6.5,0.7,11.5,1c0.6,0,1,0.5,0.9,1.1C102.9,33.8,102.5,34.2,102,34.2z"/>
		<g>
			<path class="st2" d="M109,43c0.1,1.2-0.5,2.2-1.3,2.3c0,0-13.5,5.8-29.2,7C63.6,53.5,47.6,50,47.6,50c-0.8,0.1-1.5-0.9-1.6-2.1
				l0,0c-0.1-1.2,0.5-2.2,1.3-2.3c0,0,18.6,2.8,30.8,2c12.4-0.8,29.3-6.7,29.3-6.7C108.2,40.9,108.9,41.8,109,43L109,43z"/>
			<path class="st1" d="M72.1,53.6c-12,0-23.3-2.3-24.6-2.6c-1.3,0-2.4-1.3-2.5-3c-0.1-1.8,0.9-3.2,2.2-3.3c0.1,0,0.2,0,0.2,0
				c0.1,0,14.3,2.2,25.9,2.2h0c1.7,0,3.3,0,4.7-0.1c12.1-0.8,28.9-6.6,29-6.7c0.1,0,0.2,0,0.3-0.1c0,0,0.1,0,0.2,0
				c1.3,0,2.4,1.3,2.5,3c0.1,1.7-0.8,3.1-2,3.3c-1.4,0.6-14.5,5.9-29.4,7.1C76.5,53.5,74.3,53.6,72.1,53.6z M47.6,49
				c0.1,0,0.1,0,0.2,0c0.1,0,11.8,2.6,24.2,2.6c2.2,0,4.3-0.1,6.3-0.2c15.4-1.2,28.8-6.9,28.9-7c0.1,0,0.2-0.1,0.3-0.1
				c0.1,0,0.4-0.5,0.4-1.2c0-0.6-0.3-1-0.5-1.1c-2.1,0.7-17.6,5.9-29.3,6.7c-1.5,0.1-3.1,0.1-4.8,0.1h0c-11,0-24.2-1.9-26-2.2
				c-0.1,0.1-0.4,0.5-0.3,1.2C47.1,48.6,47.4,49,47.6,49C47.5,49,47.6,49,47.6,49z"/>
		</g>
		<g>
			<path class="st2" d="M120.1,90.2c0.2,1.4-0.4,2.7-1.3,2.8c0,0-15.3,8.3-33.7,11.5c-17.4,3-36.7,0.6-36.7,0.6
				c-0.9,0.2-1.9-0.8-2.1-2.3l0,0c-0.2-1.4,0.4-2.7,1.3-2.8c0,0,22.2,1.3,36.6-1C98.7,96.8,118,88,118,88
				C118.9,87.8,119.9,88.8,120.1,90.2L120.1,90.2z"/>
			<path class="st1" d="M65.4,107.1c-8.9,0-15.9-0.8-16.9-0.9c-1.4,0.1-2.8-1.2-3.1-3.1c-0.3-2,0.6-3.7,2.1-4c0.1,0,0.2,0,0.2,0
				c0.1,0,6.4,0.4,14.4,0.4c0,0,0,0,0,0c9,0,16.4-0.4,21.9-1.3c14.2-2.3,33.4-11,33.6-11.1c0.1,0,0.2-0.1,0.2-0.1
				c1.5-0.3,2.9,1.1,3.2,3.1c0.3,1.9-0.5,3.6-1.9,3.9c-1.5,0.8-16.4,8.5-33.9,11.5C79.4,106.6,72.7,107.1,65.4,107.1z M48.4,104.2
				c0,0,0.1,0,0.1,0c0.1,0,7.3,0.9,16.8,0.9c7.2,0,13.8-0.5,19.6-1.5c18-3.1,33.3-11.3,33.4-11.4c0.1-0.1,0.2-0.1,0.3-0.1
				c0.2,0,0.6-0.7,0.5-1.7c-0.1-0.9-0.6-1.4-0.9-1.4c-2,0.9-20.1,9-33.9,11.1c-5.7,0.9-13.2,1.4-22.3,1.4c0,0,0,0,0,0
				c-7.3,0-13.3-0.3-14.4-0.4c-0.2,0.1-0.5,0.8-0.4,1.7c0.1,0.9,0.7,1.4,0.9,1.4C48.3,104.2,48.4,104.2,48.4,104.2z"/>
		</g>
		<g>
			<path class="st2" d="M115.1,57.2c1.4-0.1,2.6,0.5,2.7,1.5c0,0,7.3,15.8,9.2,34.4c1.9,17.6-1.8,36.7-1.8,36.7
				c0.1,0.9-1,1.8-2.4,1.9l0,0c-1.4,0.1-2.6-0.5-2.7-1.5c0,0,2.8-22.1,1.5-36.6c-1.3-14.7-8.9-34.5-8.9-34.5
				C112.6,58.2,113.7,57.3,115.1,57.2L115.1,57.2z"/>
			<path class="st1" d="M122.5,132.7c-1.8,0-3.2-1-3.4-2.4c0-0.1,0-0.2,0-0.2c0-0.2,2.8-22.1,1.5-36.3c-1.3-14.3-8.7-34-8.8-34.2
				c0-0.1-0.1-0.2-0.1-0.2c-0.1-0.6,0.1-1.2,0.5-1.7c0.6-0.7,1.6-1.2,2.7-1.3c1.9-0.2,3.5,0.8,3.8,2.2c0.7,1.6,7.4,17,9.3,34.6
				c1.8,16.8-1.5,35.1-1.8,36.8c0,0.5-0.2,1.1-0.6,1.5c-0.6,0.7-1.6,1.2-2.7,1.3C122.8,132.7,122.6,132.7,122.5,132.7z M121.1,130.1
				c0.1,0.2,0.7,0.6,1.6,0.5c0.7-0.1,1.2-0.4,1.4-0.6c0-0.1,0.1-0.1,0.1-0.2c0-0.1,0-0.2,0-0.3c0-0.2,3.6-19.2,1.8-36.4
				c-1.9-18.2-9.1-33.9-9.1-34.1c0-0.1-0.1-0.2-0.1-0.3c0-0.2-0.7-0.7-1.7-0.6c-0.7,0.1-1.2,0.4-1.4,0.6c0,0-0.1,0.1-0.1,0.2
				c0.8,2,7.6,20.7,8.9,34.6C123.8,107.3,121.4,128.1,121.1,130.1z"/>
		</g>
		<g>
			<path class="st2" d="M129.4,49.4c0.1,1.2-0.7,2.2-1.8,2.3c0,0-18.2,6.1-39.2,7.8C68.6,61.1,47.2,58,47.2,58c-1.1,0.1-2-0.8-2.1-2
				l0,0c-0.1-1.2,0.7-2.2,1.8-2.3c0,0,24.7,2.4,41.1,1.2c16.6-1.1,39.3-7.5,39.3-7.5C128.4,47.3,129.3,48.2,129.4,49.4L129.4,49.4z"
				/>
			<path class="st1" d="M76.5,61c-14.8,0-28-1.8-29.3-2c-1.6,0-2.9-1.3-3-3c-0.1-1.7,1.1-3.3,2.7-3.4c0.1,0,0.1,0,0.2,0
				c0.2,0,16.3,1.5,30.9,1.5c0,0,0,0,0,0c3.7,0,7.1-0.1,10-0.3c16.3-1.1,38.8-7.4,39.1-7.5c0.1,0,0.1,0,0.2,0c1.6-0.1,3,1.2,3.1,3
				c0.1,1.7-1,3.2-2.6,3.4c-1.5,0.5-19.3,6.2-39.3,7.8C84.8,60.8,80.7,61,76.5,61z M47.2,57c0.1,0,0.1,0,0.2,0c0.1,0,13.7,2,29.1,2
				c4.2,0,8.2-0.1,11.9-0.4c20.6-1.6,38.8-7.7,38.9-7.8c0.1,0,0.2,0,0.2,0c0.5,0,0.9-0.6,0.9-1.3c0-0.6-0.4-1.1-0.9-1.1
				c-1.8,0.5-23.5,6.4-39.4,7.5c-2.9,0.2-6.4,0.3-10.1,0.3c0,0,0,0,0,0c-14.1,0-29.6-1.4-31-1.5c-0.5,0.1-0.8,0.6-0.8,1.2
				c0,0.6,0.4,1.1,0.9,1.1C47.1,57,47.2,57,47.2,57z"/>
		</g>
		<g>
			<path class="st2" d="M123.6,31.2c0,1.2-0.6,2.2-1.5,2.3c0,0-15.6,5.5-33.4,6.4c-16.9,0.9-35-3-35-3c-0.9,0-1.7-0.9-1.7-2.1l0,0
				c0-1.2,0.6-2.2,1.5-2.3c0,0,21,3.3,34.9,2.7c14.1-0.5,33.5-6.1,33.5-6.1C122.8,29,123.6,30,123.6,31.2L123.6,31.2z"/>
			<path class="st1" d="M83.6,41c-14.5,0-28.7-2.9-30.1-3.2c-1.4,0-2.5-1.4-2.6-3.1c-0.1-1.8,1-3.2,2.5-3.3c0.1,0,0.1,0,0.2,0
				c0.2,0,18,2.8,31.5,2.8c0,0,0,0,0,0c1.1,0,2.2,0,3.2-0.1c13.8-0.5,33.1-6,33.3-6.1c0.1,0,0.2,0,0.2,0c0,0,0.1,0,0.1,0
				c1.4,0,2.6,1.3,2.7,3.1c0.1,1.7-0.9,3.1-2.3,3.3c-1.5,0.5-16.6,5.6-33.6,6.4C87,40.9,85.3,41,83.6,41z M53.5,33.5
				c-0.3,0.1-0.6,0.5-0.5,1.2c0,0.7,0.4,1.1,0.7,1.1c0.1,0,0.2,0,0.3,0c0.1,0,14.8,3.1,29.8,3.1c1.7,0,3.4,0,5-0.1
				c17.5-0.9,33-6.3,33.1-6.3c0.1,0,0.2-0.1,0.3-0.1c0.3,0,0.6-0.5,0.6-1.2c0-0.6-0.3-1.1-0.6-1.1c-1.9,0.5-20.2,5.6-33.6,6.1
				c-1.1,0-2.1,0.1-3.3,0.1c0,0,0,0,0,0C72.1,36.2,55.2,33.7,53.5,33.5z"/>
		</g>
		<g>
			<path class="st2" d="M125.8,89.8c0,0-24.1,3.8-41.3,3c-14.9-0.7-34.9-5-40-6l2.4-3.5c0,0-6.2-1.6-8.2,0.9
				c-1.1,1.4-1.6,5.1,0.6,5.9c0.4,0.2,0.8,0.2,1.2,0.3c0.3,0.4,0.8,0.7,1.4,0.7c0,0,21.7,5.7,42.3,6.4c21.8,0.8,41.2-3.3,41.2-3.3
				c1.1,0,2-0.9,2.1-2.1C127.8,90.8,126.9,89.8,125.8,89.8z"/>
			<path class="st1" d="M90.1,98.6c-1.9,0-3.8,0-5.7-0.1c-20.6-0.7-42.3-6.4-42.5-6.4c-0.2,0-0.3-0.1-0.5-0.1
				c-0.8-0.2-1.8-0.4-2.6-1.2c-1.9-1.8-2.3-3.9-1.1-6.2c1.1-2.3,4.4-4.2,9.1-3.3c0.5,0.1,0.9,0.6,0.8,1.2c-0.1,0.5-0.6,0.9-1.2,0.8
				c-3.7-0.7-6.2,0.7-7,2.2c-0.8,1.5-0.5,2.7,0.7,3.9c0.4,0.4,1,0.5,1.7,0.7c0.2,0,0.4,0.1,0.6,0.1c0.2,0.1,21.7,5.6,42.1,6.4
				c21.4,0.8,40.8-3.2,41-3.3c0.1,0,0.2,0,0.2,0c0.6,0,1-0.5,1-1.2c0-0.4-0.1-0.7-0.3-0.9c-0.1-0.1-0.3-0.3-0.5-0.3
				c-1.8,0.3-24.9,3.7-41.3,3c-16.9-0.8-41.1-6.6-41.3-6.6c-0.5-0.1-0.9-0.7-0.7-1.2c0.1-0.5,0.7-0.9,1.2-0.7
				c0.2,0.1,24.2,5.8,40.9,6.6c16.9,0.8,40.8-2.9,41.1-3c0.1,0,0.1,0,0.2,0c0.8,0,1.5,0.4,2,0.9c0.6,0.6,0.9,1.5,0.9,2.4
				c-0.1,1.7-1.4,3.1-3,3.1C124.3,95.5,108.6,98.6,90.1,98.6z"/>
		</g>
		<g>
			<path class="st2" d="M46.5,71.6c0,0,21.4,11.2,37.9,15.8c14.2,4,36.7,6.3,41.8,6.9l0.3-3.6c0,0,3.2-0.7,4.3,2.3
				c0.7,2.1-1.2,3.9-2.9,4.8c-2.4,1.3-5.9,1-8.4,0.8c-2.3-0.2-4.6-0.4-6.8-0.7c-6.2-0.8-12.3-1.7-18.4-3c-3.8-0.8-7.5-1.7-11.2-2.8
				c-20.8-6.1-37.7-16.1-37.7-16.1c-1-0.3-1.6-1.5-1.3-2.7C44.3,72,45.4,71.3,46.5,71.6z"/>
			<path class="st1" d="M123.1,99.6c-1.5,0-3-0.2-4.3-0.3l-2.7-0.3c-5.9-0.7-12-1.4-18-2.4c-5.2-0.9-10.4-2.1-15.4-3.6
				c-19.8-5.8-36.4-15.3-37.8-16.1c-1.5-0.5-2.3-2.2-1.8-3.9c0.3-0.9,0.8-1.6,1.6-2.1c0.7-0.4,1.4-0.5,2.2-0.3c0.1,0,0.1,0,0.2,0.1
				c0.2,0.1,21.5,11.2,37.7,15.7c16,4.5,40.3,6.4,40.6,6.4c0.6,0,1,0.5,0.9,1.1c0,0.6-0.5,1-1.1,0.9c-0.2,0-24.8-2-40.9-6.5
				c-15.7-4.4-36.3-15-37.9-15.8c-0.2,0-0.4,0-0.6,0.1c-0.3,0.2-0.5,0.5-0.6,0.8c-0.2,0.7,0.1,1.3,0.6,1.5c0.1,0,0.2,0.1,0.2,0.1
				c0.2,0.1,17.1,10,37.5,16c5,1.4,10.1,2.6,15.2,3.5c5.9,1,12,1.7,17.9,2.4l2.7,0.3c3.4,0.4,8.1,1,10.4-2.1
				c0.5-0.7,0.7-1.5,0.4-2.3c-0.4-1-1.4-1.7-2.6-1.9c-0.5-0.1-0.9-0.6-0.8-1.2s0.6-0.9,1.2-0.8c1.9,0.4,3.5,1.6,4.1,3.2
				c0.6,1.4,0.3,2.9-0.6,4.2C129.1,99,126,99.6,123.1,99.6z"/>
		</g>
		<g>
			<path class="st2" d="M52,55.3c0,0,21,10.9,36.9,15.2c13.9,3.8,35.7,5.7,40.6,6.2l0.2-3.6c0,0,3.1-0.8,4.2,2.3
				c0.7,2.1-1.1,3.9-2.7,4.9c-2.3,1.3-5.7,1.1-8.1,0.9c-2.2-0.2-4.4-0.4-6.6-0.6c-6-0.7-11.9-1.5-17.9-2.7
				c-3.7-0.7-7.3-1.6-10.9-2.6c-20.2-5.7-36.8-15.5-36.8-15.5c-1-0.3-1.6-1.5-1.3-2.7C49.9,55.8,51,55,52,55.3z"/>
			<path class="st1" d="M126.5,82.2c-1.4,0-2.7-0.1-3.9-0.3l-2.6-0.3c-5.8-0.6-11.7-1.2-17.6-2.2c-5-0.8-10.1-1.9-15-3.3
				c-19.3-5.5-35.5-14.7-36.9-15.5c-1.5-0.5-2.3-2.2-1.8-3.9c0.2-0.9,0.8-1.7,1.5-2.1c0.7-0.4,1.4-0.5,2.1-0.3c0.1,0,0.1,0,0.2,0.1
				c0.2,0.1,21,10.9,36.7,15.1c15.5,4.2,39.1,5.8,39.4,5.8c0.6,0,1,0.5,0.9,1.1c0,0.6-0.5,1-1.1,0.9c-0.2,0-24-1.6-39.8-5.8
				c-15.3-4.2-35.3-14.4-37-15.2c-0.2,0-0.4,0-0.5,0.1c-0.3,0.2-0.5,0.5-0.6,0.9c-0.2,0.7,0.1,1.4,0.6,1.5c0.1,0,0.2,0.1,0.2,0.1
				c0.2,0.1,16.7,9.8,36.6,15.4c4.8,1.4,9.8,2.5,14.8,3.3c5.8,0.9,11.7,1.6,17.4,2.1l2.6,0.3c3.3,0.3,7.9,0.8,9.9-2.3
				c0.5-0.8,0.6-1.6,0.3-2.3c-0.4-0.9-1.4-1.6-2.6-1.9c-0.5-0.1-0.9-0.6-0.8-1.2c0.1-0.5,0.6-0.9,1.2-0.8c1.8,0.3,3.4,1.5,4,3.1
				c0.6,1.4,0.4,2.9-0.5,4.2C132.5,81.6,129.4,82.2,126.5,82.2z"/>
		</g>
		<g>
			<path class="st2" d="M123,36.7c0.1,1.2-0.6,2.2-1.4,2.2c0,0-14,5.4-30.2,6.3C76.1,46,59.7,42,59.7,42c-0.8,0-1.5-0.9-1.6-2.1l0,0
				c0-1.2,0.6-2.2,1.4-2.2c0,0,19,3.3,31.6,2.9c12.8-0.5,30.3-6,30.3-6C122.3,34.6,123,35.5,123,36.7L123,36.7z"/>
			<path class="st1" d="M87.3,46.3c-13.4,0-26.6-3-27.7-3.3c-1.4-0.1-2.3-1.4-2.4-3.1c-0.1-1.8,1-3.2,2.3-3.3c0.1,0,0.2,0,0.2,0
				c0.2,0,16.6,2.9,28.9,2.9c0,0,0,0,0,0c0.9,0,1.7,0,2.5,0c12.5-0.5,29.8-5.9,30-5.9c0.1,0,0.2,0,0.3,0c0,0,0,0,0,0
				c1.4,0,2.5,1.3,2.6,3.1c0.1,1.7-0.9,3.1-2.2,3.3c-1.5,0.5-15.1,5.5-30.4,6.3C90.1,46.3,88.7,46.3,87.3,46.3z M59.6,38.7
				c-0.1,0.1-0.4,0.5-0.4,1.2c0,0.8,0.4,1.1,0.5,1.1c0.1,0,0.2,0,0.3,0c0.1,0,13.6,3.3,27.3,3.3c1.4,0,2.8,0,4.1-0.1
				c15.8-0.8,29.8-6.1,29.9-6.2c0.1,0,0.2-0.1,0.3-0.1c0.1,0,0.5-0.5,0.4-1.2c0-0.7-0.3-1-0.5-1.1c-2.1,0.6-18.2,5.5-30.3,5.9
				c-0.8,0-1.7,0-2.6,0h0C76.9,41.6,61.4,39,59.6,38.7z"/>
		</g>
		<g>
			<path class="st2" d="M124.7,54.3c0.3,1,0,2-0.7,2.2c0,0-10.9,7.4-24.4,11.2C86.7,71.3,72,71.1,72,71.1c-0.7,0.2-1.5-0.5-1.8-1.5
				l0,0c-0.3-1,0-2,0.7-2.2c0,0,16.9-0.8,27.5-3.7c10.8-2.9,24.6-10.9,24.6-10.9C123.7,52.6,124.5,53.2,124.7,54.3L124.7,54.3z"/>
			<path class="st1" d="M71.7,72.1c-1.1,0-2.1-0.9-2.5-2.2c-0.2-0.9-0.2-1.8,0.2-2.4c0.3-0.5,0.7-0.8,1.2-1c0.1,0,0.1,0,0.2,0
				c0.2,0,16.9-0.9,27.3-3.6c10.5-2.8,24.2-10.8,24.3-10.8c0.1,0,0.2-0.1,0.2-0.1c1.2-0.3,2.6,0.6,3,2.2c0.2,0.9,0.2,1.8-0.2,2.4
				c-0.2,0.4-0.6,0.8-1,0.9c-1.2,0.8-11.8,7.6-24.6,11.3c-11.7,3.3-24.9,3.5-27.5,3.5l-0.3,0C71.9,72.1,71.8,72.1,71.7,72.1z
				 M71.2,68.4c-0.1,0.1-0.2,0.5,0,0.9c0.1,0.5,0.4,0.8,0.6,0.8c0.1,0,0.2,0,0.3,0l0.4,0c2.5,0,15.5-0.2,26.9-3.4
				c13.3-3.8,24.1-11,24.2-11.1c0.1-0.1,0.2-0.1,0.3-0.1c0-0.1,0.2-0.4,0-0.9c-0.1-0.5-0.4-0.7-0.5-0.8c-1.9,1.1-14.4,8.2-24.6,10.9
				C88.6,67.4,73.2,68.3,71.2,68.4z"/>
		</g>
		<g>
			<path class="st2" d="M128.8,64.9c0.2,1.2-0.5,2.3-1.6,2.6c0,0-18.2,9.1-39.9,14.2c-20.5,4.8-43.2,5.2-43.2,5.2
				c-1.1,0.3-2.2-0.5-2.4-1.7l0,0c-0.2-1.2,0.5-2.3,1.6-2.6c0,0,26.1-1.7,43.1-5.5c17.1-3.8,40-13.9,40-13.9
				C127.5,62.9,128.6,63.7,128.8,64.9L128.8,64.9z"/>
			<path class="st1" d="M43.7,87.9c-1.4,0-2.7-1.1-2.9-2.5c-0.3-1.7,0.7-3.4,2.3-3.8c0.1,0,0.1,0,0.2,0c0.3,0,26.2-1.8,42.9-5.5
				c16.9-3.8,39.6-13.7,39.8-13.8c0.1,0,0.1,0,0.2-0.1c1.6-0.4,3.3,0.8,3.6,2.4c0.3,1.7-0.7,3.3-2.2,3.7c-1.5,0.7-19.3,9.3-40,14.2
				c-19.7,4.6-41.7,5.2-43.3,5.3C44.1,87.9,43.9,87.9,43.7,87.9z M43.5,83.6c-0.5,0.2-0.9,0.8-0.7,1.4c0.1,0.6,0.7,1,1.2,0.9
				c0.1,0,0.1,0,0.2,0c0.2,0,22.8-0.5,43-5.2c21.3-5,39.5-14,39.7-14.1c0.1,0,0.1-0.1,0.2-0.1c0.6-0.1,0.9-0.8,0.8-1.4
				c-0.1-0.6-0.6-1-1.1-0.9c-1.7,0.7-23.6,10.2-40.1,13.9C70.3,81.7,45.2,83.5,43.5,83.6z"/>
		</g>
		<g>
			<path class="st2" d="M130,73.1c0.2,1.2-0.4,2.3-1.5,2.6c0,0-17.5,8.9-38.4,13.8c-19.8,4.7-41.6,4.9-41.6,4.9
				c-1.1,0.2-2.1-0.5-2.3-1.7l0,0c-0.2-1.2,0.4-2.3,1.5-2.6c0,0,25.2-1.5,41.5-5.2c16.5-3.7,38.5-13.6,38.5-13.6
				C128.8,71.1,129.8,71.9,130,73.1L130,73.1z"/>
			<path class="st1" d="M48.2,95.4c-1.4,0-2.6-1.1-2.9-2.5c-0.3-1.7,0.7-3.4,2.2-3.7c0.1,0,0.1,0,0.2,0c0.2,0,25.3-1.6,41.3-5.2
				c16.2-3.6,38.1-13.4,38.3-13.5c0.1,0,0.1,0,0.2-0.1c1.6-0.4,3.2,0.8,3.5,2.5c0.3,1.7-0.6,3.3-2.1,3.7
				c-1.5,0.7-18.5,9.2-38.5,13.9c-19,4.5-40.1,4.9-41.7,4.9C48.5,95.4,48.3,95.4,48.2,95.4z M47.9,91.1c-0.5,0.2-0.8,0.8-0.7,1.4
				c0.1,0.6,0.6,1,1.1,0.9c0.1,0,0.1,0,0.2,0c0.2,0,22-0.3,41.4-4.9c20.5-4.8,38-13.7,38.1-13.8c0.1,0,0.1-0.1,0.2-0.1
				c0.5-0.1,0.9-0.8,0.7-1.4c-0.1-0.6-0.6-1-1.1-0.9c-1.7,0.8-22.7,10-38.6,13.6C73.7,89.4,49.7,91,47.9,91.1z"/>
		</g>
		<g>
			<path class="st2" d="M128,88.2c-0.4,1.1-1.5,1.9-2.6,1.6c0,0-20.2-0.1-41.5-5.4c-20.2-5-40.2-14.8-40.2-14.8
				c-1.1-0.3-1.7-1.4-1.3-2.6l0,0c0.4-1.1,1.5-1.9,2.6-1.6c0,0,23.6,10.2,40.2,14.5c16.8,4.3,41.5,5.7,41.5,5.7
				C127.8,85.9,128.4,87,128,88.2L128,88.2z"/>
			<path class="st1" d="M125.9,90.8c-0.2,0-0.4,0-0.6-0.1c-1.6,0-21.2-0.4-41.7-5.4c-19.4-4.8-38.8-14.1-40.3-14.9
				c-0.7-0.2-1.3-0.7-1.7-1.3c-0.4-0.7-0.5-1.6-0.2-2.5c0.5-1.6,2.2-2.7,3.8-2.3c0.1,0,0.1,0,0.2,0.1c0.2,0.1,23.7,10.3,40.1,14.5
				c16.5,4.2,41.1,5.7,41.3,5.7c0.1,0,0.1,0,0.2,0c0.8,0.2,1.4,0.7,1.8,1.4c0.4,0.7,0.5,1.6,0.2,2.5
				C128.5,89.8,127.3,90.8,125.9,90.8z M44.5,66.3c-0.5,0-1,0.4-1.2,0.9c-0.1,0.3-0.1,0.6,0.1,0.9c0.1,0.1,0.2,0.3,0.5,0.4
				c0.1,0,0.1,0,0.2,0.1c0.2,0.1,20.1,9.9,40,14.8c21,5.2,41.1,5.4,41.3,5.4c0.1,0,0.2,0,0.2,0c0.6,0.1,1.2-0.3,1.4-0.9
				c0.1-0.3,0.1-0.6-0.1-0.9c-0.1-0.1-0.2-0.3-0.5-0.4c-1.8-0.1-25.5-1.6-41.6-5.7C69,76.7,46.3,67,44.7,66.3
				C44.6,66.3,44.6,66.3,44.5,66.3z"/>
		</g>
		<g>
			<path class="st2" d="M114.8,71.1c0,0-21.8,1.2-37-1.5C64.7,67.3,47.3,60.8,43,59.3l2.5-3.2c0,0-5.3-2.3-7.3,0
				c-1.1,1.3-1.9,4.9,0,6c0.4,0.2,0.7,0.3,1.1,0.4c0.3,0.5,0.7,0.8,1.2,0.9c0,0,18.7,8,37,10.9c19.3,3.1,36.9,1.2,36.9,1.2
				c1,0.2,1.9-0.7,2.1-1.9C116.5,72.3,115.8,71.2,114.8,71.1z"/>
			<path class="st1" d="M100.7,77c-6.6,0-14.9-0.4-23.5-1.8c-18.4-3-37-10.9-37.2-11c-0.1-0.1-0.3-0.1-0.4-0.2
				c-0.7-0.3-1.6-0.6-2.2-1.5c-1.5-1.9-1.6-4.1-0.4-6.2c1.3-2.2,4.4-3.8,8.6-2.3c0.5,0.2,0.8,0.7,0.6,1.3c-0.2,0.5-0.7,0.8-1.3,0.6
				c-3.1-1.1-5.4-0.1-6.2,1.4c-0.8,1.5-0.8,2.7,0.2,4c0.3,0.4,0.8,0.6,1.4,0.8c0.2,0.1,0.3,0.1,0.5,0.2c0.2,0.1,18.7,7.9,36.7,10.9
				c19,3.1,36.5,1.2,36.7,1.2c0.1,0,0.2,0,0.3,0c0.1,0,0.3,0,0.4-0.1c0.3-0.2,0.4-0.5,0.5-0.9c0.1-0.7-0.2-1.2-0.6-1.3
				c-1.9,0.1-22.5,1-37-1.5c-15-2.6-35.9-11-36.1-11.1c-0.5-0.2-0.8-0.8-0.6-1.3c0.2-0.5,0.8-0.8,1.3-0.6
				c0.2,0.1,20.9,8.4,35.7,10.9c14.9,2.6,36.5,1.5,36.7,1.5c0.1,0,0.1,0,0.2,0c1.5,0.2,2.5,1.9,2.3,3.6c-0.1,0.9-0.6,1.8-1.3,2.3
				c-0.5,0.4-1.2,0.6-1.8,0.5C113.4,76.5,108.2,77,100.7,77z"/>
		</g>
		<g>
			<path class="st2" d="M101,61.2c-0.1,1.2-0.8,2.1-1.5,2.1c0,0-13.1,4.2-27.5,3.6C58.3,66.3,44.3,61,44.3,61c-0.7,0-1.2-1-1.1-2.2
				l0,0c0.1-1.2,0.8-2.1,1.5-2.1c0,0,16.4,4.9,27.6,5.6C83.7,62.9,99.8,59,99.8,59C100.6,59,101.1,60,101,61.2L101,61.2z"/>
			<path class="st1" d="M74.7,67.9c-0.9,0-1.9,0-2.8-0.1c-13-0.5-26.4-5.4-27.8-5.9c-0.4-0.1-0.9-0.3-1.2-0.7
				c-0.5-0.6-0.8-1.6-0.7-2.6c0.2-1.7,1.2-3,2.5-3c0.1,0,0.2,0,0.3,0c0.2,0,16.4,4.9,27.4,5.5c0.8,0,1.7,0.1,2.6,0.1
				c10.8,0,24.5-3.3,24.7-3.3c0.1,0,0.2,0,0.3,0c0.5,0,1,0.3,1.4,0.7c0.5,0.6,0.8,1.6,0.7,2.6c-0.2,1.7-1.1,2.9-2.3,3
				C98.2,64.7,87.2,67.9,74.7,67.9z M44.6,57.7c-0.1,0.1-0.4,0.5-0.4,1.2c-0.1,0.7,0.2,1.1,0.2,1.1c0.1,0,0.1,0,0.2,0
				c0.1,0.1,14,5.3,27.3,5.8c14.1,0.6,27.1-3.5,27.2-3.5c0.1,0,0.2-0.1,0.3,0c0.1,0,0.4-0.5,0.5-1.2c0.1-0.6-0.1-0.9-0.2-1.1
				c-2.1,0.5-14.7,3.3-24.8,3.3c-0.9,0-1.8,0-2.7-0.1C61.6,62.7,46.7,58.3,44.6,57.7z"/>
		</g>
		<g>
			<path class="st2" d="M125.6,71c0.1,1.2-0.7,2.3-1.8,2.4c0,0-18.6,6.3-40.1,8c-20.3,1.6-42.1-1.7-42.1-1.7c-1.1,0.1-2-0.9-2.1-2.1
				l0,0c-0.1-1.2,0.7-2.3,1.8-2.4c0,0,25.3,2.5,42,1.4c16.9-1.1,40.2-7.6,40.2-7.6C124.6,68.9,125.6,69.8,125.6,71L125.6,71z"/>
			<path class="st1" d="M72,82.8c-15.3,0-29.1-1.9-30.4-2.1c-1.6,0.1-2.9-1.3-3-3c-0.1-1.8,1.1-3.3,2.7-3.4c0.1,0,0.1,0,0.2,0
				c0.2,0,17.1,1.7,32.2,1.7l0,0c3.6,0,6.9-0.1,9.7-0.3c16.6-1.1,39.7-7.5,40-7.6c0.1,0,0.1,0,0.2,0c1.6-0.1,3.1,1.2,3.2,3
				c0.1,1.7-1.1,3.2-2.6,3.4c-1.6,0.5-19.7,6.4-40.2,8C80.1,82.7,76.2,82.8,72,82.8z M41.6,78.7c0.1,0,0.1,0,0.2,0
				c0.1,0,14.3,2.1,30.2,2.1c4.1,0,8.1-0.1,11.7-0.4c21.1-1.6,39.6-7.9,39.8-7.9c0.1,0,0.2,0,0.2-0.1c0.5,0,0.9-0.6,0.9-1.3
				c0-0.6-0.5-1.1-0.9-1.2c-1.8,0.5-24,6.6-40.2,7.7c-2.9,0.2-6.2,0.3-9.8,0.3l0,0c-14.6,0-30.8-1.5-32.3-1.7
				c-0.5,0.1-0.9,0.7-0.8,1.3c0,0.6,0.5,1.2,1,1.2C41.5,78.7,41.5,78.7,41.6,78.7z"/>
		</g>
		<g>
			<path class="st2" d="M123.7,61.8c-0.3,1.2-1.2,1.9-2.2,1.6c0,0-17.5-0.2-36.1-5.6c-17.6-5.1-35.3-15.2-35.3-15.2
				c-0.9-0.3-1.5-1.4-1.2-2.6l0,0c0.3-1.2,1.2-1.9,2.2-1.6c0,0,20.8,10.5,35.3,14.9c14.7,4.4,36.1,5.9,36.1,5.9
				C123.5,59.5,124,60.6,123.7,61.8L123.7,61.8z"/>
			<path class="st1" d="M122,64.5c-0.2,0-0.4,0-0.5-0.1c-1.6,0-18.5-0.5-36.3-5.7c-16.9-4.9-34-14.4-35.4-15.2
				c-1.4-0.5-2.2-2.1-1.8-3.7c0.3-1.4,1.5-2.4,2.8-2.4c0.2,0,0.5,0,0.7,0.1c0.1,0,0.1,0,0.2,0.1c0.2,0.1,20.8,10.5,35.1,14.8
				c14.4,4.4,35.7,5.9,35.9,5.9c0.1,0,0.1,0,0.2,0c1.5,0.4,2.3,2.1,1.9,3.8C124.4,63.5,123.3,64.5,122,64.5z M50.8,39.3
				c-0.3,0-0.7,0.3-0.8,0.9c-0.2,0.7,0.1,1.3,0.5,1.4c0.1,0,0.1,0.1,0.2,0.1c0.2,0.1,17.7,10.1,35,15.1c18.3,5.3,35.7,5.6,35.8,5.6
				c0.1,0,0.2,0,0.3,0c0.3,0.1,0.8-0.2,0.9-0.9c0.1-0.6-0.1-1.2-0.4-1.4c-1.9-0.1-22.2-1.7-36.2-6C72.2,50,52.5,40.1,50.8,39.3
				C50.8,39.3,50.8,39.3,50.8,39.3z"/>
		</g>
		<g>
			<path class="st2" d="M47.9,33.8c0,0,21.4,10,37.5,13.7c14,3.2,35.9,4.3,40.8,4.6l0.1-3.6c0,0,3-0.9,4.3,2.1c0.8,2-0.9,3.9-2.5,5
				c-2.2,1.4-5.6,1.3-8.1,1.2c-2.2-0.1-4.4-0.2-6.7-0.4c-6-0.4-12-1.1-18-2c-3.7-0.6-7.4-1.3-11-2.2c-20.4-4.9-37.4-14-37.4-14
				c-1-0.2-1.7-1.4-1.4-2.6C45.9,34.3,46.9,33.5,47.9,33.8z"/>
			<path class="st1" d="M122.5,57.7c-1.1,0-2.1-0.1-3-0.1l-2.5-0.2c-5.8-0.4-11.8-0.7-17.7-1.5c-5.1-0.6-10.2-1.5-15.1-2.7
				c-19.5-4.7-36.1-13.3-37.5-14.1c-1.5-0.4-2.4-2.1-2-3.8c0.2-0.9,0.7-1.7,1.5-2.2c0.6-0.4,1.4-0.5,2.1-0.4c0.1,0,0.1,0,0.2,0.1
				c0.2,0.1,21.5,10,37.3,13.6c15.7,3.6,39.3,4.2,39.6,4.2c0.6,0,1,0.5,1,1s-0.5,1-1,1c-0.2,0-24.1-0.6-40-4.3
				c-15.5-3.5-35.9-12.9-37.6-13.7c-0.2,0-0.4,0.1-0.5,0.1c-0.3,0.2-0.5,0.5-0.6,0.9c-0.1,0.7,0.2,1.3,0.6,1.5
				c0.1,0,0.2,0.1,0.2,0.1c0.2,0.1,17.1,9.1,37.1,13.9c4.9,1.2,9.9,2.1,14.9,2.7c5.8,0.7,11.8,1.1,17.6,1.5l2.5,0.2
				c3.3,0.2,7.9,0.5,9.8-2.7c0.5-0.8,0.6-1.6,0.2-2.3c-0.4-0.9-1.4-1.6-2.6-1.8c-0.5-0.1-0.9-0.6-0.8-1.1s0.6-0.9,1.1-0.8
				c1.9,0.3,3.4,1.4,4.2,2.9c0.6,1.4,0.5,2.9-0.3,4.2C129.2,57.1,125.7,57.7,122.5,57.7z"/>
		</g>
		<g>
			<path class="st2" d="M125.1,43c0,0-21.8,1.2-37-1.5C75,39.2,57.6,32.8,53.3,31.2l2.5-3.2c0,0-5.3-2.3-7.3,0c-1.1,1.3-1.9,4.9,0,6
				c0.4,0.2,0.7,0.3,1.1,0.4c0.3,0.5,0.7,0.8,1.2,0.9c0,0,18.7,8,37,10.9c19.3,3.1,36.9,1.2,36.9,1.2c1,0.2,1.9-0.7,2.1-1.9
				C126.8,44.3,126.1,43.2,125.1,43z"/>
			<path class="st1" d="M111,49c-6.6,0-14.9-0.4-23.5-1.8c-18.4-3-37-10.9-37.2-11c-0.1-0.1-0.3-0.1-0.4-0.2
				c-0.7-0.3-1.6-0.6-2.2-1.5c-1.5-1.9-1.6-4.1-0.4-6.2c1.3-2.2,4.4-3.8,8.6-2.3c0.5,0.2,0.8,0.7,0.6,1.3c-0.2,0.5-0.7,0.8-1.3,0.6
				c-3.1-1.1-5.4-0.1-6.2,1.4c-0.8,1.5-0.8,2.7,0.2,4c0.3,0.4,0.8,0.6,1.4,0.8c0.2,0.1,0.3,0.1,0.5,0.2c0.2,0.1,18.7,7.9,36.7,10.9
				c18.9,3.1,36.5,1.2,36.7,1.2c0.1,0,0.2,0,0.3,0c0.1,0,0.3,0,0.4-0.1c0.3-0.2,0.4-0.5,0.5-0.9c0.1-0.7-0.2-1.2-0.6-1.3
				c-1.9,0.1-22.5,1-37-1.5c-15-2.6-35.9-11-36.1-11.1c-0.5-0.2-0.8-0.8-0.6-1.3c0.2-0.5,0.8-0.8,1.3-0.6
				c0.2,0.1,20.9,8.4,35.7,10.9c14.9,2.6,36.5,1.5,36.7,1.5c0.1,0,0.1,0,0.2,0c1.5,0.2,2.5,1.9,2.3,3.6c-0.1,0.9-0.6,1.8-1.3,2.3
				c-0.5,0.4-1.2,0.6-1.8,0.5C123.7,48.5,118.5,49,111,49z"/>
		</g>
	</g>
</g>
</svg>
