<?xml version="1.0" encoding="utf-8"?>
<!-- Generator: Adobe Illustrator 23.0.1, SVG Export Plug-In . SVG Version: 6.00 Build 0)  -->
<svg version="1.1" id="圖層_1" xmlns="http://www.w3.org/2000/svg" xmlns:xlink="http://www.w3.org/1999/xlink" x="0px" y="0px"
	 viewBox="0 0 171.3 370.7" style="enable-background:new 0 0 171.3 370.7;" xml:space="preserve">
<style type="text/css">
	.st0{clip-path:url(#SVGID_2_);}
	.st1{opacity:0.8;fill:#BCD6D6;enable-background:new    ;}
	.st2{opacity:0.8;fill:#3E5256;enable-background:new    ;}
	.st3{fill:#F5D069;}
	.st4{fill:#F2BA3D;}
</style>
<g>
	<g>
		<g>
			<defs>
				<rect id="SVGID_1_" x="42" y="42.4" width="94.1" height="319.9"/>
			</defs>
			<clipPath id="SVGID_2_">
				<use xlink:href="#SVGID_1_"  style="overflow:visible;"/>
			</clipPath>
			<g class="st0">
				<path class="st1" d="M79.5,279.3c0,13.9,0.6,27.8,1.6,41.6c0.4,5.7,1,11.4,1.9,17c0.7,4.4,3,16,5.9,16c3.5,0,5-10.5,5.4-14.9
					c4.2-45,2.9-81.1-1.2-121.2c-1.1-10.7-5.5-42.3-5.5-42.3c-4.4,20.3-6,50.1-7.3,71.6c0,0-0.7,23.8-0.7,23.9"/>
				<path class="st1" d="M83.3,165.7c-5.6-18.8-23.6-34.8-28.7-54.1c-5.8-21.9-3.2-46.7-1.3-69.1C54.2,32,56.6,26.7,66,22.8
					c0,0.5-0.1,61.1,1.8,65.1c3.2,6.8,8.1,2.2,9.4-3.1c2.9-12,3.4-54.5,3.6-62.8c3.1,0,6.1,0,9.2,0c0,0.4,2.6,61,4.5,65.2
					c2.9,6.5,8.1,4,9.5-1.9c2.7-11.8,1-54.4,0.9-62.8c5.5,0.7,9.9,3.1,12.4,8.5c3.1,6.7,2.7,15.1,3.1,22.3
					c0.9,15.5,2.6,31.2,0.9,46.7c-0.7,6-2.4,11.9-5,17.3c-1,2.2-2.4,4.4-3.8,6.6L83.3,165.7z"/>
				<path class="st2" d="M87,354.9c-0.4,0-0.9-0.2-1.2-0.6c-4.5-4.5-11.5-56.4-11.5-79.1c0-0.6,0.4-1,1-1h0c0.6,0,1,0.4,1,1
					c0,24.5,7,71.9,10.6,77.3c2.2-4.5,7.3-32.6,8.7-68.9c1.3-34.2-0.4-83.8-15.5-126c-3-8.3-8.8-15-14.5-21.5
					c-6.4-7.3-13-14.8-15.7-24.7c-5.6-20.1-3.5-43.1-1.6-63.3l0.3-3.2c0.9-9.9,3.2-15.7,13.4-19.7c0.3-0.1,0.6-0.1,0.9,0.1
					c0.3,0.2,0.4,0.5,0.4,0.8c0,0,0,0.3,0,0.7c0,35.1,0.7,59.1,1.7,61.2c0.6,1.3,1.7,2.8,3.2,2.7c1.7-0.2,3.7-2.6,4.4-5.5
					c2.6-10.4,3.3-45.7,3.5-57.3l0.1-2.6c0-0.5,0.5-1,1-1c1.9,0,3.9,0,5.8,0l3.4,0c0.5,0,1,0.4,1,1c0.1,2.7,2.7,58.4,4.4,62
					c1,2.1,2.3,3.2,3.7,3.1c1.7-0.2,3.3-2.1,4-4.8c2.3-9.6,1.4-41.4,1-55c-0.1-2.1-0.1-3.8-0.1-4.8c0-0.3,0.1-0.6,0.3-0.8
					c0.2-0.2,0.5-0.3,0.8-0.3c6.4,0.8,10.7,3.6,13.2,8.7c2.6,5.4,2.8,11.6,3,17.6c0,1.4,0.1,2.8,0.2,4.2c0.2,3,0.4,5.9,0.6,8.9
					c0.8,11.8,1.7,24,0.3,35.9c-0.7,5.7-2.4,11.4-5.1,16.9c-1,2-2.3,4.1-3.9,6.4c-0.3,0.5-0.9,0.6-1.4,0.2c-0.5-0.3-0.6-0.9-0.2-1.4
					c1.6-2.3,2.8-4.3,3.8-6.2c2.6-5.3,4.3-10.8,4.9-16.3c1.4-11.8,0.5-23.9-0.3-35.6c-0.2-3-0.4-6-0.6-8.9c-0.1-1.4-0.1-2.8-0.2-4.2
					c-0.2-5.8-0.4-11.8-2.8-16.8c-2.1-4.2-5.4-6.6-10.5-7.4c0,1,0.1,2.2,0.1,3.6c0.4,13.7,1.4,45.6-1,55.5c-0.8,3.5-3.1,6-5.7,6.3
					c-2.3,0.2-4.4-1.3-5.7-4.2c-1.8-3.9-4.2-54.2-4.6-61.9l-2.5,0c-1.6,0-3.2,0-4.8,0l0,1.6c-0.2,11.6-1,47.1-3.6,57.7
					c-0.8,3.2-3.2,6.6-6.1,7c-1.4,0.2-3.5-0.4-5.2-3.8c-1.6-3.3-1.9-39.4-1.9-61.3c-8.1,3.6-9.9,8.4-10.8,17.4l-0.3,3.2
					c-1.9,20.1-4,42.8,1.6,62.6c2.6,9.4,9.1,16.8,15.3,23.9c5.8,6.6,11.8,13.5,14.9,22.1c28.5,79.5,11.4,189.9,6.3,197.1
					C87.8,354.6,87.4,354.9,87,354.9z"/>
				<path class="st2" d="M75.2,267.3C75.2,267.3,75.2,267.3,75.2,267.3c-0.6,0-1-0.5-1-1c0-0.1,0.2-6.4,0.5-12.6
					c0.5-12.6,0.5-12.6,0.5-12.6l0.1-1c1.7-22.6,4.1-53.5,10.4-74.7c3-10.1,6.8-18.8,12.8-29.2c1.1-1.9,2.3-3.8,3.6-5.9l0.7-1
					c0.3-0.5,0.9-0.6,1.4-0.3c0.5,0.3,0.6,0.9,0.3,1.4l-0.7,1c-1.3,2-2.5,3.9-3.5,5.8c-5.9,10.2-9.7,18.8-12.6,28.7
					c-6.2,21-8.6,51.8-10.3,74.3l-0.1,1c0,0.1-0.2,6.3-0.5,12.6c-0.5,12.6-0.5,12.6-0.5,12.6C76.2,266.9,75.7,267.3,75.2,267.3z"/>
			</g>
		</g>
	</g>
	<g>
		<path class="st3" d="M141.4,12.4c-10.7,0-89.1,0-91,0c8.3,2.9,15.8,9.3,15.8,17.4c0,11-18.6,18.8-18.6,18.8c13.6,0,68.1,0,79.7,0
			c24.2,0,36.8-18.3,36.8-18.3S149.2,12.4,141.4,12.4z"/>
		<path class="st3" d="M56.3,30.6C57.9,28.7,46,15,36.9,15c-10.4,0-22.5,8-22.5,8.1c-0.3,0.2,5.8,7.1,6.1,7.5
			c4.1,4.7,12.8,10.8,19.2,10.2C45.7,40.2,52.9,34.7,56.3,30.6z"/>
		<path class="st2" d="M130.1,46.5H39.9c-8.2,0-16.5-4.1-23.9-11.8C10.4,28.9,7.3,23.2,7.2,23C7,22.6,7,22.1,7.3,21.8
			C7.8,21.3,19.9,8.4,39.9,8.4h90.1c9.2,0,29.4,20.7,30.3,21.6c0.2,0.2,0.3,0.5,0.3,0.7c0,0.3-0.1,0.5-0.3,0.7
			C159.7,32,143.9,46.5,130.1,46.5z M9.3,22.6c2.2,3.7,13.9,21.8,30.6,21.8h90.1c11.4,0,24.8-11,28.1-13.8
			c-6.2-6.3-21.5-20.2-28.1-20.2H39.9C23,10.4,11.8,20.3,9.3,22.6z"/>
		<path class="st2" d="M40.6,46.5c-0.5,0-1-0.4-1-1c0-0.6,0.4-1,1-1c9.4-0.1,20.1-11.3,20-14.1c0-2.5-10.6-19.4-26.8-19.4
			c-0.1,0-0.2,0-0.3,0c-0.5,0-1-0.4-1-1c0-0.6,0.4-1,1-1c0.1,0,0.2,0,0.3,0c17.9,0,28.7,18.1,28.8,21.4
			C62.7,34.8,50.5,46.4,40.6,46.5C40.6,46.5,40.6,46.5,40.6,46.5z"/>
		<path class="st2" d="M142.5,17H50.6c-0.6,0-1-0.4-1-1s0.4-1,1-1h91.8c0.6,0,1,0.4,1,1S143,17,142.5,17z"/>
		<path class="st2" d="M150.1,22.7H56.5c-0.6,0-1-0.4-1-1s0.4-1,1-1h93.6c0.6,0,1,0.4,1,1S150.7,22.7,150.1,22.7z"/>
		<path class="st2" d="M156,28.4H60.4c-0.6,0-1-0.4-1-1s0.4-1,1-1H156c0.6,0,1,0.4,1,1S156.5,28.4,156,28.4z"/>
		<path class="st2" d="M156.9,34.1H60.6c-0.6,0-1-0.4-1-1s0.4-1,1-1h96.2c0.6,0,1,0.4,1,1S157.4,34.1,156.9,34.1z"/>
		<path class="st2" d="M148.9,39.8H55.4c-0.6,0-1-0.4-1-1s0.4-1,1-1h93.5c0.6,0,1,0.4,1,1S149.5,39.8,148.9,39.8z"/>
		<path class="st4" d="M14.6,23.3c0,0,9.5-2.9,22.2-1.6c9,0.9,19.5,8.9,19.5,8.9s-8-15.5-19.4-15.7C25.6,14.8,16.2,22,14.6,23.3z"/>
		<path class="st2" d="M39.4,41.2c-3.6,0-6.5-1.1-6.5-1.1c-9.2-3.6-18.6-15.6-19-16.1c-0.2-0.2-0.2-0.5-0.2-0.7s0.2-0.5,0.4-0.7
			c0.5-0.4,11.4-8.6,19.5-8.6c0.6,0,1,0.4,1,1s-0.4,1-1,1c-6.2,0-14.7,5.7-17.4,7.6c2.3,2.8,10.2,11.8,17.5,14.7
			c0.1,0,5.7,2.2,10.5,0.1c0.5-0.2,1.1,0,1.3,0.5s0,1.1-0.5,1.3C43.1,40.9,41.1,41.2,39.4,41.2z"/>
		<path class="st2" d="M47.9,38.9c-0.3,0-0.7-0.2-0.9-0.5c-0.3-0.5-0.1-1.1,0.4-1.4c4.7-2.7,7.1-5.7,7.9-6.8
			c-0.9-1.5-3.7-5.6-6.6-8.1C45,19,41.3,17,37.5,16.1c-0.5-0.1-0.9-0.7-0.7-1.2s0.7-0.9,1.2-0.7c4.1,1,8.1,3.1,12,6.5
			c3.9,3.3,7.2,8.9,7.4,9.1c0.2,0.3,0.2,0.7,0,1c-0.1,0.2-2.6,4.2-9,8C48.2,38.8,48.1,38.9,47.9,38.9z"/>
	</g>
</g>
</svg>
