<?xml version="1.0" encoding="utf-8"?>
<!-- Generator: Adobe Illustrator 16.0.0, SVG Export Plug-In . SVG Version: 6.00 Build 0)  -->
<!DOCTYPE svg PUBLIC "-//W3C//DTD SVG 1.1//EN" "http://www.w3.org/Graphics/SVG/1.1/DTD/svg11.dtd">
<svg version="1.1" id="圖層_1" xmlns="http://www.w3.org/2000/svg" xmlns:xlink="http://www.w3.org/1999/xlink" x="0px" y="0px"
	 width="253px" height="80.667px" viewBox="0 0 253 80.667" enable-background="new 0 0 253 80.667" xml:space="preserve">
<g>
	<g>
		<path opacity="0.8" fill="#BCD6D6" d="M192.762,39.007c9.654,0,19.223-0.383,28.793-1.086c3.955-0.291,7.895-0.687,11.744-1.285
			c3.074-0.476,11.084-2.107,11.084-4.104c0-2.431-7.283-3.483-10.342-3.77c-31.188-2.933-56.186-2.038-83.889,0.835
			c-7.396,0.766-29.309,3.833-29.309,3.833c14.061,3.047,34.672,4.182,49.545,5.024c0.025,0.002,16.506,0.457,16.533,0.458"/>
		<path opacity="0.8" fill="#BCD6D6" d="M114.1,36.175c-12.987,3.895-24.104,16.486-37.466,20.073
			c-15.172,4.075-32.325,2.269-47.83,0.902c-7.24-0.639-10.951-2.271-13.617-8.879c0.315-0.006,42.307,0.039,45.078-1.277
			c4.675-2.223,1.547-5.688-2.149-6.573c-8.314-1.995-37.744-2.4-43.476-2.528c-0.007-2.139,0.003-4.278,0.004-6.418
			c0.302-0.002,42.264-1.833,45.169-3.132c4.486-2.005,2.777-5.688-1.347-6.648c-8.145-1.896-37.658-0.725-43.462-0.61
			c0.474-3.876,2.139-6.894,5.904-8.662c4.651-2.184,10.431-1.869,15.46-2.151C47.086,9.67,57.962,8.458,68.68,9.647
			c4.186,0.464,8.223,1.693,11.999,3.479c1.534,0.725,3.055,1.647,4.557,2.671L114.1,36.175z"/>
		<path opacity="0.8" fill="#3E5256" d="M245.076,33.869c0,0.304-0.131,0.589-0.391,0.848c-3.148,3.144-39.062,7.973-54.742,7.954
			c-0.381,0-0.691-0.311-0.691-0.692c0-0.001,0-0.001,0-0.001c0.002-0.383,0.311-0.691,0.693-0.691
			c18.035,0.022,49.869-5.034,53.498-7.329c-3.121-1.526-22.58-5.065-47.672-6.002c-23.654-0.884-57.991,0.262-87.236,10.739
			c-5.722,2.05-10.374,6.12-14.872,10.055c-5.048,4.416-10.267,8.981-17.11,10.891c-13.937,3.889-29.83,2.418-43.851,1.121
			l-2.183-0.202c-6.889-0.63-10.886-2.236-13.616-9.269c-0.083-0.211-0.056-0.449,0.07-0.637c0.126-0.188,0.336-0.303,0.562-0.307
			c0.018,0,0.178,0,0.464,0c24.324-0.023,40.963-0.495,42.393-1.201c0.908-0.448,1.969-1.194,1.858-2.213
			c-0.129-1.203-1.788-2.535-3.777-3.031c-7.222-1.799-31.633-2.292-39.654-2.455l-1.811-0.037c-0.375-0.009-0.676-0.314-0.677-0.69
			c-0.004-1.338-0.001-2.677,0.002-4.016l0.003-2.369c0-0.377,0.302-0.685,0.68-0.692c1.854-0.057,40.473-1.897,42.959-3.051
			c1.47-0.683,2.225-1.594,2.132-2.563c-0.117-1.177-1.471-2.306-3.293-2.747c-6.66-1.612-28.665-0.96-38.061-0.683
			c-1.462,0.043-2.619,0.078-3.366,0.093c-0.2,0.004-0.393-0.079-0.527-0.228s-0.196-0.348-0.175-0.546
			c0.522-4.434,2.497-7.428,6.035-9.154c3.708-1.81,8.007-1.952,12.165-2.09c0.984-0.033,1.955-0.065,2.897-0.12
			c2.047-0.12,4.102-0.264,6.159-0.408c8.169-0.572,16.617-1.165,24.89-0.21c3.93,0.452,7.87,1.638,11.712,3.525
			c1.365,0.67,2.823,1.558,4.457,2.713c0.312,0.221,0.386,0.653,0.165,0.965s-0.653,0.386-0.965,0.166
			c-1.573-1.113-2.969-1.963-4.268-2.602c-3.699-1.817-7.488-2.958-11.26-3.393c-8.145-0.939-16.528-0.352-24.634,0.217
			c-2.063,0.144-4.123,0.289-6.175,0.409c-0.954,0.056-1.936,0.088-2.932,0.121c-4.012,0.133-8.161,0.271-11.604,1.951
			c-2.911,1.42-4.562,3.745-5.154,7.279c0.68-0.018,1.537-0.043,2.538-0.073c9.452-0.28,31.587-0.935,38.428,0.72
			c2.423,0.586,4.169,2.176,4.346,3.957c0.157,1.577-0.911,3.02-2.927,3.957c-2.77,1.286-37.517,2.916-42.838,3.151l-0.002,1.708
			c-0.002,1.11-0.003,2.221-0.003,3.333l1.132,0.024c8.06,0.163,32.588,0.658,39.961,2.495c2.229,0.557,4.6,2.187,4.819,4.227
			c0.107,1-0.26,2.438-2.622,3.604c-2.27,1.12-27.282,1.324-42.424,1.342c2.46,5.629,5.808,6.878,12.064,7.451l2.184,0.201
			c13.902,1.285,29.66,2.744,43.352-1.076c6.54-1.824,11.639-6.285,16.57-10.6c4.596-4.02,9.347-8.177,15.316-10.316
			c55.024-19.712,131.459-7.913,136.495-4.368C244.902,33.262,245.076,33.546,245.076,33.869z"/>
		<path opacity="0.8" fill="#3E5256" d="M184.477,41.999c0,0.022,0,0.045-0.002,0.066c-0.037,0.381-0.375,0.66-0.756,0.624
			c-0.129-0.005-9.01-0.341-13.781-0.521c-2.115-0.08-3.613-0.137-3.621-0.137l-0.707-0.055c-15.625-1.21-37.024-2.868-51.706-7.216
			c-6.958-2.061-12.996-4.712-20.188-8.867c-1.328-0.767-2.662-1.606-4.074-2.495l-0.7-0.44c-0.324-0.204-0.421-0.631-0.218-0.954
			c0.203-0.324,0.631-0.422,0.954-0.218l0.701,0.441c1.401,0.882,2.723,1.714,4.028,2.468c7.093,4.096,13.041,6.709,19.89,8.738
			c14.542,4.306,35.857,5.958,51.42,7.164l0.686,0.053c0.014,0,1.498,0.056,3.588,0.135c13.82,0.522,13.828,0.522,13.859,0.525
			C184.209,41.344,184.477,41.646,184.477,41.999z"/>
	</g>
	<g>
		<polygon fill="#F5D069" points="21.71,48.655 23.471,41.67 25.458,41.67 24.672,48.502 		"/>
		<polygon fill="#F5D069" points="23.584,31.592 24.751,24.608 26.067,24.608 25.547,31.441 		"/>
		<path opacity="0.8" fill="#3E5256" d="M23.967,41.92c0,0.02,0,0.038-0.002,0.057c-0.561,6.903-0.749,6.908-1.448,6.93
			c-0.382,0.012-0.702-0.289-0.713-0.671c-0.009-0.155,0.041-0.294,0.121-0.411c0.16-0.605,0.456-3.439,0.661-5.959
			c0.031-0.381,0.365-0.666,0.746-0.635C23.693,41.26,23.967,41.564,23.967,41.92z"/>
		<path opacity="0.8" fill="#3E5256" d="M25.172,25c0,0.014,0,0.028-0.001,0.043c-0.55,8.897-0.686,8.903-1.442,8.934
			c-0.382,0.016-0.705-0.282-0.72-0.664c-0.003-0.145,0.031-0.273,0.098-0.384c0.162-0.701,0.469-4.53,0.681-7.97
			c0.024-0.382,0.352-0.672,0.734-0.648C24.89,24.332,25.172,24.637,25.172,25z"/>
		<g>
			<path fill="#F5D069" d="M31.307,20.12c0.828-0.053,1.535,0.347,1.577,0.896c0,0,4.01,9.363,4.875,20.236
				c0.819,10.287-1.622,21.385-1.622,21.385c0.042,0.547-0.595,1.033-1.423,1.086l0,0c-0.83,0.055-1.536-0.35-1.578-0.896
				c0,0,1.963-12.847,1.41-21.338c-0.56-8.581-4.663-20.281-4.663-20.281C29.84,20.659,30.478,20.171,31.307,20.12L31.307,20.12z"/>
			<path opacity="0.8" fill="#3E5256" d="M38.619,45.7c0,8.296-1.599,16.107-1.788,17.002c-0.009,0.902-0.897,1.638-2.073,1.713
				c-1.225,0.08-2.241-0.595-2.312-1.535c-0.004-0.052-0.002-0.105,0.005-0.157c0.016-0.099,1.5-9.914,1.5-17.921V44.8
				c0-1.183-0.033-2.28-0.097-3.267c-0.546-8.385-4.584-19.98-4.625-20.096c-0.02-0.057-0.032-0.116-0.037-0.176
				c-0.001-0.018-0.004-0.087-0.004-0.105c0-0.911,0.892-1.654,2.076-1.728c1.166-0.074,2.143,0.535,2.294,1.406
				c0.414,0.998,4.072,10.069,4.891,20.363C38.562,42.616,38.619,44.13,38.619,45.7z M35.445,62.631
				c0-0.048,0.005-0.094,0.016-0.143c0.018-0.081,1.774-8.172,1.774-16.789c0-1.533-0.056-3.011-0.166-4.393
				c-0.846-10.637-4.781-19.926-4.821-20.019c-0.03-0.07-0.048-0.144-0.054-0.22c-0.022-0.071-0.32-0.292-0.842-0.258
				c-0.445,0.027-0.7,0.222-0.763,0.317c0.5,1.447,4.117,12.161,4.649,20.316c0.066,1.016,0.1,2.145,0.1,3.356v0.001
				c0,7.601-1.317,16.784-1.496,17.996c0.068,0.087,0.358,0.266,0.829,0.234c0.494-0.031,0.76-0.264,0.778-0.348
				C35.445,62.667,35.445,62.649,35.445,62.631z"/>
		</g>
		<g>
			<path fill="#F5D069" d="M63.979,12.434c0.971-0.151,1.849,0.244,1.958,0.886c0,0,5.754,10.608,7.964,23.34
				c2.091,12.046,0.425,25.405,0.425,25.405c0.11,0.642-0.588,1.285-1.56,1.439l0,0c-0.972,0.152-1.85-0.246-1.959-0.887
				c0,0,0.911-15.371-0.671-25.328c-1.599-10.061-7.719-23.415-7.719-23.415C62.307,13.231,63.005,12.586,63.979,12.434
				L63.979,12.434z"/>
			<path opacity="0.8" fill="#3E5256" d="M75.648,50.34c0,6.172-0.541,11.02-0.624,11.723c0.094,1-0.841,1.918-2.149,2.125
				c-1.367,0.215-2.574-0.424-2.75-1.455c-0.009-0.051-0.013-0.104-0.008-0.157c0.002-0.044,0.259-4.45,0.259-9.982
				c0-0.001,0-0.001,0-0.001c0-6.226-0.311-11.338-0.923-15.194c-1.564-9.85-7.604-23.103-7.665-23.235
				c-0.025-0.055-0.042-0.112-0.053-0.171c-0.182-1.05,0.776-2.03,2.136-2.242c1.308-0.204,2.472,0.374,2.721,1.328
				c0.557,1.055,5.893,11.375,7.991,23.463C75.291,40.609,75.648,45.251,75.648,50.34z M73.636,62.064
				c0-0.03,0.001-0.058,0.005-0.085c0.006-0.049,0.623-5.08,0.623-11.639c0-5.01-0.351-9.572-1.044-13.562
				c-2.164-12.465-7.834-23.022-7.891-23.128c-0.036-0.066-0.061-0.138-0.074-0.213c-0.028-0.167-0.506-0.422-1.169-0.318
				c-0.609,0.095-0.944,0.416-0.982,0.589c0.617,1.371,6.204,13.946,7.718,23.474c0.624,3.928,0.94,9.113,0.94,15.41
				c0,0.001,0,0.001,0,0.002c0,5.074-0.215,9.214-0.255,9.948c0.09,0.166,0.544,0.375,1.154,0.278
				c0.647-0.103,0.986-0.459,0.986-0.621C73.639,62.159,73.636,62.11,73.636,62.064z"/>
		</g>
		<g>
			<path fill="#F5D069" d="M41.122,15.896c-0.087-0.979,0.366-1.828,1.014-1.896c0,0,10.968-5.034,23.819-6.39
				c12.16-1.283,25.378,1.271,25.378,1.271c0.647-0.068,1.243,0.672,1.332,1.652l0,0c0.087,0.979-0.368,1.829-1.015,1.896
				c0,0-15.275-1.935-25.316-1.021c-10.145,0.925-23.878,6.14-23.878,6.14C41.806,17.618,41.208,16.878,41.122,15.896L41.122,15.896
				z"/>
			<path opacity="0.8" fill="#3E5256" d="M93.367,10.774c0,1.259-0.692,2.245-1.646,2.345c-0.053,0.006-0.106,0.005-0.159-0.001
				c-0.152-0.019-15.317-1.915-25.167-1.018c-9.932,0.905-23.559,6.045-23.695,6.097c-0.056,0.021-0.114,0.035-0.173,0.041
				c-0.415,0.044-0.836-0.091-1.188-0.379c-0.507-0.417-0.838-1.11-0.909-1.9c-0.121-1.337,0.545-2.444,1.506-2.627
				c1.088-0.485,11.743-5.12,23.944-6.408c11.609-1.225,24.322,1.046,25.496,1.264c0.375-0.009,0.75,0.126,1.066,0.387
				c0.507,0.417,0.838,1.109,0.91,1.9C93.363,10.575,93.367,10.675,93.367,10.774z M91.619,11.729
				c0.159-0.077,0.412-0.512,0.355-1.133c-0.044-0.491-0.249-0.821-0.41-0.954c-0.036-0.029-0.104-0.078-0.16-0.072
				c-0.068,0.007-0.136,0.004-0.203-0.009C91.07,9.536,77.94,7.042,66.027,8.299c-12.592,1.329-23.494,6.28-23.603,6.33
				c-0.069,0.031-0.142,0.052-0.217,0.06c-0.15,0.016-0.458,0.467-0.396,1.146c0.043,0.491,0.248,0.82,0.409,0.953
				c0.026,0.021,0.069,0.053,0.113,0.066c1.408-0.524,14.329-5.259,23.936-6.135C75.806,9.852,90.171,11.552,91.619,11.729z"/>
		</g>
		<g>
			<path fill="#F5D069" d="M35.726,6c0.828-0.051,1.546,0.498,1.602,1.233c0,0,4.257,12.591,5.404,27.131
				c1.085,13.759-1.075,28.526-1.075,28.526c0.056,0.733-0.569,1.369-1.397,1.422l0,0c-0.83,0.055-1.547-0.5-1.604-1.232
				c0,0,1.636-17.115,0.864-28.47c-0.78-11.472-5.192-27.188-5.192-27.188C34.271,6.689,34.896,6.051,35.726,6L35.726,6z"/>
			<path opacity="0.8" fill="#3E5256" d="M43.729,42.647c0,10.258-1.252,19.395-1.376,20.275c0.025,1.074-0.877,2.007-2.048,2.082
				c-1.203,0.078-2.252-0.76-2.339-1.87c-0.003-0.04-0.002-0.079,0.001-0.12c0.011-0.111,1.067-11.288,1.067-21.425
				c0-0.001,0-0.001,0-0.002c0-2.592-0.069-4.923-0.206-6.93C38.062,23.388,33.704,7.766,33.66,7.61
				c-0.012-0.044-0.021-0.089-0.024-0.135c-0.088-1.128,0.845-2.091,2.046-2.166c1.169-0.073,2.191,0.718,2.326,1.777
				c0.354,1.072,4.319,13.344,5.414,27.224C43.625,36.894,43.729,39.698,43.729,42.647z M40.965,62.907
				c0-0.041,0.002-0.086,0.007-0.115c0.013-0.094,1.372-9.511,1.372-20.145c0-2.913-0.102-5.681-0.303-8.228
				c-1.126-14.281-5.327-26.839-5.37-26.964c-0.019-0.055-0.03-0.112-0.034-0.169c-0.027-0.351-0.425-0.623-0.869-0.595
				c-0.416,0.026-0.743,0.299-0.753,0.625c0.343,1.24,4.447,16.26,5.194,27.248c0.139,2.037,0.209,4.4,0.209,7.022
				c0,0.002,0,0.002,0,0.003c0,9.772-0.975,20.495-1.067,21.484c0.057,0.329,0.439,0.576,0.863,0.548
				c0.423-0.027,0.753-0.307,0.753-0.639C40.966,62.961,40.965,62.935,40.965,62.907z"/>
		</g>
		<g>
			<path fill="#F5D069" d="M23.096,10.012c0.831-0.034,1.531,0.445,1.561,1.071c0,0,3.81,10.768,4.435,23.145
				c0.591,11.71-2.105,24.229-2.105,24.229c0.03,0.625-0.62,1.153-1.451,1.185l0,0c-0.833,0.031-1.531-0.446-1.562-1.071
				c0,0,2.256-14.521,1.892-24.183c-0.369-9.764-4.222-23.192-4.222-23.192C21.614,10.574,22.262,10.041,23.096,10.012
				L23.096,10.012z"/>
			<path opacity="0.8" fill="#3E5256" d="M29.868,37.708c0,10.048-1.988,19.849-2.189,20.817c-0.016,0.973-0.941,1.764-2.118,1.809
				c-1.228,0.045-2.229-0.714-2.279-1.729c-0.003-0.048,0-0.094,0.007-0.141c0.019-0.125,1.923-12.493,1.923-21.842c0,0,0,0,0,0
				c0-0.758-0.012-1.497-0.04-2.209c-0.361-9.569-4.157-22.894-4.195-23.027c-0.015-0.052-0.023-0.105-0.026-0.159
				c0-0.011-0.002-0.062-0.002-0.073c0-0.988,0.933-1.794,2.123-1.835c1.18-0.048,2.152,0.654,2.266,1.617
				c0.359,1.048,3.851,11.5,4.444,23.256C29.839,35.318,29.868,36.5,29.868,37.708z M24.672,58.579
				c0.053,0.176,0.373,0.389,0.837,0.371c0.479-0.018,0.786-0.279,0.786-0.45c0-0.049,0.004-0.14,0.014-0.188
				c0.022-0.101,2.175-10.223,2.175-20.603c0-1.185-0.028-2.344-0.083-3.445c-0.613-12.135-4.358-22.842-4.396-22.949
				c-0.022-0.063-0.036-0.13-0.039-0.198c-0.009-0.177-0.348-0.432-0.841-0.412c-0.447,0.015-0.743,0.24-0.785,0.411
				c0.369,1.312,3.867,13.979,4.217,23.247c0.027,0.729,0.04,1.485,0.04,2.261c0,0,0,0,0,0
				C26.597,45.634,24.853,57.383,24.672,58.579z"/>
		</g>
		<g>
			<path fill="#F5D069" d="M63.672,8.462c0,0,2.613,16.661,2.056,28.57c-0.483,10.323-3.474,24.188-4.177,27.663l-2.441-1.688
				c0,0-1.115,4.277,0.623,5.656c0.955,0.756,3.564,1.08,4.11-0.424c0.109-0.301,0.172-0.589,0.216-0.863
				c0.298-0.24,0.494-0.584,0.508-0.974c0,0,3.917-14.996,4.436-29.29c0.548-15.108-2.274-28.532-2.274-28.532
				c0.029-0.761-0.633-1.404-1.476-1.436C64.408,7.112,63.701,7.703,63.672,8.462z"/>
			<path opacity="0.8" fill="#3E5256" d="M69.765,33.194c0,1.298-0.022,2.615-0.07,3.945c-0.518,14.286-4.419,29.29-4.458,29.44
				c-0.031,0.116-0.058,0.235-0.085,0.353c-0.131,0.57-0.28,1.218-0.802,1.779c-1.222,1.308-2.712,1.58-4.313,0.787
				c-1.584-0.785-2.9-3.045-2.274-6.326c0.072-0.375,0.435-0.621,0.81-0.55s0.619,0.433,0.55,0.81
				c-0.488,2.553,0.45,4.291,1.528,4.826c1.053,0.521,1.881,0.369,2.686-0.49c0.269-0.289,0.355-0.668,0.465-1.146
				c0.03-0.131,0.061-0.262,0.095-0.393c0.039-0.15,3.903-15.049,4.414-29.14c0.54-14.842-2.232-28.231-2.26-28.365
				c-0.012-0.056-0.015-0.113-0.015-0.169c0.014-0.393-0.35-0.7-0.811-0.718c-0.25-0.01-0.488,0.073-0.655,0.227
				c-0.082,0.076-0.179,0.2-0.202,0.372c0.195,1.275,2.583,17.208,2.051,28.63c-0.549,11.708-4.546,28.423-4.586,28.589
				c-0.089,0.372-0.463,0.602-0.835,0.512c-0.372-0.09-0.601-0.465-0.511-0.836c0.04-0.166,4.006-16.754,4.549-28.33
				c0.547-11.702-2.022-28.265-2.048-28.431c-0.007-0.044-0.01-0.088-0.008-0.134c0.02-0.526,0.251-1.02,0.65-1.389
				c0.435-0.401,1.036-0.618,1.649-0.593c1.19,0.046,2.131,0.962,2.141,2.062C67.627,9.53,69.765,20.4,69.765,33.194z"/>
		</g>
		<g>
			<path fill="#F5D069" d="M51.062,63.423c0,0,7.752-14.837,10.937-26.213c2.759-9.861,4.369-25.422,4.771-28.913l-2.509-0.209
				c0,0-0.517-2.211,1.604-2.955c1.446-0.507,2.694,0.806,3.336,2.004c0.895,1.667,0.716,4.069,0.541,5.812
				c-0.159,1.582-0.312,3.16-0.512,4.737c-0.542,4.268-1.198,8.521-2.095,12.731c-0.557,2.605-1.181,5.198-1.926,7.757
				c-4.196,14.382-11.14,26.106-11.14,26.106c-0.21,0.726-1.054,1.12-1.886,0.883C51.354,64.926,50.85,64.147,51.062,63.423z"/>
			<path opacity="0.8" fill="#3E5256" d="M70.482,10.342c0,1.068-0.123,2.111-0.227,2.997l-0.218,1.877
				c-0.474,4.099-0.964,8.338-1.689,12.489c-0.627,3.593-1.46,7.18-2.475,10.662C61.868,52.1,55.284,63.57,54.705,64.564
				c-0.355,1.031-1.549,1.597-2.711,1.266c-0.612-0.176-1.129-0.579-1.42-1.108c-0.258-0.469-0.321-0.998-0.175-1.494
				c0.013-0.043,0.03-0.084,0.051-0.125c0.077-0.147,7.755-14.903,10.883-26.079c3.094-11.056,4.427-27.913,4.44-28.082
				c0.03-0.381,0.363-0.667,0.744-0.637c0.381,0.029,0.668,0.355,0.637,0.744c-0.013,0.17-1.356,17.161-4.487,28.348
				C59.614,48.3,52.312,62.515,51.714,63.669c-0.029,0.158,0.021,0.294,0.072,0.385c0.114,0.208,0.329,0.369,0.588,0.443
				c0.455,0.13,0.927-0.058,1.03-0.409c0.016-0.057,0.04-0.111,0.069-0.16c0.069-0.117,6.949-11.822,11.07-25.948
				c1-3.433,1.822-6.969,2.441-10.512c0.717-4.112,1.205-8.331,1.677-12.41l0.218-1.88c0.279-2.375,0.662-5.629-1.485-7.167
				c-0.513-0.369-1.056-0.456-1.569-0.252c-0.662,0.263-1.178,0.965-1.346,1.832c-0.073,0.376-0.436,0.621-0.812,0.548
				c-0.375-0.073-0.62-0.438-0.547-0.812C63.379,6,64.22,4.906,65.315,4.471c0.959-0.381,1.985-0.234,2.887,0.414
				C70.042,6.203,70.482,8.319,70.482,10.342z"/>
		</g>
		<g>
			<path fill="#F5D069" d="M39.818,59.563c0,0,7.522-14.506,10.53-25.58c2.606-9.599,3.974-24.695,4.321-28.082l-2.511-0.157
				c0,0-0.552-2.13,1.559-2.89c1.438-0.517,2.706,0.731,3.367,1.88c0.919,1.597,0.778,3.926,0.631,5.617
				c-0.135,1.535-0.263,3.066-0.439,4.597c-0.476,4.142-1.065,8.272-1.897,12.364c-0.515,2.533-1.099,5.053-1.805,7.546
				C49.601,48.86,42.838,60.34,42.838,60.34c-0.199,0.707-1.036,1.104-1.871,0.889C40.133,61.014,39.618,60.27,39.818,59.563z"/>
			<path opacity="0.8" fill="#3E5256" d="M58.416,8.029c0,0.961-0.098,1.895-0.183,2.696l-0.186,1.795
				c-0.411,3.987-0.836,8.11-1.498,12.153c-0.573,3.496-1.35,6.985-2.31,10.373c-3.79,13.362-10.19,24.583-10.763,25.575
				c-0.342,1.004-1.521,1.576-2.68,1.279c-0.625-0.161-1.153-0.553-1.453-1.073c-0.26-0.453-0.328-0.97-0.19-1.453
				c0.013-0.045,0.03-0.088,0.051-0.13c0.075-0.145,7.523-14.568,10.477-25.443c2.921-10.76,3.991-27.098,4.001-27.262
				c0.024-0.381,0.354-0.671,0.735-0.647c0.382,0.024,0.674,0.344,0.646,0.735c-0.01,0.165-1.089,16.643-4.047,27.537
				c-2.878,10.6-9.944,24.473-10.543,25.639c-0.02,0.136,0.025,0.255,0.071,0.333c0.114,0.2,0.332,0.354,0.596,0.422
				c0.463,0.119,0.936-0.068,1.031-0.406c0.016-0.058,0.04-0.113,0.07-0.164c0.067-0.115,6.766-11.57,10.666-25.319
				c0.946-3.337,1.711-6.775,2.275-10.22c0.655-4.002,1.079-8.104,1.487-12.071l0.187-1.798c0.241-2.294,0.573-5.438-1.586-6.881
				c-0.531-0.355-1.088-0.426-1.61-0.206c-0.644,0.272-1.139,0.953-1.29,1.776c-0.069,0.376-0.43,0.625-0.806,0.556
				c-0.376-0.069-0.626-0.431-0.556-0.806c0.234-1.277,1.044-2.35,2.113-2.802c0.958-0.405,1.995-0.287,2.918,0.331
				C57.977,3.843,58.416,5.998,58.416,8.029z"/>
		</g>
		<g>
			<path fill="#F5D069" d="M26.917,10.429c0.831-0.035,1.528,0.396,1.556,0.961c0,0,3.764,9.725,4.337,20.917
				c0.542,10.589-2.206,21.923-2.206,21.923c0.027,0.566-0.625,1.047-1.457,1.078l0,0c-0.833,0.033-1.528-0.397-1.557-0.963
				c0,0,2.316-13.145,1.993-21.881c-0.328-8.83-4.124-20.959-4.124-20.959C25.433,10.943,26.083,10.458,26.917,10.429L26.917,10.429
				z"/>
			<path opacity="0.8" fill="#3E5256" d="M33.573,35.17c0,9.266-2.1,18.389-2.283,19.17c-0.081,0.939-0.964,1.617-2.116,1.66
				c-1.226,0.049-2.226-0.662-2.274-1.619c-0.003-0.053,0-0.104,0.009-0.155c0.021-0.114,2.013-11.524,2.013-19.997c0,0,0,0,0-0.001
				c0-0.595-0.01-1.175-0.031-1.738c-0.32-8.633-4.055-20.658-4.093-20.778c-0.018-0.057-0.028-0.115-0.031-0.174
				c0,0,0-0.001,0-0.002c0-0.995,0.934-1.756,2.125-1.798c1.171-0.049,2.136,0.598,2.26,1.494
				c0.381,1.018,3.806,10.438,4.349,21.042C33.548,33.202,33.573,34.177,33.573,35.17z M28.293,54.343
				c0.061,0.101,0.354,0.292,0.827,0.274c0.538-0.021,0.792-0.288,0.792-0.352c0-0.055,0.005-0.145,0.019-0.197
				c0.022-0.094,2.257-9.427,2.257-18.899c0-0.97-0.023-1.92-0.07-2.827c-0.561-10.956-4.254-20.607-4.292-20.703
				c-0.026-0.069-0.042-0.142-0.046-0.216c-0.003-0.082-0.316-0.326-0.834-0.304c-0.472,0.017-0.726,0.223-0.783,0.318
				c0.444,1.443,3.799,12.587,4.112,21c0.021,0.579,0.031,1.177,0.031,1.789c0,0,0,0.001,0,0.001
				C30.306,42.344,28.511,53.073,28.293,54.343z"/>
		</g>
		<g>
			<path fill="#F5D069" d="M39.082,9.216c0.702-0.197,1.38,0.026,1.512,0.501c0,0,5.093,7.514,7.75,16.928
				c2.516,8.911,2.375,19.123,2.375,19.123c0.132,0.475-0.329,1.021-1.03,1.218l0,0c-0.703,0.198-1.381-0.028-1.514-0.503
				c0,0-0.576-11.668-2.545-19.043c-1.992-7.454-7.577-17.008-7.577-17.008C37.917,9.957,38.378,9.412,39.082,9.216L39.082,9.216z"
				/>
			<path opacity="0.8" fill="#3E5256" d="M51.433,45.935c0,0.753-0.641,1.459-1.558,1.718c-0.603,0.17-1.218,0.117-1.686-0.145
				c-0.342-0.191-0.584-0.49-0.682-0.838c-0.014-0.051-0.022-0.102-0.025-0.153c-0.005-0.116-0.596-11.681-2.523-18.899
				c-1.945-7.28-7.45-16.743-7.505-16.837c-0.03-0.051-0.053-0.106-0.069-0.163c-0.233-0.838,0.446-1.773,1.512-2.07
				c0.605-0.17,1.221-0.117,1.688,0.146c0.299,0.168,0.521,0.418,0.636,0.713c0.552,0.836,5.279,8.15,7.79,17.049
				c2.286,8.097,2.402,17.257,2.402,19.011l-0.001,0.226C51.425,45.773,51.433,45.854,51.433,45.935z M48.857,46.307
				c0.072,0.039,0.314,0.105,0.641,0.012c0.354-0.099,0.527-0.302,0.548-0.381c-0.015-0.059-0.02-0.127-0.021-0.179l0.001-0.291
				c0-1.722-0.113-10.713-2.35-18.634c-2.596-9.201-7.605-16.654-7.656-16.728c-0.042-0.062-0.074-0.131-0.094-0.204
				c-0.036-0.032-0.294-0.122-0.657-0.02c-0.314,0.087-0.486,0.256-0.535,0.348c0.741,1.283,5.681,9.989,7.562,17.03
				C48.168,34.272,48.783,44.897,48.857,46.307z"/>
		</g>
		<g>
			<path fill="#F5D069" d="M46.414,6.399c0.813-0.158,1.617,0.323,1.792,1.082c0,0,6.292,12.594,9.82,27.622
				c3.34,14.22,3.627,29.911,3.627,29.911c0.177,0.756-0.34,1.5-1.15,1.661l0,0c-0.814,0.163-1.619-0.323-1.794-1.079
				c0,0-1.195-18.074-3.828-29.824c-2.661-11.874-9.619-27.708-9.619-27.708C45.087,7.305,45.602,6.56,46.414,6.399L46.414,6.399z"
				/>
			<path opacity="0.8" fill="#3E5256" d="M62.381,65.313c0,0.982-0.733,1.84-1.743,2.041c-1.176,0.234-2.344-0.484-2.603-1.602
				c-0.009-0.037-0.014-0.074-0.017-0.111c-0.012-0.18-1.222-18.156-3.812-29.717c-2.616-11.67-9.508-27.423-9.578-27.58
				c-0.017-0.04-0.031-0.081-0.041-0.123C44.328,7.1,45.113,5.951,46.28,5.72c1.147-0.223,2.283,0.455,2.579,1.519
				c0.501,1.021,6.467,13.335,9.842,27.706c3.207,13.656,3.617,28.849,3.644,29.99C62.369,65.059,62.381,65.186,62.381,65.313z
				 M59.396,65.483c0.113,0.365,0.546,0.598,0.972,0.514c0.416-0.083,0.699-0.453,0.611-0.824c-0.011-0.047-0.018-0.096-0.019-0.145
				c-0.002-0.157-0.325-15.785-3.608-29.767c-3.47-14.778-9.703-27.346-9.766-27.471c-0.024-0.049-0.043-0.1-0.056-0.153
				c-0.089-0.389-0.541-0.645-0.985-0.558c-0.395,0.078-0.67,0.42-0.619,0.778c0.509,1.17,7.075,16.366,9.629,27.764
				C58.091,46.928,59.312,64.263,59.396,65.483z"/>
		</g>
		<g>
			<path fill="#F5D069" d="M52.104,5.555c0.813-0.158,1.611,0.3,1.78,1.029c0,0,6.183,12.097,9.589,26.561
				c3.223,13.687,3.387,28.816,3.387,28.816c0.17,0.728-0.352,1.449-1.162,1.61l0,0c-0.814,0.163-1.613-0.299-1.782-1.026
				c0,0-1.052-17.42-3.588-28.73c-2.564-11.43-9.386-26.645-9.386-26.645C50.771,6.441,51.291,5.717,52.104,5.555L52.104,5.555z"/>
			<path opacity="0.8" fill="#3E5256" d="M67.585,62.239c0,0.964-0.736,1.811-1.751,2.012c-1.175,0.236-2.339-0.458-2.592-1.549
				c-0.009-0.037-0.014-0.076-0.017-0.115c-0.011-0.173-1.078-17.495-3.573-28.619C57.134,22.738,50.378,7.606,50.31,7.455
				c-0.018-0.041-0.033-0.083-0.042-0.126c-0.254-1.088,0.532-2.219,1.701-2.452c1.145-0.223,2.274,0.429,2.567,1.462
				c0.507,1.011,6.357,12.83,9.611,26.648c3.093,13.133,3.387,27.766,3.405,28.899C67.574,62.002,67.585,62.12,67.585,62.239z
				 M64.603,62.433c0.109,0.337,0.535,0.545,0.959,0.46c0.419-0.082,0.701-0.429,0.624-0.774c-0.012-0.05-0.018-0.099-0.019-0.149
				c-0.001-0.151-0.202-15.215-3.369-28.666c-3.348-14.218-9.47-26.284-9.532-26.404c-0.025-0.05-0.045-0.104-0.058-0.159
				c-0.083-0.361-0.529-0.592-0.974-0.506c-0.394,0.079-0.672,0.395-0.63,0.728c0.52,1.169,6.939,15.744,9.397,26.702
				C63.441,44.534,64.526,61.206,64.603,62.433z"/>
		</g>
		<g>
			<path fill="#F5D069" d="M62.545,6.956c0.792,0.249,1.287,1.049,1.101,1.794c0,0-0.101,13.971-3.746,28.758
				c-3.45,13.99-10.268,27.817-10.268,27.817c-0.185,0.744-0.978,1.149-1.769,0.905l0,0c-0.795-0.245-1.289-1.051-1.103-1.793
				c0,0,7.087-16.338,10.05-27.836c2.993-11.623,3.963-28.738,3.963-28.738C60.958,7.118,61.751,6.711,62.545,6.956L62.545,6.956z"
				/>
			<path opacity="0.8" fill="#3E5256" d="M64.377,8.43c0,0.135-0.014,0.27-0.04,0.401c-0.016,1.136-0.28,14.705-3.765,28.843
				c-3.312,13.43-9.792,26.874-10.29,27.896c-0.144,0.492-0.467,0.9-0.919,1.155c-0.505,0.284-1.126,0.345-1.705,0.165
				c-1.124-0.346-1.84-1.536-1.57-2.622c0.01-0.036,0.022-0.072,0.037-0.107c0.071-0.163,7.1-16.42,10.015-27.733
				c2.942-11.425,3.933-28.434,3.942-28.604c0.003-0.043,0.009-0.086,0.02-0.128c0.132-0.528,0.467-0.966,0.943-1.235
				c0.504-0.285,1.125-0.345,1.705-0.167C63.709,6.596,64.377,7.474,64.377,8.43z M47.413,64.756c0,0.354,0.275,0.695,0.653,0.812
				c0.217,0.067,0.442,0.049,0.616-0.049c0.099-0.057,0.228-0.164,0.277-0.361c0.012-0.048,0.029-0.095,0.051-0.139
				c0.068-0.139,6.825-13.924,10.217-27.677c3.582-14.533,3.725-28.459,3.726-28.598c0-0.055,0.007-0.11,0.021-0.164
				c0.098-0.385-0.201-0.829-0.637-0.965c-0.214-0.066-0.438-0.048-0.613,0.05c-0.091,0.051-0.207,0.147-0.265,0.314
				c-0.077,1.275-1.106,17.639-3.979,28.793c-2.849,11.062-9.574,26.754-10.058,27.877C47.416,64.685,47.413,64.721,47.413,64.756z"
				/>
		</g>
		<g>
			<path fill="#F5D069" d="M50.724,16.068c0,0,0.797,15.063-1.043,25.594c-1.596,9.13-6.066,21.161-7.14,24.181l-2.244-1.74
				c0,0-1.571,3.693,0.008,5.089c0.868,0.767,3.427,1.31,4.131,0.024c0.141-0.256,0.235-0.506,0.308-0.745
				c0.323-0.185,0.555-0.471,0.611-0.815c0,0,5.514-12.945,7.574-25.602c2.177-13.374,0.82-25.581,0.82-25.581
				c0.111-0.673-0.477-1.311-1.312-1.421C51.601,14.939,50.833,15.395,50.724,16.068z"/>
			<path opacity="0.8" fill="#3E5256" d="M54.852,25.865c0,4.562-0.27,10.332-1.241,16.299c-2.07,12.719-7.566,25.633-7.621,25.763
				c-0.042,0.099-0.081,0.2-0.121,0.301c-0.196,0.507-0.418,1.079-1.012,1.536c-1.336,1.029-2.828,1.126-4.312,0.277
				c-1.517-0.867-2.598-3.05-1.6-5.967c0.124-0.361,0.518-0.555,0.88-0.431c0.361,0.124,0.553,0.519,0.431,0.88
				c-0.744,2.168-0.045,3.73,0.977,4.316c1.015,0.579,1.872,0.525,2.781-0.174c0.287-0.221,0.41-0.538,0.566-0.939
				c0.044-0.114,0.089-0.229,0.138-0.344c0.055-0.129,5.498-12.967,7.528-25.44c2.136-13.129,0.828-25.273,0.815-25.394
				c-0.007-0.063-0.005-0.127,0.004-0.189c0.015-0.093-0.012-0.191-0.083-0.288c-0.129-0.173-0.367-0.299-0.636-0.334
				c-0.467-0.062-0.843,0.148-0.925,0.391c0.064,1.316,0.699,15.607-1.058,25.653c-1.813,10.367-7.596,24.843-7.654,24.988
				c-0.143,0.354-0.546,0.527-0.901,0.385c-0.354-0.143-0.527-0.545-0.384-0.901c0.058-0.144,5.787-14.486,7.575-24.711
				c1.806-10.333,1.042-25.288,1.034-25.438c-0.003-0.05,0-0.1,0.008-0.148c0.17-1.039,1.286-1.752,2.488-1.591
				c0.642,0.085,1.212,0.407,1.565,0.883c0.272,0.368,0.394,0.804,0.352,1.233C54.505,17.074,54.852,20.693,54.852,25.865z"/>
		</g>
		<g>
			<path fill="#F5D069" d="M43.885,25.684c0.826,0.076,1.478,0.542,1.455,1.045c0,0,2.88,9.073,2.479,19.054
				c-0.38,9.443-4.076,19.141-4.076,19.141c-0.021,0.502-0.708,0.85-1.529,0.776l0,0c-0.827-0.073-1.48-0.544-1.458-1.044
				c0,0,3.423-11.355,3.859-19.131c0.44-7.859-2.262-19.064-2.262-19.064C42.375,25.958,43.061,25.61,43.885,25.684L43.885,25.684z"
				/>
			<path opacity="0.8" fill="#3E5256" d="M48.549,43.846c0,0.65-0.012,1.305-0.039,1.965c-0.361,8.974-3.721,18.279-4.088,19.273
				c-0.046,0.305-0.205,0.589-0.457,0.811c-0.425,0.373-1.103,0.559-1.813,0.495c-1.19-0.105-2.089-0.84-2.089-1.708
				c0-0.067,0.011-0.161,0.03-0.226c0.034-0.113,3.405-11.368,3.83-18.97c0.032-0.562,0.047-1.163,0.047-1.787
				c0-7.488-2.268-16.98-2.291-17.076c-0.015-0.063-0.021-0.128-0.019-0.193c0.016-0.356,0.184-0.691,0.474-0.945
				c0.432-0.377,1.092-0.556,1.812-0.491c1.149,0.105,2.025,0.796,2.082,1.624C46.316,27.564,48.549,35.205,48.549,43.846z
				 M41.463,64.707c0.072,0.072,0.354,0.264,0.81,0.304c0.476,0.043,0.751-0.113,0.793-0.172c0.002-0.074,0.002-0.091,0.029-0.161
				c0.037-0.096,3.66-9.706,4.031-18.921c0.392-9.761-2.421-18.734-2.447-18.817c-0.024-0.078-0.036-0.156-0.032-0.241
				c-0.031-0.05-0.32-0.277-0.826-0.324c-0.39-0.035-0.646,0.064-0.748,0.133c0.335,1.447,2.281,10.165,2.281,17.193
				c0,0.65-0.017,1.277-0.049,1.864C44.893,52.941,41.886,63.283,41.463,64.707z"/>
		</g>
		<g>
			<path fill="#F5D069" d="M50.69,8.604c0.856-0.053,1.598,0.513,1.654,1.262c0,0,4.366,12.876,5.515,27.746
				c1.085,14.068-1.186,29.165-1.186,29.165c0.058,0.748-0.59,1.399-1.446,1.452l0,0c-0.857,0.053-1.598-0.511-1.656-1.26
				c0,0,1.736-17.5,0.966-29.107c-0.776-11.733-5.295-27.805-5.295-27.805C49.185,9.308,49.834,8.659,50.69,8.604L50.69,8.604z"/>
			<path opacity="0.8" fill="#3E5256" d="M58.845,45.75c0,10.622-1.345,20.15-1.477,21.06c0.027,1.1-0.9,2.037-2.099,2.111
				c-1.231,0.076-2.302-0.776-2.389-1.898c-0.003-0.041-0.002-0.082,0.001-0.121c0.011-0.117,1.16-11.813,1.16-22.276l0,0
				c0-2.503-0.066-4.762-0.195-6.717c-0.763-11.527-5.226-27.503-5.271-27.664c-0.012-0.044-0.02-0.089-0.023-0.135
				c-0.085-1.133,0.865-2.119,2.095-2.196c1.199-0.074,2.244,0.729,2.378,1.806c0.361,1.091,4.428,13.643,5.524,27.838
				C58.745,40.102,58.845,42.858,58.845,45.75z M55.981,66.792c0-0.042,0.002-0.088,0.007-0.119
				c0.015-0.097,1.472-9.917,1.472-20.924c0-2.856-0.099-5.576-0.292-8.084c-1.129-14.613-5.437-27.449-5.48-27.576
				c-0.019-0.056-0.031-0.113-0.035-0.171c-0.027-0.366-0.449-0.651-0.921-0.622c-0.436,0.028-0.792,0.32-0.802,0.655
				c0.348,1.257,4.553,16.624,5.297,27.865c0.131,1.985,0.198,4.276,0.198,6.809l0,0c0,10.095-1.061,21.319-1.16,22.339
				c0.06,0.343,0.466,0.603,0.917,0.574c0.441-0.027,0.8-0.326,0.8-0.669C55.982,66.848,55.981,66.821,55.981,66.792z"/>
		</g>
		<path fill="#F5D069" d="M50.154,10.107"/>
		<g>
			<path fill="#F5D069" d="M44.298,9.914c0.806,0.183,1.305,0.859,1.114,1.512c0,0-0.146,12.087-3.899,25
				c-3.55,12.217-10.521,24.408-10.521,24.408c-0.191,0.65-0.998,1.028-1.803,0.843l0,0c-0.807-0.186-1.303-0.861-1.114-1.512
				c0,0,7.256-14.371,10.303-24.418c3.079-10.154,4.119-24.993,4.119-24.993C42.687,10.104,43.493,9.726,44.298,9.914L44.298,9.914z
				"/>
			<path opacity="0.8" fill="#3E5256" d="M46.145,11.143c0,0.126-0.014,0.252-0.043,0.376c-0.023,1.111-0.353,12.81-3.925,25.1
				c-3.401,11.704-10.001,23.522-10.55,24.495c-0.335,0.959-1.455,1.5-2.595,1.236c-0.995-0.229-1.69-1.012-1.69-1.905
				c0-0.16,0.022-0.319,0.068-0.474c0.012-0.042,0.027-0.082,0.046-0.119c0.073-0.144,7.264-14.434,10.258-24.306
				c3.02-9.961,4.081-24.693,4.091-24.841c0.003-0.05,0.012-0.099,0.026-0.147c0.298-1.013,1.45-1.593,2.624-1.319
				C45.448,9.464,46.145,10.247,46.145,11.143z M28.727,60.445c0,0.2,0.216,0.464,0.616,0.556c0.471,0.109,0.907-0.102,0.983-0.361
				c0.015-0.053,0.037-0.103,0.063-0.15c0.069-0.121,6.973-12.263,10.458-24.256c3.685-12.676,3.871-24.695,3.872-24.815
				c0-0.063,0.01-0.126,0.028-0.186c0.067-0.232-0.145-0.538-0.602-0.642c-0.442-0.103-0.852,0.074-0.965,0.31
				c-0.098,1.305-1.204,15.365-4.14,25.049c-2.917,9.618-9.744,23.323-10.31,24.454C28.728,60.417,28.727,60.43,28.727,60.445z"/>
		</g>
		<g>
			<path fill="#F5D069" d="M24.9,62.397c0,0,6.936-14.793,9.497-25.977c2.221-9.695,2.985-24.832,3.198-28.229l-2.516-0.057
				c0,0-0.636-2.107,1.442-2.949c1.417-0.575,2.733,0.622,3.439,1.743c0.982,1.558,0.935,3.891,0.854,5.586
				c-0.073,1.539-0.14,3.072-0.255,4.61c-0.311,4.157-0.734,8.306-1.402,12.429c-0.414,2.55-0.896,5.093-1.503,7.611
				c-3.409,14.146-9.706,25.886-9.706,25.886c-0.17,0.714-0.991,1.145-1.833,0.965C25.273,63.834,24.729,63.11,24.9,62.397z"/>
			<path opacity="0.8" fill="#3E5256" d="M41.435,10.794c0,0.738-0.046,1.447-0.087,2.076l-0.11,1.744
				c-0.252,4.019-0.513,8.173-1.014,12.256c-0.433,3.516-1.071,7.034-1.895,10.457c-3.252,13.5-9.197,24.964-9.731,25.979
				c-0.301,1.019-1.455,1.636-2.626,1.386c-0.63-0.135-1.174-0.504-1.494-1.013c-0.278-0.442-0.367-0.956-0.249-1.444
				c0.011-0.046,0.026-0.09,0.046-0.133c0.069-0.146,6.934-14.855,9.449-25.836c2.49-10.868,2.907-27.232,2.911-27.396
				c0.009-0.382,0.326-0.685,0.708-0.675c0.383,0.009,0.709,0.313,0.676,0.708c-0.004,0.166-0.424,16.669-2.945,27.672
				c-2.452,10.705-8.956,24.846-9.508,26.036c-0.016,0.136,0.036,0.253,0.084,0.331c0.123,0.194,0.346,0.34,0.612,0.396
				c0.467,0.1,0.932-0.105,1.014-0.447c0.014-0.059,0.035-0.114,0.063-0.167c0.062-0.117,6.296-11.83,9.643-25.721
				c0.812-3.372,1.44-6.838,1.866-10.301c0.497-4.042,0.756-8.176,1.007-12.173l0.11-1.748c0.149-2.303,0.355-5.458-1.858-6.813
				c-0.545-0.334-1.104-0.383-1.617-0.143c-0.634,0.298-1.101,0.998-1.219,1.826c-0.054,0.379-0.405,0.642-0.783,0.587
				c-0.379-0.054-0.642-0.404-0.587-0.783c0.184-1.285,0.95-2.389,2-2.883c0.941-0.443,1.982-0.366,2.929,0.214
				C41.022,6.128,41.435,8.59,41.435,10.794z"/>
		</g>
		<g>
			<path fill="#F5D069" d="M31.317,8.94c0,0,0.797,15.063-1.043,25.594c-1.596,9.129-6.066,21.161-7.14,24.181l-2.244-1.74
				c0,0-1.571,3.692,0.008,5.089c0.868,0.767,3.427,1.309,4.131,0.023c0.141-0.255,0.235-0.505,0.308-0.744
				c0.323-0.184,0.555-0.471,0.611-0.816c0,0,5.515-12.945,7.574-25.6c2.177-13.374,0.821-25.582,0.821-25.582
				c0.11-0.673-0.478-1.311-1.312-1.421C32.194,7.811,31.427,8.267,31.317,8.94z"/>
			<path opacity="0.8" fill="#3E5256" d="M35.445,18.735c0,4.562-0.269,10.333-1.241,16.302
				c-2.069,12.716-7.566,25.633-7.621,25.762c-0.042,0.1-0.081,0.201-0.121,0.301c-0.196,0.506-0.419,1.08-1.012,1.536
				c-1.336,1.03-2.828,1.126-4.312,0.278c-1.516-0.868-2.597-3.051-1.6-5.968c0.124-0.362,0.518-0.554,0.879-0.431
				c0.362,0.125,0.554,0.518,0.431,0.88c-0.744,2.169-0.044,3.731,0.977,4.315c1.015,0.58,1.872,0.526,2.781-0.173
				c0.287-0.222,0.41-0.538,0.566-0.938c0.044-0.115,0.089-0.23,0.138-0.345c0.055-0.13,5.498-12.968,7.528-25.441
				c2.135-13.12,0.829-25.272,0.816-25.394c-0.007-0.063-0.005-0.126,0.005-0.188c0.015-0.095-0.013-0.192-0.084-0.288
				c-0.129-0.174-0.367-0.299-0.636-0.335C32.472,8.547,32.096,8.758,32.013,9c0.063,1.316,0.699,15.607-1.058,25.652
				c-1.812,10.368-7.596,24.844-7.654,24.988c-0.143,0.355-0.546,0.527-0.901,0.385c-0.354-0.142-0.526-0.545-0.385-0.9
				c0.058-0.144,5.788-14.486,7.576-24.711c1.806-10.333,1.042-25.288,1.034-25.438c-0.002-0.049,0-0.099,0.008-0.148
				c0.17-1.039,1.286-1.753,2.488-1.591c0.642,0.085,1.212,0.407,1.565,0.882c0.273,0.367,0.397,0.803,0.353,1.233
				C35.1,9.944,35.445,13.563,35.445,18.735z"/>
		</g>
	</g>
	<g>
		<path fill="#E67348" d="M68.619,64.651c-0.793,3.121-6.539,5.061-9.217,6.853c-2.678,1.79-4.446,4.707-9.913,3.979
			c-5.466-0.729-6.808-0.501-11.539,0.114c-4.732,0.614-8.848-3.756-11.065-6.098c-2.217-2.342-6.879,3.303-12.952-4.848
			c-3.547-4.76-7.602-8.618-5.182-17.27c1.062-3.795,0.625-17.494,3.099-22.465c2.474-4.971,3.947-6.606,9.648-9.848
			c1.137-0.645,7.853,1.945,7.123,10.962c-0.338,4.186,0.729,8.334,3.646,10.694c2.917,2.358,2.175,3.049,9.085,9.346
			C48.264,52.366,72.046,51.161,68.619,64.651z"/>
		<path opacity="0.8" fill="#3E5256" d="M70.973,64.577c0,0.802-0.114,1.657-0.339,2.544c-0.648,2.553-3.915,4.248-6.796,5.743
			c-1.026,0.533-1.995,1.035-2.708,1.512c-0.558,0.374-1.074,0.799-1.621,1.248c-1.968,1.618-4.2,3.453-8.768,2.844
			c-5.283-0.706-7.788-0.52-12.65,0.113c-4.92,0.641-7.889-1.69-10.364-4.304c-0.667-0.705-2.33-1.046-4.089-1.407
			c-3.408-0.699-7.65-1.569-9.018-5.703c-0.615-1.857-1.632-3.425-2.617-4.941c-1.57-2.419-3.193-4.92-3.193-8.571
			c0-1.31,0.203-2.671,0.619-4.159c0.385-1.377,0.577-4.342,0.78-7.48c0.362-5.582,0.772-11.907,2.366-15.109
			c2.595-5.216,4.265-6.922,9.926-10.14c0.224-0.127,0.692-0.288,1.311,0.072c1.694,0.985,3.495,5.249,3.496,11.21
			c0,0.849-0.036,1.727-0.108,2.609c-0.311,3.835,2.911,6.43,5.74,8.717c1.297,1.048,1.856,1.767,2.563,2.676
			c0.945,1.217,2.241,2.882,6.184,6.474c2.367,2.157,7.124,3.332,12.159,4.576C62.266,55.18,70.973,57.331,70.973,64.577z
			 M10.194,53.654c0,3.241,1.442,5.464,2.97,7.817c1.032,1.59,2.1,3.234,2.77,5.262c1.116,3.372,4.764,4.121,7.981,4.78
			c2.065,0.425,3.849,0.79,4.816,1.812c2.071,2.187,4.66,4.471,9.18,3.883c4.883-0.635,7.59-0.838,13.013-0.113
			c3.971,0.529,5.785-0.962,7.705-2.541c0.549-0.451,1.116-0.918,1.73-1.328c0.777-0.52,1.779-1.039,2.839-1.59
			c2.494-1.295,5.596-2.904,6.092-4.855c0.197-0.775,0.297-1.516,0.297-2.203c0-6.162-8.172-8.181-16.075-10.134
			c-5.21-1.287-10.132-2.503-12.759-4.896c-4.031-3.671-5.368-5.392-6.344-6.646c-0.703-0.904-1.168-1.502-2.34-2.449
			c-2.933-2.371-6.615-5.361-6.25-9.905c0.068-0.846,0.103-1.687,0.103-2.498c0-6.405-2.077-9.721-2.824-10.029
			c-5.608,3.197-6.954,4.82-9.284,9.503c-1.47,2.953-1.888,9.4-2.224,14.582c-0.217,3.352-0.405,6.247-0.829,7.764
			C10.38,51.233,10.194,52.472,10.194,53.654z"/>
		<path fill="#3E5256" d="M59.143,63.262c0,0.294-0.189,0.566-0.484,0.66c-0.364,0.115-0.753-0.087-0.869-0.451
			c-1.169-3.699-7.478-4.773-10.51-5.29c-0.461-0.079-0.944-0.126-1.455-0.175c-1.306-0.127-2.656-0.257-3.884-0.938
			c-0.975-0.541-1.715-1.229-2.43-1.895c-0.903-0.841-1.756-1.634-2.981-1.989c-0.368-0.107-0.579-0.492-0.473-0.857
			c0.106-0.367,0.491-0.578,0.858-0.473c1.542,0.447,2.558,1.393,3.539,2.306c0.685,0.638,1.332,1.239,2.159,1.697
			c0.977,0.542,2.127,0.653,3.346,0.771c0.513,0.05,1.042,0.101,1.554,0.188c3.303,0.562,10.174,1.733,11.598,6.237
			C59.133,63.124,59.143,63.194,59.143,63.262z"/>
		<path fill="#3E5256" d="M33.286,69.811c0,0.045-0.004,0.09-0.013,0.135c-0.074,0.375-0.439,0.619-0.814,0.545
			c-1.239-0.246-2.065-1.219-2.794-2.076c-0.894-1.051-1.489-1.69-2.424-1.583c-0.38,0.044-0.723-0.229-0.767-0.608
			c-0.044-0.381,0.229-0.724,0.609-0.768c1.717-0.197,2.737,1.004,3.637,2.062c0.64,0.753,1.244,1.464,2.009,1.614
			C33.058,69.198,33.286,69.487,33.286,69.811z"/>
		<path fill="#3E5256" d="M20.467,27.368c0,0.204-0.09,0.407-0.263,0.543c-4.975,3.932-5.439,12.39-4.954,18.792
			c0.026,0.387-0.256,0.714-0.638,0.742c-0.381,0.029-0.714-0.256-0.743-0.638c-0.735-9.66,1.16-16.572,5.476-19.983
			c0.3-0.237,0.735-0.186,0.973,0.114C20.418,27.065,20.467,27.217,20.467,27.368z"/>
	</g>
</g>
</svg>
