<?xml version="1.0" encoding="utf-8"?>
<!-- Generator: Adobe Illustrator 16.0.0, SVG Export Plug-In . SVG Version: 6.00 Build 0)  -->
<!DOCTYPE svg PUBLIC "-//W3C//DTD SVG 1.1//EN" "http://www.w3.org/Graphics/SVG/1.1/DTD/svg11.dtd">
<svg version="1.1" id="圖層_1" xmlns="http://www.w3.org/2000/svg" xmlns:xlink="http://www.w3.org/1999/xlink" x="0px" y="0px"
	 width="245px" height="81.113px" viewBox="0 0 245 81.113" enable-background="new 0 0 245 81.113" xml:space="preserve">
<g>
	<g>
		<path opacity="0.8" fill="#BCD6D6" enable-background="new    " d="M184.061,42.864c10.062,0,20.039-0.397,30.016-1.131
			c4.123-0.304,8.228-0.716,12.24-1.338c3.207-0.497,11.557-2.197,11.557-4.28c0-2.533-7.592-3.63-10.781-3.93
			c-32.512-3.057-58.569-2.123-87.448,0.871c-7.712,0.799-30.554,3.994-30.554,3.994c14.658,3.178,36.145,4.359,51.648,5.238
			c0.025,0.002,17.207,0.478,17.234,0.479"/>
		<path opacity="0.8" fill="#BCD6D6" enable-background="new    " d="M100.437,40.481c-13.115,4.087-24.34,17.298-37.833,21.063
			c-15.321,4.273-32.642,2.377-48.298,0.944c-7.312-0.669-11.057-2.382-13.75-9.315c0.318-0.006,42.72,0.043,45.519-1.34
			c4.721-2.332,1.563-5.968-2.17-6.896c-8.396-2.092-38.114-2.518-43.903-2.651c-0.006-2.243,0.003-4.489,0.005-6.735
			c0.304-0.002,42.677-1.922,45.612-3.285c4.529-2.104,2.804-5.969-1.362-6.975C36.033,23.301,6.23,24.53,0.37,24.649
			c0.479-4.065,2.159-7.233,5.961-9.088c4.697-2.291,10.534-1.961,15.611-2.257c10.822-0.633,21.805-1.903,32.627-0.655
			c4.227,0.485,8.304,1.774,12.117,3.649c1.549,0.76,3.085,1.729,4.601,2.803L100.437,40.481z"/>
		<path opacity="0.8" fill="#3E5256" enable-background="new    " d="M238.595,37.51c0,0.315-0.138,0.615-0.406,0.886
			c-3.28,3.276-40.72,8.312-57.065,8.288c-0.397,0-0.721-0.322-0.721-0.723l0,0c0-0.397,0.323-0.722,0.723-0.722
			c18.801,0.024,51.986-5.246,55.769-7.639c-3.251-1.591-23.534-5.28-49.694-6.259c-24.658-0.92-60.453,0.272-90.938,11.197
			c-5.965,2.137-10.814,6.379-15.504,10.479c-5.261,4.604-10.703,9.362-17.835,11.354c-14.527,4.051-31.092,2.52-45.707,1.168
			l-2.281-0.211c-7.18-0.658-11.347-2.332-14.194-9.662c-0.084-0.221-0.059-0.467,0.073-0.664c0.131-0.194,0.349-0.313,0.585-0.318
			c0.021,0,0.206-0.001,0.537-0.001c25.33-0.026,42.656-0.519,44.141-1.251c0.946-0.469,2.052-1.245,1.937-2.309
			c-0.135-1.256-1.864-2.643-3.937-3.158c-7.536-1.879-32.996-2.392-41.362-2.56L0.85,45.369c-0.391-0.01-0.704-0.328-0.705-0.721
			c-0.005-1.396-0.001-2.791,0.001-4.186l0.003-2.472c0-0.394,0.315-0.714,0.708-0.722c1.928-0.059,42.141-1.955,44.782-3.182
			c1.533-0.711,2.319-1.662,2.223-2.672c-0.122-1.227-1.533-2.404-3.433-2.863c-6.947-1.68-29.893-1-39.693-0.711
			c-1.516,0.047-2.716,0.082-3.492,0.098c-0.208,0.005-0.408-0.082-0.549-0.236s-0.208-0.361-0.183-0.568
			c0.545-4.623,2.602-7.743,6.291-9.543c3.864-1.887,8.344-2.035,12.676-2.18c1.028-0.033,2.042-0.068,3.025-0.125
			c2.14-0.125,4.287-0.275,6.437-0.427c8.511-0.596,17.312-1.212,25.93-0.218c4.097,0.472,8.205,1.708,12.209,3.675
			c1.427,0.7,2.947,1.626,4.646,2.828c0.326,0.231,0.402,0.681,0.172,1.007c-0.229,0.326-0.681,0.402-1.006,0.172
			c-1.635-1.156-3.091-2.045-4.448-2.711c-3.856-1.895-7.806-3.084-11.738-3.535c-8.484-0.979-17.218-0.369-25.664,0.223
			c-2.155,0.152-4.307,0.303-6.453,0.428c-0.996,0.059-2.021,0.093-3.061,0.128c-4.181,0.138-8.504,0.282-12.091,2.032
			c-3.035,1.479-4.756,3.904-5.373,7.589c0.706-0.019,1.593-0.045,2.63-0.075c9.857-0.293,32.94-0.977,40.074,0.75
			c2.526,0.61,4.347,2.268,4.53,4.124c0.164,1.646-0.949,3.147-3.052,4.124c-2.829,1.312-39.099,3.037-44.657,3.285l-0.002,1.781
			c-0.002,1.156-0.005,2.314-0.003,3.475l1.157,0.023c8.406,0.17,33.988,0.686,41.682,2.603c2.323,0.579,4.794,2.278,5.023,4.404
			c0.111,1.045-0.271,2.54-2.733,3.757c-2.36,1.167-28.461,1.379-44.226,1.4c2.565,5.865,6.055,7.168,12.577,7.767l2.282,0.21
			c14.49,1.34,30.915,2.859,45.185-1.122c6.817-1.901,12.132-6.552,17.272-11.049c4.791-4.191,9.744-8.525,15.967-10.755
			c57.358-20.549,137.04-8.248,142.288-4.553C238.414,36.877,238.595,37.174,238.595,37.51z"/>
		<path opacity="0.8" fill="#3E5256" enable-background="new    " d="M175.425,45.983c0,0.019-0.001,0.036-0.002,0.054
			c-0.03,0.398-0.375,0.696-0.772,0.668c-0.082-0.003-4.57-0.174-9.062-0.343c-9.085-0.344-9.091-0.345-9.112-0.347l-0.727-0.057
			c-16.287-1.262-38.591-2.988-53.893-7.521c-7.255-2.147-13.548-4.912-21.045-9.243c-1.386-0.8-2.777-1.675-4.251-2.604
			l-0.725-0.455c-0.338-0.213-0.438-0.658-0.228-0.995c0.212-0.339,0.658-0.439,0.995-0.228l0.727,0.457
			c1.461,0.92,2.842,1.788,4.204,2.574c7.394,4.271,13.594,6.995,20.733,9.107c15.157,4.49,37.373,6.212,53.595,7.468l0.724,0.056
			c0.079,0.004,4.569,0.174,9.059,0.344c9.086,0.344,9.091,0.344,9.112,0.346C175.135,45.293,175.425,45.609,175.425,45.983z"/>
	</g>
	<g>
		<g>
			<g>
				<g>
					<defs>
						<path id="SVGID_1_" d="M25.143,66.174l-7.246-0.545l2.551,8.744l6.48,5.579l14.046-7.461c0,0,6.773-17.179-1.928-26.233
							c-8.703-9.051-18.03-4.771-18.007-4.754c0.024,0.021-7.279,8.39-6.241,12.035c1.038,3.649,2.678,3.836,2.678,3.836
							l6.444-4.011L25.143,66.174z"/>
					</defs>
					<clipPath id="SVGID_2_">
						<use xlink:href="#SVGID_1_"  overflow="visible"/>
					</clipPath>
					<g clip-path="url(#SVGID_2_)">
						<g>
							<g>
								<path fill="#F5D069" d="M18.147,59.692c0.535,9.289,5.813,16.54,11.79,16.196c5.977-0.344,10.39-8.152,9.854-17.438
									c-0.533-9.291-5.812-16.544-11.789-16.197C22.027,42.598,17.614,50.404,18.147,59.692z M35.738,58.683
									c0.376,6.542-2.348,12.022-6.086,12.235c-3.737,0.217-7.072-4.914-7.448-11.457s2.348-12.021,6.085-12.238
									C32.027,47.008,35.363,52.141,35.738,58.683z"/>
							</g>
							<path opacity="0.8" fill="#3E5256" enable-background="new    " d="M40.557,59.969c0,9.142-4.548,16.295-10.578,16.643
								c-6.365,0.366-11.995-7.206-12.552-16.876c-0.564-9.845,4.164-17.835,10.535-18.201c3.144-0.183,6.184,1.517,8.56,4.781
								c2.308,3.17,3.725,7.466,3.991,12.096C40.543,58.935,40.557,59.457,40.557,59.969z M18.827,58.176
								c0,0.486,0.014,0.979,0.042,1.477c0.511,8.876,5.458,15.837,11.028,15.518c5.474-0.314,9.686-7.799,9.175-16.677
								c-0.25-4.356-1.57-8.38-3.716-11.329c-2.078-2.854-4.673-4.342-7.31-4.189C22.875,43.271,18.827,49.949,18.827,58.176z"/>
						</g>
						<path opacity="0.8" fill="#3E5256" enable-background="new    " d="M36.494,59.885c0,6.479-2.924,11.533-6.801,11.754
							c-2.076,0.121-4.075-1.131-5.63-3.521c-1.474-2.269-2.391-5.327-2.579-8.614c-0.398-7.041,2.642-12.762,6.764-13.002
							c2.078-0.119,4.078,1.133,5.633,3.522c1.474,2.271,2.391,5.329,2.579,8.616C36.482,59.059,36.494,59.475,36.494,59.885z
							 M22.891,58.256c0,0.383,0.011,0.771,0.034,1.162c0.174,3.041,1.008,5.852,2.348,7.912c1.259,1.938,2.799,2.955,4.337,2.867
							c3.259-0.188,5.761-5.347,5.408-11.474c-0.174-3.041-1.007-5.851-2.348-7.911c-1.26-1.939-2.8-2.958-4.339-2.87
							C25.28,48.12,22.891,52.65,22.891,58.256z"/>
					</g>
				</g>
			</g>
		</g>
		<g>
			<g>
				<g>
					<defs>
						<path id="SVGID_3_" d="M17.062,13.467l4.16-0.223l3.026-5.167l-3.734-7.429L8.411,2.506c0,0-8.618,13.369-3.924,24.783
							c4.696,11.409,12.595,10.795,12.581,10.77c-0.014-0.024,5.976-5.663,4.635-7.295c-1.026-1.252-1.843-3.191-1.843-3.191
							l-3.847,0.605L17.062,13.467z"/>
					</defs>
					<clipPath id="SVGID_4_">
						<use xlink:href="#SVGID_3_"  overflow="visible"/>
					</clipPath>
					<g clip-path="url(#SVGID_4_)">
						<g>
							<g>
								<path fill="#F5D069" d="M22.971,22.381c1.503-8.723-0.984-17.261-5.554-19.068C12.848,1.5,7.926,7.104,6.424,15.825
									c-1.502,8.724,0.985,17.263,5.554,19.071C16.547,36.705,21.469,31.103,22.971,22.381z M9.521,17.055
									c1.059-6.145,4.233-10.207,7.089-9.075c2.857,1.131,4.316,7.03,3.259,13.174c-1.058,6.146-4.231,10.207-7.088,9.076
									C9.924,29.098,8.464,23.196,9.521,17.055z"/>
							</g>
							<path opacity="0.8" fill="#3E5256" enable-background="new    " d="M24.131,17.281c0,1.737-0.151,3.494-0.45,5.223
								c-1.022,5.941-3.704,10.783-6.998,12.633c-1.64,0.921-3.358,1.068-4.972,0.432c-3.856-1.527-6.448-7.414-6.448-14.645
								c0-1.737,0.151-3.494,0.448-5.223c1.023-5.943,3.706-10.783,7-12.632c1.639-0.921,3.357-1.067,4.97-0.429
								C21.54,4.168,24.131,10.051,24.131,17.281z M6.708,20.924c0,6.539,2.276,12.011,5.536,13.302
								c1.212,0.479,2.469,0.362,3.733-0.349c2.924-1.642,5.332-6.095,6.283-11.619c0.283-1.646,0.427-3.321,0.427-4.978
								c0-6.54-2.277-12.009-5.536-13.299c-1.212-0.479-2.467-0.364-3.731,0.345c-2.924,1.641-5.332,6.094-6.284,11.619
								C6.852,17.594,6.708,19.268,6.708,20.924z"/>
						</g>
						<path opacity="0.8" fill="#3E5256" enable-background="new    " d="M20.938,17.164c0,1.359-0.12,2.743-0.355,4.111
							c-0.771,4.479-2.673,8.061-4.965,9.346c-1.028,0.578-2.101,0.676-3.1,0.278c-2.466-0.978-4.06-4.845-4.06-9.854
							c0-1.359,0.12-2.742,0.356-4.111c0.771-4.479,2.674-8.061,4.966-9.348c1.028-0.578,2.1-0.674,3.1-0.276
							C19.344,8.283,20.938,12.152,20.938,17.164z M9.899,21.045c0,4.277,1.294,7.778,3.148,8.514
							c0.589,0.232,1.216,0.167,1.862-0.194c1.893-1.063,3.561-4.335,4.25-8.334c0.221-1.287,0.333-2.588,0.333-3.864
							c0-4.281-1.294-7.781-3.147-8.515c-0.59-0.233-1.216-0.168-1.862,0.194c-1.894,1.062-3.562,4.334-4.25,8.332
							C10.012,18.465,9.899,19.766,9.899,21.045z"/>
					</g>
				</g>
			</g>
		</g>
		<g>
			<g>
				<g>
					<defs>
						<path id="SVGID_5_" d="M15.4,45.776L7.56,45.52l5.995,12.906l7.565,3.867l11.306-11.578c0,0,1.913-19.447-8.655-26.236
							c-10.566-6.791-18.25,0.21-18.221,0.223c0.027,0.012-1.585,13.158-1.585,13.158l8.125-0.625L15.4,45.776z"/>
					</defs>
					<clipPath id="SVGID_6_">
						<use xlink:href="#SVGID_5_"  overflow="visible"/>
					</clipPath>
					<g clip-path="url(#SVGID_6_)">
						<g>
							<g>
								<path fill="#F5D069" d="M7.561,44.084c2.923,9.334,9.79,15.248,15.338,13.213c5.549-2.035,7.676-11.254,4.752-20.584
									c-2.923-9.332-9.79-15.248-15.338-13.213C6.766,25.537,4.639,34.754,7.561,44.084z M23.888,38.094
									c2.059,6.574,0.917,12.937-2.553,14.209c-3.47,1.272-7.952-3.024-10.01-9.6c-2.058-6.574-0.916-12.934,2.554-14.209
									C17.346,27.221,21.828,31.519,23.888,38.094z"/>
							</g>
							<path opacity="0.8" fill="#3E5256" enable-background="new    " d="M29.684,45.002c0,6.522-2.504,11.494-6.538,12.973
								c-2.023,0.742-4.276,0.551-6.514-0.553c-4.184-2.061-7.833-6.965-9.76-13.121c-0.879-2.809-1.343-5.748-1.343-8.504
								c0-6.522,2.504-11.494,6.536-12.975c2.023-0.742,4.275-0.551,6.515,0.553c4.183,2.062,7.833,6.967,9.759,13.123
								C29.219,39.305,29.684,42.246,29.684,45.002z M6.971,35.797c0,2.61,0.441,5.401,1.278,8.071
								c1.785,5.699,5.241,10.396,9.021,12.259c1.876,0.926,3.736,1.096,5.38,0.492c3.449-1.266,5.591-5.717,5.591-11.617
								c0-2.609-0.442-5.401-1.279-8.074c-1.786-5.697-5.241-10.396-9.021-12.258c-1.875-0.925-3.736-1.096-5.379-0.492
								C9.113,25.443,6.971,29.896,6.971,35.797z"/>
						</g>
						<path opacity="0.8" fill="#3E5256" enable-background="new    " d="M25.634,44.481c0,4.392-1.514,7.567-4.05,8.498
							c-1.224,0.448-2.599,0.328-3.974-0.351c-2.868-1.412-5.541-5.135-6.974-9.711c-0.691-2.209-1.058-4.492-1.058-6.604
							c0-4.391,1.515-7.566,4.051-8.498c1.224-0.45,2.598-0.33,3.972,0.35c2.868,1.412,5.541,5.133,6.975,9.711
							C25.268,40.086,25.634,42.369,25.634,44.481z M11.021,36.315c0,1.967,0.343,4.103,0.991,6.172
							c1.319,4.213,3.709,7.604,6.235,8.847c1.027,0.508,1.981,0.604,2.838,0.289c1.915-0.701,3.103-3.438,3.103-7.143
							c0-1.969-0.342-4.104-0.991-6.172c-1.32-4.213-3.709-7.604-6.235-8.85c-1.026-0.506-1.981-0.603-2.836-0.289
							C12.212,29.875,11.021,32.611,11.021,36.315z"/>
					</g>
				</g>
			</g>
		</g>
		<g>
			<g>
				<g>
					<defs>
						<path id="SVGID_7_" d="M17.355,65.547c0,0-0.745-0.065-3.216-0.319c-2.121-0.22-3.822-0.724-3.822-0.724L9.32,70.502
							l1.569,3.938l4.413,6.673l14.63-4.26c0,0,8.896-14.336,5.049-25.521c-4.961-14.421-15.061-8.274-15.044-8.25
							c0.016,0.021-4.792,5.584-4.792,5.584s0.767,0.881,1.804,1.864c1.155,1.097,3.261,1.739,3.261,1.739L17.355,65.547z"/>
					</defs>
					<clipPath id="SVGID_8_">
						<use xlink:href="#SVGID_7_"  overflow="visible"/>
					</clipPath>
					<g clip-path="url(#SVGID_8_)">
						<g>
							<g>
								<path fill="#F5D069" d="M32.243,61.504c1.923-9.008-0.969-17.037-6.461-17.936s-11.503,5.673-13.425,14.68
									c-1.923,9.006,0.97,17.034,6.459,17.935C24.309,77.08,30.32,70.506,32.243,61.504z M16.081,58.858
									c1.356-6.347,5.238-11.033,8.671-10.472c3.435,0.562,5.12,6.162,3.766,12.505c-1.355,6.345-5.237,11.03-8.671,10.469
									C16.413,70.801,14.727,65.201,16.081,58.858z"/>
							</g>
							<path opacity="0.8" fill="#3E5256" enable-background="new    " d="M33.56,56.02c0,1.84-0.206,3.734-0.611,5.634
								c-1.999,9.36-8.391,16.199-14.248,15.241c-4.582-0.751-7.66-6.041-7.66-13.165c0-1.839,0.206-3.733,0.611-5.632
								c1.999-9.363,8.391-16.2,14.248-15.241C30.48,43.606,33.56,48.897,33.56,56.02z M12.484,63.729
								c0,6.391,2.591,11.108,6.449,11.739c5.109,0.836,10.763-5.496,12.604-14.116c0.384-1.8,0.58-3.595,0.58-5.332
								c0-6.392-2.593-11.108-6.451-11.74c-5.11-0.836-10.764,5.497-12.603,14.119C12.679,60.197,12.484,61.991,12.484,63.729z"/>
						</g>
						<path opacity="0.8" fill="#3E5256" enable-background="new    " d="M29.707,56.608c0,1.438-0.163,2.931-0.484,4.435
							c-1.455,6.815-5.625,11.662-9.493,11.03c-2.939-0.481-4.838-3.985-4.838-8.932c0-1.438,0.162-2.931,0.483-4.435
							c1.457-6.82,5.626-11.664,9.493-11.033C27.808,48.157,29.707,51.664,29.707,56.608z M16.335,63.142
							c0,4.135,1.458,7.151,3.627,7.507c3.003,0.49,6.598-4.047,7.85-9.907c0.3-1.403,0.452-2.796,0.452-4.133
							c0-4.136-1.458-7.153-3.628-7.508c-3.002-0.492-6.595,4.045-7.848,9.907C16.488,60.414,16.335,61.805,16.335,63.142z"/>
					</g>
				</g>
			</g>
		</g>
		<g>
			<g>
				<g>
					<defs>
						<path id="SVGID_9_" d="M34.446,12.7l9.435-0.5l0.223-3.905L41.502,0L24.95,0.055c0,0-15.559,12.548-12.936,25.125
							c2.621,12.576,13.236,13.16,13.225,13.133c-0.01-0.028,12.818-11.409,12.818-11.409L27.57,27.174L34.446,12.7z"/>
					</defs>
					<clipPath id="SVGID_10_">
						<use xlink:href="#SVGID_9_"  overflow="visible"/>
					</clipPath>
					<g clip-path="url(#SVGID_10_)">
						<g>
							<path fill="#F5D069" d="M38.337,22.862c4.712-8.823,4.105-18.073-1.358-20.662c-5.462-2.589-13.712,2.47-18.423,11.293
								c-4.712,8.823-4.104,18.073,1.357,20.662C25.376,36.74,33.626,31.685,38.337,22.862z M22.26,15.248
								c3.321-6.216,8.781-9.943,12.195-8.324c3.417,1.617,3.496,7.971,0.175,14.185c-3.32,6.213-8.779,9.94-12.194,8.324
								C19.02,27.813,18.94,21.463,22.26,15.248z"/>
						</g>
						<path opacity="0.8" fill="#3E5256" enable-background="new    " d="M42.23,11.297c0,3.744-1.157,7.975-3.258,11.908
							c-4.883,9.141-13.572,14.348-19.369,11.603c-3.141-1.487-4.942-5.04-4.942-9.747c0-3.745,1.157-7.975,3.257-11.907
							c4.883-9.146,13.572-14.351,19.37-11.604C40.43,3.036,42.23,6.59,42.23,11.297z M16.104,25.059c0,4.126,1.5,7.203,4.116,8.443
							c5.112,2.418,12.953-2.507,17.479-10.979c1.992-3.729,3.088-7.718,3.088-11.228c0-4.127-1.5-7.203-4.118-8.442
							C31.559,0.43,23.718,5.354,19.192,13.832C17.202,17.56,16.104,21.547,16.104,25.059z"/>
					</g>
				</g>
			</g>
			<g>
				<g>
					<defs>
						<path id="SVGID_11_" d="M34.446,12.7l9.435-0.5l0.223-3.905L41.502,0L24.95,0.055c0,0-15.559,12.548-12.936,25.125
							c2.621,12.576,13.236,13.16,13.225,13.133c-0.01-0.028,12.818-11.409,12.818-11.409L27.57,27.174L34.446,12.7z"/>
					</defs>
					<clipPath id="SVGID_12_">
						<use xlink:href="#SVGID_11_"  overflow="visible"/>
					</clipPath>
					<path opacity="0.8" clip-path="url(#SVGID_12_)" fill="#3E5256" enable-background="new    " d="M37.792,12.437
						c0,2.763-0.896,5.964-2.525,9.011c-3.552,6.648-9.324,10.441-13.141,8.637c-1.952-0.925-3.027-3.113-3.027-6.166
						c0-2.764,0.897-5.963,2.525-9.011c3.553-6.651,9.325-10.444,13.141-8.636C36.717,7.195,37.792,9.385,37.792,12.437z
						 M20.543,23.918c0,2.463,0.782,4.189,2.202,4.861c3.015,1.428,8.167-2.24,11.25-8.012c1.519-2.844,2.354-5.801,2.354-8.331
						c0-2.463-0.782-4.188-2.202-4.861c-3.014-1.429-8.166,2.24-11.249,8.013C21.379,18.43,20.543,21.389,20.543,23.918z"/>
				</g>
			</g>
		</g>
	</g>
</g>
</svg>
