<?xml version="1.0" encoding="utf-8"?>
<!-- Generator: Adobe Illustrator 16.0.0, SVG Export Plug-In . SVG Version: 6.00 Build 0)  -->
<!DOCTYPE svg PUBLIC "-//W3C//DTD SVG 1.1//EN" "http://www.w3.org/Graphics/SVG/1.1/DTD/svg11.dtd">
<svg version="1.1" id="圖層_1" xmlns="http://www.w3.org/2000/svg" xmlns:xlink="http://www.w3.org/1999/xlink" x="0px" y="0px"
	 width="280px" height="80.667px" viewBox="0 0 280 80.667" enable-background="new 0 0 280 80.667" xml:space="preserve">
<g>
	<g>
		<path opacity="0.8" fill="#BCD6D6" enable-background="new    " d="M206.191,43.893c11.134,0,22.17-0.442,33.209-1.254
			c4.562-0.336,9.104-0.793,13.545-1.48c3.547-0.55,12.785-2.432,12.785-4.734c0-2.805-8.399-4.018-11.929-4.35
			c-35.971-3.383-64.803-2.35-96.755,0.964c-8.531,0.884-33.805,4.421-33.805,4.421c16.216,3.514,39.99,4.823,57.145,5.795
			c0.028,0.002,19.037,0.526,19.068,0.527"/>
		<g>
			<path opacity="0.8" fill="#BCD6D6" enable-background="new    " d="M105.286,45.6c3.796-3.485,9.498-4.846,14.866-6.027
				c-2.002-0.366-3.955-0.736-5.812-1.105c-24.385-4.861-18.568-30.84-54.678-30.84c-28.177,0-54.35,18.993-54.35,29.774
				c0,9.185,22.979,31.116,51.895,31.116C88.501,68.516,97.701,52.563,105.286,45.6z"/>
		</g>
		
			<path opacity="0.8" fill="none" stroke="#3E5256" stroke-width="2" stroke-linecap="round" stroke-linejoin="round" stroke-miterlimit="10" enable-background="new    " d="
			M80.315,20.861"/>
		<path opacity="0.8" fill="#3E5256" enable-background="new    " d="M265.404,38.311c0,0.351-0.15,0.68-0.45,0.979
			c-3.629,3.625-45.052,9.197-63.138,9.174c-0.44,0-0.797-0.359-0.797-0.799c0,0,0-0.001,0-0.002c0-0.441,0.357-0.797,0.799-0.797
			c19.957,0.023,59.117-5.857,61.945-8.632c-0.396-0.522-3.824-3.021-33.132-5.216c-0.515-0.039-0.873-0.065-1.045-0.082
			c-30.729-2.696-55.228-2.481-77.099,0.676c-8.125,1.173-16.697,2.97-26.979,5.65c-0.436,0.113-0.877,0.224-1.325,0.332
			c16.361,2.854,35.852,5.402,50.48,6.537c0.087,0.004,5.056,0.19,10.022,0.379c10.053,0.379,10.058,0.379,10.082,0.381
			c0.439,0.033,0.773,0.428,0.738,0.854c-0.031,0.438-0.415,0.771-0.854,0.74c-0.092-0.005-5.059-0.192-10.026-0.38
			c-10.053-0.381-10.058-0.381-10.083-0.383c-15.812-1.226-37.28-4.098-54.386-7.228c-5.327,1.175-10.725,2.488-14.333,5.798
			c-1.399,1.286-2.861,3.018-4.554,5.025c-7.298,8.648-18.329,21.722-44.066,21.722c-29.887,0-52.693-22.659-52.693-31.915
			c0-5.662,6.67-13.361,16.994-19.613c11.5-6.965,25.407-10.959,38.154-10.959c21.086,0,28.147,7.539,34.976,14.83
			c5.003,5.342,9.73,10.387,19.857,12.406c1.811,0.36,3.695,0.721,5.635,1.077c0.182-0.04,0.363-0.08,0.544-0.119
			c1.559-0.342,3.032-0.663,4.432-1.03c10.341-2.697,18.969-4.504,27.155-5.686c21.997-3.176,46.611-3.395,77.467-0.686
			c0.168,0.015,0.52,0.041,1.024,0.078C265.404,34.022,265.404,37.027,265.404,38.311z M6.111,41.127
			c0,3.918,5.073,11.479,14.767,18.35c6.309,4.471,19.416,11.969,36.329,11.969c24.995,0,35.737-12.73,42.845-21.157
			c1.728-2.047,3.22-3.813,4.694-5.169c3.05-2.799,7.282-4.281,11.52-5.354c-0.704-0.137-1.398-0.272-2.083-0.41
			c-10.63-2.118-15.755-7.59-20.711-12.881c-6.595-7.041-13.417-14.323-33.81-14.323C32.573,12.152,6.111,30.485,6.111,41.127z"/>
	</g>
	<g>
		<path fill="#E67348" d="M79.096,44.774c-7.024,3.619-1.597,9.145-8.142,11.854c-6.543,2.711-10.854,3.049-14.844,4.233
			c-3.992,1.187-9.892,1.862-15.083-1.692c-5.189-3.558-8.223-9.654-10.458-10.502c-2.235-0.847-6.226-3.387-7.183-5.248
			c-0.958-1.863-3.831-12.257,8.301-14.767c12.131-2.509,11.239-6.235,18.708-7.589c7.47-1.354,15.61,4.402,21.037,5.082
			C76.862,26.821,91.799,38.223,79.096,44.774z"/>
		<path opacity="0.8" fill="#3E5256" enable-background="new    " d="M83.891,39.637c0,2.791-1.426,5.59-4.239,8.312
			c-1.329,1.287-1.833,2.902-2.367,4.611c-0.826,2.646-1.762,5.645-6.025,7.408c-4.455,1.846-7.861,2.6-10.866,3.267
			c-1.425,0.313-2.771,0.612-4.056,0.995c-4.181,1.24-10.308,1.936-15.762-1.801c-2.95-2.021-5.196-4.799-7-7.033
			c-1.278-1.579-2.485-3.074-3.289-3.377c-2.389-0.907-6.541-3.551-7.611-5.633c-0.375-0.729-1.082-2.758-1.082-5.225
			c0-3.225,1.29-8.9,9.931-10.689c6.568-1.357,9.204-3.061,11.529-4.562c1.906-1.232,3.707-2.396,7.199-3.029
			c4.938-0.896,10.033,1.127,14.528,2.912c2.493,0.99,4.849,1.926,6.75,2.163C75.845,28.494,83.891,32.981,83.891,39.637z
			 M23.192,41.164c0,2.242,0.654,4.005,0.905,4.495c0.779,1.516,4.427,3.984,6.756,4.868c1.208,0.457,2.424,1.962,3.965,3.868
			c1.739,2.15,3.903,4.83,6.661,6.721c4.935,3.38,10.557,2.729,14.404,1.586c1.34-0.398,2.712-0.703,4.166-1.025
			c2.941-0.65,6.274-1.39,10.601-3.181c3.572-1.479,4.32-3.873,5.111-6.407c0.57-1.826,1.16-3.715,2.78-5.283
			c2.49-2.414,3.753-4.824,3.753-7.168c0-3.119-2.202-5.492-4.048-6.936c-2.419-1.891-5.214-2.949-6.911-3.161
			c-2.104-0.262-4.551-1.233-7.142-2.263c-4.295-1.706-9.165-3.639-13.653-2.825c-3.178,0.577-4.772,1.606-6.618,2.8
			c-2.442,1.578-5.211,3.367-12.071,4.786C24.695,33.52,23.192,37.818,23.192,41.164z"/>
		<path opacity="0.8" fill="#3E5256" enable-background="new    " d="M77.919,41.184c0,0.791-0.23,1.588-0.689,2.365
			c-0.224,0.379-0.714,0.506-1.094,0.281c-0.379-0.225-0.505-0.714-0.281-1.094c0.552-0.934,0.617-1.814,0.198-2.695
			c-1.881-3.969-12.338-6.773-15.73-7.291c-0.277-0.043-0.574-0.094-0.881-0.148c-1.366-0.235-3.066-0.528-4.197-0.178
			c-0.608,0.188-1.09,0.441-1.556,0.688c-0.932,0.492-1.896,1.002-3.565,0.833c-0.439-0.044-0.758-0.433-0.714-0.875
			c0.045-0.438,0.437-0.759,0.875-0.714c1.189,0.121,1.805-0.204,2.658-0.655c0.506-0.267,1.08-0.569,1.83-0.802
			c1.497-0.463,3.406-0.135,4.94,0.13c0.297,0.052,0.583,0.101,0.851,0.144c2.792,0.426,14.583,3.228,16.932,8.186
			C77.778,39.954,77.919,40.568,77.919,41.184z"/>
		<path opacity="0.8" fill="#3E5256" enable-background="new    " d="M50.683,43.313c0,0.441-0.358,0.799-0.799,0.799l-1.012-0.006
			c-2.915-0.021-5.216-0.04-7.568,1.744c-2.686,2.037-4.47,3.002-7.944,3.34c-0.439,0.041-0.83-0.279-0.872-0.721
			c-0.037-0.447,0.279-0.828,0.718-0.871c3.064-0.295,4.533-1.049,7.132-3.021c2.786-2.111,5.455-2.092,8.546-2.068l1,0.006
			C50.325,42.514,50.683,42.872,50.683,43.313z"/>
		<path opacity="0.8" fill="#3E5256" enable-background="new    " d="M72.965,51.571c0,0.107-0.022,0.219-0.068,0.322
			c-1.683,3.801-4.795,4.318-7.54,4.775c-1.564,0.262-3.042,0.508-4.037,1.354c-0.336,0.285-0.841,0.244-1.126-0.092
			c-0.285-0.336-0.245-0.84,0.091-1.125c1.332-1.131,3.099-1.426,4.808-1.711c2.576-0.43,5.009-0.834,6.342-3.847
			c0.178-0.403,0.65-0.587,1.054-0.407C72.787,50.973,72.965,51.264,72.965,51.571z"/>
	</g>
</g>
</svg>
