<?xml version="1.0" encoding="utf-8"?>
<!-- Generator: Adobe Illustrator 16.0.0, SVG Export Plug-In . SVG Version: 6.00 Build 0)  -->
<!DOCTYPE svg PUBLIC "-//W3C//DTD SVG 1.1//EN" "http://www.w3.org/Graphics/SVG/1.1/DTD/svg11.dtd">
<svg version="1.1" id="圖層_1" xmlns="http://www.w3.org/2000/svg" xmlns:xlink="http://www.w3.org/1999/xlink" x="0px" y="0px"
	 width="272px" height="66.683px" viewBox="-85.868 98.201 272 66.683" enable-background="new -85.868 98.201 272 66.683"
	 xml:space="preserve">
<g>
	<g>
		<defs>
			<polygon id="SVGID_1_" points="-48.507,126.538 -29.571,126.538 -29.571,139.472 -48.507,139.472 -48.507,164.884 
				177.364,164.884 177.364,98.201 -48.507,98.201 			"/>
		</defs>
		<clipPath id="SVGID_2_">
			<use xlink:href="#SVGID_1_"  overflow="visible"/>
		</clipPath>
		<g clip-path="url(#SVGID_2_)">
			<path opacity="0.8" fill="#BCD6D6" enable-background="new    " d="M126.6,136.136c9.492,0,18.904-0.376,28.313-1.068
				c3.89-0.286,7.763-0.675,11.548-1.262c3.024-0.469,10.902-2.072,10.902-4.038c0-2.391-7.164-3.424-10.172-3.707
				c-30.668-2.884-55.249-2.003-82.492,0.822c-7.276,0.753-28.823,3.77-28.823,3.77c13.826,2.996,34.097,4.112,48.721,4.941
				c0.025,0.002,16.232,0.449,16.259,0.45"/>
			<path opacity="0.8" fill="#BCD6D6" enable-background="new    " d="M49.247,133.445c-12.771,3.813-23.704,16.145-36.843,19.658
				c-14.92,3.989-31.788,2.221-47.035,0.883c-7.12-0.625-10.768-2.224-13.39-8.696c0.309-0.005,41.603,0.039,44.328-1.251
				c4.598-2.176,1.521-5.569-2.113-6.437c-8.176-1.953-37.116-2.35-42.753-2.474c-0.007-2.095,0.003-4.189,0.004-6.285
				c0.297-0.003,41.562-1.796,44.418-3.066c4.411-1.964,2.731-5.57-1.325-6.511c-8.01-1.857-37.032-0.709-42.739-0.598
				c0.466-3.795,2.103-6.75,5.805-8.482c4.574-2.138,10.257-1.83,15.203-2.105c10.539-0.591,21.234-1.777,31.773-0.614
				c4.116,0.455,8.086,1.658,11.8,3.406c1.508,0.709,3.004,1.615,4.48,2.616L49.247,133.445z"/>
			<path opacity="0.8" fill="#3E5256" enable-background="new    " d="M178.045,131.084c0,0.298-0.13,0.579-0.384,0.834
				c-3.095,3.091-38.412,7.84-53.831,7.821c-0.377,0-0.682-0.305-0.682-0.681v0c0-0.376,0.307-0.68,0.682-0.68
				c16.65,0.021,48.976-4.781,52.616-7.203c-3.047-1.499-22.19-4.984-46.887-5.907c-23.262-0.869-57.026,0.257-85.785,10.561
				c-5.627,2.016-10.201,6.018-14.625,9.887c-4.964,4.344-10.096,8.834-16.825,10.711c-13.706,3.823-29.333,2.377-43.122,1.102
				l-2.147-0.198c-6.773-0.62-10.704-2.2-13.39-9.115c-0.081-0.208-0.054-0.441,0.07-0.626c0.124-0.185,0.33-0.297,0.553-0.301
				c0.019,0,0.185,0,0.481,0c23.907-0.024,40.26-0.488,41.663-1.181c0.893-0.44,1.937-1.175,1.827-2.177
				c-0.127-1.183-1.758-2.492-3.713-2.98c-7.106-1.77-31.117-2.254-39.007-2.414l-1.769-0.037c-0.37-0.008-0.665-0.31-0.666-0.679
				c-0.004-1.316,0-2.633,0.001-3.949l0.003-2.33c0-0.371,0.298-0.674,0.669-0.681c1.818-0.055,39.752-1.844,42.244-3.001
				c1.447-0.672,2.194-1.57,2.097-2.521c-0.114-1.157-1.446-2.268-3.238-2.701c-6.551-1.585-28.193-0.943-37.435-0.67
				c-1.434,0.042-2.568,0.077-3.303,0.092c-0.197,0.004-0.386-0.078-0.519-0.223c-0.131-0.146-0.194-0.341-0.171-0.538
				c0.514-4.361,2.456-7.306,5.935-9.003c3.645-1.778,7.871-1.918,11.957-2.054c0.97-0.032,1.926-0.064,2.854-0.118
				c2.016-0.118,4.037-0.259,6.063-0.402c8.031-0.562,16.336-1.145,24.469-0.208c3.865,0.445,7.739,1.612,11.517,3.468
				c1.347,0.661,2.78,1.534,4.383,2.668c0.307,0.217,0.379,0.642,0.163,0.949c-0.218,0.307-0.642,0.379-0.949,0.163
				c-1.543-1.093-2.916-1.929-4.196-2.558c-3.638-1.788-7.364-2.91-11.073-3.336c-8.007-0.923-16.249-0.346-24.218,0.212
				c-2.03,0.143-4.058,0.284-6.079,0.402c-0.94,0.055-1.907,0.087-2.889,0.12c-3.943,0.131-8.021,0.266-11.406,1.917
				c-2.863,1.396-4.487,3.683-5.068,7.159c0.667-0.018,1.508-0.042,2.49-0.072c9.295-0.275,31.066-0.92,37.795,0.708
				c2.383,0.577,4.1,2.14,4.273,3.891c0.154,1.552-0.896,2.97-2.879,3.891c-2.669,1.238-36.884,2.865-42.126,3.099l-0.002,1.68
				c-0.002,1.093-0.004,2.185-0.003,3.278l1.102,0.023c7.928,0.16,32.054,0.647,39.309,2.454c2.192,0.546,4.523,2.149,4.738,4.156
				c0.104,0.984-0.256,2.397-2.578,3.543c-2.229,1.102-26.839,1.302-41.72,1.32c2.42,5.534,5.711,6.763,11.864,7.327l2.148,0.198
				c13.671,1.265,29.166,2.698,42.63-1.057c6.431-1.794,11.445-6.181,16.294-10.424c4.519-3.953,9.192-8.041,15.062-10.144
				c54.107-19.385,129.273-7.782,134.225-4.296C177.875,130.487,178.045,130.768,178.045,131.084z"/>
			<path opacity="0.8" fill="#3E5256" enable-background="new    " d="M118.452,139.079c0,0.012,0,0.024,0,0.036
				c-0.02,0.373-0.336,0.661-0.71,0.645c-0.083-0.003-4.325-0.164-8.567-0.324c-8.566-0.324-8.572-0.324-8.588-0.325l-0.694-0.054
				c-15.364-1.19-36.404-2.82-50.839-7.096c-6.845-2.027-12.782-4.635-19.853-8.72c-1.3-0.75-2.607-1.572-3.989-2.442l-0.705-0.443
				c-0.318-0.201-0.414-0.621-0.214-0.938c0.2-0.318,0.62-0.415,0.938-0.214l0.706,0.444c1.372,0.863,2.667,1.678,3.944,2.416
				c6.974,4.029,12.823,6.598,19.56,8.593c14.298,4.235,35.255,5.858,50.557,7.044l0.683,0.054c0.061,0.001,4.304,0.162,8.545,0.322
				c8.567,0.324,8.572,0.324,8.59,0.326C118.175,138.421,118.452,138.722,118.452,139.079z"/>
		</g>
	</g>
</g>
<g>
	<path fill="#F2BA3D" d="M-63.29,136.375c0,0-1.16,1.244-1.041,1.735c0.233,0.964,4.128,3.603,10.076,3.149
		c6.828-0.521,14.783-4.888,18.582-11.772c2.328-4.22,2.95-8.008,2.557-9.31c-0.22-0.729-1.869-1.068-1.869-1.068L-63.29,136.375z"
		/>
	<path fill="#F5D069" d="M-67.801,120.436c4.61,0.908,9.706-0.224,15.074-2.311c5.367-2.086,6.794-2.752,6.794-2.752
		s-8.833-8.829-15.727-9.383c-4.999-0.401-11.585,1.438-12.51,4.885C-75.475,115.738-72.41,119.529-67.801,120.436z"/>
	<path fill="#F5D069" d="M-66.298,141.752c0,0,18.25,15.111,27.978,9.382c9.727-5.728,10.464-18.322,10.181-21.047
		c-0.283-2.726-0.049-4.613,0.01-5.344c0.06-0.73-0.236-1.725-1.433-2.144c-1.196-0.42-1.196-0.42-1.196-0.42
		s0.95,2.012-0.312,5.223c-1.175,2.988-4.45,7.081-7.305,9.849C-42.391,141.143-53.592,149.67-66.298,141.752z"/>
	<path fill="#F5D069" d="M-73.244,120.436c0,0,3.729,6.057,12.926,2.574c9.197-3.483,14.224-6.2,14.224-6.2
		s10.854,0.776,11.11,2.299c0.255,1.521-0.182,11.537-10.068,15.448c-9.306,3.681-17.142,5.642-20.867,0.123
		C-69.646,129.159-73.244,120.436-73.244,120.436z"/>
	<path opacity="0.8" fill="#3E5256" enable-background="new    " d="M-45.414,116.811c0,0,0,0.001,0,0.002
		c0,0.234-0.123,0.452-0.321,0.575c-0.594,0.37-14.657,9.026-23.27,6.633c-2.337-0.649-4.072-2.056-5.157-4.179
		c-1.783-3.491-1.258-6.602,1.387-8.68c3.049-2.395,8.339-2.981,11.69-2.164c6.301,1.536,14.987,7.003,15.354,7.235
		C-45.534,116.359-45.414,116.576-45.414,116.811z M-73.861,115.935c0,0.999,0.307,2.104,0.912,3.29
		c0.917,1.794,2.326,2.934,4.308,3.484c6.81,1.894,17.909-4.009,21.224-5.909c-2.451-1.471-9.093-5.283-13.989-6.477
		c-2.971-0.725-7.839-0.199-10.527,1.911C-73.213,113.238-73.861,114.483-73.861,115.935z"/>
	<path opacity="0.8" fill="#3E5256" enable-background="new    " d="M-34.004,120.06c0,1.275-0.689,3.402-2.355,7.576
		c-2.067,5.181-8.609,8.615-14.041,10.101c-5.928,1.621-11.385,1.261-14.242-0.942c-6.239-4.812-9.695-17.566-9.84-18.107
		c-0.096-0.364,0.12-0.736,0.482-0.833c0.364-0.097,0.737,0.119,0.834,0.481c0.034,0.129,3.482,12.851,9.355,17.38
		c2.526,1.948,7.527,2.219,13.051,0.708c6.429-1.76,11.585-5.407,13.136-9.292c1.384-3.47,2.606-6.781,2.173-7.513
		c-0.145-0.245-0.796-0.326-1.549-0.42l-0.076-0.01c-2.722-0.34-8.9-1.656-9.162-1.712c-0.369-0.078-0.604-0.44-0.524-0.809
		c0.078-0.368,0.44-0.603,0.808-0.523c0.064,0.013,6.383,1.359,9.047,1.693l0.076,0.009c1.11,0.139,2.068,0.258,2.553,1.079
		C-34.1,119.226-34.004,119.583-34.004,120.06z"/>
	<path opacity="0.8" fill="#3E5256" enable-background="new    " d="M-29.501,124.758c0,3.069-8.014,15.718-17.517,19.199
		c-11.084,4.062-19.833-1.823-20.2-2.075c-0.154-0.106-0.258-0.271-0.286-0.457c-0.029-0.185,0.02-0.374,0.135-0.522l3.287-4.22
		c0.231-0.297,0.659-0.35,0.955-0.119c0.297,0.23,0.35,0.658,0.119,0.955l-2.817,3.617c2.14,1.214,9.549,4.763,18.339,1.542
		c9.018-3.304,16.623-15.641,16.623-17.913c0-0.005,0-0.009,0-0.014c-0.053-4.158-3.665-4.197-3.818-4.197
		c-0.375,0-0.681-0.302-0.684-0.677c0-0.001,0-0.002,0-0.004c0-0.374,0.299-0.677,0.673-0.681c1.771-0.019,5.135,1.116,5.191,5.542
		C-29.501,124.742-29.501,124.75-29.501,124.758z"/>
	<path opacity="0.8" fill="#3E5256" enable-background="new    " d="M-27.36,124.271c0,0.234-0.044,0.472-0.132,0.71
		c-0.496,1.336-0.152,4.048,0.021,4.981c0.005,0.029,0.009,0.06,0.011,0.089c0.031,0.557,0.585,13.73-9.472,21.014
		c-4.32,3.128-10.769,2.501-19.165-1.863c-6.136-3.188-11.12-7.316-11.17-7.358c-0.289-0.241-0.329-0.669-0.088-0.958
		c0.241-0.289,0.67-0.328,0.958-0.088c0.193,0.16,19.334,15.92,28.666,9.164c9.184-6.65,8.943-18.998,8.912-19.8
		c-0.084-0.468-0.641-3.796,0.05-5.655c0.07-0.187,0.063-0.333-0.02-0.487c-0.305-0.567-1.464-1.021-2.124-1.176
		c-0.366-0.085-0.594-0.45-0.51-0.816c0.085-0.366,0.449-0.595,0.815-0.511c0.236,0.054,2.32,0.565,3.016,1.856
		C-27.437,123.656-27.36,123.96-27.36,124.271z"/>
	<path opacity="0.8" fill="#3E5256" enable-background="new    " d="M-30.386,137.274c0,2.071-0.136,4.376-0.522,6.75
		c-0.061,0.372-0.41,0.624-0.781,0.562c-0.372-0.06-0.628-0.408-0.562-0.781c1.242-7.652-0.234-14.765-0.25-14.837
		c-0.079-0.367,0.156-0.729,0.524-0.807c0.369-0.079,0.729,0.156,0.808,0.524C-31.125,128.896-30.386,132.451-30.386,137.274z"/>
	<path opacity="0.8" fill="#3E5256" enable-background="new    " d="M-33.651,147.84c0,0.375-0.303,0.679-0.678,0.681
		c-0.376,0.001-0.682-0.301-0.684-0.679c-0.032-7.763-1.624-12.908-1.64-12.959c-0.113-0.36,0.086-0.741,0.445-0.854
		c0.358-0.112,0.741,0.086,0.854,0.444c0.068,0.216,1.67,5.377,1.703,13.363C-33.651,147.838-33.651,147.839-33.651,147.84z"/>
	<path opacity="0.8" fill="#3E5256" enable-background="new    " d="M-36.651,150.513c0,0.376-0.305,0.682-0.681,0.682
		c-0.376,0-0.681-0.306-0.681-0.682c0-4.04-3.382-10.663-3.416-10.73c-0.171-0.334-0.04-0.745,0.294-0.917
		c0.334-0.171,0.745-0.041,0.917,0.294C-40.072,139.443-36.651,146.144-36.651,150.513z"/>
	<path opacity="0.8" fill="#3E5256" enable-background="new    " d="M-40.142,152.053c0,0.236-0.124,0.466-0.343,0.592
		c-0.326,0.186-0.742,0.073-0.93-0.253l-5.271-9.216c-0.187-0.327-0.073-0.741,0.253-0.929c0.326-0.187,0.742-0.073,0.929,0.253
		l5.272,9.216C-40.171,151.823-40.142,151.938-40.142,152.053z"/>
	<path opacity="0.8" fill="#3E5256" enable-background="new    " d="M-45.414,152.054c0,0.166-0.06,0.332-0.181,0.462
		c-0.256,0.276-0.686,0.292-0.962,0.038c-3.471-3.211-6.908-7.07-6.942-7.108c-0.25-0.282-0.225-0.712,0.056-0.961
		c0.281-0.25,0.711-0.225,0.961,0.056c0.034,0.038,3.428,3.85,6.85,7.014C-45.488,151.688-45.414,151.871-45.414,152.054z"/>
	<path opacity="0.8" fill="#3E5256" enable-background="new    " d="M-58.097,137.92c0,0.037-0.002,0.075-0.01,0.113
		c-0.062,0.371-0.413,0.622-0.783,0.559c-0.838-0.14-6.751-6.357-9.555-14.615c-0.121-0.355,0.07-0.742,0.426-0.863
		c0.356-0.122,0.743,0.07,0.863,0.426c2.71,7.982,8.022,13.29,8.67,13.766C-58.251,137.417-58.097,137.655-58.097,137.92z"/>
	<path opacity="0.8" fill="#3E5256" enable-background="new    " d="M-52.911,137.533c0,0.037-0.002,0.074-0.009,0.112
		c-0.061,0.37-0.412,0.622-0.783,0.561c-0.849-0.141-7.304-5.89-10.135-14.229c-0.122-0.355,0.07-0.742,0.426-0.863
		c0.356-0.122,0.743,0.07,0.863,0.426c2.662,7.839,8.431,12.88,9.218,13.365C-53.078,137.009-52.911,137.257-52.911,137.533z"/>
	<path opacity="0.8" fill="#3E5256" enable-background="new    " d="M-48.496,136.374c0,0.037-0.003,0.075-0.01,0.113
		c-0.062,0.371-0.413,0.622-0.784,0.56c-0.85-0.141-7.305-5.895-10.134-14.229c-0.121-0.355,0.07-0.743,0.426-0.863
		c0.356-0.121,0.743,0.069,0.863,0.425c2.661,7.836,8.43,12.881,9.218,13.365C-48.664,135.851-48.496,136.098-48.496,136.374z"/>
	
		<path opacity="0.8" fill="none" stroke="#3E5256" stroke-width="2" stroke-linecap="round" stroke-linejoin="round" stroke-miterlimit="10" enable-background="new    " d="
		M-44.957,134.327"/>
	
		<path opacity="0.8" fill="none" stroke="#3E5256" stroke-width="2" stroke-linecap="round" stroke-linejoin="round" stroke-miterlimit="10" enable-background="new    " d="
		M-54.171,120.937"/>
	<path opacity="0.8" fill="#3E5256" enable-background="new    " d="M-39.861,131.509c0,0.15-0.049,0.299-0.149,0.426
		c-0.235,0.293-0.664,0.34-0.958,0.105c-6.49-5.2-9.729-9.006-10.947-10.438c-0.204-0.238-0.412-0.485-0.504-0.577
		c-0.236-0.14-0.373-0.414-0.326-0.699c0.062-0.371,0.412-0.621,0.784-0.559c0.317,0.053,0.449,0.208,1.083,0.953
		c1.308,1.538,4.374,5.139,10.762,10.258C-39.949,131.111-39.861,131.31-39.861,131.509z"/>
	<path opacity="0.8" fill="#3E5256" enable-background="new    " d="M-44.372,134.556c0,0.182-0.072,0.363-0.215,0.497
		c-0.274,0.258-0.705,0.243-0.961-0.032c-4.886-5.212-7.989-9.78-9.481-11.976c-0.341-0.502-0.666-0.979-0.791-1.131
		c-0.205-0.146-0.321-0.399-0.277-0.667c0.062-0.371,0.413-0.622,0.783-0.56c0.371,0.062,0.47,0.208,1.412,1.592
		c1.472,2.167,4.535,6.675,9.348,11.811C-44.433,134.222-44.372,134.39-44.372,134.556z"/>
	<path opacity="0.8" fill="#3E5256" enable-background="new    " d="M-34.488,122.179c0,0.373-0.298,0.678-0.672,0.682
		c-0.158,0-3.975-0.013-12.381-4.124c-0.338-0.165-0.477-0.574-0.312-0.911c0.166-0.337,0.573-0.478,0.911-0.312
		c8.052,3.938,11.738,3.985,11.774,3.985c0.375,0,0.681,0.303,0.682,0.679C-34.488,122.178-34.488,122.179-34.488,122.179z"/>
	<path opacity="0.8" fill="#3E5256" enable-background="new    " d="M-36.614,126.833c0,0.087-0.017,0.176-0.053,0.262
		c-0.144,0.347-0.543,0.511-0.891,0.366c-0.246-0.104-6.111-2.58-12.255-7.834c-0.286-0.246-0.32-0.674-0.075-0.96
		c0.245-0.286,0.674-0.319,0.96-0.075c5.984,5.117,11.837,7.589,11.895,7.613C-36.771,126.313-36.614,126.565-36.614,126.833z"/>
</g>
</svg>
