<?xml version="1.0" encoding="utf-8"?>
<!-- Generator: Adobe Illustrator 23.0.1, SVG Export Plug-In . SVG Version: 6.00 Build 0)  -->
<svg version="1.1" id="圖層_1" xmlns="http://www.w3.org/2000/svg" xmlns:xlink="http://www.w3.org/1999/xlink" x="0px" y="0px"
	 viewBox="0 0 44.4 187.1" style="enable-background:new 0 0 44.4 187.1;" xml:space="preserve">
<style type="text/css">
	.st0{opacity:0.6;fill:#FFFFFF;stroke:#5C767E;stroke-width:2;stroke-miterlimit:10;}
	.st1{opacity:0.8;fill:#5C767E;}
</style>
<g>
	<path class="st0" d="M40.4,2c0,0-24.9,10.3-33.4,13.4c-2.6,1-4.6,3.1-4.6,5.9v143.3c0,2.8,2,4.9,4.6,5.9L40.4,184
		c0.9,0.2,1.8-0.4,1.8-1.4v-6V9.4v-6C42.1,2.5,41.2,1.8,40.4,2z"/>
	<path class="st1" d="M20.2,104.8c0.2,0,0.4-0.1,0.5-0.2l1.3-1.3c0.3-0.3,0.3-0.8,0-1.1L12.9,93l9.1-9.2c0.3-0.3,0.3-0.8,0-1.1
		l-1.3-1.3c-0.1-0.1-0.3-0.2-0.5-0.2c-0.2,0-0.4,0.1-0.5,0.2l-11,11l0,0c-0.3,0.3-0.3,0.8,0,1.1l11,11
		C19.8,104.7,20,104.8,20.2,104.8z"/>
	<path class="st1" d="M34,104.8c0.2,0,0.4-0.1,0.5-0.2l1.3-1.3c0.3-0.3,0.3-0.8,0-1.1L26.7,93l9.1-9.2c0.3-0.3,0.3-0.8,0-1.1
		l-1.3-1.3c-0.1-0.1-0.3-0.2-0.5-0.2s-0.4,0.1-0.5,0.2l-11,11l0,0c-0.3,0.3-0.3,0.8,0,1.1l11,11C33.6,104.7,33.8,104.8,34,104.8z"/>
</g>
</svg>
