<?xml version="1.0" encoding="utf-8"?>
<!-- Generator: Adobe Illustrator 22.0.1, SVG Export Plug-In . SVG Version: 6.00 Build 0)  -->
<svg version="1.1" id="圖層_1" xmlns="http://www.w3.org/2000/svg" xmlns:xlink="http://www.w3.org/1999/xlink" x="0px" y="0px"
	 viewBox="0 0 169 20.9" style="enable-background:new 0 0 169 20.9;" xml:space="preserve">
<style type="text/css">
	.st0{opacity:0.4;fill:#E67348;enable-background:new    ;}
	
		.st1{opacity:0.8;fill:none;stroke:#3E5256;stroke-width:2;stroke-linecap:round;stroke-linejoin:round;stroke-miterlimit:10;enable-background:new    ;}
</style>
<g>
	<path class="st0" d="M162.4,19.1c-1.5,1.5-4.4,2.8-6.5,2.8h-130c-2.1,0-4.9-1.3-6.3-3l-6.5-7.7c-1.4-1.6-0.8-3,1.3-3h154.8
		c2.1,0,2.6,1.2,1.1,2.8L162.4,19.1z"/>
	<path class="st1" d="M157.4,15c-1.5,1.5-4.5,2.8-6.7,2.8H17.6c-2.1,0-5-1.3-6.4-3L4.6,7.1c-1.4-1.6-0.8-3,1.4-3h158.5
		c2.1,0,2.7,1.2,1.1,2.8L157.4,15z"/>
</g>
</svg>
