<?xml version="1.0" encoding="utf-8"?>
<!-- Generator: Adobe Illustrator 23.0.0, SVG Export Plug-In . SVG Version: 6.00 Build 0)  -->
<svg version="1.1" id="圖層_1" xmlns="http://www.w3.org/2000/svg" xmlns:xlink="http://www.w3.org/1999/xlink" x="0px" y="0px"
	 viewBox="0 0 145.4 81.3" style="enable-background:new 0 0 145.4 81.3;" xml:space="preserve">
<style type="text/css">
	.st0{fill:#FFFFFF;}
	
		.st1{opacity:0.8;fill:none;stroke:#3E5256;stroke-width:2;stroke-linecap:round;stroke-linejoin:round;stroke-miterlimit:10;enable-background:new    ;}
</style>
<g>
	<path class="st0" d="M84.2,14.7L84.2,14.7C83.3,7.5,77.1,2,69.6,1.9c-7.8,0-14.1,6.2-14.5,13.8c0.3-0.1,0.6-0.2,1-0.2
		C26.2,22.6,3.7,48.6,2,80.1l140.2-0.3C140.4,47,115.9,20.2,84.2,14.7z M61.1,14.5C61.1,14.5,61.2,14.5,61.1,14.5
		c1-3.8,4.4-6.7,8.6-6.7c3.9,0,7.2,2.6,8.3,6.2l0,0c-2-0.2-4.1-0.2-6.1-0.3C68.3,13.6,64.6,14,61.1,14.5z"/>
	<path class="st1" d="M84.2,14.7L84.2,14.7C83.3,7.5,77.1,2,69.6,1.9c-7.8,0-14.1,6.2-14.5,13.8c0.3-0.1,0.6-0.2,1-0.2
		C26.2,22.6,3.7,48.6,2,80.1l140.2-0.3C140.4,47,115.9,20.2,84.2,14.7z M61.1,14.5C61.1,14.5,61.2,14.5,61.1,14.5
		c1-3.8,4.4-6.7,8.6-6.7c3.9,0,7.2,2.6,8.3,6.2l0,0c-2-0.2-4.1-0.2-6.1-0.3C68.3,13.6,64.6,14,61.1,14.5z"/>
</g>
</svg>
