<?xml version="1.0" encoding="utf-8"?>
<!-- Generator: Adobe Illustrator 23.0.1, SVG Export Plug-In . SVG Version: 6.00 Build 0)  -->
<svg version="1.1" id="圖層_1" xmlns="http://www.w3.org/2000/svg" xmlns:xlink="http://www.w3.org/1999/xlink" x="0px" y="0px"
	 viewBox="0 0 253 124" style="enable-background:new 0 0 253 124;" xml:space="preserve">
<style type="text/css">
	.st0{fill:#F5D069;}
	.st1{opacity:0.8;fill:none;stroke:#3E5256;stroke-width:2;stroke-linecap:round;stroke-linejoin:round;stroke-miterlimit:10;}
	.st2{fill:#F2BA3D;}
</style>
<g>
	<path class="st0" d="M174.9,59.5c0.5-1.4-2.1-3.8-2.1-3.8l-2.5-2.7l3.6-0.7c0,0,3.4-0.5,3.9-1.9c0.5-1.4-2.1-3.8-2.1-3.8l-1.8-1.9
		l1.3-2c0,0,2.1-2.8,1.4-4.1c-0.7-1.3-4.1-1.2-4.1-1.2l-1.5,0l-0.2-1.1c0,0-0.5-3.4-1.9-3.9c-1.4-0.5-3.8,2.1-3.8,2.1l-2.7,2.5
		l-0.7-3.6c0,0-0.5-3.4-1.9-3.9c-1.4-0.5-3.8,2-3.8,2l-2.7,2.5l-0.7-3.6c0,0-0.5-3.4-1.9-3.9c-1.4-0.5-3.8,2-3.8,2l-2.7,2.5
		l-0.7-3.6c0,0-0.5-3.4-1.9-3.9c-1.4-0.5-3.8,2-3.8,2l-2.7,2.5l-0.7-3.6c0,0-0.5-3.4-1.9-3.9c-1.4-0.5-3.8,2-3.8,2l-2.7,2.5
		l-0.7-3.6c0,0-0.5-3.4-1.9-3.9c-1.4-0.5-3.8,2.1-3.8,2.1l-2.7,2.5l-0.7-3.6c0,0-0.5-3.4-1.9-3.9c-1.4-0.5-3.8,2.1-3.8,2.1l-1.1,1.1
		l-2.4-1.6c0,0-2.8-2.1-4.1-1.4c-1.3,0.7-1.2,4.1-1.2,4.1l-0.1,2.9l-1.5,0.3c0,0-3.4,0.5-3.9,1.9c-0.5,1.4,2,3.8,2,3.8l2.5,2.7
		L97,31.5c0,0-3.4,0.5-3.9,1.9c-0.5,1.4,2,3.8,2,3.8l2.5,2.7l-3.6,0.7c0,0-3.4,0.5-3.9,1.9c-0.5,1.4,2,3.8,2,3.8l2.5,2.7l-3.6,0.7
		c0,0-3.4,0.5-3.9,1.9c-0.5,1.4,2.1,3.8,2.1,3.8l2.5,2.7l-3.6,0.7c0,0-3.4,0.5-3.9,1.9c-0.5,1.4,2,3.8,2,3.8l2.5,2.7L85.4,68
		c0,0-3.4,0.5-3.9,1.9c-0.5,1.4,2.1,3.8,2.1,3.8l2.5,2.7l-3.6,0.7c0,0-3.4,0.5-3.9,1.9c-0.5,1.4,2.1,3.8,2.1,3.8l1.1,1.1l-1.6,2.4
		c0,0-2.1,2.8-1.4,4.1c0.7,1.3,4.1,1.2,4.1,1.2l2.9,0.1l0.3,1.5c0,0,0.5,3.4,1.9,3.9c1.4,0.5,3.8-2,3.8-2l2.7-2.5l0.7,3.6
		c0,0,0.5,3.4,1.9,3.9c1.4,0.5,3.8-2,3.8-2l2.7-2.5l0.7,3.6c0,0,0.5,3.4,1.9,3.9c1.4,0.5,3.8-2,3.8-2l2.7-2.5l0.7,3.6
		c0,0,0.5,3.4,1.9,3.9c1.4,0.5,3.8-2,3.8-2l2.7-2.5l0.7,3.6c0,0,0.5,3.4,1.9,3.9c1.4,0.5,3.8-2,3.8-2l2.7-2.5l0.7,3.6
		c0,0,0.5,3.4,1.9,3.9c1.4,0.5,3.8-2.1,3.8-2.1l2.7-2.5l0.7,3.6c0,0,0.5,3.4,1.9,3.9c1.4,0.5,3.8-2,3.8-2l0.8-0.8l1.2,0.8
		c0,0,2.8,2.1,4.1,1.4c1.3-0.7,1.2-4.1,1.2-4.1l0.1-2.4l2.6-0.5c0,0,3.4-0.5,3.9-1.9c0.5-1.4-2.1-3.8-2.1-3.8l-2.5-2.7l3.6-0.7
		c0,0,3.4-0.5,3.9-1.9c0.5-1.4-2-3.8-2-3.8l-2.5-2.7l3.6-0.7c0,0,3.4-0.5,3.9-1.9c0.5-1.4-2-3.8-2-3.8l-2.5-2.7l3.6-0.7
		c0,0,3.4-0.5,3.9-1.9c0.5-1.4-2-3.8-2-3.8l-2.5-2.7l3.6-0.7c0,0,3.4-0.5,3.9-1.9c0.5-1.4-2-3.8-2-3.8l-2.5-2.7l3.6-0.7
		C171,61.4,174.4,60.9,174.9,59.5z"/>
	<path class="st1" d="M171.4,54c0.5-1.4-2.1-3.8-2.1-3.8l-2.5-2.7l3.6-0.7c0,0,3.4-0.5,3.9-1.9c0.5-1.4-2.1-3.8-2.1-3.8l-1.8-1.9
		l1.3-2c0,0,2.1-2.8,1.4-4.1c-0.7-1.3-4.1-1.2-4.1-1.2l-1.5,0l-0.2-1.1c0,0-0.5-3.4-1.9-3.9c-1.4-0.5-3.8,2.1-3.8,2.1l-2.7,2.5
		l-0.7-3.6c0,0-0.5-3.4-1.9-3.9c-1.4-0.5-3.8,2-3.8,2l-2.7,2.5l-0.7-3.6c0,0-0.5-3.4-1.9-3.9c-1.4-0.5-3.8,2-3.8,2l-2.7,2.5L140,22
		c0,0-0.5-3.4-1.9-3.9c-1.4-0.5-3.8,2-3.8,2l-2.7,2.5l-0.7-3.6c0,0-0.5-3.4-1.9-3.9c-1.4-0.5-3.8,2-3.8,2l-2.7,2.5l-0.7-3.6
		c0,0-0.5-3.4-1.9-3.9c-1.4-0.5-3.8,2.1-3.8,2.1l-2.7,2.5l-0.7-3.6c0,0-0.5-3.4-1.9-3.9c-1.4-0.5-3.8,2.1-3.8,2.1l-1.1,1.1l-2.4-1.6
		c0,0-2.8-2.1-4.1-1.4c-1.3,0.7-1.2,4.1-1.2,4.1L98,16.6l-1.5,0.3c0,0-3.4,0.5-3.9,1.9c-0.5,1.4,2,3.8,2,3.8l2.5,2.7L93.6,26
		c0,0-3.4,0.5-3.9,1.9c-0.5,1.4,2,3.8,2,3.8l2.5,2.7l-3.6,0.7c0,0-3.4,0.5-3.9,1.9c-0.5,1.4,2,3.8,2,3.8l2.5,2.7l-3.6,0.7
		c0,0-3.4,0.5-3.9,1.9C83.5,47.6,86,50,86,50l2.5,2.7l-3.6,0.7c0,0-3.4,0.5-3.9,1.9c-0.5,1.4,2,3.8,2,3.8l2.5,2.7L82,62.5
		c0,0-3.4,0.5-3.9,1.9c-0.5,1.4,2.1,3.8,2.1,3.8l2.5,2.7l-3.6,0.7c0,0-3.4,0.5-3.9,1.9c-0.5,1.4,2.1,3.8,2.1,3.8l1.1,1.1l-1.6,2.4
		c0,0-2.1,2.8-1.4,4.1c0.7,1.3,4.1,1.2,4.1,1.2l2.9,0.1l0.3,1.5c0,0,0.5,3.4,1.9,3.9c1.4,0.5,3.8-2,3.8-2l2.7-2.5l0.7,3.6
		c0,0,0.5,3.4,1.9,3.9c1.4,0.5,3.8-2,3.8-2l2.7-2.5l0.7,3.6c0,0,0.5,3.4,1.9,3.9c1.4,0.5,3.8-2,3.8-2l2.7-2.5l0.7,3.6
		c0,0,0.5,3.4,1.9,3.9c1.4,0.5,3.8-2,3.8-2l2.7-2.5l0.7,3.6c0,0,0.5,3.4,1.9,3.9c1.4,0.5,3.8-2,3.8-2l2.7-2.5l0.7,3.6
		c0,0,0.5,3.4,1.9,3.9c1.4,0.5,3.8-2.1,3.8-2.1l2.7-2.5l0.7,3.6c0,0,0.5,3.4,1.9,3.9c1.4,0.5,3.8-2,3.8-2l0.8-0.8l1.2,0.8
		c0,0,2.8,2.1,4.1,1.4c1.3-0.7,1.2-4.1,1.2-4.1l0.1-2.4l2.6-0.5c0,0,3.4-0.5,3.9-1.9c0.5-1.4-2.1-3.8-2.1-3.8l-2.5-2.7l3.6-0.7
		c0,0,3.4-0.5,3.9-1.9c0.5-1.4-2-3.8-2-3.8l-2.5-2.7l3.6-0.7c0,0,3.4-0.5,3.9-1.9c0.5-1.4-2-3.8-2-3.8l-2.5-2.7l3.6-0.7
		c0,0,3.4-0.5,3.9-1.9c0.5-1.4-2-3.8-2-3.8l-2.5-2.7l3.6-0.7c0,0,3.4-0.5,3.9-1.9c0.5-1.4-2.1-3.8-2.1-3.8l-2.5-2.7l3.6-0.7
		C167.6,55.9,171,55.4,171.4,54z"/>
	<path class="st2" d="M150.9,76.9c-4.5,14.2-11.5,17.4-26.2,13.5l-5.1-1.6c-14.4-4.6-17.8-12.9-13.5-26.2l1.6-5.1
		c4.4-13.9,11.7-18.2,26.2-13.5l5.1,1.6c14.8,4.7,17.8,13,13.5,26.2L150.9,76.9z"/>
	<path class="st1" d="M146.4,68.9c-4.5,14.2-11.5,17.4-26.2,13.5l-5.1-1.6c-14.4-4.6-17.8-12.9-13.5-26.2l1.6-5.1
		c4.4-13.9,11.7-18.2,26.2-13.5l5.1,1.6c14.8,4.7,17.8,13,13.5,26.2L146.4,68.9z"/>
</g>
</svg>
