<?xml version="1.0" encoding="utf-8"?>
<!-- Generator: Adobe Illustrator 23.0.1, SVG Export Plug-In . SVG Version: 6.00 Build 0)  -->
<svg version="1.1" id="圖層_1" xmlns="http://www.w3.org/2000/svg" xmlns:xlink="http://www.w3.org/1999/xlink" x="0px" y="0px"
	 viewBox="0 0 187.3 609.7" style="enable-background:new 0 0 187.3 609.7;" xml:space="preserve">
<style type="text/css">
	.st0{fill:url(#SVGID_1_);}
</style>
<g>
	
		<linearGradient id="SVGID_1_" gradientUnits="userSpaceOnUse" x1="93.6358" y1="395.5532" x2="93.6358" y2="-102.4415" gradientTransform="matrix(1 0 0 -1 0 451.4078)">
		<stop  offset="1.276677e-03" style="stop-color:#5C7880;stop-opacity:0.2"/>
		<stop  offset="0.5" style="stop-color:#5C7880"/>
		<stop  offset="0.9887" style="stop-color:#5C7880;stop-opacity:0.2"/>
	</linearGradient>
	<path class="st0" d="M155.1,56.7c-19.3,14.2-36.6,30.9-51.7,49.4s-27.9,38.8-38.2,60.3c-10.3,21.5-18.1,44.2-23.3,67.5
		c-5.2,23.3-7.8,47.1-7.8,71c0,23.8,2.6,47.7,7.8,71c5.2,23.3,13.1,45.9,23.3,67.5c10.3,21.5,23.1,41.8,38.2,60.3
		s32.4,35.2,51.7,49.4c-19.5-13.9-37.1-30.4-52.4-48.8c-15.3-18.4-28.3-38.7-38.9-60.3c-21.1-43.1-31.6-91.2-31.7-139.1
		c0.1-48,10.6-96,31.7-139.1c10.5-21.5,23.5-41.9,38.9-60.3C118,87.1,135.6,70.6,155.1,56.7z"/>
</g>
</svg>
