<?xml version="1.0" encoding="utf-8"?>
<!-- Generator: Adobe Illustrator 23.0.1, SVG Export Plug-In . SVG Version: 6.00 Build 0)  -->
<svg version="1.1" id="圖層_1" xmlns="http://www.w3.org/2000/svg" xmlns:xlink="http://www.w3.org/1999/xlink" x="0px" y="0px"
	 viewBox="0 0 425.2 425.2" style="enable-background:new 0 0 425.2 425.2;" xml:space="preserve">
<style type="text/css">
	.st0{fill:#5C7880;}
</style>
<path class="st0" d="M212.6,6.5C98.8,6.5,6.5,98.7,6.5,212.6s92.3,206.1,206.1,206.1s206.1-92.3,206.1-206.1S326.5,6.5,212.6,6.5z
	 M284.9,215.6c0,28.7-16.7,53.4-40.9,65.1l57.2,99.1c-27,14.3-57.2,22-88.6,22c-30.3,0-59.5-7.1-85.7-20.4l57.3-99.3
	c-25.8-11-43.9-36.6-43.9-66.5c0-3.9,0.3-7.7,0.9-11.5H23.7c2.1-47.3,21.5-91.5,55.2-125.2c10.2-10.2,21.4-19.1,33.3-26.6
	l59.8,103.5c11.6-7.9,25.6-12.5,40.7-12.5c16.3,0,31.3,5.4,43.4,14.5l59.9-103.7c10.9,7.1,21.1,15.4,30.5,24.8
	c33.7,33.7,53.1,77.9,55.2,125.2H284C284.6,207.8,284.9,211.7,284.9,215.6z M251.2,228.3c0,21.3-17.3,38.6-38.6,38.6
	S174,249.6,174,228.3c0-15.3,8.9-28.5,21.8-34.8l16.8-35.3l16.8,35.3C242.3,199.8,251.2,213,251.2,228.3z"/>
</svg>
