<?xml version="1.0" encoding="utf-8"?>
<!-- Generator: Adobe Illustrator 16.0.0, SVG Export Plug-In . SVG Version: 6.00 Build 0)  -->
<!DOCTYPE svg PUBLIC "-//W3C//DTD SVG 1.1//EN" "http://www.w3.org/Graphics/SVG/1.1/DTD/svg11.dtd">
<svg version="1.1" id="圖層_1" xmlns="http://www.w3.org/2000/svg" xmlns:xlink="http://www.w3.org/1999/xlink" x="0px" y="0px"
	 width="256.75px" height="74.643px" viewBox="9.75 0 256.75 74.643" enable-background="new 9.75 0 256.75 74.643"
	 xml:space="preserve">
<g>
	<g>
		<path opacity="0.8" fill="#BCD6D6" enable-background="new    " d="M207.973,40.268c10.498,0,20.906-0.417,31.312-1.183
			c4.303-0.315,8.584-0.747,12.771-1.396c3.346-0.52,12.057-2.292,12.057-4.466c0-2.645-7.922-3.787-11.248-4.1
			c-33.918-3.189-61.104-2.216-91.232,0.908c-8.045,0.833-31.875,4.169-31.875,4.169c15.292,3.312,37.708,4.548,53.883,5.464
			c0.026,0.003,17.95,0.497,17.979,0.499"/>
		<path opacity="0.8" fill="#BCD6D6" enable-background="new    " d="M122.425,37.188c-14.124,4.234-26.214,17.93-40.745,21.831
			c-16.5,4.43-35.156,2.464-52.017,0.979c-7.874-0.694-11.909-2.47-14.809-9.656c0.343-0.006,46.01,0.043,49.023-1.391
			c5.084-2.417,1.683-6.184-2.336-7.147c-9.042-2.169-41.048-2.609-47.283-2.747c-0.007-2.327,0.004-4.655,0.005-6.981
			c0.329-0.003,45.964-1.993,49.124-3.405c4.878-2.181,3.021-6.188-1.465-7.229c-8.858-2.063-40.955-0.788-47.266-0.664
			c0.516-4.217,2.326-7.498,6.42-9.422C26.134,8.981,32.42,9.325,37.89,9.019c11.656-0.655,23.484-1.974,35.139-0.681
			c4.553,0.505,8.942,1.841,13.049,3.782c1.668,0.788,3.323,1.793,4.956,2.906L122.425,37.188z"/>
		<path opacity="0.8" fill="#3E5256" enable-background="new    " d="M264.867,34.679c0,0.33-0.143,0.643-0.426,0.924
			c-3.422,3.418-42.48,8.671-59.533,8.647c-0.416,0-0.753-0.338-0.753-0.752v-0.002c0-0.415,0.339-0.752,0.753-0.752
			c18.414,0.022,54.164-5.287,58.191-7.968c-3.369-1.657-24.542-5.512-51.855-6.53c-25.724-0.962-63.066,0.283-94.873,11.679
			c-6.224,2.229-11.282,6.655-16.175,10.937c-5.489,4.803-11.165,9.768-18.607,11.844c-15.156,4.227-32.437,2.629-47.685,1.22
			l-2.379-0.221c-7.491-0.686-11.838-2.433-14.809-10.08c-0.09-0.228-0.062-0.487,0.077-0.689c0.137-0.205,0.364-0.331,0.61-0.335
			c0.021,0,0.215-0.001,0.56-0.001c26.425-0.027,44.502-0.541,46.05-1.306c0.987-0.487,2.142-1.295,2.021-2.407
			c-0.141-1.31-1.945-2.757-4.108-3.295c-7.855-1.959-34.403-2.495-43.126-2.671l-1.969-0.042c-0.408-0.008-0.734-0.342-0.735-0.749
			c-0.006-1.455,0-2.911,0.001-4.367l0.002-2.578c0-0.409,0.33-0.745,0.74-0.753c2.012-0.061,43.965-2.037,46.719-3.317
			c1.6-0.742,2.418-1.729,2.319-2.786c-0.126-1.281-1.599-2.51-3.581-2.989c-7.248-1.752-31.187-1.043-41.411-0.739
			c-1.582,0.047-2.833,0.082-3.643,0.102c-0.218,0.004-0.426-0.086-0.573-0.248c-0.147-0.159-0.215-0.377-0.19-0.594
			c0.568-4.822,2.715-8.078,6.563-9.957c4.031-1.967,8.705-2.122,13.224-2.271c1.073-0.035,2.13-0.07,3.157-0.132
			c2.229-0.129,4.465-0.286,6.705-0.442c8.882-0.621,18.068-1.266,27.062-0.229c4.275,0.492,8.56,1.783,12.738,3.835
			c1.489,0.729,3.075,1.694,4.847,2.95c0.34,0.24,0.419,0.712,0.181,1.05c-0.24,0.34-0.71,0.421-1.05,0.181
			c-1.706-1.207-3.224-2.133-4.641-2.828c-4.023-1.978-8.144-3.22-12.246-3.69c-8.855-1.021-17.97-0.384-26.785,0.233
			c-2.245,0.156-4.487,0.314-6.721,0.445c-1.039,0.061-2.109,0.096-3.194,0.133c-4.362,0.145-8.872,0.295-12.615,2.121
			c-3.166,1.545-4.961,4.072-5.605,7.916c0.736-0.02,1.663-0.047,2.744-0.078c10.284-0.306,34.365-1.02,41.808,0.783
			c2.636,0.637,4.535,2.366,4.727,4.303c0.168,1.709-0.99,3.284-3.184,4.303c-2.951,1.369-40.791,3.168-46.589,3.427l-0.002,1.856
			c-0.003,1.209-0.006,2.42-0.004,3.625l1.231,0.026c8.765,0.176,35.44,0.716,43.46,2.714c2.424,0.605,5.002,2.377,5.24,4.597
			c0.116,1.092-0.283,2.649-2.852,3.919c-2.463,1.216-29.693,1.438-46.139,1.461c2.676,6.12,6.316,7.479,13.12,8.104l2.381,0.218
			c15.118,1.398,32.252,2.983,47.141-1.169c7.112-1.984,12.657-6.837,18.02-11.527c4.998-4.373,10.165-8.896,16.658-11.221
			c59.839-21.438,142.967-8.604,148.443-4.749C264.68,34.02,264.867,34.328,264.867,34.679z"/>
		<path opacity="0.8" fill="#3E5256" enable-background="new    " d="M198.963,43.521c0,0.017,0,0.035-0.002,0.056
			c-0.029,0.414-0.392,0.727-0.806,0.697c-0.086-0.003-4.771-0.183-9.454-0.358c-9.479-0.358-9.482-0.358-9.507-0.36l-0.758-0.059
			c-16.991-1.316-40.261-3.118-56.224-7.848c-7.569-2.24-14.135-5.124-21.956-9.644c-1.446-0.835-2.897-1.748-4.435-2.716
			l-0.757-0.476c-0.352-0.223-0.458-0.688-0.237-1.037c0.221-0.354,0.687-0.459,1.038-0.237l0.758,0.478
			c1.524,0.959,2.965,1.865,4.386,2.686c7.714,4.456,14.182,7.297,21.63,9.504c15.812,4.683,38.989,6.479,55.913,7.789l0.754,0.06
			c0.082,0.003,4.767,0.181,9.451,0.356c9.479,0.357,9.484,0.359,9.506,0.36C198.66,42.798,198.963,43.129,198.963,43.521z"/>
	</g>
	<g>
		<polygon fill="#F5D069" points="21.947,50.759 23.862,43.163 26.023,43.163 25.168,50.594 		"/>
		<polygon fill="#F5D069" points="23.985,32.203 25.253,24.606 26.686,24.606 26.12,32.038 		"/>
		<path opacity="0.8" fill="#3E5256" enable-background="new    " d="M24.402,43.437c0,0.021,0,0.042-0.002,0.062
			c-0.61,7.507-0.815,7.513-1.575,7.535c-0.415,0.014-0.763-0.314-0.776-0.729c-0.005-0.159,0.044-0.319,0.131-0.446
			c0.174-0.658,0.496-3.74,0.719-6.481c0.033-0.414,0.397-0.723,0.812-0.689C24.104,42.718,24.402,43.048,24.402,43.437z"/>
		<path opacity="0.8" fill="#3E5256" enable-background="new    " d="M25.712,25.032c0,0.016,0,0.031-0.001,0.047
			c-0.598,9.678-0.747,9.682-1.568,9.716c-0.416,0.017-0.768-0.308-0.784-0.723c-0.003-0.158,0.033-0.297,0.106-0.419
			c0.177-0.762,0.511-4.926,0.742-8.667c0.026-0.415,0.382-0.73,0.798-0.706C25.405,24.308,25.712,24.638,25.712,25.032z"/>
		<g>
			<path fill="#F5D069" d="M32.384,19.726c0.9-0.058,1.669,0.379,1.714,0.977c0,0,4.361,10.182,5.302,22.007
				c0.892,11.188-1.764,23.258-1.764,23.258c0.045,0.595-0.647,1.124-1.547,1.182l0,0c-0.902,0.06-1.671-0.38-1.716-0.976
				c0,0,2.135-13.972,1.533-23.206c-0.609-9.332-5.071-22.057-5.071-22.057C30.79,20.313,31.482,19.779,32.384,19.726L32.384,19.726
				z"/>
			<path opacity="0.8" fill="#3E5256" enable-background="new    " d="M40.336,47.545c0,9.022-1.739,17.521-1.945,18.491
				c-0.01,0.982-0.975,1.78-2.254,1.863c-1.331,0.087-2.437-0.646-2.515-1.669c-0.005-0.058-0.002-0.115,0.005-0.173
				c0.017-0.105,1.632-10.78,1.632-19.489l0,0c0-1.286-0.035-2.48-0.105-3.554c-0.594-9.119-4.986-21.729-5.03-21.855
				c-0.021-0.062-0.036-0.126-0.041-0.191c-0.001-0.019-0.004-0.095-0.004-0.113c0-0.991,0.971-1.799,2.257-1.879
				c1.269-0.08,2.331,0.582,2.495,1.528c0.45,1.087,4.428,10.95,5.319,22.146C40.273,44.192,40.336,45.839,40.336,47.545z
				 M36.884,65.959c0-0.052,0.005-0.103,0.018-0.155c0.018-0.089,1.929-8.888,1.929-18.259c0-1.668-0.061-3.273-0.181-4.778
				c-0.92-11.567-5.2-21.67-5.243-21.77c-0.032-0.077-0.051-0.158-0.059-0.24c-0.024-0.076-0.348-0.316-0.916-0.281
				c-0.484,0.031-0.761,0.242-0.829,0.347c0.542,1.573,4.478,13.226,5.055,22.096c0.071,1.104,0.108,2.332,0.108,3.65v0.001
				c0,8.267-1.432,18.253-1.627,19.572c0.074,0.094,0.39,0.287,0.901,0.255c0.537-0.033,0.826-0.288,0.846-0.378
				C36.884,65.996,36.884,65.979,36.884,65.959z"/>
		</g>
		<g>
			<path fill="#F5D069" d="M67.917,11.368c1.056-0.165,2.01,0.266,2.13,0.963c0,0,6.258,11.536,8.662,25.383
				c2.275,13.102,0.462,27.629,0.462,27.629c0.119,0.697-0.641,1.397-1.697,1.565l0,0c-1.057,0.165-2.012-0.27-2.131-0.965
				c0,0,0.99-16.715-0.729-27.545c-1.739-10.941-8.395-25.466-8.395-25.466C66.099,12.234,66.856,11.53,67.917,11.368L67.917,11.368
				z"/>
			<path opacity="0.8" fill="#3E5256" enable-background="new    " d="M80.607,52.592c0,6.713-0.588,11.984-0.678,12.75
				c0.1,1.085-0.915,2.085-2.338,2.312c-1.486,0.232-2.8-0.462-2.991-1.582c-0.01-0.058-0.015-0.113-0.009-0.173
				c0.002-0.048,0.283-4.839,0.283-10.855c0,0,0-0.001,0-0.002c0-6.77-0.338-12.329-1.004-16.524
				c-1.702-10.711-8.27-25.123-8.336-25.27c-0.027-0.059-0.046-0.123-0.057-0.186c-0.195-1.144,0.844-2.209,2.323-2.438
				c1.423-0.222,2.688,0.407,2.959,1.442c0.606,1.146,6.409,12.373,8.691,25.519C80.218,42.009,80.607,47.058,80.607,52.592z
				 M78.418,65.342c0-0.031,0.001-0.062,0.005-0.091c0.007-0.056,0.678-5.527,0.678-12.66c0-5.447-0.382-10.411-1.136-14.75
				c-2.353-13.556-8.519-25.037-8.581-25.152c-0.039-0.071-0.066-0.149-0.081-0.23c-0.031-0.184-0.55-0.458-1.271-0.347
				c-0.663,0.103-1.028,0.452-1.069,0.641c0.671,1.49,6.748,15.168,8.394,25.53c0.678,4.271,1.022,9.911,1.022,16.759
				c0,0.001,0,0.001,0,0.002c0,5.52-0.234,10.021-0.277,10.818c0.098,0.181,0.592,0.407,1.255,0.304
				c0.704-0.112,1.073-0.499,1.072-0.676C78.422,65.444,78.418,65.393,78.418,65.342z"/>
		</g>
		<g>
			<path fill="#F5D069" d="M43.059,15.134c-0.094-1.064,0.397-1.988,1.103-2.062c0,0,11.928-5.475,25.904-6.949
				C83.29,4.726,97.665,7.504,97.665,7.504c0.705-0.073,1.352,0.729,1.448,1.798l0,0c0.095,1.064-0.399,1.988-1.104,2.062
				c0,0-16.613-2.104-27.532-1.11c-11.033,1.007-25.968,6.677-25.968,6.677C43.802,17.004,43.152,16.2,43.059,15.134L43.059,15.134z
				"/>
			<path opacity="0.8" fill="#3E5256" enable-background="new    " d="M99.877,9.562c0,1.371-0.752,2.441-1.79,2.552
				c-0.058,0.006-0.116,0.006-0.172-0.002c-0.166-0.021-16.659-2.083-27.37-1.107c-10.801,0.985-25.621,6.574-25.769,6.632
				c-0.061,0.021-0.124,0.036-0.188,0.043c-0.452,0.049-0.91-0.098-1.292-0.41c-0.551-0.455-0.912-1.207-0.988-2.068
				c-0.133-1.45,0.594-2.655,1.638-2.855c1.184-0.526,12.771-5.567,26.041-6.97c12.626-1.332,26.451,1.14,27.728,1.375
				c0.408-0.01,0.816,0.138,1.161,0.421c0.55,0.453,0.911,1.206,0.989,2.065C99.874,9.345,99.877,9.455,99.877,9.562z
				 M97.976,10.601c0.173-0.084,0.448-0.558,0.388-1.232c-0.048-0.534-0.271-0.893-0.447-1.036c-0.038-0.03-0.112-0.084-0.172-0.078
				c-0.074,0.009-0.148,0.005-0.22-0.01C97.38,8.218,83.101,5.503,70.146,6.871c-13.694,1.444-25.55,6.832-25.668,6.884
				c-0.074,0.034-0.154,0.059-0.235,0.065c-0.165,0.018-0.496,0.508-0.432,1.247c0.047,0.533,0.269,0.893,0.445,1.037
				c0.028,0.022,0.076,0.057,0.123,0.072c1.531-0.572,15.583-5.722,26.031-6.674C80.778,8.56,96.401,10.409,97.976,10.601z"/>
		</g>
		<g>
			<path fill="#F5D069" d="M37.19,4.37c0.9-0.057,1.68,0.541,1.741,1.342c0,0,4.629,13.693,5.877,29.506
				c1.179,14.963-1.169,31.024-1.169,31.024c0.062,0.798-0.618,1.489-1.519,1.546l0,0c-0.902,0.059-1.683-0.544-1.745-1.339
				c0,0,1.779-18.616,0.939-30.964c-0.849-12.477-5.647-29.568-5.647-29.568C35.606,5.12,36.288,4.427,37.19,4.37L37.19,4.37z"/>
			<path opacity="0.8" fill="#3E5256" enable-background="new    " d="M45.894,44.227c0,11.153-1.362,21.092-1.497,22.051
				c0.019,1.168-0.954,2.182-2.227,2.263c-1.308,0.085-2.45-0.827-2.544-2.032c-0.004-0.045-0.003-0.087,0.001-0.132
				c0.012-0.12,1.161-12.275,1.161-23.301c0,0,0-0.001,0-0.002c0-2.819-0.075-5.354-0.224-7.536
				C39.73,23.28,34.992,6.29,34.943,6.121c-0.013-0.049-0.022-0.099-0.026-0.146c-0.091-1.227,0.919-2.274,2.226-2.356
				c1.271-0.078,2.382,0.78,2.53,1.935c0.385,1.166,4.697,14.512,5.887,29.606C45.781,37.968,45.894,41.02,45.894,44.227z
				 M42.888,66.258c0-0.045,0.002-0.092,0.007-0.124c0.015-0.103,1.492-10.344,1.492-21.907c0-3.169-0.11-6.18-0.33-8.948
				c-1.224-15.531-5.794-29.189-5.839-29.325c-0.021-0.06-0.033-0.122-0.039-0.185c-0.029-0.381-0.461-0.678-0.944-0.646
				c-0.452,0.027-0.808,0.324-0.818,0.679c0.374,1.352,4.836,17.685,5.648,29.634c0.151,2.217,0.227,4.785,0.227,7.64
				c0,0.001,0,0.001,0,0.002c0,10.628-1.06,22.29-1.16,23.364c0.062,0.357,0.478,0.627,0.939,0.596
				c0.459-0.029,0.819-0.334,0.819-0.694C42.888,66.319,42.888,66.29,42.888,66.258z"/>
		</g>
		<g>
			<path fill="#F5D069" d="M23.455,8.734c0.903-0.036,1.665,0.483,1.697,1.165c0,0,4.144,11.711,4.824,25.171
				c0.643,12.733-2.291,26.351-2.291,26.351c0.034,0.681-0.675,1.254-1.578,1.289l0,0c-0.906,0.033-1.666-0.485-1.699-1.165
				c0,0,2.454-15.792,2.057-26.301c-0.401-10.618-4.591-25.224-4.591-25.224C21.842,9.345,22.547,8.765,23.455,8.734L23.455,8.734z"
				/>
			<path opacity="0.8" fill="#3E5256" enable-background="new    " d="M30.819,38.855c0,10.928-2.162,21.586-2.381,22.64
				c-0.018,1.057-1.024,1.918-2.304,1.967c-1.335,0.05-2.424-0.775-2.479-1.88c-0.003-0.052,0-0.102,0.008-0.153
				c0.021-0.135,2.091-13.586,2.091-23.753c0,0,0,0,0-0.001c0-0.824-0.013-1.628-0.042-2.401
				c-0.394-10.407-4.521-24.899-4.563-25.044c-0.016-0.059-0.026-0.114-0.029-0.174c0-0.012-0.001-0.065-0.001-0.078
				c0-1.075,1.014-1.951,2.309-1.996c1.284-0.051,2.341,0.713,2.464,1.76c0.391,1.141,4.188,12.506,4.833,25.292
				C30.789,36.253,30.819,37.541,30.819,38.855z M25.168,61.553c0.057,0.189,0.406,0.423,0.91,0.403
				c0.521-0.021,0.854-0.303,0.854-0.49c0-0.054,0.004-0.151,0.016-0.205c0.023-0.108,2.365-11.116,2.365-22.405
				c0-1.288-0.031-2.55-0.091-3.747c-0.666-13.197-4.739-24.842-4.781-24.959c-0.024-0.068-0.039-0.141-0.042-0.215
				c-0.008-0.192-0.378-0.471-0.914-0.448C23,9.505,22.678,9.748,22.632,9.933c0.4,1.427,4.205,15.203,4.586,25.28
				c0.03,0.795,0.043,1.617,0.043,2.461c0,0,0,0,0,0.001C27.261,47.474,25.365,60.252,25.168,61.553z"/>
		</g>
		<g>
			<path fill="#F5D069" d="M67.582,7.047c0,0,2.842,18.119,2.236,31.073c-0.525,11.227-3.778,26.306-4.542,30.084l-2.656-1.837
				c0,0-1.211,4.653,0.678,6.152c1.038,0.821,3.875,1.175,4.469-0.462c0.119-0.325,0.187-0.64,0.235-0.938
				c0.324-0.262,0.537-0.636,0.551-1.059c0,0,4.261-16.31,4.825-31.854c0.596-16.43-2.474-31.028-2.474-31.028
				c0.032-0.83-0.688-1.527-1.605-1.562C68.383,5.579,67.613,6.222,67.582,7.047z"/>
			<path opacity="0.8" fill="#3E5256" enable-background="new    " d="M74.208,33.944c0,1.412-0.024,2.843-0.076,4.29
				c-0.564,15.538-4.806,31.854-4.849,32.018c-0.033,0.128-0.062,0.257-0.092,0.384c-0.143,0.622-0.305,1.325-0.873,1.937
				c-1.328,1.422-2.949,1.718-4.69,0.855c-1.723-0.853-3.154-3.312-2.473-6.879c0.078-0.407,0.472-0.678,0.881-0.6
				c0.408,0.078,0.675,0.472,0.598,0.881c-0.531,2.776,0.489,4.666,1.662,5.247c1.145,0.568,2.045,0.403,2.921-0.532
				c0.292-0.313,0.386-0.726,0.505-1.246c0.033-0.143,0.066-0.285,0.104-0.428c0.042-0.162,4.245-16.364,4.8-31.688
				c0.586-16.146-2.427-30.705-2.457-30.849c-0.012-0.062-0.018-0.126-0.016-0.185c0.016-0.43-0.379-0.762-0.882-0.78
				C69,6.356,68.74,6.447,68.56,6.614c-0.089,0.082-0.195,0.218-0.22,0.404c0.212,1.388,2.81,18.713,2.23,31.138
				c-0.597,12.732-4.944,30.91-4.988,31.092c-0.097,0.404-0.504,0.654-0.908,0.556c-0.404-0.098-0.654-0.506-0.556-0.906
				c0.043-0.183,4.358-18.223,4.947-30.812c0.594-12.729-2.198-30.738-2.228-30.921c-0.007-0.047-0.012-0.096-0.008-0.146
				c0.022-0.571,0.272-1.109,0.707-1.512c0.473-0.437,1.127-0.672,1.794-0.644c1.294,0.048,2.317,1.045,2.329,2.241
				C71.884,8.208,74.208,20.03,74.208,33.944z"/>
		</g>
		<g>
			<path fill="#F5D069" d="M53.869,66.82c0,0,8.431-16.136,11.893-28.508c3.001-10.726,4.752-27.647,5.19-31.444L68.223,6.64
				c0,0-0.562-2.403,1.744-3.215c1.574-0.552,2.932,0.877,3.628,2.182c0.973,1.812,0.779,4.426,0.588,6.322
				c-0.173,1.719-0.339,3.437-0.558,5.149c-0.59,4.644-1.301,9.269-2.277,13.847c-0.606,2.834-1.284,5.652-2.095,8.436
				c-4.564,15.642-12.115,28.393-12.115,28.393c-0.229,0.79-1.146,1.218-2.052,0.96C54.186,68.454,53.638,67.608,53.869,66.82z"/>
			<path opacity="0.8" fill="#3E5256" enable-background="new    " d="M74.99,9.093c0,1.162-0.134,2.295-0.248,3.26l-0.237,2.041
				c-0.515,4.459-1.048,9.067-1.836,13.582c-0.683,3.906-1.588,7.81-2.692,11.597c-4.357,14.935-11.516,27.409-12.146,28.49
				c-0.388,1.119-1.686,1.734-2.95,1.376c-0.667-0.19-1.228-0.631-1.545-1.205c-0.282-0.511-0.349-1.087-0.19-1.624
				c0.015-0.047,0.033-0.095,0.055-0.138c0.084-0.159,8.434-16.208,11.835-28.361c3.366-12.023,4.814-30.355,4.829-30.541
				c0.032-0.414,0.395-0.725,0.809-0.692c0.415,0.032,0.729,0.392,0.692,0.81c-0.014,0.186-1.474,18.664-4.879,30.829
				c-3.318,11.858-11.259,27.317-11.91,28.573c-0.031,0.173,0.024,0.318,0.078,0.419c0.124,0.228,0.358,0.401,0.64,0.483
				c0.496,0.141,1.009-0.063,1.12-0.446c0.017-0.062,0.042-0.12,0.075-0.175c0.075-0.126,7.558-12.855,12.04-28.219
				c1.087-3.733,1.981-7.579,2.654-11.434c0.781-4.471,1.311-9.062,1.824-13.496l0.237-2.045c0.304-2.584,0.721-6.123-1.615-7.796
				c-0.558-0.401-1.148-0.495-1.706-0.274c-0.72,0.287-1.281,1.052-1.464,1.994c-0.079,0.406-0.475,0.674-0.883,0.596
				c-0.408-0.08-0.675-0.479-0.596-0.883c0.28-1.442,1.195-2.633,2.386-3.105c1.044-0.414,2.159-0.255,3.14,0.45
				C74.51,4.591,74.989,6.892,74.99,9.093z"/>
		</g>
		<g>
			<path fill="#F5D069" d="M41.641,62.623c0,0,8.18-15.776,11.452-27.82c2.834-10.438,4.321-26.855,4.699-30.54L55.061,4.09
				c0,0-0.6-2.315,1.695-3.143c1.564-0.562,2.943,0.796,3.661,2.045c1,1.737,0.847,4.271,0.687,6.108
				c-0.146,1.67-0.286,3.334-0.478,5c-0.518,4.504-1.158,8.996-2.063,13.445c-0.561,2.756-1.196,5.496-1.963,8.207
				C52.28,50.981,44.925,63.466,44.925,63.466c-0.217,0.769-1.127,1.199-2.035,0.969C41.983,64.201,41.423,63.392,41.641,62.623z"/>
			<path opacity="0.8" fill="#3E5256" enable-background="new    " d="M61.866,6.576c0,1.046-0.106,2.062-0.198,2.933l-0.203,1.953
				c-0.447,4.335-0.91,8.819-1.629,13.217c-0.623,3.803-1.469,7.598-2.513,11.28c-4.122,14.532-11.082,26.736-11.706,27.814
				c-0.371,1.093-1.652,1.714-2.915,1.392c-0.679-0.175-1.254-0.601-1.58-1.167c-0.283-0.492-0.357-1.056-0.207-1.58
				c0.014-0.049,0.033-0.096,0.055-0.142c0.082-0.156,8.182-15.846,11.394-27.67c3.178-11.703,4.341-29.471,4.352-29.649
				c0.026-0.415,0.385-0.729,0.8-0.703s0.733,0.378,0.703,0.8C58.208,5.234,57.035,23.154,53.817,35
				c-3.131,11.53-10.815,26.618-11.467,27.886c-0.021,0.146,0.028,0.276,0.078,0.362c0.125,0.217,0.36,0.384,0.648,0.457
				c0.503,0.129,1.018-0.073,1.122-0.442c0.018-0.062,0.043-0.121,0.076-0.178c0.073-0.124,7.357-12.584,11.599-27.536
				c1.029-3.63,1.862-7.368,2.475-11.112c0.713-4.354,1.173-8.814,1.618-13.129l0.202-1.957c0.263-2.494,0.622-5.914-1.725-7.48
				c-0.578-0.389-1.183-0.464-1.751-0.227c-0.701,0.297-1.239,1.037-1.403,1.933c-0.076,0.409-0.467,0.68-0.876,0.604
				c-0.409-0.074-0.68-0.468-0.605-0.877c0.256-1.389,1.136-2.556,2.3-3.047c1.042-0.439,2.169-0.312,3.173,0.359
				C61.388,2.022,61.866,4.367,61.866,6.576z"/>
		</g>
		<g>
			<path fill="#F5D069" d="M27.609,9.187c0.903-0.039,1.662,0.431,1.692,1.047c0,0,4.095,10.576,4.717,22.749
				c0.589,11.515-2.399,23.842-2.399,23.842c0.03,0.616-0.679,1.14-1.584,1.173l0,0c-0.906,0.035-1.662-0.432-1.693-1.047
				c0,0,2.519-14.296,2.167-23.799c-0.357-9.604-4.485-22.793-4.485-22.793C25.996,9.744,26.702,9.22,27.609,9.187L27.609,9.187z"/>
			<path opacity="0.8" fill="#3E5256" enable-background="new    " d="M34.849,36.094c0,10.077-2.283,20-2.483,20.851
				c-0.087,1.021-1.048,1.759-2.301,1.805c-1.334,0.053-2.42-0.721-2.474-1.761c-0.002-0.059,0-0.112,0.01-0.169
				c0.022-0.124,2.189-12.534,2.19-21.749l0,0c0-0.646-0.01-1.277-0.033-1.893c-0.349-9.389-4.41-22.466-4.451-22.597
				c-0.019-0.062-0.03-0.126-0.033-0.189V10.39c0-1.082,1.015-1.91,2.311-1.955c1.273-0.055,2.323,0.649,2.458,1.623
				c0.414,1.106,4.139,11.351,4.729,22.885C34.821,33.953,34.849,35.014,34.849,36.094z M29.107,56.945
				c0.066,0.108,0.384,0.317,0.899,0.298c0.584-0.021,0.861-0.313,0.861-0.382c0-0.062,0.006-0.156,0.021-0.216
				c0.024-0.102,2.455-10.25,2.455-20.553c0-1.056-0.026-2.089-0.076-3.075c-0.61-11.915-4.627-22.411-4.667-22.516
				c-0.029-0.075-0.046-0.155-0.05-0.235c-0.004-0.088-0.344-0.354-0.908-0.33c-0.513,0.02-0.789,0.244-0.852,0.347
				c0.484,1.569,4.132,13.688,4.472,22.841c0.023,0.629,0.034,1.279,0.034,1.945l0,0C31.295,43.897,29.344,55.564,29.107,56.945z"/>
		</g>
		<g>
			<path fill="#F5D069" d="M40.839,7.867c0.764-0.215,1.501,0.026,1.646,0.546c0,0,5.538,8.171,8.427,18.41
				c2.736,9.689,2.583,20.797,2.583,20.797c0.144,0.517-0.357,1.109-1.12,1.323l0,0c-0.766,0.217-1.502-0.03-1.647-0.547
				c0,0-0.626-12.69-2.769-20.712c-2.166-8.105-8.24-18.496-8.24-18.496C39.573,8.672,40.076,8.079,40.839,7.867L40.839,7.867z"/>
			<path opacity="0.8" fill="#3E5256" enable-background="new    " d="M54.271,47.801c0,0.818-0.696,1.586-1.694,1.868
				c-0.656,0.187-1.324,0.127-1.833-0.157c-0.372-0.209-0.636-0.532-0.742-0.91c-0.015-0.057-0.024-0.11-0.027-0.167
				C49.969,48.31,49.329,35.73,47.23,27.88c-2.116-7.917-8.102-18.208-8.163-18.312c-0.032-0.056-0.058-0.113-0.076-0.177
				c-0.252-0.912,0.486-1.929,1.645-2.252c0.658-0.184,1.328-0.127,1.835,0.162c0.326,0.182,0.566,0.452,0.691,0.773
				c0.601,0.908,5.741,8.863,8.472,18.543c2.486,8.805,2.612,18.766,2.612,20.675v0.245C54.263,47.625,54.271,47.714,54.271,47.801z
				 M51.471,48.205c0.078,0.043,0.342,0.114,0.697,0.014c0.384-0.107,0.573-0.329,0.596-0.415c-0.016-0.062-0.026-0.133-0.024-0.193
				l0.001-0.316c0-1.872-0.123-11.65-2.555-20.265C47.362,17.021,41.915,8.917,41.86,8.836c-0.046-0.067-0.081-0.143-0.103-0.223
				c-0.039-0.033-0.32-0.132-0.714-0.021c-0.341,0.094-0.528,0.279-0.582,0.379c0.806,1.396,6.178,10.862,8.224,18.521
				C50.721,35.116,51.39,46.671,51.471,48.205z"/>
		</g>
		<g>
			<path fill="#F5D069" d="M48.814,4.804c0.885-0.173,1.758,0.353,1.949,1.176c0,0,6.842,13.697,10.681,30.043
				c3.631,15.464,3.944,32.527,3.944,32.527c0.192,0.821-0.37,1.632-1.251,1.808l0,0c-0.886,0.177-1.761-0.353-1.952-1.175
				c0,0-1.3-19.655-4.162-32.436C55.128,23.836,47.562,6.614,47.562,6.614C47.371,5.788,47.93,4.978,48.814,4.804L48.814,4.804z"/>
			<path opacity="0.8" fill="#3E5256" enable-background="new    " d="M66.179,68.876c0,1.067-0.798,2.002-1.896,2.219
				c-1.279,0.256-2.549-0.525-2.831-1.74c-0.009-0.039-0.015-0.08-0.019-0.121c-0.012-0.196-1.329-19.746-4.146-32.32
				C54.443,24.222,46.948,7.091,46.872,6.918c-0.019-0.043-0.034-0.087-0.044-0.132c-0.282-1.221,0.57-2.471,1.839-2.721
				c1.248-0.243,2.483,0.494,2.805,1.65c0.544,1.11,7.033,14.504,10.703,30.131c3.488,14.854,3.934,31.374,3.962,32.616
				C66.165,68.599,66.179,68.738,66.179,68.876z M62.932,69.062c0.123,0.396,0.594,0.648,1.058,0.558
				c0.453-0.091,0.762-0.495,0.665-0.896c-0.011-0.052-0.018-0.104-0.019-0.156c-0.003-0.171-0.354-17.168-3.925-32.372
				C56.937,20.123,50.159,6.456,50.09,6.319c-0.026-0.053-0.047-0.109-0.06-0.168c-0.097-0.424-0.588-0.701-1.071-0.607
				c-0.43,0.086-0.729,0.459-0.674,0.848C48.84,7.665,55.98,24.19,58.758,36.586C61.513,48.882,62.841,67.734,62.932,69.062z"/>
		</g>
		<g>
			<path fill="#F5D069" d="M55.001,3.886c0.885-0.173,1.752,0.327,1.936,1.118c0,0,6.725,13.156,10.429,28.886
				C70.871,48.776,71.05,65.23,71.05,65.23c0.186,0.792-0.382,1.576-1.263,1.752l0,0c-0.886,0.177-1.754-0.326-1.938-1.116
				c0,0-1.146-18.945-3.902-31.246C61.159,22.188,53.738,5.644,53.738,5.644C53.552,4.849,54.118,4.062,55.001,3.886L55.001,3.886z"
				/>
			<path opacity="0.8" fill="#3E5256" enable-background="new    " d="M71.838,65.532c0,1.05-0.8,1.969-1.905,2.188
				c-1.277,0.259-2.543-0.499-2.818-1.685c-0.01-0.04-0.016-0.081-0.019-0.124c-0.011-0.188-1.171-19.027-3.885-31.126
				C60.473,22.573,53.125,6.117,53.05,5.952c-0.019-0.046-0.036-0.091-0.045-0.139c-0.278-1.183,0.579-2.414,1.85-2.666
				c1.246-0.243,2.474,0.466,2.792,1.59C58.198,5.836,64.562,18.69,68.1,33.719c3.363,14.283,3.684,30.197,3.704,31.429
				C71.827,65.274,71.838,65.403,71.838,65.532z M68.596,65.743c0.118,0.365,0.582,0.592,1.043,0.5
				c0.454-0.09,0.762-0.467,0.678-0.841c-0.013-0.055-0.019-0.109-0.02-0.164c-0.001-0.163-0.22-16.545-3.664-31.175
				C62.993,18.601,56.335,5.478,56.269,5.347c-0.028-0.054-0.049-0.11-0.062-0.172c-0.091-0.393-0.577-0.644-1.059-0.552
				c-0.429,0.086-0.731,0.429-0.686,0.792c0.565,1.271,7.547,17.122,10.22,29.04C67.332,46.276,68.511,64.409,68.596,65.743z"/>
		</g>
		<g>
			<path fill="#F5D069" d="M66.355,5.41c0.863,0.271,1.4,1.142,1.198,1.951c0,0-0.11,15.192-4.074,31.275
				c-3.752,15.215-11.167,30.252-11.167,30.252c-0.201,0.809-1.063,1.25-1.924,0.984l0,0c-0.864-0.268-1.401-1.144-1.199-1.951
				c0,0,7.708-17.768,10.93-30.271c3.254-12.642,4.31-31.255,4.31-31.255C64.631,5.586,65.494,5.144,66.355,5.41L66.355,5.41z"/>
			<path opacity="0.8" fill="#3E5256" enable-background="new    " d="M68.35,7.013c0,0.146-0.016,0.293-0.043,0.437
				c-0.018,1.235-0.305,15.993-4.096,31.369c-3.602,14.605-10.648,29.228-11.19,30.338c-0.156,0.535-0.508,0.979-1,1.256
				c-0.548,0.312-1.225,0.376-1.854,0.182c-1.222-0.377-2.001-1.671-1.707-2.854c0.01-0.04,0.023-0.078,0.04-0.116
				c0.077-0.178,7.721-17.856,10.891-30.161c3.201-12.426,4.278-30.925,4.287-31.108c0.003-0.047,0.01-0.094,0.021-0.141
				c0.143-0.572,0.508-1.051,1.024-1.345c0.549-0.31,1.224-0.374,1.854-0.181C67.624,5.017,68.35,5.972,68.35,7.013z M49.9,68.271
				c0,0.385,0.298,0.756,0.71,0.883c0.237,0.073,0.48,0.054,0.67-0.053c0.108-0.062,0.249-0.18,0.301-0.394
				c0.013-0.053,0.032-0.104,0.055-0.152c0.074-0.149,7.423-15.143,11.111-30.099C66.645,22.651,66.798,7.506,66.8,7.353
				c0-0.06,0.008-0.119,0.022-0.176c0.106-0.42-0.219-0.902-0.692-1.052c-0.232-0.071-0.477-0.051-0.667,0.056
				c-0.099,0.057-0.225,0.159-0.288,0.342c-0.083,1.388-1.204,19.183-4.327,31.313C57.75,49.865,50.436,66.932,49.911,68.152
				C49.903,68.193,49.9,68.232,49.9,68.271z"/>
		</g>
		<g>
			<path fill="#F5D069" d="M53.5,15.319c0,0,0.866,16.382-1.136,27.835c-1.735,9.929-6.597,23.014-7.764,26.297l-2.441-1.894
				c0,0-1.708,4.018,0.009,5.534c0.944,0.834,3.727,1.425,4.494,0.026c0.152-0.277,0.255-0.549,0.334-0.811
				c0.352-0.2,0.604-0.512,0.665-0.888c0,0,5.997-14.079,8.237-27.842c2.368-14.545,0.892-27.821,0.892-27.821
				c0.121-0.732-0.518-1.425-1.427-1.545C54.455,14.091,53.62,14.587,53.5,15.319z"/>
			<path opacity="0.8" fill="#3E5256" enable-background="new    " d="M57.989,25.976c0,4.961-0.293,11.234-1.349,17.728
				c-2.251,13.831-8.229,27.876-8.288,28.018c-0.046,0.107-0.088,0.219-0.131,0.327c-0.213,0.55-0.456,1.175-1.101,1.67
				c-1.454,1.12-3.076,1.226-4.69,0.303c-1.649-0.943-2.825-3.317-1.74-6.489c0.135-0.394,0.563-0.604,0.957-0.469
				c0.393,0.136,0.602,0.562,0.468,0.958c-0.809,2.357-0.048,4.058,1.063,4.691c1.103,0.631,2.036,0.573,3.024-0.188
				c0.312-0.239,0.445-0.584,0.615-1.021c0.048-0.126,0.097-0.251,0.149-0.375c0.061-0.141,5.979-14.102,8.188-27.668
				c2.322-14.278,0.9-27.485,0.887-27.616c-0.009-0.068-0.006-0.141,0.005-0.207c0.015-0.102-0.014-0.207-0.092-0.312
				c-0.141-0.19-0.399-0.325-0.691-0.363c-0.508-0.069-0.917,0.159-1.006,0.425c0.069,1.434,0.76,16.975-1.15,27.898
				c-1.971,11.275-8.261,27.018-8.324,27.177c-0.155,0.386-0.594,0.572-0.979,0.418c-0.386-0.154-0.574-0.593-0.419-0.979
				c0.062-0.157,6.294-15.755,8.239-26.875c1.963-11.237,1.132-27.503,1.125-27.665c-0.003-0.055,0-0.107,0.008-0.162
				c0.186-1.129,1.398-1.906,2.707-1.729c0.698,0.092,1.318,0.441,1.702,0.959c0.296,0.398,0.428,0.873,0.383,1.34
				C57.614,16.412,57.989,20.351,57.989,25.976z"/>
		</g>
		<g>
			<path fill="#F5D069" d="M46.063,25.776c0.897,0.083,1.606,0.59,1.582,1.14c0,0,3.132,9.866,2.696,20.722
				c-0.414,10.271-4.433,20.816-4.433,20.816c-0.021,0.546-0.769,0.924-1.664,0.845l0,0c-0.899-0.08-1.61-0.592-1.584-1.136
				c0,0,3.723-12.349,4.197-20.807c0.479-8.546-2.46-20.731-2.46-20.731C44.421,26.076,45.167,25.697,46.063,25.776L46.063,25.776z"
				/>
			<path opacity="0.8" fill="#3E5256" enable-background="new    " d="M51.136,45.529c0,0.707-0.013,1.419-0.043,2.138
				c-0.393,9.759-4.046,19.879-4.446,20.959c-0.049,0.332-0.223,0.644-0.498,0.883c-0.461,0.405-1.198,0.606-1.971,0.537
				c-1.295-0.113-2.272-0.912-2.272-1.856c0-0.073,0.011-0.175,0.032-0.245c0.037-0.123,3.703-12.363,4.166-20.631
				c0.034-0.61,0.051-1.266,0.051-1.943c0-8.145-2.467-18.468-2.492-18.57c-0.016-0.068-0.023-0.14-0.021-0.211
				c0.018-0.387,0.201-0.751,0.516-1.025c0.47-0.412,1.188-0.605,1.971-0.535c1.25,0.115,2.202,0.863,2.264,1.766
				C48.708,27.821,51.135,36.132,51.136,45.529z M43.429,68.217c0.079,0.077,0.385,0.286,0.881,0.33
				c0.517,0.045,0.817-0.123,0.861-0.187c0.003-0.082,0.002-0.102,0.032-0.178c0.04-0.104,3.981-10.554,4.384-20.577
				c0.427-10.611-2.632-20.374-2.662-20.464c-0.027-0.084-0.039-0.17-0.034-0.263c-0.034-0.056-0.349-0.304-0.898-0.354
				c-0.424-0.038-0.702,0.068-0.813,0.145c0.365,1.574,2.481,11.055,2.481,18.699c0,0.706-0.019,1.389-0.054,2.027
				C47.16,55.42,43.888,66.668,43.429,68.217z"/>
		</g>
		<g>
			<path fill="#F5D069" d="M53.463,7.201c0.932-0.056,1.739,0.558,1.8,1.372c0,0,4.748,14.004,5.998,30.175
				c1.18,15.3-1.29,31.72-1.29,31.72c0.062,0.813-0.643,1.521-1.573,1.579l0,0c-0.932,0.059-1.739-0.556-1.801-1.37
				c0,0,1.889-19.031,1.052-31.654c-0.844-12.762-5.759-30.239-5.759-30.239C51.828,7.968,52.534,7.261,53.463,7.201L53.463,7.201z"
				/>
			<path opacity="0.8" fill="#3E5256" enable-background="new    " d="M62.333,47.601c0,11.552-1.462,21.912-1.606,22.902
				c0.038,1.199-0.979,2.216-2.283,2.295c-1.339,0.082-2.505-0.845-2.598-2.064c-0.003-0.043-0.003-0.088,0.001-0.131
				c0.013-0.127,1.262-12.849,1.262-24.227l0,0c0-2.723-0.072-5.179-0.212-7.306c-0.831-12.537-5.683-29.912-5.733-30.085
				c-0.013-0.049-0.021-0.098-0.025-0.147c-0.094-1.231,0.941-2.304,2.279-2.388c1.304-0.08,2.44,0.793,2.586,1.965
				c0.393,1.188,4.816,14.838,6.009,30.275C62.225,41.458,62.333,44.456,62.333,47.601z M59.218,70.484
				c0-0.046,0.002-0.095,0.008-0.128c0.016-0.105,1.601-10.786,1.601-22.756c0-3.106-0.106-6.063-0.317-8.793
				c-1.227-15.894-5.912-29.854-5.96-29.99c-0.02-0.062-0.033-0.122-0.037-0.188c-0.03-0.397-0.488-0.706-1.001-0.677
				c-0.474,0.031-0.86,0.35-0.872,0.714c0.378,1.366,4.952,18.077,5.76,30.306c0.143,2.158,0.217,4.648,0.217,7.404l0,0
				c0,10.979-1.154,23.187-1.262,24.293c0.064,0.374,0.506,0.655,0.998,0.626c0.48-0.03,0.871-0.354,0.87-0.728
				C59.22,70.545,59.218,70.515,59.218,70.484z"/>
		</g>
		<path fill="#F5D069" d="M52.881,8.835"/>
		<g>
			<path fill="#F5D069" d="M46.513,8.626c0.876,0.199,1.419,0.936,1.21,1.645c0,0-0.159,13.146-4.241,27.189
				c-3.861,13.286-11.442,26.544-11.442,26.544c-0.208,0.706-1.085,1.117-1.961,0.917l0,0c-0.877-0.202-1.417-0.938-1.21-1.645
				c0,0,7.891-15.631,11.205-26.558c3.348-11.044,4.479-27.182,4.479-27.182C44.76,8.832,45.637,8.422,46.513,8.626L46.513,8.626z"
				/>
			<path opacity="0.8" fill="#3E5256" enable-background="new    " d="M48.521,9.962c0,0.139-0.016,0.274-0.047,0.409
				c-0.025,1.208-0.384,13.931-4.269,27.297C40.506,50.397,33.33,63.252,32.732,64.31c-0.365,1.043-1.583,1.631-2.823,1.346
				c-1.083-0.249-1.839-1.103-1.839-2.073c0-0.174,0.025-0.348,0.074-0.515c0.013-0.046,0.029-0.089,0.05-0.13
				c0.079-0.156,7.9-15.697,11.156-26.436c3.284-10.834,4.438-26.854,4.449-27.015c0.004-0.057,0.014-0.107,0.029-0.159
				c0.324-1.104,1.578-1.731,2.854-1.437C47.763,8.138,48.521,8.988,48.521,9.962z M29.578,63.58c0,0.22,0.235,0.506,0.671,0.605
				c0.512,0.116,0.986-0.11,1.069-0.395c0.016-0.056,0.04-0.11,0.068-0.162c0.075-0.131,7.583-13.336,11.373-26.381
				c4.007-13.785,4.209-26.856,4.21-26.987c0.001-0.067,0.012-0.137,0.031-0.203c0.073-0.252-0.156-0.584-0.654-0.697
				c-0.482-0.112-0.927,0.08-1.051,0.338c-0.106,1.418-1.31,16.71-4.502,27.242C37.62,47.401,30.196,62.305,29.58,63.536
				C29.579,63.551,29.578,63.566,29.578,63.58z"/>
		</g>
		<g>
			<path fill="#F5D069" d="M25.417,65.704c0,0,7.542-16.088,10.329-28.251c2.416-10.544,3.246-27.004,3.478-30.7L36.486,6.69
				c0,0-0.692-2.291,1.568-3.207c1.541-0.625,2.972,0.678,3.742,1.896c1.067,1.694,1.016,4.23,0.928,6.075
				c-0.079,1.674-0.152,3.342-0.277,5.015c-0.337,4.521-0.798,9.032-1.524,13.518c-0.451,2.772-0.975,5.538-1.635,8.276
				c-3.708,15.386-10.557,28.152-10.557,28.152c-0.185,0.775-1.078,1.244-1.993,1.049C25.821,67.269,25.23,66.479,25.417,65.704z"/>
			<path opacity="0.8" fill="#3E5256" enable-background="new    " d="M43.398,9.584c0,0.804-0.05,1.573-0.095,2.257l-0.12,1.897
				c-0.274,4.37-0.558,8.889-1.104,13.329c-0.47,3.822-1.164,7.648-2.06,11.372c-3.538,14.68-10.003,27.149-10.583,28.255
				c-0.329,1.105-1.583,1.777-2.855,1.507c-0.686-0.147-1.277-0.549-1.625-1.103c-0.303-0.48-0.4-1.038-0.271-1.57
				c0.013-0.05,0.029-0.099,0.051-0.145c0.075-0.16,7.54-16.155,10.275-28.1c2.708-11.819,3.162-29.616,3.166-29.794
				c0.01-0.416,0.355-0.744,0.771-0.736c0.416,0.011,0.762,0.345,0.735,0.771c-0.004,0.181-0.461,18.13-3.203,30.096
				c-2.668,11.643-9.741,27.021-10.341,28.315c-0.018,0.146,0.039,0.275,0.091,0.359c0.134,0.212,0.376,0.369,0.666,0.433
				c0.508,0.107,1.014-0.114,1.102-0.486c0.015-0.063,0.039-0.125,0.069-0.182c0.067-0.128,6.848-12.867,10.488-27.974
				c0.883-3.667,1.566-7.437,2.029-11.202c0.541-4.396,0.822-8.893,1.096-13.24l0.12-1.9c0.162-2.505,0.387-5.936-2.021-7.409
				c-0.593-0.362-1.2-0.417-1.758-0.153c-0.689,0.322-1.197,1.084-1.326,1.983c-0.059,0.412-0.44,0.698-0.851,0.64
				c-0.412-0.06-0.701-0.438-0.639-0.853c0.2-1.396,1.033-2.599,2.175-3.136c1.024-0.48,2.156-0.397,3.186,0.234
				C42.949,4.511,43.398,7.187,43.398,9.584z"/>
		</g>
		<g>
			<path fill="#F5D069" d="M32.396,7.568c0,0,0.867,16.382-1.135,27.834c-1.736,9.93-6.597,23.014-7.765,26.299l-2.439-1.895
				c0,0-1.709,4.018,0.008,5.534c0.943,0.834,3.727,1.425,4.493,0.026c0.153-0.278,0.255-0.55,0.334-0.812
				c0.352-0.198,0.603-0.512,0.664-0.887c0,0,5.998-14.079,8.237-27.842c2.368-14.545,0.894-27.82,0.894-27.82
				c0.12-0.732-0.52-1.426-1.428-1.547C33.349,6.341,32.515,6.835,32.396,7.568z"/>
			<path opacity="0.8" fill="#3E5256" enable-background="new    " d="M36.884,18.22c0,4.963-0.292,11.237-1.349,17.729
				c-2.25,13.829-8.228,27.876-8.288,28.017c-0.046,0.107-0.088,0.22-0.131,0.327c-0.214,0.552-0.456,1.175-1.101,1.67
				c-1.455,1.12-3.076,1.226-4.691,0.304c-1.648-0.943-2.825-3.316-1.74-6.489c0.135-0.394,0.563-0.604,0.957-0.469
				c0.394,0.136,0.603,0.562,0.469,0.956c-0.808,2.359-0.048,4.06,1.062,4.694c1.103,0.63,2.036,0.571,3.023-0.188
				c0.312-0.24,0.447-0.585,0.616-1.021c0.048-0.124,0.097-0.249,0.15-0.374c0.061-0.142,5.979-14.104,8.188-27.669
				c2.322-14.269,0.901-27.483,0.888-27.616c-0.007-0.068-0.005-0.138,0.005-0.205c0.016-0.104-0.014-0.207-0.092-0.312
				c-0.14-0.188-0.399-0.325-0.691-0.364c-0.508-0.067-0.917,0.162-1.006,0.425c0.069,1.434,0.76,16.975-1.15,27.899
				c-1.97,11.276-8.26,27.019-8.324,27.176c-0.156,0.388-0.594,0.574-0.979,0.42c-0.386-0.155-0.574-0.594-0.418-0.979
				c0.062-0.156,6.293-15.756,8.238-26.875c1.964-11.237,1.133-27.501,1.125-27.666c-0.002-0.054,0-0.108,0.008-0.161
				c0.186-1.13,1.398-1.906,2.707-1.729c0.697,0.092,1.318,0.442,1.702,0.959c0.296,0.399,0.43,0.871,0.383,1.34
				C36.509,8.658,36.884,12.595,36.884,18.22z"/>
		</g>
	</g>
</g>
</svg>
