<?xml version="1.0" encoding="utf-8"?>
<!-- Generator: Adobe Illustrator 23.0.0, SVG Export Plug-In . SVG Version: 6.00 Build 0)  -->
<svg version="1.1" id="圖層_1" xmlns="http://www.w3.org/2000/svg" xmlns:xlink="http://www.w3.org/1999/xlink" x="0px" y="0px"
	 viewBox="0 0 314 315" style="enable-background:new 0 0 314 315;" xml:space="preserve">
<style type="text/css">
	.st0{fill:#C8DBD8;}
</style>
<path class="st0" d="M303.2,156c0,4-8.2,7.9-8.2,7.9l-5.5,3l1.9,6.7c0,0,3,8.6,0.2,11.4c-2.8,2.8-11.4-0.2-11.4-0.2l-9.3-2.7
	l2.7,9.3c0,0,3,8.6,0.2,11.4c-2.8,2.8-11.4-0.2-11.4-0.2l-9.3-2.6l2.6,9.3c0,0,3,8.6,0.2,11.4c-2.8,2.8-11.4-0.2-11.4-0.2l-9.3-2.6
	l2.7,9.3c0,0,3,8.6,0.2,11.4c-2.8,2.8-11.4-0.2-11.4-0.2l-9.3-2.6l2.7,9.3c0,0,3,8.6,0.2,11.4c-2.8,2.8-11.4-0.2-11.4-0.2l-9.3-2.7
	l2.7,9.3c0,0,3,8.6,0.2,11.4c-2.8,2.8-11.4-0.2-11.4-0.2l-9.3-2.7l2.7,9.3c0,0,3,8.6,0.2,11.4c-2.8,2.8-11.4-0.2-11.4-0.2l-6.7-1.9
	l-3.1,5.5c0,0-3.9,8.2-7.9,8.2c-3.9,0-7.9-8.2-7.9-8.2l-1.9-3.4l-2.8,0.8c0,0-8.6,3-11.4,0.2c-2.8-2.8,0.2-11.4,0.2-11.4l2.7-9.3
	l-9.3,2.7c0,0-8.6,3-11.4,0.2c-2.8-2.8,0.2-11.4,0.2-11.4l2.6-9.3l-9.3,2.6c0,0-8.6,3-11.4,0.2C93,254.6,96,246,96,246l2.6-9.3
	l-9.3,2.7c0,0-8.6,3-11.4,0.2c-2.8-2.8,0.2-11.4,0.2-11.4l2.7-9.3l-9.3,2.6c0,0-8.6,3-11.4,0.2c-2.8-2.8,0.2-11.4,0.2-11.4l2.7-9.3
	l-9.3,2.7c0,0-8.6,3-11.4,0.2c-2.8-2.8,0.2-11.4,0.2-11.4l2.7-9.3l-9.3,2.7c0,0-8.6,3-11.4,0.2c-2.8-2.8,0.2-11.4,0.2-11.4l1.1-4
	l-6.7-3.8c0,0-8.2-3.9-8.2-7.9c0-3.9,8.2-7.9,8.2-7.9l6.7-3.8l-1.1-4c0,0-3-8.6-0.2-11.4c2.8-2.8,11.4,0.2,11.4,0.2l9.3,2.7
	l-2.7-9.3c0,0-3-8.6-0.2-11.4c2.8-2.8,11.4,0.2,11.4,0.2L63,117l-2.7-9.3c0,0-3-8.6-0.2-11.4c2.8-2.8,11.4,0.2,11.4,0.2l9.3,2.7
	l-2.7-9.3c0,0-3-8.6-0.2-11.4c2.8-2.8,11.4,0.2,11.4,0.2l9.3,2.6L96,72c0,0-3-8.6-0.2-11.4c2.8-2.8,11.4,0.2,11.4,0.2l9.3,2.7
	l-2.7-9.3c0,0-3-8.6-0.2-11.4C116.5,40,125,43,125,43l9.3,2.7l-2.7-9.3c0,0-3-8.6-0.2-11.4c2.8-2.8,11.4,0.2,11.4,0.2l4,1.1l3.8-6.7
	c0,0,3.9-8.2,7.9-8.2c4,0,7.9,8.2,7.9,8.2l3.7,6.7l3.9-1.1c0,0,8.6-3,11.4-0.2c2.8,2.8-0.2,11.4-0.2,11.4l-2.6,9.3l9.3-2.6
	c0,0,8.6-3,11.4-0.2c2.8,2.8-0.2,11.4-0.2,11.4l-2.7,9.3l9.3-2.7c0,0,8.6-3,11.4-0.2c2.8,2.8-0.2,11.4-0.2,11.4l-2.6,9.3l9.3-2.7
	c0,0,8.6-3,11.4-0.2c2.8,2.8-0.2,11.4-0.2,11.4l-2.7,9.3l9.3-2.6c0,0,8.6-3,11.4-0.2c2.8,2.8-0.2,11.4-0.2,11.4L254,117l9.3-2.7
	c0,0,8.6-3,11.4-0.2c2.8,2.8-0.2,11.4-0.2,11.4l-2.6,9.3l9.3-2.6c0,0,8.6-3,11.4-0.2c2.8,2.8-0.2,11.4-0.2,11.4l-0.8,2.8l3.4,1.9
	C295,148.1,303.2,152.1,303.2,156z"/>
</svg>
