<?xml version="1.0" encoding="utf-8"?>
<!-- Generator: Adobe Illustrator 16.0.0, SVG Export Plug-In . SVG Version: 6.00 Build 0)  -->
<!DOCTYPE svg PUBLIC "-//W3C//DTD SVG 1.1//EN" "http://www.w3.org/Graphics/SVG/1.1/DTD/svg11.dtd">
<svg version="1.1" id="圖層_1" xmlns="http://www.w3.org/2000/svg" xmlns:xlink="http://www.w3.org/1999/xlink" x="0px" y="0px"
	 width="237.938px" height="105.74px" viewBox="0 0 237.938 105.74" enable-background="new 0 0 237.938 105.74"
	 xml:space="preserve">
<g>
	<g>
		<g>
			<g>
				<g>
					<defs>
						<rect id="SVGID_1_" x="27.698" y="18.958" width="215.267" height="63.3"/>
					</defs>
					<clipPath id="SVGID_2_">
						<use xlink:href="#SVGID_1_"  overflow="visible"/>
					</clipPath>
					<g clip-path="url(#SVGID_2_)">
						<path opacity="0.8" fill="#BCD6D6" enable-background="new    " d="M187.096,56.973c9.381,0,18.685-0.373,27.982-1.057
							c3.845-0.283,7.67-0.668,11.414-1.248c2.988-0.464,10.773-2.048,10.773-3.99c0-2.363-7.08-3.384-10.052-3.664
							c-30.312-2.851-54.604-1.979-81.528,0.812c-7.189,0.744-28.483,3.726-28.483,3.726c13.665,2.96,33.698,4.062,48.149,4.882
							c0.025,0.002,16.043,0.444,16.068,0.446"/>
						<path opacity="0.8" fill="#BCD6D6" enable-background="new    " d="M110.648,54.408C98.025,58.16,87.222,70.293,74.236,73.75
							c-14.746,3.925-31.416,2.186-46.484,0.868c-7.037-0.614-10.642-2.187-13.234-8.554c0.306-0.006,41.117,0.037,43.81-1.232
							c4.543-2.141,1.503-5.479-2.089-6.333c-8.081-1.921-36.682-2.312-42.253-2.435c-0.007-2.062,0.003-4.123,0.005-6.185
							c0.293-0.003,41.075-1.767,43.898-3.019c4.36-1.932,2.7-5.479-1.309-6.404c-7.917-1.827-36.599-0.698-42.239-0.589
							c0.461-3.733,2.078-6.642,5.737-8.345c4.521-2.104,10.137-1.801,15.025-2.073c10.415-0.581,20.985-1.749,31.401-0.603
							c4.068,0.446,7.991,1.629,11.661,3.351c1.491,0.698,2.969,1.588,4.429,2.573L110.648,54.408z"/>
						<path opacity="0.8" fill="#3E5256" enable-background="new    " d="M237.938,51.979c0,0.295-0.127,0.573-0.379,0.826
							c-3.061,3.055-37.963,7.748-53.203,7.728c-0.371,0-0.672-0.302-0.672-0.673l0,0c0-0.371,0.303-0.672,0.674-0.672
							c16.455,0.021,48.4-4.726,52-7.119c-3.012-1.481-21.932-4.926-46.338-5.838c-22.989-0.857-56.358,0.254-84.783,10.438
							c-5.561,1.993-10.081,5.947-14.453,9.771c-4.905,4.293-9.978,8.729-16.628,10.586c-13.545,3.777-28.99,2.351-42.617,1.091
							l-2.122-0.196c-6.695-0.611-10.58-2.176-13.233-9.009c-0.08-0.205-0.054-0.437,0.068-0.619
							c0.123-0.183,0.326-0.293,0.546-0.297c0.019,0,0.182-0.001,0.476-0.001c23.627-0.023,39.79-0.482,41.175-1.166
							c0.883-0.438,1.916-1.162,1.806-2.153c-0.126-1.169-1.738-2.462-3.671-2.943c-7.019-1.75-30.744-2.229-38.539-2.387
							l-1.759-0.037c-0.364-0.008-0.657-0.307-0.658-0.671c-0.004-1.299-0.001-2.602,0.001-3.901l0.002-2.303
							c0-0.367,0.295-0.666,0.662-0.673c1.797-0.054,39.288-1.821,41.75-2.966c1.43-0.663,2.164-1.552,2.072-2.492
							c-0.113-1.143-1.43-2.24-3.201-2.669c-6.477-1.567-27.869-0.932-37.006-0.662c-1.414,0.042-2.532,0.075-3.255,0.091
							c-0.195,0.004-0.381-0.076-0.513-0.221c-0.13-0.145-0.191-0.337-0.17-0.531c0.509-4.31,2.427-7.221,5.866-8.897
							c3.602-1.757,7.778-1.896,11.817-2.03c0.958-0.031,1.903-0.062,2.821-0.117c1.993-0.115,3.99-0.256,5.992-0.396
							c7.938-0.556,16.146-1.132,24.183-0.205c3.819,0.438,7.649,1.592,11.383,3.427c1.33,0.653,2.748,1.516,4.331,2.637
							c0.304,0.215,0.375,0.635,0.161,0.938c-0.215,0.303-0.635,0.376-0.938,0.161c-1.525-1.08-2.882-1.907-4.147-2.528
							c-3.595-1.767-7.278-2.876-10.944-3.297c-7.913-0.912-16.058-0.342-23.934,0.21c-2.007,0.141-4.01,0.281-6.007,0.396
							c-0.929,0.056-1.885,0.086-2.855,0.119c-3.897,0.129-7.928,0.264-11.271,1.895c-2.83,1.38-4.435,3.639-5.009,7.074
							c0.657-0.017,1.486-0.041,2.451-0.069c9.19-0.272,30.71-0.91,37.362,0.7c2.355,0.568,4.052,2.115,4.223,3.845
							c0.155,1.536-0.885,2.935-2.845,3.847c-2.638,1.223-36.452,2.83-41.633,3.062l-0.002,1.661
							c-0.002,1.08-0.004,2.16-0.002,3.238l1.1,0.022c7.833,0.158,31.671,0.64,38.837,2.426c2.167,0.54,4.471,2.124,4.683,4.106
							c0.104,0.971-0.253,2.369-2.548,3.502c-2.203,1.089-26.524,1.287-41.231,1.305c2.392,5.469,5.645,6.684,11.725,7.241
							l2.123,0.196c13.512,1.25,28.825,2.666,42.131-1.045c6.355-1.772,11.312-6.109,16.104-10.303
							c4.466-3.907,9.084-7.948,14.886-10.025c53.474-19.156,127.76-7.689,132.652-4.245
							C237.77,51.389,237.938,51.666,237.938,51.979z"/>
						<path opacity="0.8" fill="#3E5256" enable-background="new    " d="M179.043,59.88c0,0.013,0,0.022,0,0.035
							c-0.02,0.369-0.332,0.653-0.7,0.638c-0.083-0.004-4.276-0.162-8.47-0.32c-8.465-0.32-8.471-0.32-8.486-0.321l-0.686-0.054
							c-15.184-1.176-35.978-2.787-50.245-7.012c-6.764-2.004-12.632-4.582-19.621-8.617c-1.285-0.742-2.576-1.554-3.942-2.414
							l-0.697-0.438c-0.314-0.197-0.409-0.613-0.212-0.928c0.198-0.315,0.613-0.41,0.928-0.213l0.697,0.439
							c1.355,0.854,2.635,1.659,3.898,2.387c6.892,3.981,12.673,6.521,19.331,8.492c14.13,4.186,34.842,5.79,49.965,6.963
							l0.674,0.051c0.061,0.002,4.252,0.162,8.445,0.32c8.467,0.319,8.471,0.319,8.487,0.321
							C178.77,59.23,179.043,59.527,179.043,59.88z"/>
					</g>
				</g>
			</g>
		</g>
	</g>
	<g>
		<path fill="#F5D069" d="M7.486,15.326c0,7.227,0,59.98,0,61.207c1.92-5.567,6.261-10.646,11.677-10.646
			c7.435,0,12.67,12.485,12.67,12.485c0-9.147-0.004-45.833-0.004-53.601C31.829,8.512,19.547,0,19.547,0S7.486,10.079,7.486,15.326
			z"/>
		<path fill="#F5D069" d="M19.755,72.611c-1.298-1.065-10.528,6.921-10.528,13.043c0,6.969,5.415,15.17,5.417,15.173
			c0.135,0.204,4.769-3.89,5.049-4.136c3.18-2.793,7.28-8.644,6.877-12.934C26.192,79.74,22.513,74.872,19.755,72.611z"/>
		<path opacity="0.8" fill="#3E5256" enable-background="new    " d="M30.433,22.963v60.646c0,5.509-2.747,11.074-7.943,16.094
			c-3.89,3.757-7.723,5.865-7.884,5.955c-0.253,0.137-0.566,0.1-0.778-0.096c-0.367-0.338-9.011-8.445-9.011-21.953V22.963
			c0-6.191,13.923-19.811,14.516-20.386c0.13-0.127,0.306-0.195,0.488-0.19c0.181,0.004,0.352,0.083,0.477,0.215
			C20.71,3.049,30.433,13.661,30.433,22.963z M14.392,104.225c2.472-1.478,14.695-9.36,14.695-20.613V22.964
			c0-7.667-7.381-16.69-9.318-18.927C15.544,8.23,6.163,18.48,6.163,22.964v60.646C6.162,95,12.787,102.561,14.392,104.225z"/>
		<path opacity="0.8" fill="#3E5256" enable-background="new    " d="M30.458,83.143c0,0.368-0.297,0.668-0.666,0.672
			c-0.372,0.004-0.676-0.293-0.68-0.666c-0.066-6.336-7.616-13.502-9.486-13.481c-1.701,0.019-13.043,7.135-13.043,18.021
			c0,0.058,0,0.115,0,0.17c0,0.371-0.296,0.67-0.666,0.674c-0.372,0.005-0.676-0.295-0.68-0.665c0-0.062,0-0.126,0-0.188
			c0-12.049,12.183-19.334,14.375-19.357c2.939-0.029,10.776,8.186,10.847,14.816C30.458,83.139,30.458,83.141,30.458,83.143z"/>
		<path opacity="0.8" fill="#3E5256" enable-background="new    " d="M10.603,14.623v61.804c0,0.371-0.302,0.673-0.673,0.673
			c-0.371,0-0.673-0.302-0.673-0.673V14.623c0-0.371,0.302-0.673,0.673-0.673C10.301,13.95,10.603,14.252,10.603,14.623z"/>
		<path opacity="0.8" fill="#3E5256" enable-background="new    " d="M14.428,9.48v62.979c0,0.371-0.301,0.673-0.673,0.673
			s-0.673-0.302-0.673-0.673V9.48c0-0.373,0.301-0.674,0.673-0.674C14.127,8.809,14.428,9.109,14.428,9.48z"/>
		<path opacity="0.8" fill="#3E5256" enable-background="new    " d="M18.254,5.541v64.277c0,0.373-0.302,0.674-0.673,0.674
			c-0.372,0-0.673-0.301-0.673-0.674V5.541c0-0.371,0.301-0.673,0.673-0.673C17.952,4.868,18.254,5.17,18.254,5.541z"/>
		<path opacity="0.8" fill="#3E5256" enable-background="new    " d="M22.078,4.943v64.749c0,0.371-0.301,0.672-0.673,0.672
			c-0.371,0-0.673-0.301-0.673-0.672V4.943c0-0.371,0.302-0.674,0.673-0.674C21.777,4.27,22.078,4.572,22.078,4.943z"/>
		<path opacity="0.8" fill="#3E5256" enable-background="new    " d="M25.905,10.288v62.933c0,0.372-0.302,0.674-0.673,0.674
			c-0.372,0-0.673-0.302-0.673-0.674V10.289c0-0.371,0.301-0.672,0.673-0.672C25.603,9.616,25.905,9.917,25.905,10.288z"/>
		<path fill="#F2BA3D" d="M14.84,100.652c0,0-1.953-6.383-1.085-14.92c0.612-6.027,6.017-13.103,6.017-13.103
			S9.35,78.021,9.227,85.654C9.103,93.288,13.961,99.602,14.84,100.652z"/>
		<path opacity="0.8" fill="#3E5256" enable-background="new    " d="M26.86,83.996c0,2.41-0.745,4.349-0.756,4.377
			c-2.413,6.201-10.507,12.541-10.851,12.811c-0.141,0.108-0.322,0.157-0.5,0.135c-0.177-0.021-0.339-0.114-0.448-0.258
			c-0.237-0.312-5.804-7.655-5.804-13.098c0-0.371,0.302-0.673,0.673-0.673c0.372,0,0.673,0.302,0.673,0.673
			c0,4.182,3.841,9.924,5.12,11.721c1.854-1.531,7.95-6.832,9.884-11.801c0.015-0.037,1.453-3.84,0.06-7.072
			c-0.147-0.342,0.01-0.736,0.352-0.885c0.341-0.146,0.737,0.01,0.884,0.352C26.68,81.516,26.86,82.812,26.86,83.996z"/>
		<path opacity="0.8" fill="#3E5256" enable-background="new    " d="M25.312,78.26c0,0.23-0.119,0.455-0.333,0.581
			c-0.32,0.188-0.733,0.08-0.921-0.239c-1.847-3.145-3.804-4.778-4.564-5.34c-0.989,0.625-3.768,2.467-5.437,4.449
			c-2.113,2.512-3.448,4.982-4.081,7.555c-0.089,0.36-0.454,0.58-0.815,0.492c-0.36-0.09-0.578-0.456-0.492-0.814
			c0.683-2.775,2.109-5.426,4.359-8.1c2.194-2.607,5.982-4.869,6.142-4.964c0.213-0.125,0.477-0.125,0.689,0.001
			c0.114,0.068,2.826,1.727,5.359,6.039C25.282,78.027,25.312,78.145,25.312,78.26z"/>
	</g>
</g>
</svg>
