<?xml version="1.0" encoding="utf-8"?>
<!-- Generator: Adobe Illustrator 16.0.0, SVG Export Plug-In . SVG Version: 6.00 Build 0)  -->
<!DOCTYPE svg PUBLIC "-//W3C//DTD SVG 1.1//EN" "http://www.w3.org/Graphics/SVG/1.1/DTD/svg11.dtd">
<svg version="1.1" id="圖層_1" xmlns="http://www.w3.org/2000/svg" xmlns:xlink="http://www.w3.org/1999/xlink" x="0px" y="0px"
	 width="266.5px" height="82px" viewBox="0 0 266.5 82" enable-background="new 0 0 266.5 82" xml:space="preserve">
<g>
	<path opacity="0.8" fill="#BCD6D6" enable-background="new    " d="M208.664,45.113c9.338,0,18.596-0.37,27.852-1.051
		c3.826-0.281,7.635-0.664,11.359-1.24c2.975-0.463,10.725-2.041,10.725-3.973c0-2.353-7.047-3.367-10.006-3.647
		c-30.168-2.837-54.347-1.97-81.145,0.81c-7.156,0.741-28.35,3.708-28.35,3.708c13.598,2.947,33.537,4.044,47.924,4.859
		c0.024,0.002,15.965,0.442,15.992,0.444"/>
	<path opacity="0.8" fill="#BCD6D6" enable-background="new    " d="M132.577,42.562c-12.562,3.733-23.315,15.811-36.24,19.25
		c-14.676,3.906-31.268,2.174-46.265,0.864c-7.004-0.612-10.592-2.177-13.171-8.516c0.305-0.005,40.923,0.038,43.603-1.226
		c4.522-2.132,1.496-5.453-2.079-6.304c-8.042-1.913-36.509-2.302-42.054-2.423c-0.007-2.052,0.003-4.104,0.004-6.157
		c0.292-0.002,40.881-1.757,43.692-3.001c4.339-1.923,2.687-5.454-1.303-6.376c-7.878-1.819-36.425-0.696-42.04-0.586
		c0.458-3.716,2.068-6.61,5.71-8.305c4.5-2.095,10.09-1.794,14.955-2.062c10.367-0.579,20.887-1.741,31.253-0.601
		c4.049,0.443,7.954,1.623,11.606,3.335c1.484,0.696,2.956,1.581,4.408,2.562L132.577,42.562z"/>
	<path opacity="0.8" fill="#3E5256" enable-background="new    " d="M259.268,40.143c0,0.295-0.127,0.57-0.379,0.82
		c-3.043,3.041-37.781,7.713-52.951,7.693c-0.369,0-0.668-0.301-0.668-0.67l0,0c0-0.371,0.301-0.67,0.67-0.67
		c16.379,0.021,48.18-4.701,51.756-7.086c-2.994-1.474-21.826-4.901-46.119-5.811c-22.881-0.855-56.096,0.254-84.383,10.389
		c-5.536,1.983-10.035,5.92-14.386,9.728c-4.882,4.271-9.931,8.688-16.55,10.534c-13.481,3.761-28.853,2.339-42.416,1.084
		L51.73,65.96c-6.664-0.61-10.53-2.165-13.171-8.967c-0.08-0.201-0.055-0.433,0.068-0.615c0.121-0.183,0.323-0.293,0.542-0.297
		c0.019,0,0.19-0.001,0.498-0.001c23.503-0.023,39.582-0.479,40.958-1.159c0.878-0.435,1.907-1.159,1.797-2.144
		c-0.125-1.164-1.73-2.45-3.653-2.931c-6.993-1.743-30.617-2.219-38.38-2.374l-1.729-0.035c-0.362-0.01-0.654-0.305-0.654-0.668
		c-0.004-1.295-0.001-2.591,0.001-3.885l0.003-2.294c0-0.364,0.294-0.664,0.66-0.669c1.722-0.049,39.118-1.82,41.552-2.951
		c1.422-0.658,2.151-1.541,2.062-2.479c-0.112-1.141-1.423-2.231-3.186-2.658c-6.449-1.561-27.751-0.928-36.847-0.657
		c-1.398,0.041-2.507,0.075-3.224,0.091c-0.194,0.002-0.379-0.078-0.51-0.221c-0.131-0.145-0.193-0.337-0.17-0.529
		c0.505-4.289,2.416-7.187,5.838-8.856c3.584-1.748,7.739-1.888,11.757-2.019c0.956-0.033,1.896-0.064,2.812-0.117
		c1.985-0.116,3.976-0.256,5.97-0.396c7.898-0.552,16.065-1.124,24.063-0.202c3.802,0.438,7.614,1.585,11.33,3.411
		c1.324,0.648,2.734,1.509,4.311,2.625c0.303,0.214,0.374,0.631,0.161,0.934c-0.213,0.301-0.632,0.373-0.934,0.159
		c-1.518-1.073-2.868-1.896-4.128-2.517c-3.578-1.758-7.243-2.861-10.892-3.28c-7.874-0.907-15.979-0.341-23.816,0.208
		c-1.999,0.141-3.996,0.278-5.986,0.395c-0.925,0.057-1.878,0.086-2.845,0.119c-3.878,0.129-7.888,0.263-11.216,1.887
		c-2.816,1.373-4.413,3.623-4.985,7.041c0.651-0.017,1.47-0.041,2.424-0.068c9.15-0.271,30.577-0.908,37.202,0.693
		c2.344,0.566,4.033,2.104,4.203,3.828c0.152,1.523-0.88,2.922-2.832,3.826c-2.637,1.227-36.276,2.818-41.437,3.047l-0.002,1.654
		c-0.002,1.074-0.004,2.149-0.002,3.225l1.073,0.021c7.8,0.158,31.538,0.635,38.677,2.414c2.156,0.538,4.449,2.115,4.661,4.088
		c0.105,0.969-0.252,2.357-2.537,3.485c-2.19,1.084-26.409,1.28-41.037,1.3c2.38,5.443,5.618,6.652,11.669,7.207l2.113,0.193
		c13.447,1.244,28.689,2.654,41.933-1.041c6.326-1.764,11.258-6.078,16.027-10.252c4.445-3.889,9.042-7.91,14.816-9.979
		c53.222-19.066,127.159-7.656,132.028-4.227C259.102,39.556,259.268,39.832,259.268,40.143z"/>
	<path opacity="0.8" fill="#3E5256" enable-background="new    " d="M200.652,48.007c0,0.011,0,0.021-0.002,0.03
		c-0.016,0.367-0.326,0.654-0.695,0.639c-0.047-0.001-2.189-0.083-4.934-0.188c-11.924-0.449-11.931-0.45-11.953-0.451l-0.684-0.053
		c-15.109-1.172-35.802-2.773-49.999-6.979c-6.734-1.992-12.574-4.56-19.528-8.577c-1.273-0.734-2.551-1.537-3.904-2.391
		l-0.712-0.446c-0.313-0.198-0.407-0.61-0.211-0.924c0.197-0.313,0.61-0.407,0.923-0.212l0.714,0.449
		c1.341,0.845,2.608,1.643,3.86,2.363c6.857,3.961,12.611,6.489,19.239,8.451c14.062,4.166,34.672,5.764,49.721,6.928l0.682,0.055
		c0.1,0.004,6.971,0.264,11.9,0.449c2.773,0.105,4.936,0.188,4.943,0.188C200.373,47.357,200.652,47.652,200.652,48.007z"/>
</g>
<g>
	<path fill="#F5D069" d="M41.428,8.268c-0.952-0.306-2.537,1.373-2.537,1.373l-1.795,1.684l-0.489-2.412
		c0,0-0.322-2.284-1.278-2.589c-0.952-0.304-2.536,1.372-2.536,1.372l-1.292,1.214l-1.323-0.878c0,0-1.843-1.387-2.734-0.928
		c-0.887,0.461-0.823,2.765-0.823,2.765l-0.032,0.998l-0.727,0.147c0,0-2.285,0.322-2.589,1.277
		c-0.304,0.952,1.374,2.538,1.374,2.538l1.684,1.796l-2.413,0.489c0,0-2.284,0.321-2.588,1.276
		c-0.304,0.952,1.373,2.537,1.373,2.537l1.685,1.795l-2.413,0.488c0,0-2.284,0.323-2.588,1.278
		c-0.303,0.952,1.373,2.538,1.373,2.538l1.684,1.793l-2.412,0.49c0,0-2.285,0.321-2.59,1.276c-0.303,0.952,1.374,2.538,1.374,2.538
		l1.684,1.794l-2.412,0.488c0,0-2.285,0.323-2.589,1.276c-0.303,0.953,1.373,2.539,1.373,2.539l1.684,1.795l-2.413,0.489
		c0,0-2.284,0.322-2.588,1.277c-0.303,0.95,1.374,2.537,1.374,2.537l1.683,1.796L14.2,47.605c0,0-2.285,0.322-2.589,1.279
		c-0.303,0.95,1.374,2.534,1.374,2.534l0.712,0.761l-1.078,1.629c0,0-1.388,1.842-0.928,2.734c0.459,0.887,2.765,0.821,2.765,0.821
		l1.952,0.063l0.208,1.021c0,0,0.322,2.283,1.276,2.587c0.954,0.306,2.538-1.372,2.538-1.372l1.796-1.684l0.489,2.412
		c0,0,0.322,2.285,1.277,2.59c0.954,0.304,2.538-1.373,2.538-1.373l1.795-1.687l0.489,2.413c0,0,0.322,2.285,1.278,2.59
		c0.952,0.303,2.538-1.373,2.538-1.373l1.793-1.686l0.49,2.411c0,0,0.322,2.286,1.278,2.59c0.952,0.304,2.538-1.373,2.538-1.373
		l1.793-1.683l0.489,2.41c0,0,0.323,2.285,1.278,2.59c0.952,0.305,2.538-1.373,2.538-1.373l1.794-1.685l0.49,2.413
		c0,0,0.321,2.283,1.277,2.588c0.953,0.305,2.538-1.373,2.538-1.373l1.795-1.685l0.49,2.412c0,0,0.321,2.286,1.278,2.591
		c0.95,0.303,2.535-1.374,2.535-1.374l0.763-0.714l1.628,1.078c0,0,1.844,1.387,2.732,0.93c0.89-0.461,0.825-2.768,0.825-2.768
		l0.063-1.953l1.022-0.206c0,0,2.284-0.322,2.589-1.277c0.303-0.95-1.374-2.537-1.374-2.537l-1.685-1.796l2.414-0.488
		c0,0,2.284-0.322,2.588-1.277c0.304-0.953-1.374-2.538-1.374-2.538l-1.685-1.795l2.413-0.488c0,0,2.284-0.324,2.589-1.278
		c0.304-0.953-1.373-2.537-1.373-2.537l-1.684-1.795l2.412-0.488c0,0,2.285-0.322,2.588-1.278c0.303-0.951-1.373-2.537-1.373-2.537
		l-1.685-1.795l2.413-0.489c0,0,2.284-0.322,2.589-1.275c0.303-0.955-1.374-2.541-1.374-2.541l-1.683-1.795l2.411-0.486
		c0,0,2.285-0.323,2.589-1.278c0.303-0.953-1.374-2.536-1.374-2.536l-1.685-1.796l2.414-0.489c0,0,2.283-0.321,2.587-1.277
		c0.304-0.952-1.373-2.536-1.373-2.536l-0.509-0.542l0.55-0.83c0,0,1.386-1.844,0.93-2.73c-0.46-0.892-2.768-0.826-2.768-0.826
		l-1.584-0.049l-0.354-1.736c0,0-0.321-2.285-1.274-2.588c-0.955-0.307-2.539,1.371-2.539,1.371l-1.796,1.687l-0.489-2.414
		c0,0-0.322-2.284-1.276-2.588c-0.954-0.304-2.539,1.373-2.539,1.373l-1.795,1.687l-0.489-2.414c0,0-0.323-2.285-1.278-2.59
		c-0.953-0.303-2.538,1.374-2.538,1.374l-1.793,1.683l-0.49-2.41c0,0-0.322-2.284-1.278-2.59c-0.952-0.303-2.538,1.373-2.538,1.373
		l-1.793,1.686L48.802,12.8c0,0-0.323-2.282-1.277-2.588c-0.953-0.304-2.538,1.373-2.538,1.373l-1.794,1.685l-0.489-2.412
		C42.707,10.857,42.384,8.57,41.428,8.268z"/>
	<path opacity="0.8" fill="#3E5256" enable-background="new    " d="M75.344,31.88c0,0.159-0.022,0.312-0.068,0.453
		c-0.401,1.259-2.499,1.649-3.133,1.737l-1.197,0.242l0.863,0.922c0.242,0.227,1.591,1.562,1.591,2.746
		c0,0.156-0.022,0.312-0.067,0.453c-0.402,1.258-2.501,1.647-3.135,1.736l-1.195,0.243l0.862,0.92
		c0.242,0.226,1.591,1.562,1.591,2.746c0,0.157-0.023,0.312-0.068,0.453c-0.4,1.259-2.499,1.649-3.133,1.737l-1.197,0.244
		l0.863,0.918c0.243,0.229,1.591,1.564,1.591,2.748c0,0.156-0.023,0.311-0.068,0.451c-0.4,1.26-2.499,1.648-3.133,1.738l-1.196,0.24
		l0.863,0.92c0.242,0.229,1.59,1.562,1.59,2.748c0,0.158-0.023,0.312-0.069,0.453c-0.401,1.256-2.499,1.646-3.133,1.737
		l-1.196,0.243l0.862,0.918c0.243,0.229,1.591,1.562,1.591,2.747c0,0.159-0.023,0.31-0.069,0.452
		c-0.4,1.258-2.499,1.646-3.133,1.736l-1.197,0.244l0.863,0.918c0.243,0.229,1.591,1.563,1.591,2.75c0,0.156-0.023,0.31-0.068,0.451
		c-0.4,1.258-2.5,1.646-3.133,1.736l-0.463,0.094l-0.045,1.426l0.001,0.082c0,0.986-0.154,2.724-1.188,3.258
		c-1.171,0.604-2.93-0.604-3.442-0.988l-1.154-0.764l-0.376,0.353c-0.411,0.437-1.942,1.923-3.197,1.522
		c-1.259-0.401-1.648-2.5-1.738-3.135l-0.244-1.197l-0.92,0.865c-0.412,0.438-1.943,1.924-3.199,1.521
		c-1.259-0.4-1.648-2.499-1.738-3.133l-0.244-1.195l-0.919,0.861c-0.411,0.438-1.944,1.924-3.199,1.521
		c-1.259-0.4-1.648-2.499-1.738-3.132l-0.243-1.194l-0.918,0.86c-0.412,0.438-1.945,1.922-3.2,1.524
		c-1.259-0.403-1.648-2.502-1.737-3.138l-0.243-1.194l-0.918,0.863c-0.412,0.437-1.945,1.922-3.2,1.521
		c-1.257-0.4-1.648-2.5-1.738-3.135l-0.243-1.194L23.315,64.4c-0.412,0.437-1.943,1.924-3.2,1.521
		c-1.258-0.4-1.647-2.499-1.738-3.133l-0.243-1.197l-0.919,0.866c-0.411,0.437-1.943,1.922-3.2,1.522
		c-1.257-0.401-1.647-2.5-1.737-3.135l-0.095-0.465l-1.423-0.045c-0.6,0.02-2.733-0.014-3.338-1.186
		c-0.112-0.215-0.168-0.465-0.168-0.737c0-1.14,1.038-2.55,1.156-2.707l0.763-1.153l-0.35-0.373
		c-0.242-0.227-1.591-1.562-1.591-2.746c0-0.158,0.023-0.311,0.068-0.451c0.402-1.26,2.5-1.647,3.134-1.737l1.196-0.244l-0.863-0.92
		c-0.241-0.228-1.591-1.562-1.591-2.747c0-0.157,0.022-0.311,0.069-0.452c0.4-1.26,2.499-1.647,3.132-1.737l1.197-0.242
		l-0.863-0.922c-0.242-0.227-1.59-1.562-1.59-2.748c0-0.155,0.023-0.31,0.068-0.45c0.401-1.257,2.5-1.647,3.134-1.737l1.195-0.242
		l-0.862-0.92c-0.242-0.228-1.591-1.564-1.591-2.748c0-0.156,0.023-0.311,0.069-0.451c0.401-1.261,2.501-1.647,3.134-1.736
		l1.195-0.244l-0.862-0.919c-0.242-0.228-1.59-1.563-1.59-2.747c0-0.157,0.022-0.311,0.068-0.452c0.4-1.258,2.5-1.647,3.133-1.737
		l1.197-0.242l-0.863-0.92c-0.242-0.228-1.591-1.562-1.591-2.748c0-0.157,0.024-0.311,0.069-0.453c0.4-1.258,2.5-1.646,3.134-1.736
		l1.196-0.243l-0.863-0.92c-0.242-0.228-1.591-1.562-1.591-2.747c0-0.156,0.022-0.311,0.068-0.452
		c0.402-1.259,2.5-1.646,3.133-1.737l0.168-0.034l0.015-0.47l-0.001-0.082c0-0.986,0.154-2.723,1.187-3.256
		c1.174-0.604,2.934,0.604,3.445,0.987l0.847,0.562l0.906-0.851c0.411-0.438,1.943-1.925,3.199-1.522
		c1.258,0.4,1.647,2.5,1.737,3.133l0.243,1.197l0.92-0.863c0.412-0.438,1.943-1.922,3.199-1.522
		c1.259,0.402,1.648,2.501,1.738,3.134l0.243,1.195l0.919-0.863c0.412-0.436,1.943-1.922,3.2-1.521
		c1.257,0.399,1.647,2.5,1.737,3.133l0.241,1.197l0.918-0.862c0.412-0.436,1.946-1.923,3.2-1.521
		c1.258,0.399,1.648,2.498,1.737,3.134l0.243,1.196l0.918-0.864c0.412-0.438,1.945-1.923,3.2-1.521
		c1.258,0.399,1.648,2.498,1.738,3.132l0.243,1.197l0.919-0.863c0.411-0.438,1.942-1.923,3.199-1.523
		c1.258,0.402,1.647,2.501,1.737,3.134l0.243,1.198l0.921-0.864c0.411-0.437,1.942-1.925,3.2-1.521
		c1.256,0.399,1.646,2.498,1.734,3.132l0.24,1.176l1.055,0.035c0.601-0.019,2.735,0.014,3.342,1.187
		c0.111,0.217,0.167,0.463,0.167,0.734c0,1.138-1.038,2.552-1.157,2.706l-0.235,0.356l0.146,0.154
		C73.995,29.363,75.344,30.697,75.344,31.88z M68.966,33.896c0-0.067,0.011-0.136,0.031-0.203c0.074-0.23,0.267-0.402,0.505-0.451
		l2.414-0.488c0.982-0.145,1.995-0.548,2.083-0.827l0.004-0.046c0-0.434-0.696-1.324-1.2-1.799l-0.537-0.57
		c-0.212-0.227-0.242-0.568-0.069-0.828l0.551-0.83c0.39-0.524,0.911-1.44,0.911-1.936c0-0.062-0.009-0.102-0.018-0.118
		c-0.134-0.26-1.202-0.487-2.155-0.464l-1.624-0.051c-0.31-0.012-0.573-0.231-0.634-0.535l-0.354-1.736
		c-0.141-0.982-0.545-1.994-0.823-2.082c-0.279-0.091-1.194,0.504-1.848,1.192l-1.825,1.714c-0.177,0.166-0.431,0.225-0.662,0.148
		c-0.232-0.071-0.405-0.266-0.454-0.504l-0.488-2.412c-0.142-0.983-0.547-1.995-0.824-2.086c-0.279-0.088-1.194,0.504-1.848,1.196
		l-1.823,1.714c-0.177,0.166-0.431,0.224-0.662,0.149c-0.232-0.075-0.404-0.267-0.453-0.506l-0.489-2.414
		c-0.143-0.981-0.547-1.994-0.825-2.083c-0.277-0.088-1.193,0.504-1.85,1.195l-1.821,1.711c-0.177,0.166-0.431,0.225-0.662,0.152
		c-0.232-0.076-0.405-0.268-0.454-0.507l-0.49-2.412c-0.142-0.98-0.546-1.995-0.825-2.084c-0.276-0.087-1.192,0.505-1.85,1.195
		l-1.82,1.712c-0.177,0.166-0.431,0.225-0.662,0.148c-0.23-0.072-0.405-0.267-0.453-0.504l-0.488-2.412
		c-0.142-0.982-0.547-1.995-0.824-2.084c-0.279-0.088-1.194,0.504-1.848,1.194l-1.822,1.712c-0.177,0.166-0.431,0.226-0.662,0.15
		c-0.232-0.072-0.404-0.268-0.453-0.503l-0.49-2.414c-0.141-0.981-0.547-1.994-0.825-2.083c-0.278-0.09-1.192,0.503-1.847,1.195
		l-1.823,1.712c-0.178,0.165-0.431,0.223-0.662,0.148c-0.231-0.073-0.404-0.267-0.452-0.505l-0.489-2.414
		c-0.143-0.98-0.547-1.994-0.824-2.082c-0.279-0.089-1.194,0.502-1.847,1.194l-1.321,1.239c-0.227,0.213-0.569,0.24-0.828,0.07
		l-1.323-0.877C25.34,10.296,24.338,9.866,24.078,10c-0.194,0.102-0.461,0.873-0.461,2.064v0.084l-0.031,1.037
		c-0.011,0.312-0.232,0.573-0.536,0.637l-0.728,0.147c-0.983,0.144-1.996,0.548-2.084,0.824c0,0.001,0,0.004,0,0.006
		c0,0.499,0.713,1.384,1.196,1.843l1.712,1.824c0.167,0.178,0.223,0.432,0.149,0.661c-0.073,0.231-0.266,0.405-0.504,0.454
		l-2.413,0.486c-0.982,0.142-1.995,0.548-2.083,0.824c0,0.002,0,0.004,0,0.006c0,0.5,0.713,1.386,1.195,1.844l1.712,1.822
		c0.167,0.177,0.223,0.431,0.15,0.66c-0.074,0.231-0.267,0.404-0.505,0.452l-2.413,0.49c-0.982,0.144-1.995,0.546-2.083,0.823
		c0,0.001,0,0.004,0,0.006c0,0.484,0.694,1.368,1.195,1.843l1.711,1.823c0.166,0.177,0.224,0.43,0.15,0.661
		c-0.074,0.231-0.267,0.403-0.505,0.452l-2.412,0.49c-0.982,0.142-1.996,0.547-2.084,0.823c-0.007,0.466,0.693,1.373,1.196,1.849
		l1.712,1.822c0.166,0.178,0.224,0.432,0.15,0.662c-0.074,0.23-0.267,0.403-0.505,0.452l-2.412,0.489
		c-0.982,0.142-1.996,0.546-2.084,0.824c0.003,0.491,0.692,1.371,1.194,1.848l1.713,1.822c0.167,0.178,0.223,0.431,0.15,0.662
		c-0.074,0.23-0.267,0.404-0.505,0.453l-2.412,0.488c-0.982,0.143-1.995,0.548-2.083,0.825c0.013,0.487,0.693,1.371,1.196,1.847
		l1.711,1.823c0.166,0.179,0.224,0.433,0.149,0.662c-0.074,0.231-0.267,0.405-0.504,0.452l-2.412,0.49
		c-0.983,0.142-1.996,0.547-2.085,0.823c0,0.003,0,0.005,0,0.007c0,0.496,0.713,1.383,1.196,1.842l0.74,0.787
		c0.212,0.227,0.241,0.569,0.07,0.828l-1.079,1.629c-0.391,0.522-0.909,1.438-0.909,1.934c0,0.08,0.014,0.113,0.019,0.122
		c0.134,0.261,1.199,0.489,2.151,0.462l1.992,0.062c0.311,0.01,0.573,0.231,0.635,0.534l0.208,1.024
		c0.142,0.982,0.546,1.996,0.824,2.084c0.279,0.088,1.193-0.503,1.848-1.194l1.824-1.714c0.177-0.166,0.43-0.223,0.661-0.148
		c0.232,0.073,0.405,0.267,0.453,0.504l0.489,2.414c0.142,0.981,0.547,1.994,0.825,2.084c0.277,0.088,1.192-0.504,1.848-1.195
		l1.824-1.713c0.177-0.168,0.431-0.225,0.661-0.148c0.232,0.073,0.405,0.268,0.453,0.506l0.489,2.41
		c0.142,0.983,0.547,1.997,0.825,2.085c0.277,0.087,1.192-0.505,1.849-1.194l1.821-1.713c0.177-0.166,0.431-0.225,0.662-0.149
		c0.231,0.073,0.404,0.267,0.453,0.505l0.49,2.412c0.142,0.982,0.547,1.996,0.825,2.085c0.276,0.088,1.193-0.505,1.85-1.196
		l1.821-1.712c0.177-0.166,0.431-0.224,0.662-0.149c0.23,0.073,0.404,0.268,0.453,0.504l0.488,2.412
		c0.142,0.983,0.548,1.996,0.826,2.084c0.276,0.09,1.192-0.502,1.848-1.194l1.823-1.712c0.177-0.166,0.43-0.223,0.661-0.149
		c0.231,0.074,0.405,0.267,0.453,0.505l0.489,2.411c0.143,0.983,0.547,1.997,0.825,2.084c0.277,0.089,1.191-0.503,1.848-1.194
		l1.823-1.713c0.177-0.166,0.43-0.224,0.662-0.149c0.231,0.073,0.404,0.267,0.453,0.505l0.49,2.413
		c0.141,0.981,0.547,1.995,0.825,2.085c0.277,0.088,1.191-0.505,1.845-1.196l0.792-0.743c0.227-0.212,0.569-0.24,0.828-0.068
		l1.628,1.078c0.795,0.595,1.797,1.024,2.054,0.892c0.193-0.101,0.463-0.875,0.463-2.067v-0.084l0.062-1.994
		c0.01-0.31,0.231-0.572,0.536-0.634l1.022-0.208c0.983-0.142,1.995-0.548,2.084-0.824c0-0.002,0-0.002,0-0.004
		c0-0.5-0.713-1.387-1.196-1.844l-1.713-1.82c-0.166-0.181-0.224-0.433-0.149-0.664c0.074-0.23,0.266-0.403,0.504-0.453l2.413-0.489
		c0.982-0.142,1.995-0.546,2.084-0.823c0-0.002,0-0.005,0-0.006c0-0.482-0.694-1.369-1.195-1.844l-1.713-1.818
		c-0.167-0.177-0.224-0.432-0.15-0.662c0.073-0.23,0.267-0.404,0.504-0.453l2.414-0.488c0.982-0.143,1.995-0.547,2.083-0.823
		c0-0.003,0-0.005,0-0.007c0-0.482-0.693-1.368-1.194-1.842l-1.712-1.824c-0.167-0.178-0.224-0.43-0.15-0.66
		c0.074-0.233,0.267-0.405,0.505-0.453l2.412-0.488c0.983-0.142,1.996-0.548,2.084-0.826c0,0,0-0.002,0-0.006
		c0-0.498-0.713-1.384-1.196-1.843l-1.711-1.821c-0.167-0.177-0.223-0.43-0.15-0.66c0.073-0.231,0.267-0.404,0.505-0.455
		l2.412-0.488c0.983-0.143,1.995-0.547,2.084-0.824c0-0.002,0-0.004,0-0.005c0-0.482-0.694-1.369-1.195-1.845l-1.711-1.822
		c-0.167-0.176-0.223-0.43-0.149-0.66c0.074-0.23,0.266-0.405,0.504-0.453l2.412-0.49c0.982-0.142,1.996-0.546,2.083-0.822
		c0-0.002,0-0.004,0-0.006c0-0.5-0.712-1.386-1.195-1.844l-1.713-1.822C69.028,34.229,68.966,34.064,68.966,33.896z"/>
	<path fill="#F2BA3D" d="M53.108,24.332c9.537,3.038,11.631,7.732,9.07,17.556l-1.094,3.437c-3.076,9.65-8.644,11.91-17.557,9.07
		l-3.435-1.096c-9.288-2.96-12.168-7.835-9.07-17.558l1.095-3.435c3.167-9.936,8.685-11.896,17.556-9.07L53.108,24.332z"/>
	<path opacity="0.8" fill="#3E5256" enable-background="new    " d="M58.489,38.311c0,1.895-0.335,4.103-1.027,6.752l-1.104,3.469
		c-1.581,4.962-3.849,8.105-6.934,9.617c-2.947,1.443-6.697,1.408-11.465-0.113l-3.434-1.094
		c-7.422-2.365-10.733-5.948-10.733-11.616c0-1.97,0.402-4.189,1.228-6.782l1.096-3.436c3.116-9.777,8.618-12.621,18.397-9.504
		l3.435,1.094C55.335,29.052,58.489,32.525,58.489,38.311z M25.131,45.325c0,5.059,2.931,8.149,9.801,10.34l3.434,1.095
		c4.423,1.41,7.848,1.471,10.469,0.186c2.739-1.342,4.783-4.227,6.247-8.821l1.094-3.435c0.651-2.502,0.974-4.602,0.974-6.379
		c0-5.166-2.784-8.16-9.609-10.336l-3.434-1.095c-9.003-2.87-13.845-0.368-16.715,8.636l-1.094,3.437
		C25.512,41.412,25.131,43.495,25.131,45.325z"/>
</g>
<g>
	<g>
		<g>
			<defs>
				<rect id="SVGID_1_" x="32.063" y="34.704" width="15.618" height="14.231"/>
			</defs>
			<clipPath id="SVGID_2_">
				<use xlink:href="#SVGID_1_"  overflow="visible"/>
			</clipPath>
			<g clip-path="url(#SVGID_2_)">
				<path opacity="0.8" fill="#BCD6D6" enable-background="new    " d="M208.664,45.064c9.338,0,18.596-0.369,27.852-1.049
					c3.826-0.281,7.635-0.666,11.359-1.242c2.975-0.461,10.725-2.041,10.725-3.973c0-2.352-7.047-3.369-10.006-3.646
					c-30.168-2.836-54.347-1.971-81.145,0.809c-7.156,0.741-28.35,3.708-28.35,3.708c13.598,2.948,33.537,4.044,47.924,4.86
					c0.024,0,15.965,0.441,15.992,0.443"/>
				<path opacity="0.8" fill="#BCD6D6" enable-background="new    " d="M132.577,41.473c-12.562,3.916-23.315,16.57-36.24,20.178
					c-14.676,4.093-31.268,2.276-46.265,0.904c-7.004-0.642-10.592-2.281-13.171-8.925c0.305-0.005,40.923,0.04,43.603-1.284
					c4.522-2.234,1.496-5.714-2.079-6.604c-8.042-2.005-36.509-2.413-42.054-2.539c-0.007-2.151,0.003-4.302,0.004-6.452
					c0.292-0.003,40.881-1.841,43.692-3.146c4.339-2.015,2.687-5.717-1.303-6.682c-7.878-1.906-36.425-0.729-42.04-0.615
					c0.458-3.893,2.068-6.927,5.71-8.703c4.5-2.195,10.09-1.879,14.955-2.162c10.367-0.606,20.887-1.823,31.253-0.629
					c4.049,0.465,7.954,1.699,11.606,3.496c1.484,0.729,2.956,1.656,4.408,2.686L132.577,41.473z"/>
				<path opacity="0.8" fill="#3E5256" enable-background="new    " d="M259.268,40.095c0,0.294-0.127,0.57-0.379,0.821
					c-3.043,3.04-37.781,7.712-52.951,7.693c-0.369,0-0.668-0.303-0.668-0.672l0,0c0-0.371,0.301-0.67,0.67-0.67
					c16.379,0.021,48.18-4.701,51.756-7.086c-2.994-1.475-21.826-4.902-46.119-5.81c-22.881-0.854-56.096,0.253-84.383,10.389
					c-5.536,1.984-10.034,5.919-14.385,9.726c-4.883,4.271-9.931,8.688-16.55,10.535c-13.482,3.762-28.855,2.34-42.419,1.086
					l-2.109-0.195c-6.663-0.61-10.529-2.165-13.17-8.969c-0.079-0.202-0.054-0.433,0.068-0.614c0.122-0.183,0.325-0.292,0.543-0.296
					c0.018,0,0.182,0,0.473,0c23.516-0.024,39.603-0.481,40.982-1.162c0.879-0.434,1.908-1.157,1.797-2.143
					c-0.125-1.162-1.73-2.451-3.653-2.93c-6.986-1.74-30.598-2.219-38.357-2.376l-1.751-0.036c-0.363-0.009-0.654-0.305-0.654-0.668
					c-0.005-1.294-0.001-2.589,0.001-3.884l0.003-2.291c0-0.366,0.293-0.666,0.66-0.67c1.722-0.052,39.118-1.823,41.552-2.953
					c1.422-0.66,2.15-1.538,2.062-2.479c-0.113-1.14-1.422-2.23-3.186-2.655c-6.449-1.562-27.751-0.931-36.846-0.658
					c-1.399,0.042-2.508,0.074-3.225,0.09c-0.194,0.002-0.379-0.077-0.51-0.221s-0.193-0.337-0.169-0.53
					c0.505-4.29,2.415-7.186,5.837-8.855c3.586-1.75,7.743-1.887,11.763-2.021c0.954-0.03,1.894-0.062,2.807-0.116
					c1.984-0.115,3.976-0.254,5.97-0.396c7.898-0.552,16.065-1.124,24.063-0.202c3.801,0.438,7.613,1.586,11.33,3.41
					c1.324,0.65,2.734,1.51,4.311,2.625c0.302,0.215,0.374,0.633,0.161,0.936c-0.214,0.303-0.632,0.371-0.934,0.159
					c-1.517-1.073-2.868-1.897-4.127-2.518c-3.578-1.759-7.243-2.86-10.892-3.28c-7.874-0.908-15.979-0.34-23.817,0.208
					c-1.999,0.14-3.995,0.278-5.985,0.396c-0.924,0.056-1.875,0.086-2.84,0.119c-3.879,0.129-7.891,0.262-11.219,1.885
					c-2.816,1.373-4.414,3.623-4.985,7.043c0.651-0.018,1.469-0.041,2.424-0.069c9.15-0.272,30.576-0.908,37.201,0.694
					c2.344,0.565,4.033,2.104,4.204,3.828c0.153,1.521-0.88,2.92-2.832,3.824c-2.638,1.227-36.277,2.819-41.438,3.051l-0.002,1.65
					c-0.002,1.075-0.005,2.152-0.002,3.225l1.095,0.022c7.796,0.157,31.522,0.638,38.655,2.414c2.155,0.538,4.449,2.114,4.661,4.088
					c0.105,0.966-0.252,2.356-2.537,3.485c-2.192,1.084-26.399,1.279-41.036,1.299c2.38,5.443,5.618,6.652,11.669,7.206l2.11,0.194
					c13.448,1.244,28.691,2.653,41.935-1.041c6.326-1.765,11.258-6.078,16.028-10.252c4.446-3.89,9.042-7.91,14.816-9.979
					c53.223-19.067,127.158-7.654,132.029-4.226C259.102,39.507,259.268,39.783,259.268,40.095z"/>
				<path opacity="0.8" fill="#3E5256" enable-background="new    " d="M200.652,47.959c0,0.011,0,0.02-0.002,0.029
					c-0.016,0.369-0.326,0.656-0.695,0.642c-0.047-0.002-2.189-0.083-4.934-0.187c-11.924-0.451-11.931-0.453-11.953-0.453
					l-0.684-0.055c-15.109-1.17-35.802-2.771-49.999-6.978c-6.734-1.993-12.574-4.56-19.528-8.577
					c-1.273-0.734-2.551-1.539-3.904-2.391l-0.712-0.447c-0.313-0.197-0.407-0.611-0.211-0.924c0.197-0.312,0.61-0.407,0.923-0.211
					l0.714,0.449c1.341,0.844,2.608,1.643,3.86,2.361c6.857,3.963,12.611,6.49,19.239,8.452c14.062,4.167,34.672,5.765,49.721,6.931
					l0.682,0.051c0.1,0.006,6.971,0.265,11.9,0.451c2.773,0.104,4.936,0.188,4.943,0.188
					C200.373,47.307,200.652,47.605,200.652,47.959z"/>
			</g>
		</g>
	</g>
</g>
<g>
	<g>
		<g>
			<defs>
				<rect id="SVGID_3_" x="35.678" y="52.314" width="7.562" height="11.899"/>
			</defs>
			<clipPath id="SVGID_4_">
				<use xlink:href="#SVGID_3_"  overflow="visible"/>
			</clipPath>
			<g clip-path="url(#SVGID_4_)">
				<path opacity="0.8" fill="#BCD6D6" enable-background="new    " d="M208.664,45.113c9.338,0,18.596-0.37,27.852-1.051
					c3.826-0.281,7.635-0.664,11.359-1.24c2.975-0.463,10.725-2.041,10.725-3.973c0-2.353-7.047-3.367-10.006-3.647
					c-30.168-2.837-54.347-1.97-81.145,0.81c-7.156,0.741-28.35,3.708-28.35,3.708c13.598,2.947,33.537,4.044,47.924,4.859
					c0.024,0.002,15.965,0.442,15.992,0.444"/>
				<path opacity="0.8" fill="#BCD6D6" enable-background="new    " d="M132.577,41.521c-12.562,3.914-23.315,16.569-36.24,20.178
					c-14.676,4.093-31.268,2.277-46.265,0.904c-7.004-0.642-10.593-2.281-13.172-8.925c0.305-0.004,40.923,0.04,43.604-1.284
					c4.521-2.233,1.496-5.715-2.079-6.604c-8.042-2.004-36.509-2.413-42.054-2.54c-0.007-2.15,0.003-4.3,0.004-6.452
					c0.292-0.003,40.881-1.843,43.692-3.146c4.339-2.018,2.687-5.717-1.303-6.682c-7.879-1.906-36.427-0.73-42.041-0.613
					c0.459-3.896,2.069-6.931,5.71-8.705c4.5-2.196,10.09-1.879,14.955-2.164c10.367-0.604,20.888-1.822,31.254-0.629
					c4.049,0.467,7.954,1.701,11.606,3.498c1.483,0.729,2.955,1.656,4.407,2.686L132.577,41.521z"/>
				<path opacity="0.8" fill="#3E5256" enable-background="new    " d="M259.268,40.143c0,0.295-0.127,0.57-0.379,0.82
					c-3.043,3.041-37.781,7.713-52.951,7.693c-0.369,0-0.668-0.301-0.668-0.67l0,0c0-0.371,0.301-0.67,0.67-0.67
					c16.379,0.021,48.18-4.701,51.756-7.086c-2.994-1.474-21.826-4.901-46.119-5.811c-22.881-0.855-56.096,0.254-84.383,10.389
					c-5.536,1.983-10.035,5.92-14.386,9.728c-4.882,4.271-9.931,8.688-16.55,10.534c-13.481,3.761-28.853,2.339-42.416,1.084
					L51.73,65.96c-6.664-0.61-10.53-2.165-13.171-8.967c-0.08-0.201-0.055-0.433,0.068-0.615c0.121-0.183,0.323-0.293,0.542-0.297
					c0.019,0,0.19-0.001,0.498-0.001c23.503-0.023,39.582-0.479,40.958-1.159c0.878-0.435,1.907-1.159,1.797-2.144
					c-0.125-1.164-1.73-2.45-3.653-2.931c-6.993-1.743-30.617-2.219-38.38-2.374l-1.729-0.035c-0.362-0.01-0.654-0.305-0.654-0.668
					c-0.004-1.295-0.001-2.591,0.001-3.885l0.003-2.294c0-0.364,0.294-0.664,0.66-0.669c1.722-0.049,39.118-1.82,41.552-2.951
					c1.422-0.658,2.151-1.541,2.062-2.479c-0.112-1.141-1.423-2.231-3.186-2.658c-6.449-1.561-27.751-0.928-36.847-0.657
					c-1.398,0.041-2.507,0.075-3.224,0.091c-0.194,0.002-0.379-0.078-0.51-0.221c-0.131-0.145-0.193-0.337-0.17-0.529
					c0.505-4.289,2.416-7.187,5.838-8.856c3.584-1.748,7.739-1.888,11.757-2.019c0.956-0.033,1.896-0.064,2.812-0.117
					c1.985-0.116,3.976-0.256,5.97-0.396c7.898-0.552,16.065-1.124,24.063-0.202c3.802,0.438,7.614,1.585,11.33,3.411
					c1.324,0.648,2.734,1.509,4.311,2.625c0.303,0.214,0.374,0.631,0.161,0.934c-0.213,0.301-0.632,0.373-0.934,0.159
					c-1.518-1.073-2.868-1.896-4.128-2.517c-3.578-1.758-7.243-2.861-10.892-3.28c-7.874-0.907-15.979-0.341-23.816,0.208
					c-1.999,0.141-3.996,0.278-5.986,0.395c-0.925,0.057-1.878,0.086-2.845,0.119c-3.878,0.129-7.888,0.263-11.216,1.887
					c-2.816,1.373-4.413,3.623-4.985,7.041c0.651-0.017,1.47-0.041,2.424-0.068c9.15-0.271,30.577-0.908,37.202,0.693
					c2.344,0.566,4.033,2.104,4.203,3.828c0.152,1.523-0.88,2.922-2.832,3.826c-2.637,1.227-36.276,2.818-41.437,3.047l-0.002,1.654
					c-0.002,1.074-0.004,2.149-0.002,3.225l1.073,0.021c7.8,0.158,31.538,0.635,38.677,2.414c2.156,0.538,4.449,2.115,4.661,4.088
					c0.105,0.969-0.252,2.357-2.537,3.485c-2.19,1.084-26.409,1.28-41.037,1.3c2.38,5.443,5.618,6.652,11.669,7.207l2.113,0.193
					c13.447,1.244,28.689,2.654,41.933-1.041c6.326-1.764,11.258-6.078,16.027-10.252c4.445-3.889,9.042-7.91,14.816-9.979
					c53.222-19.066,127.159-7.656,132.028-4.227C259.102,39.556,259.268,39.832,259.268,40.143z"/>
				<path opacity="0.8" fill="#3E5256" enable-background="new    " d="M200.652,48.007c0,0.011,0,0.021-0.002,0.03
					c-0.016,0.367-0.326,0.654-0.695,0.639c-0.047-0.001-2.189-0.083-4.934-0.188c-11.924-0.449-11.931-0.45-11.953-0.451
					l-0.684-0.053c-15.109-1.172-35.802-2.773-49.999-6.979c-6.734-1.992-12.574-4.56-19.528-8.577
					c-1.273-0.734-2.551-1.537-3.904-2.391l-0.712-0.446c-0.313-0.198-0.407-0.61-0.211-0.924c0.197-0.313,0.61-0.407,0.923-0.212
					l0.714,0.449c1.341,0.845,2.608,1.643,3.86,2.363c6.857,3.961,12.611,6.489,19.239,8.451
					c14.062,4.166,34.672,5.764,49.721,6.928l0.682,0.055c0.1,0.004,6.971,0.264,11.9,0.449c2.773,0.105,4.936,0.188,4.943,0.188
					C200.373,47.357,200.652,47.652,200.652,48.007z"/>
			</g>
		</g>
	</g>
</g>
</svg>
